<svg width="70" height="117" viewBox="0 0 70 117" fill="none" xmlns="http://www.w3.org/2000/svg">
<path d="M38.2076 95.7896L21.1227 76.4267V107.749C21.1227 111.85 17.2209 114.09 13.1498 114.583C8.37344 115.162 2.89915 112.56 2.89885 107.749C2.89732 82.6927 2.8967 38.272 2.89885 12.6432C2.89929 7.4322 7.97947 3.45045 13.1498 4.1008C17.6774 4.67032 19.9853 6.94244 19.9853 11.5057V41.689M30.8062 29.7327C30.8062 29.7327 46.1826 12.0752 51.8775 5.24436C54.5834 1.99873 59.471 2.5162 62.6979 5.24436C65.9648 8.00632 67.2491 12.8679 64.4064 16.0648C50.7364 31.4381 32.5092 51.3704 27.3892 58.2074C25.4012 60.8621 63.5527 90.7373 66.79 104.37C67.4651 107.213 66.8956 108.893 65.0815 111.204C62.9105 113.971 60.6242 114.658 57.1085 114.583C51.9225 114.473 46.1826 109.462 46.1826 109.462" stroke="#F0F8FF" stroke-width="4.55596" stroke-linecap="round"/>
</svg>
