<svg width="74" height="116" viewBox="0 0 74 116" fill="none" xmlns="http://www.w3.org/2000/svg">
<path d="M2.6521 4.13899C6.63856 3.5695 7.66339 3.66299 11.7643 3.66315C23.7239 3.66362 32.2664 2.17083 43.0865 3.66315C59.6021 5.94099 70.7717 19.5419 71.5616 36.126C72.4017 53.7656 60.2773 69.0994 43.0865 73.1416C37.0246 74.567 33.4056 74.2815 27.1409 74.2815C25.4324 74.2815 23.7625 75.2423 22.5849 77.129C21.4993 78.8684 21.4457 79.6336 21.4457 81.6841C21.4457 91.3664 22.5847 97.6308 21.4457 106.742C20.8716 111.334 16.3902 113.709 11.7643 113.576C7.31809 113.448 2.65234 111.19 2.65234 106.742C2.65234 75.4205 2.65234 26.443 2.65234 26.443M21.4457 57.1966C21.4457 57.1966 21.4457 34.9863 21.4457 24.1659C21.4457 22.4574 24.4261 20.1794 27.1409 20.1794C28.8494 20.1794 30.6322 19.8792 32.8359 20.1794C42.0414 21.4337 50.5973 26.8928 51.6292 36.126C52.7841 46.4598 43.2335 55.9564 32.8359 56.0576" stroke="#F0F8FF" stroke-width="4.55596" stroke-linecap="round"/>
</svg>
