<svg width="118" height="40" viewBox="0 0 118 40" fill="none" xmlns="http://www.w3.org/2000/svg">
<path d="M35.2676 28.692C33.9876 28.692 32.7636 28.5 31.5956 28.116C30.4276 27.716 29.5076 27.204 28.8356 26.58L29.7236 24.708C30.3636 25.268 31.1796 25.732 32.1716 26.1C33.1636 26.468 34.1956 26.652 35.2676 26.652C36.2436 26.652 37.0356 26.54 37.6436 26.316C38.2516 26.092 38.6996 25.788 38.9876 25.404C39.2756 25.004 39.4196 24.556 39.4196 24.06C39.4196 23.484 39.2276 23.02 38.8436 22.668C38.4756 22.316 37.9876 22.036 37.3796 21.828C36.7876 21.604 36.1316 21.412 35.4116 21.252C34.6916 21.092 33.9636 20.908 33.2276 20.7C32.5076 20.476 31.8436 20.196 31.2356 19.86C30.6436 19.524 30.1636 19.076 29.7956 18.516C29.4276 17.94 29.2436 17.204 29.2436 16.308C29.2436 15.444 29.4676 14.652 29.9156 13.932C30.3796 13.196 31.0836 12.612 32.0276 12.18C32.9876 11.732 34.2036 11.508 35.6756 11.508C36.6516 11.508 37.6196 11.636 38.5796 11.892C39.5396 12.148 40.3716 12.516 41.0756 12.996L40.2836 14.916C39.5636 14.436 38.8036 14.092 38.0036 13.884C37.2036 13.66 36.4276 13.548 35.6756 13.548C34.7316 13.548 33.9556 13.668 33.3476 13.908C32.7396 14.148 32.2916 14.468 32.0036 14.868C31.7316 15.268 31.5956 15.716 31.5956 16.212C31.5956 16.804 31.7796 17.276 32.1476 17.628C32.5316 17.98 33.0196 18.26 33.6116 18.468C34.2196 18.676 34.8836 18.868 35.6036 19.044C36.3236 19.204 37.0436 19.388 37.7636 19.596C38.4996 19.804 39.1636 20.076 39.7556 20.412C40.3636 20.748 40.8516 21.196 41.2196 21.756C41.5876 22.316 41.7716 23.036 41.7716 23.916C41.7716 24.764 41.5396 25.556 41.0756 26.292C40.6116 27.012 39.8916 27.596 38.9156 28.044C37.9556 28.476 36.7396 28.692 35.2676 28.692ZM50.6058 28.644C49.2458 28.644 48.0458 28.364 47.0058 27.804C45.9818 27.244 45.1818 26.476 44.6058 25.5C44.0458 24.524 43.7658 23.404 43.7658 22.14C43.7658 20.876 44.0378 19.756 44.5818 18.78C45.1418 17.804 45.9018 17.044 46.8618 16.5C47.8378 15.94 48.9338 15.66 50.1498 15.66C51.3818 15.66 52.4698 15.932 53.4138 16.476C54.3578 17.02 55.0938 17.788 55.6218 18.78C56.1658 19.756 56.4378 20.9 56.4378 22.212C56.4378 22.308 56.4298 22.42 56.4138 22.548C56.4138 22.676 56.4058 22.796 56.3898 22.908H45.5658V21.252H55.1898L54.2538 21.828C54.2698 21.012 54.1018 20.284 53.7498 19.644C53.3978 19.004 52.9098 18.508 52.2858 18.156C51.6778 17.788 50.9658 17.604 50.1498 17.604C49.3498 17.604 48.6378 17.788 48.0138 18.156C47.3898 18.508 46.9018 19.012 46.5498 19.668C46.1978 20.308 46.0218 21.044 46.0218 21.876V22.26C46.0218 23.108 46.2138 23.868 46.5978 24.54C46.9978 25.196 47.5498 25.708 48.2538 26.076C48.9578 26.444 49.7658 26.628 50.6778 26.628C51.4298 26.628 52.1098 26.5 52.7178 26.244C53.3418 25.988 53.8858 25.604 54.3498 25.092L55.6218 26.58C55.0458 27.252 54.3258 27.764 53.4618 28.116C52.6138 28.468 51.6618 28.644 50.6058 28.644ZM66.4291 15.66C67.4691 15.66 68.3811 15.86 69.1651 16.26C69.9651 16.66 70.5891 17.268 71.0371 18.084C71.4851 18.9 71.7091 19.932 71.7091 21.18V28.5H69.4051V21.444C69.4051 20.212 69.1011 19.284 68.4931 18.66C67.9011 18.036 67.0611 17.724 65.9731 17.724C65.1571 17.724 64.4451 17.884 63.8371 18.204C63.2291 18.524 62.7571 18.996 62.4211 19.62C62.1011 20.244 61.9411 21.02 61.9411 21.948V28.5H59.6371V15.78H61.8451V19.212L61.4851 18.3C61.9011 17.468 62.5411 16.82 63.4051 16.356C64.2691 15.892 65.2771 15.66 66.4291 15.66ZM81.2291 28.644C79.9971 28.644 78.8931 28.372 77.9171 27.828C76.9571 27.284 76.1971 26.524 75.6371 25.548C75.0771 24.572 74.7971 23.436 74.7971 22.14C74.7971 20.844 75.0771 19.716 75.6371 18.756C76.1971 17.78 76.9571 17.02 77.9171 16.476C78.8931 15.932 79.9971 15.66 81.2291 15.66C82.3011 15.66 83.2691 15.9 84.1331 16.38C84.9971 16.86 85.6851 17.58 86.1971 18.54C86.7251 19.5 86.9891 20.7 86.9891 22.14C86.9891 23.58 86.7331 24.78 86.2211 25.74C85.7251 26.7 85.0451 27.428 84.1811 27.924C83.3171 28.404 82.3331 28.644 81.2291 28.644ZM81.4211 26.628C82.2211 26.628 82.9411 26.444 83.5811 26.076C84.2371 25.708 84.7491 25.188 85.1171 24.516C85.5011 23.828 85.6931 23.036 85.6931 22.14C85.6931 21.228 85.5011 20.444 85.1171 19.788C84.7491 19.116 84.2371 18.596 83.5811 18.228C82.9411 17.86 82.2211 17.676 81.4211 17.676C80.6051 17.676 79.8771 17.86 79.2371 18.228C78.5971 18.596 78.0851 19.116 77.7011 19.788C77.3171 20.444 77.1251 21.228 77.1251 22.14C77.1251 23.036 77.3171 23.828 77.7011 24.516C78.0851 25.188 78.5971 25.708 79.2371 26.076C79.8771 26.444 80.6051 26.628 81.4211 26.628ZM85.7651 28.5V25.068L85.9091 22.116L85.6691 19.164V10.692H87.9731V28.5H85.7651Z" fill="#57C3FF"/>
<path d="M35.3746 1.5H16.5C8.21573 1.5 1.5 8.21573 1.5 16.5V23.5C1.5 31.7843 8.21572 38.5 16.5 38.5H79.8459M45.9713 1.5H101.5C109.784 1.5 116.5 8.21573 116.5 16.5V23.5C116.5 31.7843 109.784 38.5 101.5 38.5H92.006" stroke="#57C3FF" stroke-width="1.15977"/>
</svg>
