<svg width="162" height="46" viewBox="0 0 162 46" fill="none" xmlns="http://www.w3.org/2000/svg">
<mask id="path-1-outside-1_3990_4" maskUnits="userSpaceOnUse" x="29" y="11.8184" width="104" height="20" fill="black">
<rect fill="white" x="29" y="11.8184" width="104" height="20"/>
<path d="M36.4121 31.0104C35.1321 31.0104 33.9081 30.8184 32.7401 30.4344C31.5721 30.0344 30.6521 29.5224 29.9801 28.8984L30.8681 27.0264C31.5081 27.5864 32.3241 28.0504 33.3161 28.4184C34.3081 28.7864 35.3401 28.9704 36.4121 28.9704C37.3881 28.9704 38.1801 28.8584 38.7881 28.6344C39.3961 28.4104 39.8441 28.1064 40.1321 27.7224C40.4201 27.3224 40.5641 26.8744 40.5641 26.3784C40.5641 25.8024 40.3721 25.3384 39.9881 24.9864C39.6201 24.6344 39.1321 24.3544 38.5241 24.1464C37.9321 23.9224 37.2761 23.7304 36.5561 23.5704C35.8361 23.4104 35.1081 23.2264 34.3721 23.0184C33.6521 22.7944 32.9881 22.5144 32.3801 22.1784C31.7881 21.8424 31.3081 21.3944 30.9401 20.8344C30.5721 20.2584 30.3881 19.5224 30.3881 18.6264C30.3881 17.7624 30.6121 16.9704 31.0601 16.2504C31.5241 15.5144 32.2281 14.9304 33.1721 14.4984C34.1321 14.0504 35.3481 13.8264 36.8201 13.8264C37.7961 13.8264 38.7641 13.9544 39.7241 14.2104C40.6841 14.4664 41.5161 14.8344 42.2201 15.3144L41.4281 17.2344C40.7081 16.7544 39.9481 16.4104 39.1481 16.2024C38.3481 15.9784 37.5721 15.8664 36.8201 15.8664C35.8761 15.8664 35.1001 15.9864 34.4921 16.2264C33.8841 16.4664 33.4361 16.7864 33.1481 17.1864C32.8761 17.5864 32.7401 18.0344 32.7401 18.5304C32.7401 19.1224 32.9241 19.5944 33.2921 19.9464C33.6761 20.2984 34.1641 20.5784 34.7561 20.7864C35.3641 20.9944 36.0281 21.1864 36.7481 21.3624C37.4681 21.5224 38.1881 21.7064 38.9081 21.9144C39.6441 22.1224 40.3081 22.3944 40.9001 22.7304C41.5081 23.0664 41.9961 23.5144 42.3641 24.0744C42.7321 24.6344 42.9161 25.3544 42.9161 26.2344C42.9161 27.0824 42.6841 27.8744 42.2201 28.6104C41.7561 29.3304 41.0361 29.9144 40.0601 30.3624C39.1001 30.7944 37.8841 31.0104 36.4121 31.0104ZM51.7503 30.9624C50.3903 30.9624 49.1903 30.6824 48.1503 30.1224C47.1263 29.5624 46.3263 28.7944 45.7503 27.8184C45.1903 26.8424 44.9103 25.7224 44.9103 24.4584C44.9103 23.1944 45.1823 22.0744 45.7263 21.0984C46.2863 20.1224 47.0463 19.3624 48.0063 18.8184C48.9823 18.2584 50.0783 17.9784 51.2943 17.9784C52.5263 17.9784 53.6143 18.2504 54.5583 18.7944C55.5023 19.3384 56.2383 20.1064 56.7663 21.0984C57.3103 22.0744 57.5823 23.2184 57.5823 24.5304C57.5823 24.6264 57.5743 24.7384 57.5583 24.8664C57.5583 24.9944 57.5503 25.1144 57.5343 25.2264H46.7103V23.5704H56.3343L55.3983 24.1464C55.4143 23.3304 55.2463 22.6024 54.8943 21.9624C54.5423 21.3224 54.0543 20.8264 53.4303 20.4744C52.8223 20.1064 52.1103 19.9224 51.2943 19.9224C50.4943 19.9224 49.7823 20.1064 49.1583 20.4744C48.5343 20.8264 48.0463 21.3304 47.6943 21.9864C47.3423 22.6264 47.1663 23.3624 47.1663 24.1944V24.5784C47.1663 25.4264 47.3583 26.1864 47.7423 26.8584C48.1423 27.5144 48.6943 28.0264 49.3983 28.3944C50.1023 28.7624 50.9103 28.9464 51.8223 28.9464C52.5743 28.9464 53.2543 28.8184 53.8623 28.5624C54.4863 28.3064 55.0303 27.9224 55.4943 27.4104L56.7663 28.8984C56.1903 29.5704 55.4703 30.0824 54.6063 30.4344C53.7583 30.7864 52.8063 30.9624 51.7503 30.9624ZM67.5737 17.9784C68.6137 17.9784 69.5257 18.1784 70.3097 18.5784C71.1097 18.9784 71.7337 19.5864 72.1817 20.4024C72.6297 21.2184 72.8537 22.2504 72.8537 23.4984V30.8184H70.5497V23.7624C70.5497 22.5304 70.2457 21.6024 69.6377 20.9784C69.0457 20.3544 68.2057 20.0424 67.1177 20.0424C66.3017 20.0424 65.5897 20.2024 64.9817 20.5224C64.3737 20.8424 63.9017 21.3144 63.5657 21.9384C63.2457 22.5624 63.0857 23.3384 63.0857 24.2664V30.8184H60.7817V18.0984H62.9897V21.5304L62.6297 20.6184C63.0457 19.7864 63.6857 19.1384 64.5497 18.6744C65.4137 18.2104 66.4217 17.9784 67.5737 17.9784ZM82.3736 30.9624C81.1416 30.9624 80.0376 30.6904 79.0616 30.1464C78.1016 29.6024 77.3416 28.8424 76.7816 27.8664C76.2216 26.8904 75.9416 25.7544 75.9416 24.4584C75.9416 23.1624 76.2216 22.0344 76.7816 21.0744C77.3416 20.0984 78.1016 19.3384 79.0616 18.7944C80.0376 18.2504 81.1416 17.9784 82.3736 17.9784C83.4456 17.9784 84.4136 18.2184 85.2776 18.6984C86.1416 19.1784 86.8296 19.8984 87.3416 20.8584C87.8696 21.8184 88.1336 23.0184 88.1336 24.4584C88.1336 25.8984 87.8776 27.0984 87.3656 28.0584C86.8696 29.0184 86.1896 29.7464 85.3256 30.2424C84.4616 30.7224 83.4776 30.9624 82.3736 30.9624ZM82.5656 28.9464C83.3656 28.9464 84.0856 28.7624 84.7256 28.3944C85.3816 28.0264 85.8936 27.5064 86.2616 26.8344C86.6456 26.1464 86.8376 25.3544 86.8376 24.4584C86.8376 23.5464 86.6456 22.7624 86.2616 22.1064C85.8936 21.4344 85.3816 20.9144 84.7256 20.5464C84.0856 20.1784 83.3656 19.9944 82.5656 19.9944C81.7496 19.9944 81.0216 20.1784 80.3816 20.5464C79.7416 20.9144 79.2296 21.4344 78.8456 22.1064C78.4616 22.7624 78.2696 23.5464 78.2696 24.4584C78.2696 25.3544 78.4616 26.1464 78.8456 26.8344C79.2296 27.5064 79.7416 28.0264 80.3816 28.3944C81.0216 28.7624 81.7496 28.9464 82.5656 28.9464ZM86.9096 30.8184V27.3864L87.0536 24.4344L86.8136 21.4824V13.0104H89.1176V30.8184H86.9096ZM107.77 31.0104C106.49 31.0104 105.306 30.8024 104.218 30.3864C103.146 29.9544 102.21 29.3544 101.41 28.5864C100.626 27.8024 100.01 26.8904 99.5623 25.8504C99.1143 24.8104 98.8903 23.6664 98.8903 22.4184C98.8903 21.1704 99.1143 20.0264 99.5623 18.9864C100.01 17.9464 100.634 17.0424 101.434 16.2744C102.234 15.4904 103.17 14.8904 104.242 14.4744C105.33 14.0424 106.514 13.8264 107.794 13.8264C109.09 13.8264 110.282 14.0504 111.37 14.4984C112.474 14.9304 113.41 15.5784 114.178 16.4424L112.618 17.9544C111.978 17.2824 111.258 16.7864 110.458 16.4664C109.658 16.1304 108.802 15.9624 107.89 15.9624C106.946 15.9624 106.066 16.1224 105.25 16.4424C104.45 16.7624 103.754 17.2104 103.162 17.7864C102.57 18.3624 102.106 19.0504 101.77 19.8504C101.45 20.6344 101.29 21.4904 101.29 22.4184C101.29 23.3464 101.45 24.2104 101.77 25.0104C102.106 25.7944 102.57 26.4744 103.162 27.0504C103.754 27.6264 104.45 28.0744 105.25 28.3944C106.066 28.7144 106.946 28.8744 107.89 28.8744C108.802 28.8744 109.658 28.7144 110.458 28.3944C111.258 28.0584 111.978 27.5464 112.618 26.8584L114.178 28.3704C113.41 29.2344 112.474 29.8904 111.37 30.3384C110.282 30.7864 109.082 31.0104 107.77 31.0104ZM122.286 30.8184L114.894 14.0184H117.486L124.278 29.5224H122.79L129.63 14.0184H132.03L124.662 30.8184H122.286Z"/>
</mask>
<path d="M36.4121 31.0104C35.1321 31.0104 33.9081 30.8184 32.7401 30.4344C31.5721 30.0344 30.6521 29.5224 29.9801 28.8984L30.8681 27.0264C31.5081 27.5864 32.3241 28.0504 33.3161 28.4184C34.3081 28.7864 35.3401 28.9704 36.4121 28.9704C37.3881 28.9704 38.1801 28.8584 38.7881 28.6344C39.3961 28.4104 39.8441 28.1064 40.1321 27.7224C40.4201 27.3224 40.5641 26.8744 40.5641 26.3784C40.5641 25.8024 40.3721 25.3384 39.9881 24.9864C39.6201 24.6344 39.1321 24.3544 38.5241 24.1464C37.9321 23.9224 37.2761 23.7304 36.5561 23.5704C35.8361 23.4104 35.1081 23.2264 34.3721 23.0184C33.6521 22.7944 32.9881 22.5144 32.3801 22.1784C31.7881 21.8424 31.3081 21.3944 30.9401 20.8344C30.5721 20.2584 30.3881 19.5224 30.3881 18.6264C30.3881 17.7624 30.6121 16.9704 31.0601 16.2504C31.5241 15.5144 32.2281 14.9304 33.1721 14.4984C34.1321 14.0504 35.3481 13.8264 36.8201 13.8264C37.7961 13.8264 38.7641 13.9544 39.7241 14.2104C40.6841 14.4664 41.5161 14.8344 42.2201 15.3144L41.4281 17.2344C40.7081 16.7544 39.9481 16.4104 39.1481 16.2024C38.3481 15.9784 37.5721 15.8664 36.8201 15.8664C35.8761 15.8664 35.1001 15.9864 34.4921 16.2264C33.8841 16.4664 33.4361 16.7864 33.1481 17.1864C32.8761 17.5864 32.7401 18.0344 32.7401 18.5304C32.7401 19.1224 32.9241 19.5944 33.2921 19.9464C33.6761 20.2984 34.1641 20.5784 34.7561 20.7864C35.3641 20.9944 36.0281 21.1864 36.7481 21.3624C37.4681 21.5224 38.1881 21.7064 38.9081 21.9144C39.6441 22.1224 40.3081 22.3944 40.9001 22.7304C41.5081 23.0664 41.9961 23.5144 42.3641 24.0744C42.7321 24.6344 42.9161 25.3544 42.9161 26.2344C42.9161 27.0824 42.6841 27.8744 42.2201 28.6104C41.7561 29.3304 41.0361 29.9144 40.0601 30.3624C39.1001 30.7944 37.8841 31.0104 36.4121 31.0104ZM51.7503 30.9624C50.3903 30.9624 49.1903 30.6824 48.1503 30.1224C47.1263 29.5624 46.3263 28.7944 45.7503 27.8184C45.1903 26.8424 44.9103 25.7224 44.9103 24.4584C44.9103 23.1944 45.1823 22.0744 45.7263 21.0984C46.2863 20.1224 47.0463 19.3624 48.0063 18.8184C48.9823 18.2584 50.0783 17.9784 51.2943 17.9784C52.5263 17.9784 53.6143 18.2504 54.5583 18.7944C55.5023 19.3384 56.2383 20.1064 56.7663 21.0984C57.3103 22.0744 57.5823 23.2184 57.5823 24.5304C57.5823 24.6264 57.5743 24.7384 57.5583 24.8664C57.5583 24.9944 57.5503 25.1144 57.5343 25.2264H46.7103V23.5704H56.3343L55.3983 24.1464C55.4143 23.3304 55.2463 22.6024 54.8943 21.9624C54.5423 21.3224 54.0543 20.8264 53.4303 20.4744C52.8223 20.1064 52.1103 19.9224 51.2943 19.9224C50.4943 19.9224 49.7823 20.1064 49.1583 20.4744C48.5343 20.8264 48.0463 21.3304 47.6943 21.9864C47.3423 22.6264 47.1663 23.3624 47.1663 24.1944V24.5784C47.1663 25.4264 47.3583 26.1864 47.7423 26.8584C48.1423 27.5144 48.6943 28.0264 49.3983 28.3944C50.1023 28.7624 50.9103 28.9464 51.8223 28.9464C52.5743 28.9464 53.2543 28.8184 53.8623 28.5624C54.4863 28.3064 55.0303 27.9224 55.4943 27.4104L56.7663 28.8984C56.1903 29.5704 55.4703 30.0824 54.6063 30.4344C53.7583 30.7864 52.8063 30.9624 51.7503 30.9624ZM67.5737 17.9784C68.6137 17.9784 69.5257 18.1784 70.3097 18.5784C71.1097 18.9784 71.7337 19.5864 72.1817 20.4024C72.6297 21.2184 72.8537 22.2504 72.8537 23.4984V30.8184H70.5497V23.7624C70.5497 22.5304 70.2457 21.6024 69.6377 20.9784C69.0457 20.3544 68.2057 20.0424 67.1177 20.0424C66.3017 20.0424 65.5897 20.2024 64.9817 20.5224C64.3737 20.8424 63.9017 21.3144 63.5657 21.9384C63.2457 22.5624 63.0857 23.3384 63.0857 24.2664V30.8184H60.7817V18.0984H62.9897V21.5304L62.6297 20.6184C63.0457 19.7864 63.6857 19.1384 64.5497 18.6744C65.4137 18.2104 66.4217 17.9784 67.5737 17.9784ZM82.3736 30.9624C81.1416 30.9624 80.0376 30.6904 79.0616 30.1464C78.1016 29.6024 77.3416 28.8424 76.7816 27.8664C76.2216 26.8904 75.9416 25.7544 75.9416 24.4584C75.9416 23.1624 76.2216 22.0344 76.7816 21.0744C77.3416 20.0984 78.1016 19.3384 79.0616 18.7944C80.0376 18.2504 81.1416 17.9784 82.3736 17.9784C83.4456 17.9784 84.4136 18.2184 85.2776 18.6984C86.1416 19.1784 86.8296 19.8984 87.3416 20.8584C87.8696 21.8184 88.1336 23.0184 88.1336 24.4584C88.1336 25.8984 87.8776 27.0984 87.3656 28.0584C86.8696 29.0184 86.1896 29.7464 85.3256 30.2424C84.4616 30.7224 83.4776 30.9624 82.3736 30.9624ZM82.5656 28.9464C83.3656 28.9464 84.0856 28.7624 84.7256 28.3944C85.3816 28.0264 85.8936 27.5064 86.2616 26.8344C86.6456 26.1464 86.8376 25.3544 86.8376 24.4584C86.8376 23.5464 86.6456 22.7624 86.2616 22.1064C85.8936 21.4344 85.3816 20.9144 84.7256 20.5464C84.0856 20.1784 83.3656 19.9944 82.5656 19.9944C81.7496 19.9944 81.0216 20.1784 80.3816 20.5464C79.7416 20.9144 79.2296 21.4344 78.8456 22.1064C78.4616 22.7624 78.2696 23.5464 78.2696 24.4584C78.2696 25.3544 78.4616 26.1464 78.8456 26.8344C79.2296 27.5064 79.7416 28.0264 80.3816 28.3944C81.0216 28.7624 81.7496 28.9464 82.5656 28.9464ZM86.9096 30.8184V27.3864L87.0536 24.4344L86.8136 21.4824V13.0104H89.1176V30.8184H86.9096ZM107.77 31.0104C106.49 31.0104 105.306 30.8024 104.218 30.3864C103.146 29.9544 102.21 29.3544 101.41 28.5864C100.626 27.8024 100.01 26.8904 99.5623 25.8504C99.1143 24.8104 98.8903 23.6664 98.8903 22.4184C98.8903 21.1704 99.1143 20.0264 99.5623 18.9864C100.01 17.9464 100.634 17.0424 101.434 16.2744C102.234 15.4904 103.17 14.8904 104.242 14.4744C105.33 14.0424 106.514 13.8264 107.794 13.8264C109.09 13.8264 110.282 14.0504 111.37 14.4984C112.474 14.9304 113.41 15.5784 114.178 16.4424L112.618 17.9544C111.978 17.2824 111.258 16.7864 110.458 16.4664C109.658 16.1304 108.802 15.9624 107.89 15.9624C106.946 15.9624 106.066 16.1224 105.25 16.4424C104.45 16.7624 103.754 17.2104 103.162 17.7864C102.57 18.3624 102.106 19.0504 101.77 19.8504C101.45 20.6344 101.29 21.4904 101.29 22.4184C101.29 23.3464 101.45 24.2104 101.77 25.0104C102.106 25.7944 102.57 26.4744 103.162 27.0504C103.754 27.6264 104.45 28.0744 105.25 28.3944C106.066 28.7144 106.946 28.8744 107.89 28.8744C108.802 28.8744 109.658 28.7144 110.458 28.3944C111.258 28.0584 111.978 27.5464 112.618 26.8584L114.178 28.3704C113.41 29.2344 112.474 29.8904 111.37 30.3384C110.282 30.7864 109.082 31.0104 107.77 31.0104ZM122.286 30.8184L114.894 14.0184H117.486L124.278 29.5224H122.79L129.63 14.0184H132.03L124.662 30.8184H122.286Z" fill="#57C3FF"/>
<path d="M32.7401 30.4344L32.5521 30.9832L32.5589 30.9854L32.7401 30.4344ZM29.9801 28.8984L29.456 28.6498L29.2737 29.034L29.5854 29.3234L29.9801 28.8984ZM30.8681 27.0264L31.2501 26.5898L30.6728 26.0847L30.344 26.7778L30.8681 27.0264ZM33.3161 28.4184L33.1143 28.9622L33.3161 28.4184ZM38.7881 28.6344L38.9886 29.1787L38.7881 28.6344ZM40.1321 27.7224L40.5962 28.0705L40.6028 28.0613L40.1321 27.7224ZM39.9881 24.9864L39.5871 25.4056L39.5961 25.414L39.9881 24.9864ZM38.5241 24.1464L38.3188 24.6889L38.3275 24.6922L38.3363 24.6952L38.5241 24.1464ZM36.5561 23.5704L36.6819 23.0041L36.5561 23.5704ZM34.3721 23.0184L34.1998 23.5722L34.207 23.5745L34.2143 23.5766L34.3721 23.0184ZM32.3801 22.1784L32.0938 22.6829L32.0995 22.6861L32.3801 22.1784ZM30.9401 20.8344L30.4512 21.1467L30.4553 21.1529L30.9401 20.8344ZM31.0601 16.2504L30.5694 15.941L30.5676 15.9439L31.0601 16.2504ZM33.1721 14.4984L33.4135 15.0258L33.4174 15.024L33.1721 14.4984ZM42.2201 15.3144L42.7563 15.5356L42.9359 15.1003L42.5469 14.8351L42.2201 15.3144ZM41.4281 17.2344L41.1063 17.717L41.6947 18.1092L41.9643 17.4556L41.4281 17.2344ZM39.1481 16.2024L38.9917 16.761L39.0021 16.7638L39.1481 16.2024ZM33.1481 17.1864L32.6774 16.8474L32.6728 16.8537L32.6684 16.8602L33.1481 17.1864ZM33.2921 19.9464L32.8911 20.3656L32.9001 20.374L33.2921 19.9464ZM34.7561 20.7864L34.5638 21.3336L34.5683 21.3352L34.7561 20.7864ZM36.7481 21.3624L36.6103 21.926L36.6223 21.9286L36.7481 21.3624ZM38.9081 21.9144L38.7471 22.4716L38.7503 22.4726L38.9081 21.9144ZM40.9001 22.7304L40.6138 23.2349L40.6195 23.2381L40.9001 22.7304ZM42.3641 24.0744L42.8489 23.7558L42.3641 24.0744ZM42.2201 28.6104L42.7077 28.9246L42.7108 28.9197L42.2201 28.6104ZM40.0601 30.3624L40.2981 30.8913L40.3021 30.8895L40.0601 30.3624ZM36.4121 30.4303C35.1911 30.4303 34.0284 30.2473 32.9213 29.8833L32.5589 30.9854C33.7878 31.3894 35.0731 31.5904 36.4121 31.5904V30.4303ZM32.928 29.8856C31.8117 29.5033 30.9705 29.0264 30.3748 28.4733L29.5854 29.3234C30.3337 30.0183 31.3325 30.5654 32.5522 30.9831L32.928 29.8856ZM30.5042 29.147L31.3922 27.275L30.344 26.7778L29.456 28.6498L30.5042 29.147ZM30.4861 27.4629C31.1904 28.0791 32.0718 28.5755 33.1143 28.9622L33.5178 27.8745C32.5764 27.5253 31.8258 27.0936 31.2501 26.5898L30.4861 27.4629ZM33.1143 28.9622C34.1718 29.3545 35.2722 29.5504 36.4121 29.5504V28.3903C35.408 28.3903 34.4444 28.2182 33.5178 27.8745L33.1143 28.9622ZM36.4121 29.5504C37.4254 29.5504 38.2926 29.4351 38.9886 29.1787L38.5876 28.0901C38.0676 28.2816 37.3508 28.3903 36.4121 28.3903V29.5504ZM38.9886 29.1787C39.6658 28.9292 40.2214 28.5701 40.5961 28.0704L39.668 27.3743C39.4668 27.6426 39.1264 27.8916 38.5876 28.0901L38.9886 29.1787ZM40.6028 28.0613C40.9624 27.5619 41.1442 26.9952 41.1442 26.3784H39.984C39.984 26.7535 39.8778 27.0828 39.6614 27.3834L40.6028 28.0613ZM41.1442 26.3784C41.1442 25.6589 40.8973 25.0329 40.3801 24.5588L39.5961 25.414C39.8469 25.6438 39.984 25.9458 39.984 26.3784H41.1442ZM40.389 24.5672C39.9465 24.1439 39.3793 23.8259 38.7119 23.5975L38.3363 24.6952C38.8849 24.8829 39.2937 25.1249 39.5871 25.4055L40.389 24.5672ZM38.7294 23.6038C38.1077 23.3686 37.4246 23.1692 36.6819 23.0041L36.4303 24.1366C37.1275 24.2916 37.7565 24.4761 38.3188 24.6889L38.7294 23.6038ZM36.6819 23.0041C35.973 22.8466 35.2557 22.6653 34.5298 22.4602L34.2143 23.5766C34.9605 23.7874 35.6992 23.9741 36.4303 24.1366L36.6819 23.0041ZM34.5444 22.4645C33.8588 22.2512 33.2315 21.9861 32.6607 21.6707L32.0995 22.6861C32.7447 23.0426 33.4454 23.3375 34.1998 23.5722L34.5444 22.4645ZM32.6664 21.6739C32.153 21.3825 31.7415 20.9977 31.4249 20.5158L30.4553 21.1529C30.8746 21.791 31.4231 22.3022 32.0938 22.6828L32.6664 21.6739ZM31.4289 20.5221C31.1364 20.0642 30.9682 19.4455 30.9682 18.6264H29.808C29.808 19.5993 30.0078 20.4525 30.4513 21.1467L31.4289 20.5221ZM30.9682 18.6264C30.9682 17.8685 31.163 17.183 31.5526 16.5568L30.5676 15.9439C30.0612 16.7577 29.808 17.6562 29.808 18.6264H30.9682ZM31.5508 16.5597C31.9439 15.9362 32.5519 15.4201 33.4135 15.0258L32.9307 13.9709C31.9043 14.4406 31.1043 15.0925 30.5694 15.941L31.5508 16.5597ZM33.4174 15.024C34.2768 14.623 35.4019 14.4064 36.8201 14.4064V13.2463C35.2943 13.2463 33.9874 13.4778 32.9268 13.9727L33.4174 15.024ZM36.8201 14.4064C37.7447 14.4064 38.6625 14.5276 39.5746 14.7708L39.8736 13.6499C38.8657 13.3811 37.8475 13.2463 36.8201 13.2463V14.4064ZM39.5746 14.7708C40.4817 15.0127 41.2516 15.3561 41.8933 15.7936L42.5469 14.8351C41.7806 14.3127 40.8865 13.92 39.8736 13.6499L39.5746 14.7708ZM41.6839 15.0932L40.8919 17.0132L41.9643 17.4556L42.7563 15.5356L41.6839 15.0932ZM41.7499 16.7517C40.9786 16.2375 40.1595 15.866 39.2941 15.641L39.0021 16.7638C39.7367 16.9547 40.4376 17.2712 41.1063 17.717L41.7499 16.7517ZM39.3045 15.6438C38.4589 15.407 37.6302 15.2863 36.8201 15.2863V16.4464C37.514 16.4464 38.2373 16.5497 38.9917 16.7609L39.3045 15.6438ZM36.8201 15.2863C35.8329 15.2863 34.9779 15.411 34.2791 15.6868L34.7051 16.7659C35.2223 16.5618 35.9193 16.4464 36.8201 16.4464V15.2863ZM34.2791 15.6868C33.6007 15.9546 33.0483 16.3322 32.6774 16.8474L33.6188 17.5253C33.8239 17.2405 34.1675 16.9781 34.7051 16.7659L34.2791 15.6868ZM32.6684 16.8602C32.3293 17.3589 32.16 17.9212 32.16 18.5304H33.3202C33.3202 18.1475 33.4229 17.8138 33.6278 17.5125L32.6684 16.8602ZM32.16 18.5304C32.16 19.2527 32.39 19.8861 32.8911 20.3655L33.693 19.5272C33.4582 19.3026 33.3202 18.9921 33.3202 18.5304H32.16ZM32.9001 20.374C33.3525 20.7886 33.9127 21.1048 34.5638 21.3336L34.9484 20.2391C34.4155 20.0519 33.9997 19.8081 33.6841 19.5188L32.9001 20.374ZM34.5683 21.3352C35.195 21.5496 35.876 21.7463 36.6104 21.9258L36.8858 20.7989C36.1802 20.6264 35.5331 20.4391 34.9439 20.2375L34.5683 21.3352ZM36.6223 21.9286C37.3303 22.0859 38.0385 22.2669 38.7471 22.4716L39.0691 21.3571C38.3376 21.1458 37.6059 20.9588 36.8739 20.7961L36.6223 21.9286ZM38.7503 22.4726C39.4469 22.6694 40.0669 22.9245 40.6138 23.2348L41.1864 22.2259C40.5492 21.8643 39.8413 21.5753 39.0658 21.3562L38.7503 22.4726ZM40.6195 23.2381C41.1483 23.5302 41.565 23.9145 41.8793 24.3929L42.8489 23.7558C42.4272 23.1142 41.8679 22.6025 41.1807 22.2227L40.6195 23.2381ZM41.8793 24.3929C42.1684 24.8328 42.336 25.4327 42.336 26.2344H43.4962C43.4962 25.276 43.2958 24.4359 42.8489 23.7558L41.8793 24.3929ZM42.336 26.2344C42.336 26.9699 42.1366 27.6551 41.7294 28.301L42.7108 28.9197C43.2316 28.0936 43.4962 27.1948 43.4962 26.2344H42.336ZM41.7325 28.2961C41.3419 28.9022 40.719 29.4216 39.8181 29.8352L40.3021 30.8895C41.3532 30.4071 42.1703 29.7585 42.7077 28.9246L41.7325 28.2961ZM39.8221 29.8334C38.9605 30.2211 37.8325 30.4303 36.4121 30.4303V31.5904C37.9356 31.5904 39.2397 31.3676 40.2981 30.8913L39.8221 29.8334ZM48.1503 30.1224L47.872 30.6313L47.8753 30.6331L48.1503 30.1224ZM45.7503 27.8184L45.2472 28.1071L45.2508 28.1132L45.7503 27.8184ZM45.7263 21.0984L45.2232 20.8097L45.2197 20.816L45.7263 21.0984ZM48.0063 18.8184L48.2923 19.323L48.295 19.3215L48.0063 18.8184ZM54.5583 18.7944L54.848 18.2918H54.848L54.5583 18.7944ZM56.7663 21.0984L56.2542 21.371L56.2597 21.3808L56.7663 21.0984ZM57.5583 24.8664L56.9828 24.7944L56.9783 24.8302V24.8664H57.5583ZM57.5343 25.2264V25.8064H58.0374L58.1086 25.3084L57.5343 25.2264ZM46.7103 25.2264H46.1303V25.8064H46.7103V25.2264ZM46.7103 23.5704V22.9903H46.1303V23.5704H46.7103ZM56.3343 23.5704L56.6384 24.0644L58.3837 22.9903H56.3343V23.5704ZM55.3983 24.1464L54.8184 24.135L54.7976 25.1972L55.7024 24.6404L55.3983 24.1464ZM54.8943 21.9624L55.4026 21.6828V21.6828L54.8943 21.9624ZM53.4303 20.4744L53.13 20.9706L53.1376 20.9752L53.1453 20.9796L53.4303 20.4744ZM49.1583 20.4744L49.4434 20.9797L49.453 20.974L49.1583 20.4744ZM47.6943 21.9864L48.2026 22.2659L48.2055 22.2606L47.6943 21.9864ZM47.7423 26.8584L47.2387 27.1462L47.2428 27.1533L47.2471 27.1603L47.7423 26.8584ZM49.3983 28.3944L49.6671 27.8803L49.3983 28.3944ZM53.8623 28.5624L53.6422 28.0257L53.6372 28.0278L53.8623 28.5624ZM55.4943 27.4104L55.9353 27.0334L55.5071 26.5325L55.0645 27.0208L55.4943 27.4104ZM56.7663 28.8984L57.2068 29.2759L57.5299 28.8989L57.2073 28.5214L56.7663 28.8984ZM54.6063 30.4344L54.3875 29.8972L54.384 29.8986L54.6063 30.4344ZM51.7503 30.3823C50.4717 30.3823 49.3688 30.1196 48.4254 29.6116L47.8753 30.6331C49.0119 31.2451 50.309 31.5424 51.7503 31.5424V30.3823ZM48.4287 29.6134C47.4935 29.102 46.7711 28.4068 46.2499 27.5235L45.2508 28.1132C45.8815 29.1819 46.7592 30.0227 47.872 30.6313L48.4287 29.6134ZM46.2535 27.5297C45.7499 26.652 45.4904 25.6338 45.4904 24.4584H44.3303C44.3303 25.8109 44.6308 27.0327 45.2472 28.107L46.2535 27.5297ZM45.4904 24.4584C45.4904 23.28 45.7432 22.2596 46.233 21.3808L45.2197 20.816C44.6215 21.8891 44.3303 23.1087 44.3303 24.4584H45.4904ZM46.2295 21.387C46.7388 20.4993 47.4246 19.8147 48.2923 19.323L47.7204 18.3137C46.6681 18.91 45.8339 19.7454 45.2232 20.8097L46.2295 21.387ZM48.295 19.3215C49.1761 18.8159 50.1712 18.5584 51.2943 18.5584V17.3983C49.9855 17.3983 48.7886 17.7008 47.7177 18.3152L48.295 19.3215ZM51.2943 18.5584C52.4382 18.5584 53.4238 18.8101 54.2687 19.2969L54.848 18.2918C53.8048 17.6907 52.6145 17.3983 51.2943 17.3983V18.5584ZM54.2687 19.2969C55.1154 19.7849 55.7757 20.4717 56.2543 21.3709L57.2784 20.8258C56.701 19.741 55.8893 18.8919 54.848 18.2918L54.2687 19.2969ZM56.2597 21.3808C56.7478 22.2565 57.0023 23.2999 57.0023 24.5304H58.1624C58.1624 23.1368 57.8729 21.8922 57.273 20.816L56.2597 21.3808ZM57.0023 24.5304C57.0023 24.5957 56.9967 24.6827 56.9828 24.7944L58.1339 24.9383C58.152 24.794 58.1624 24.657 58.1624 24.5304H57.0023ZM56.9783 24.8664C56.9783 24.9704 56.9718 25.0628 56.9601 25.1443L58.1086 25.3084C58.1289 25.166 58.1384 25.0183 58.1384 24.8664H56.9783ZM57.5343 24.6463H46.7103V25.8064H57.5343V24.6463ZM47.2904 25.2264V23.5704H46.1303V25.2264H47.2904ZM46.7103 24.1504H56.3343V22.9903H46.7103V24.1504ZM56.0303 23.0763L55.0943 23.6523L55.7024 24.6404L56.6384 24.0644L56.0303 23.0763ZM55.9783 24.1577C55.996 23.2523 55.8091 22.4219 55.4026 21.6828L54.3861 22.2419C54.6836 22.7828 54.8326 23.4084 54.8184 24.135L55.9783 24.1577ZM55.4026 21.6828C54.9997 20.9502 54.4352 20.3752 53.7153 19.9691L53.1453 20.9796C53.6735 21.2775 54.085 21.6945 54.3861 22.2419L55.4026 21.6828ZM53.7307 19.9781C53.0193 19.5476 52.2003 19.3423 51.2943 19.3423V20.5024C52.0204 20.5024 52.6253 20.6652 53.13 20.9706L53.7307 19.9781ZM51.2943 19.3423C50.4018 19.3423 49.5861 19.5487 48.8637 19.9747L49.453 20.974C49.9786 20.664 50.5869 20.5024 51.2943 20.5024V19.3423ZM48.8733 19.9691C48.1497 20.3773 47.585 20.9632 47.1832 21.7121L48.2055 22.2606C48.5076 21.6975 48.9189 21.2754 49.4433 20.9796L48.8733 19.9691ZM47.1861 21.7068C46.7808 22.4438 46.5863 23.2784 46.5863 24.1944H47.7464C47.7464 23.4463 47.9039 22.809 48.2026 22.2659L47.1861 21.7068ZM46.5863 24.1944V24.5784H47.7464V24.1944H46.5863ZM46.5863 24.5784C46.5863 25.5174 46.7999 26.3783 47.2387 27.1462L48.246 26.5706C47.9168 25.9944 47.7464 25.3353 47.7464 24.5784H46.5863ZM47.2471 27.1603C47.7039 27.9094 48.3356 28.4934 49.1296 28.9084L49.6671 27.8803C49.0531 27.5594 48.5808 27.1193 48.2376 26.5564L47.2471 27.1603ZM49.1296 28.9084C49.9281 29.3258 50.8307 29.5264 51.8223 29.5264V28.3663C50.99 28.3663 50.2766 28.1989 49.6671 27.8803L49.1296 28.9084ZM51.8223 29.5264C52.6409 29.5264 53.3989 29.3869 54.0874 29.097L53.6372 28.0278C53.1098 28.2498 52.5078 28.3663 51.8223 28.3663V29.5264ZM54.0825 29.099C54.7885 28.8094 55.4036 28.3743 55.9242 27.7999L55.0645 27.0208C54.6571 27.4704 54.1842 27.8033 53.6422 28.0257L54.0825 29.099ZM55.0534 27.7873L56.3254 29.2753L57.2073 28.5214L55.9353 27.0334L55.0534 27.7873ZM56.3259 28.5209C55.8133 29.119 55.1707 29.5781 54.3875 29.8972L54.8252 30.9715C55.7699 30.5867 56.5674 30.0218 57.2068 29.2759L56.3259 28.5209ZM54.384 29.8986C53.6162 30.2173 52.7414 30.3823 51.7503 30.3823V31.5424C52.8713 31.5424 53.9005 31.3554 54.8287 30.9701L54.384 29.8986ZM70.3097 18.5784L70.046 19.0951L70.0502 19.0972L70.3097 18.5784ZM72.8537 30.8184V31.3984H73.4337V30.8184H72.8537ZM70.5497 30.8184H69.9696V31.3984H70.5497V30.8184ZM69.6377 20.9784L69.2168 21.3776L69.2222 21.3832L69.6377 20.9784ZM64.9817 20.5224L64.7115 20.0091L64.9817 20.5224ZM63.5657 21.9384L63.0548 21.6633L63.0495 21.6737L63.5657 21.9384ZM63.0857 30.8184V31.3984H63.6657V30.8184H63.0857ZM60.7817 30.8184H60.2016V31.3984H60.7817V30.8184ZM60.7817 18.0984V17.5183H60.2016V18.0984H60.7817ZM62.9897 18.0984H63.5697V17.5183H62.9897V18.0984ZM62.9897 21.5304L62.4501 21.7433L63.5697 21.5304H62.9897ZM62.6297 20.6184L62.1108 20.3589L61.995 20.5905L62.0901 20.8313L62.6297 20.6184ZM64.5497 18.6744L64.2752 18.1633L64.5497 18.6744ZM67.5737 18.5584C68.5386 18.5584 69.3573 18.7436 70.046 19.0951L70.5733 18.0617C69.6941 17.6131 68.6887 17.3983 67.5737 17.3983V18.5584ZM70.0502 19.0972C70.7403 19.4422 71.2795 19.9644 71.6732 20.6815L72.6901 20.1232C72.1878 19.2083 71.479 18.5145 70.5691 18.0595L70.0502 19.0972ZM71.6732 20.6815C72.0609 21.3878 72.2736 22.316 72.2736 23.4984H73.4337C73.4337 22.1847 73.1984 21.049 72.6901 20.1232L71.6732 20.6815ZM72.2736 23.4984V30.8184H73.4337V23.4984H72.2736ZM72.8537 30.2383H70.5497V31.3984H72.8537V30.2383ZM71.1297 30.8184V23.7624H69.9696V30.8184H71.1297ZM71.1297 23.7624C71.1297 22.4422 70.8037 21.3439 70.0531 20.5736L69.2222 21.3832C69.6876 21.8608 69.9696 22.6185 69.9696 23.7624H71.1297ZM70.0585 20.5791C69.3296 19.8108 68.3201 19.4623 67.1177 19.4623V20.6224C68.0912 20.6224 68.7618 20.8979 69.2168 21.3776L70.0585 20.5791ZM67.1177 19.4623C66.2251 19.4623 65.4171 19.6377 64.7115 20.0091L65.2518 21.0357C65.7622 20.767 66.3782 20.6224 67.1177 20.6224V19.4623ZM64.7115 20.0091C63.998 20.3846 63.4438 20.9412 63.0549 21.6634L64.0764 22.2134C64.3595 21.6876 64.7493 21.3002 65.2518 21.0357L64.7115 20.0091ZM63.0495 21.6737C62.6762 22.4017 62.5056 23.2749 62.5056 24.2664H63.6657C63.6657 23.4018 63.8152 22.723 64.0818 22.2031L63.0495 21.6737ZM62.5056 24.2664V30.8184H63.6657V24.2664H62.5056ZM63.0857 30.2383H60.7817V31.3984H63.0857V30.2383ZM61.3617 30.8184V18.0984H60.2016V30.8184H61.3617ZM60.7817 18.6784H62.9897V17.5183H60.7817V18.6784ZM62.4096 18.0984V21.5304H63.5697V18.0984H62.4096ZM63.5292 21.3174L63.1692 20.4054L62.0901 20.8313L62.4501 21.7433L63.5292 21.3174ZM63.1485 20.8778C63.5079 20.1589 64.0595 19.596 64.8241 19.1854L64.2752 18.1633C63.3118 18.6807 62.5834 19.4139 62.1108 20.3589L63.1485 20.8778ZM64.8241 19.1854C65.5901 18.774 66.5007 18.5584 67.5737 18.5584V17.3983C66.3426 17.3983 65.2372 17.6467 64.2752 18.1633L64.8241 19.1854ZM79.0616 30.1464L78.7756 30.651L78.7792 30.653L79.0616 30.1464ZM76.7816 27.8664L77.2847 27.5777L76.7816 27.8664ZM76.7816 21.0744L77.2826 21.3666L77.2847 21.363L76.7816 21.0744ZM79.0616 18.7944L78.7792 18.2877L78.7756 18.2897L79.0616 18.7944ZM85.2776 18.6984L84.9959 19.2054L85.2776 18.6984ZM87.3416 20.8584L86.8297 21.1314L86.8333 21.1379L87.3416 20.8584ZM87.3656 28.0584L86.8537 27.7854L86.8503 27.7921L87.3656 28.0584ZM85.3256 30.2424L85.6073 30.7495L85.6144 30.7454L85.3256 30.2424ZM84.7256 28.3944L84.4418 27.8884L84.4365 27.8915L84.7256 28.3944ZM86.2616 26.8344L85.7551 26.5516L85.7528 26.5557L86.2616 26.8344ZM86.2616 22.1064L85.7528 22.385L85.7568 22.3922L85.761 22.3994L86.2616 22.1064ZM84.7256 20.5464L84.4364 21.0492L84.4418 21.0523L84.7256 20.5464ZM78.8456 22.1064L79.3462 22.3994L79.3492 22.3941L78.8456 22.1064ZM78.8456 26.8344L78.3391 27.1171L78.342 27.1222L78.8456 26.8344ZM86.9096 30.8184H86.3295V31.3984H86.9096V30.8184ZM86.9096 27.3864L86.3302 27.3581L86.3295 27.3722V27.3864H86.9096ZM87.0536 24.4344L87.633 24.4626L87.6348 24.4249L87.6317 24.3874L87.0536 24.4344ZM86.8136 21.4824H86.2335V21.5059L86.2354 21.5294L86.8136 21.4824ZM86.8136 13.0104V12.4303H86.2335V13.0104H86.8136ZM89.1176 13.0104H89.6977V12.4303H89.1176V13.0104ZM89.1176 30.8184V31.3984H89.6977V30.8184H89.1176ZM82.3736 30.3823C81.2301 30.3823 80.225 30.1307 79.344 29.6397L78.7792 30.653C79.8502 31.25 81.0531 31.5424 82.3736 31.5424V30.3823ZM79.3476 29.6417C78.4799 29.15 77.7941 28.4654 77.2847 27.5777L76.2785 28.155C76.8891 29.2193 77.7233 30.0547 78.7756 30.651L79.3476 29.6417ZM77.2847 27.5777C76.7824 26.7021 76.5217 25.6686 76.5217 24.4584H75.3615C75.3615 25.8401 75.6608 27.0786 76.2785 28.155L77.2847 27.5777ZM76.5217 24.4584C76.5217 23.2478 76.7824 22.2241 77.2826 21.3666L76.2805 20.7821C75.6608 21.8446 75.3615 23.0769 75.3615 24.4584H76.5217ZM77.2847 21.363C77.7941 20.4753 78.4799 19.7907 79.3476 19.299L78.7756 18.2897C77.7233 18.886 76.8891 19.7214 76.2785 20.7857L77.2847 21.363ZM79.344 19.301C80.225 18.81 81.2301 18.5584 82.3736 18.5584V17.3983C81.0531 17.3983 79.8502 17.6907 78.7792 18.2877L79.344 19.301ZM82.3736 18.5584C83.3556 18.5584 84.2253 18.7773 84.9959 19.2054L85.5593 18.1913C84.6019 17.6594 83.5356 17.3983 82.3736 17.3983V18.5584ZM84.9959 19.2054C85.7525 19.6258 86.3648 20.2596 86.8298 21.1313L87.8534 20.5854C87.2943 19.5371 86.5307 18.731 85.5593 18.1913L84.9959 19.2054ZM86.8333 21.1379C87.3017 21.9895 87.5535 23.0864 87.5535 24.4584H88.7137C88.7137 22.9503 88.4375 21.6472 87.8499 20.5788L86.8333 21.1379ZM87.5535 24.4584C87.5535 25.8328 87.3088 26.9322 86.8538 27.7854L87.8774 28.3313C88.4464 27.2646 88.7137 25.9639 88.7137 24.4584H87.5535ZM86.8503 27.7921C86.4009 28.6618 85.7959 29.3035 85.0368 29.7393L85.6144 30.7454C86.5833 30.1892 87.3383 29.375 87.8809 28.3246L86.8503 27.7921ZM85.0439 29.7353C84.2758 30.162 83.3908 30.3823 82.3736 30.3823V31.5424C83.5644 31.5424 84.6474 31.2827 85.6073 30.7494L85.0439 29.7353ZM82.5656 29.5264C83.4583 29.5264 84.2795 29.32 85.0147 28.8972L84.4365 27.8915C83.8917 28.2047 83.2729 28.3663 82.5656 28.3663V29.5264ZM85.0094 28.9003C85.762 28.478 86.3512 27.8784 86.7704 27.113L85.7528 26.5557C85.436 27.1343 85.0011 27.5747 84.4418 27.8885L85.0094 28.9003ZM86.7681 27.1171C87.2066 26.3314 87.4177 25.4396 87.4177 24.4584H86.2575C86.2575 25.2692 86.0846 25.9614 85.7551 26.5517L86.7681 27.1171ZM87.4177 24.4584C87.4177 23.464 87.2077 22.5745 86.7622 21.8133L85.761 22.3994C86.0834 22.9502 86.2575 23.6287 86.2575 24.4584H87.4177ZM86.7704 21.8277C86.3512 21.0623 85.762 20.4627 85.0094 20.0405L84.4418 21.0523C85.0011 21.366 85.436 21.8064 85.7528 22.385L86.7704 21.8277ZM85.0147 20.0435C84.2795 19.6207 83.4583 19.4143 82.5656 19.4143V20.5744C83.2729 20.5744 83.8917 20.736 84.4365 21.0492L85.0147 20.0435ZM82.5656 19.4143C81.6591 19.4143 80.8295 19.6197 80.0924 20.0435L80.6707 21.0492C81.2137 20.737 81.8401 20.5744 82.5656 20.5744V19.4143ZM80.0924 20.0435C79.3587 20.4654 78.7745 21.0616 78.342 21.8186L79.3492 22.3941C79.6847 21.8071 80.1245 21.3633 80.6707 21.0492L80.0924 20.0435ZM78.345 21.8133C77.8994 22.5745 77.6895 23.464 77.6895 24.4584H78.8497C78.8497 23.6287 79.0237 22.9502 79.3462 22.3994L78.345 21.8133ZM77.6895 24.4584C77.6895 25.4396 77.9006 26.3314 78.3391 27.1171L79.3521 26.5517C79.0226 25.9614 78.8497 25.2692 78.8497 24.4584H77.6895ZM78.342 27.1222C78.7745 27.8791 79.3587 28.4753 80.0924 28.8972L80.6707 27.8915C80.1245 27.5774 79.6847 27.1336 79.3492 26.5466L78.342 27.1222ZM80.0924 28.8972C80.8295 29.321 81.6591 29.5264 82.5656 29.5264V28.3663C81.8401 28.3663 81.2137 28.2037 80.6707 27.8915L80.0924 28.8972ZM87.4897 30.8184V27.3864H86.3295V30.8184H87.4897ZM87.489 27.4146L87.633 24.4626L86.4742 24.4061L86.3302 27.3581L87.489 27.4146ZM87.6317 24.3874L87.3917 21.4354L86.2354 21.5294L86.4754 24.4814L87.6317 24.3874ZM87.3937 21.4824V13.0104H86.2335V21.4824H87.3937ZM86.8136 13.5904H89.1176V12.4303H86.8136V13.5904ZM88.5375 13.0104V30.8184H89.6977V13.0104H88.5375ZM89.1176 30.2383H86.9096V31.3984H89.1176V30.2383ZM104.218 30.3864L104.001 30.9245L104.011 30.9282L104.218 30.3864ZM101.41 28.5864L101 28.9966L101.009 29.0048L101.41 28.5864ZM99.5623 25.8504L100.095 25.6209L99.5623 25.8504ZM99.5623 18.9864L100.095 19.2158L99.5623 18.9864ZM101.434 16.2744L101.836 16.6928L101.84 16.6886L101.434 16.2744ZM104.242 14.4744L104.452 15.0151L104.456 15.0135L104.242 14.4744ZM111.37 14.4984L111.149 15.0348L111.159 15.0385L111.37 14.4984ZM114.178 16.4424L114.582 16.8589L114.981 16.4722L114.612 16.057L114.178 16.4424ZM112.618 17.9544L112.198 18.3544L112.602 18.7781L113.022 18.3709L112.618 17.9544ZM110.458 16.4664L110.234 17.0012L110.243 17.0049L110.458 16.4664ZM105.25 16.4424L105.039 15.9023L105.035 15.9038L105.25 16.4424ZM101.77 19.8504L101.235 19.6257L101.233 19.6312L101.77 19.8504ZM101.77 25.0104L101.232 25.2258L101.234 25.2324L101.237 25.2389L101.77 25.0104ZM105.25 28.3944L105.035 28.9329L105.039 28.9344L105.25 28.3944ZM110.458 28.3944L110.674 28.933L110.683 28.9292L110.458 28.3944ZM112.618 26.8584L113.022 26.4418L112.597 26.0298L112.194 26.4633L112.618 26.8584ZM114.178 28.3704L114.612 28.7557L114.981 28.3405L114.582 27.9538L114.178 28.3704ZM111.37 30.3384L111.152 29.8009L111.149 29.802L111.37 30.3384ZM107.77 30.4303C106.554 30.4303 105.441 30.2329 104.425 29.8446L104.011 30.9282C105.172 31.3718 106.426 31.5904 107.77 31.5904V30.4303ZM104.435 29.8483C103.429 29.4428 102.556 28.8825 101.812 28.1679L101.009 29.0048C101.864 29.8263 102.864 30.4659 104.001 30.9244L104.435 29.8483ZM101.82 28.1762C101.089 27.4452 100.515 26.5949 100.095 25.6209L99.0295 26.0798C99.506 27.1858 100.163 28.1595 101 28.9965L101.82 28.1762ZM100.095 25.6209C99.6813 24.6604 99.4703 23.5955 99.4703 22.4184H98.3102C98.3102 23.7372 98.5473 24.9603 99.0295 26.0798L100.095 25.6209ZM99.4703 22.4184C99.4703 21.2412 99.6813 20.1763 100.095 19.2158L99.0295 18.7569C98.5473 19.8764 98.3102 21.0995 98.3102 22.4184H99.4703ZM100.095 19.2158C100.513 18.2454 101.093 17.406 101.836 16.6928L101.033 15.8559C100.176 16.6787 99.5075 17.6473 99.0295 18.7569L100.095 19.2158ZM101.84 16.6886C102.583 15.9611 103.451 15.4035 104.452 15.0151L104.032 13.9336C102.889 14.3772 101.886 15.0196 101.028 15.8601L101.84 16.6886ZM104.456 15.0135C105.47 14.611 106.581 14.4064 107.794 14.4064V13.2463C106.448 13.2463 105.19 13.4738 104.028 13.9352L104.456 15.0135ZM107.794 14.4064C109.022 14.4064 110.138 14.6184 111.149 15.0347L111.591 13.962C110.426 13.4823 109.158 13.2463 107.794 13.2463V14.4064ZM111.159 15.0385C112.18 15.4381 113.039 16.0339 113.745 16.8277L114.612 16.057C113.781 15.1228 112.769 14.4227 111.582 13.9582L111.159 15.0385ZM113.775 16.0258L112.215 17.5378L113.022 18.3709L114.582 16.8589L113.775 16.0258ZM113.038 17.5543C112.345 16.8267 111.557 16.2811 110.674 15.9278L110.243 17.0049C110.96 17.2917 111.611 17.738 112.198 18.3544L113.038 17.5543ZM110.683 15.9316C109.808 15.5642 108.875 15.3823 107.89 15.3823V16.5424C108.729 16.5424 109.508 16.6965 110.234 17.0012L110.683 15.9316ZM107.89 15.3823C106.879 15.3823 105.927 15.5539 105.039 15.9023L105.462 16.9824C106.206 16.6908 107.013 16.5424 107.89 16.5424V15.3823ZM105.035 15.9038C104.167 16.2507 103.407 16.7394 102.758 17.3706L103.567 18.2021C104.102 17.6813 104.733 17.274 105.466 16.9809L105.035 15.9038ZM102.758 17.3706C102.107 18.0037 101.6 18.7576 101.235 19.6257L102.305 20.075C102.612 19.3431 103.033 18.7211 103.567 18.2021L102.758 17.3706ZM101.233 19.6312C100.882 20.4911 100.71 21.4224 100.71 22.4184H101.87C101.87 21.5583 102.018 20.7776 102.307 20.0696L101.233 19.6312ZM100.71 22.4184C100.71 23.4144 100.882 24.3521 101.232 25.2258L102.309 24.7949C102.018 24.0686 101.87 23.2783 101.87 22.4184H100.71ZM101.237 25.2389C101.602 26.0908 102.109 26.835 102.758 27.4661L103.567 26.6346C103.031 26.1137 102.61 25.4979 102.303 24.7819L101.237 25.2389ZM102.758 27.4661C103.407 28.0973 104.167 28.586 105.035 28.9329L105.466 27.8558C104.733 27.5627 104.102 27.1554 103.567 26.6346L102.758 27.4661ZM105.039 28.9344C105.927 29.2828 106.879 29.4544 107.89 29.4544V28.2943C107.013 28.2943 106.206 28.1459 105.462 27.8543L105.039 28.9344ZM107.89 29.4544C108.872 29.4544 109.801 29.2819 110.674 28.9329L110.243 27.8558C109.515 28.1468 108.733 28.2943 107.89 28.2943V29.4544ZM110.683 28.9292C111.565 28.5587 112.352 27.9966 113.043 27.2534L112.194 26.4633C111.605 27.0961 110.952 27.558 110.234 27.8596L110.683 28.9292ZM112.215 27.2749L113.775 28.7869L114.582 27.9538L113.022 26.4418L112.215 27.2749ZM113.745 27.985C113.038 28.7803 112.176 29.3853 111.152 29.8009L111.588 30.8759C112.772 30.3954 113.783 29.6884 114.612 28.7557L113.745 27.985ZM111.149 29.802C110.139 30.218 109.015 30.4303 107.77 30.4303V31.5904C109.149 31.5904 110.425 31.3547 111.591 30.8747L111.149 29.802ZM122.286 30.8184L121.755 31.052L121.907 31.3984H122.286V30.8184ZM114.894 14.0184V13.4383H114.005L114.363 14.252L114.894 14.0184ZM117.486 14.0184L118.017 13.7856L117.865 13.4383H117.486V14.0184ZM124.278 29.5224V30.1024H125.165L124.809 29.2896L124.278 29.5224ZM122.79 29.5224L122.259 29.2882L121.9 30.1024H122.79V29.5224ZM129.63 14.0184V13.4383H129.252L129.099 13.7842L129.63 14.0184ZM132.03 14.0184L132.561 14.2513L132.918 13.4383H132.03V14.0184ZM124.662 30.8184V31.3984H125.041L125.193 31.0513L124.662 30.8184ZM122.817 30.5847L115.425 13.7847L114.363 14.252L121.755 31.052L122.817 30.5847ZM114.894 14.5984H117.486V13.4383H114.894V14.5984ZM116.955 14.2511L123.747 29.7551L124.809 29.2896L118.017 13.7856L116.955 14.2511ZM124.278 28.9423H122.79V30.1024H124.278V28.9423ZM123.321 29.7565L130.161 14.2525L129.099 13.7842L122.259 29.2882L123.321 29.7565ZM129.63 14.5984H132.03V13.4383H129.63V14.5984ZM131.499 13.7854L124.131 30.5854L125.193 31.0513L132.561 14.2513L131.499 13.7854ZM124.662 30.2383H122.286V31.3984H124.662V30.2383Z" fill="#57C3FF" mask="url(#path-1-outside-1_3990_4)"/>
<path d="M48.1299 0.737305H20C9.50659 0.737305 1 9.24391 1 19.7373V26.3257C1 36.8191 9.5066 45.3257 20 45.3257H110.003M62.8731 0.737305H142C152.493 0.737305 161 9.2439 161 19.7373V26.3257C161 36.8191 152.493 45.3257 142 45.3257H126.921" stroke="#57C3FF"/>
</svg>
