<svg width="67" height="116" viewBox="0 0 67 116" fill="none" xmlns="http://www.w3.org/2000/svg">
<path d="M24.091 112.913C24.091 112.913 15.547 112.913 9.28414 112.913C7.37097 112.913 6.01695 112.048 4.72769 110.635C3.05206 108.798 2.45017 106.857 2.4502 104.371C2.4506 71.3398 2.44891 44.004 2.4502 10.4037C2.45028 8.29386 2.75339 6.85206 4.15868 5.27829C5.61761 3.64445 7.09374 3.00031 9.28414 3.0003C25.2284 3.00028 42.8828 2.99963 56.5523 3.0003C61.0003 3.00052 63.3862 7.66419 63.3862 12.1122C63.3862 16.5603 60.7183 19.6656 56.5523 21.2242C53.8444 22.2372 49.1488 21.2242 49.1488 21.2242M32.633 20.0849C32.633 20.0849 29.0847 20.2333 26.3685 21.2242C21.1328 23.1342 19.6375 28.1804 19.5346 33.7528C19.428 39.5214 20.2699 45.0216 26.3685 46.8512C37.7584 50.2681 44.0229 47.9902 54.2738 47.9902C58.8533 47.9902 60.2045 52.5286 59.9688 57.1021C59.7527 61.2928 58.4701 66.214 54.2738 66.214C45.7314 66.214 36.0499 66.214 26.3685 66.214C20.4009 66.214 19.4317 73.9151 19.5346 79.8819C19.634 85.6507 20.5989 92.9803 26.3685 92.9803C37.7584 92.9803 44.0229 92.9803 54.2738 92.9803C59.0023 92.9803 61.4443 96.6419 63.3862 100.953C65.3043 105.212 65.6632 111.774 59.9688 111.774C53.1348 111.774 40.6059 111.774 40.6059 111.774" stroke="#1B1B1B" stroke-opacity="0.69" stroke-width="4.55596" stroke-linecap="round"/>
</svg>
