<svg width="110" height="53" viewBox="0 0 110 53" fill="none" xmlns="http://www.w3.org/2000/svg">
<g clip-path="url(#clip0_3370_1438)">
<path fill-rule="evenodd" clip-rule="evenodd" d="M32.8247 44.2787H35.8544V41.74H37.5376C38.3792 41.74 39.1646 41.5708 39.7818 41.2888C40.399 41.0067 40.9039 40.5554 41.2406 40.0477C41.5772 39.54 41.7455 38.863 41.7455 38.1861C41.7455 37.4528 41.5772 36.8322 41.2406 36.3245C40.9039 35.7604 40.399 35.3655 39.7818 35.0835C39.1646 34.8014 38.3792 34.6322 37.5376 34.6322H36.8083L35.9105 36.7758H37.3693C37.9303 36.7758 38.3231 36.8886 38.6036 37.1707C38.8841 37.4528 39.0524 37.7912 39.0524 38.2425C39.0524 38.6938 38.8841 39.0323 38.6036 39.3144C38.3231 39.54 37.8742 39.6528 37.3693 39.6528H34.7323L32.8247 44.2787ZM103.462 44.1658C104.191 44.335 104.921 44.4479 105.705 44.4479C106.603 44.4479 107.389 44.335 108.006 44.0529C108.624 43.7709 109.128 43.376 109.465 42.9247C109.802 42.4734 109.97 41.9093 109.97 41.3452C109.97 40.6682 109.802 40.1605 109.409 39.7657C109.072 39.3707 108.624 39.0887 108.174 38.9195C107.726 38.7503 107.108 38.5809 106.379 38.4117C105.705 38.2989 105.257 38.1297 104.977 38.0169C104.696 37.904 104.527 37.6784 104.527 37.4528C104.527 37.2271 104.64 37.0014 104.921 36.8322C105.145 36.663 105.537 36.6066 106.099 36.6066C106.94 36.6066 107.838 36.8322 108.736 37.3399L109.577 35.3091C109.128 35.027 108.568 34.8014 107.95 34.6885C107.333 34.5193 106.716 34.4629 106.099 34.4629C105.201 34.4629 104.415 34.5758 103.742 34.8578C103.125 35.1399 102.62 35.5347 102.34 35.986C102.002 36.4374 101.834 37.0014 101.834 37.5655C101.834 38.2425 102.002 38.7502 102.34 39.1451C102.676 39.54 103.125 39.8221 103.574 39.9913C104.079 40.1605 104.64 40.3298 105.369 40.499C106.043 40.6682 106.491 40.7811 106.772 40.9503C107.052 41.0631 107.221 41.2888 107.221 41.5708C107.221 42.0785 106.716 42.3606 105.649 42.3606C105.089 42.3606 104.527 42.2477 103.967 42.0785C103.406 41.9093 102.9 41.6836 102.452 41.4016L101.554 43.4324C102.115 43.7145 102.732 43.9402 103.462 44.1658ZM44.9435 42.3606H48.9831L49.7125 44.2222H52.5178L48.2537 34.5758H45.5607L41.3528 44.2222H44.1019L44.9435 42.3606ZM46.9633 37.2835L48.1977 40.3861H45.729L46.9633 37.2835ZM57.5111 41.6836H56.0524V44.2222H53.3593V34.6322H57.7356C58.5772 34.6322 59.3627 34.8014 59.9798 35.0835C60.597 35.3655 61.1019 35.7604 61.4385 36.3245C61.7752 36.8322 61.9435 37.5092 61.9435 38.1861C61.9435 38.863 61.7752 39.4836 61.4385 39.9913C61.1019 40.499 60.6531 40.8939 60.0359 41.1759L62.1119 44.2222H59.2504L57.5111 41.6836ZM59.2504 38.1861C59.2504 37.7348 59.0821 37.3963 58.8016 37.1143C58.521 36.8886 58.0722 36.7194 57.5673 36.7194H56.0524V39.54H57.5673C58.1283 39.54 58.521 39.4272 58.8016 39.2015C59.0821 38.9759 59.2504 38.6374 59.2504 38.1861ZM62.4484 36.7758H65.3659V44.2222H68.059V36.7758H70.9765V34.6322H62.3924V36.7758H62.4484ZM81.1316 34.6322V44.2787H78.8873L74.6794 39.1451V44.2787H72.0425V34.6322H74.2867L78.4946 39.7657V34.6322H81.1316ZM90.7256 44.2787V42.135H85.7322V40.3861H89.9962V38.3553H85.7322V36.7194H90.5574V34.6322H83.0392V44.2787H90.7256ZM96.3923 41.6836H94.9335V44.2222H92.2405V34.6322H96.6168C97.4578 34.6322 98.2435 34.8014 98.8609 35.0835C99.4784 35.3655 99.9828 35.7604 100.32 36.3245C100.656 36.8322 100.824 37.5092 100.824 38.1861C100.824 38.863 100.656 39.4836 100.32 39.9913C99.9828 40.499 99.5345 40.8939 98.917 41.1759L100.993 44.2222H98.0753L96.3923 41.6836ZM98.1314 38.1861C98.1314 37.7348 97.9632 37.3963 97.683 37.1143C97.4022 36.8886 96.9533 36.7194 96.4484 36.7194H94.9335V39.54H96.4484C97.0095 39.54 97.4022 39.4272 97.683 39.2015C97.9632 38.9759 98.1314 38.6374 98.1314 38.1861Z" fill="#1882FF"/>
<path fill-rule="evenodd" clip-rule="evenodd" d="M38.3247 30.7402H51.5095C53.5855 30.7402 55.1003 30.2325 56.0541 29.2735C57.0079 28.3146 57.5129 26.7915 57.5129 24.7042C57.5129 23.858 57.4006 23.0682 57.1762 22.4477C56.559 20.6425 55.4369 19.5142 53.6977 19.0065C54.4832 18.6681 55.1564 18.1604 55.7175 17.3706C56.2785 16.5809 56.559 15.5654 56.559 14.268C56.559 12.3499 56.0541 10.9396 55.1003 9.98062C54.1465 9.02161 52.6316 8.57031 50.5558 8.57031H47.3016L45.5063 12.9705H48.9848C50.2191 12.9705 50.8924 13.591 50.8924 14.8884V15.509C50.8924 16.7501 50.2753 17.427 48.9848 17.427H43.7109L38.3247 30.7402ZM49.9386 21.8835C51.173 21.8835 51.8462 22.5041 51.8462 23.8016V24.4221C51.8462 25.6632 51.229 26.3401 49.9386 26.3401H43.6548V21.94H49.9386V21.8835ZM66.602 30.7967V14.6628H58.7472V18.9502H61.1036V30.7967H66.602ZM81.0772 30.7967C79.0574 31.0223 77.0376 31.1352 75.13 31.1352C73.7274 31.1352 72.5492 30.6839 71.7075 29.8377C70.8659 28.9915 70.4171 27.8069 70.4171 26.3965V18.9502H68.0046V14.6628H70.4171L71.932 10.2062H75.9154V14.6628H79.8428V18.9502H75.9154V25.5503C75.9154 25.8888 76.0277 26.1145 76.2521 26.3401C76.4766 26.5657 76.701 26.6786 77.0376 26.6786H81.1333V30.7967H81.0772ZM61.1036 8.62673H66.602V12.9705H61.1036V8.62673Z" fill="#EEEEEE"/>
<path d="M1.74414 0.276367H45.8431L24.6352 52.4575H9.87945L27.6088 10.7126H1.80025V0.276367H1.74414Z" fill="url(#paint0_linear_3370_1438)"/>
<path d="M6.23295 0.276367H45.8435L24.6356 52.4575H14.761L31.9293 11.1639L2.19336 10.7126L6.23295 0.276367Z" fill="url(#paint1_linear_3370_1438)"/>
<path d="M15.0957 4.39648H43.8779L30.1882 38.2437H20.3136L31.6469 11.1659L12.2905 10.7146L15.0957 4.39648Z" fill="url(#paint2_linear_3370_1438)"/>
</g>
<defs>
<linearGradient id="paint0_linear_3370_1438" x1="4.57596" y1="35.01" x2="48.7449" y2="-8.91903" gradientUnits="userSpaceOnUse">
<stop stop-color="#342CD6"/>
<stop offset="1" stop-color="#1A46EE"/>
</linearGradient>
<linearGradient id="paint1_linear_3370_1438" x1="2.11671" y1="39.7212" x2="43.8374" y2="-1.77278" gradientUnits="userSpaceOnUse">
<stop stop-color="#1D34FF"/>
<stop offset="1" stop-color="#22FF2A"/>
</linearGradient>
<linearGradient id="paint2_linear_3370_1438" x1="13.0604" y1="30.9597" x2="41.8196" y2="2.35671" gradientUnits="userSpaceOnUse">
<stop offset="0.2408" stop-color="#75BEC1"/>
<stop offset="1" stop-color="#47FF51"/>
</linearGradient>
<clipPath id="clip0_3370_1438">
<rect width="109.194" height="52.1812" fill="white" transform="translate(0.785156 0.276367)"/>
</clipPath>
</defs>
</svg>
