<svg width="206" height="44" viewBox="0 0 206 44" fill="none" xmlns="http://www.w3.org/2000/svg">
<g clip-path="url(#clip0_3370_1426)">
<g clip-path="url(#clip1_3370_1426)">
<path d="M139.806 7.8145C134.98 14.0464 125.151 23.0178 117.968 29.1379C117.495 29.5404 116.64 29.3956 116.214 28.6106C115.503 27.3026 115.302 25.6028 117.1 23.5982C122.407 17.6805 127.288 11.7703 130.139 8.23628C131.06 7.09449 131.014 6.5907 129.505 6.29673C125.841 5.58098 120.587 4.78109 117.224 4.29008C116.114 4.12819 115.536 3.17811 115.366 2.29941C115.171 1.29395 115.46 0.768852 116.172 0.726248C121.797 0.395 130.244 0.17985 137.301 0.831692C141.743 1.24176 142.364 4.51162 139.806 7.8145Z" fill="url(#paint0_linear_3370_1426)"/>
<path d="M204.464 1.19603C204.132 2.2132 203.841 3.10683 203.494 4.11867C203.239 4.85679 202.731 5.29561 201.928 5.34248C200.576 5.34248 195.507 5.39253 194.026 5.39253C192.682 5.46496 191.901 6.10934 191.648 7.4354C191.268 9.4314 190.928 11.4349 190.568 13.4351C190.031 16.4345 189.51 19.437 188.945 22.4321C188.611 24.199 189.186 24.952 190.974 24.9595C191.628 24.9628 192.283 24.9765 192.936 24.9447C194.4 24.8732 195.368 24.1053 195.688 22.6738C196.003 21.0921 196.177 20.0356 196.425 18.717C196.477 18.4465 196.378 18.3548 196.118 18.3591C195.664 18.3666 194.997 18.374 194.543 18.3538C193.49 18.3059 193.362 17.9395 193.38 16.901C193.394 15.9744 193.425 15.0477 193.418 14.1211C193.414 13.7621 193.568 13.6492 193.887 13.6492C195.171 13.6492 201.05 13.6928 201.736 13.6928C202.422 13.6928 202.808 14.17 202.716 14.9135C202.611 15.7591 202.452 16.5985 202.306 17.4389C201.919 19.6734 201.531 21.908 201.138 24.1404C200.856 25.7478 200.553 27.3528 200.285 28.9621C200.229 29.2967 200.123 29.4212 199.772 29.4106C198.955 29.3839 198.138 29.4128 197.319 29.3967C196.295 29.3765 196.003 29.0825 195.911 28.0718C195.886 27.8054 195.859 27.4764 195.825 27.143C195.804 26.9449 195.52 26.9098 195.389 27.1227C194.479 28.6075 192.637 29.597 191.339 29.7045C190.038 29.8121 188.793 29.777 187.526 29.6982C186.083 29.6087 184.734 29.2039 183.76 28.0153C183.05 27.1473 182.804 26.1152 182.731 25.0298C182.635 23.6409 182.859 22.2777 183.098 20.9175C183.755 17.1832 184.413 13.45 185.058 9.71366C185.334 8.12027 185.626 6.53645 186.319 5.05596C187.427 2.68504 189.296 1.29828 191.842 0.847745C192.874 0.665612 193.934 0.613421 194.985 0.576143C196.237 0.531409 197.491 0.565493 198.745 0.565493C200.544 0.565493 202.144 0.563362 203.943 0.566558C204.46 0.566558 204.626 0.69863 204.464 1.19603ZM25.4351 4.45844C25.7418 6.76119 25.2401 9.02027 24.3072 11.1483C23.7182 12.4914 22.5444 13.58 21.1182 13.859C20.8104 13.9197 20.5836 13.9187 20.6038 14.1956C20.6186 14.3969 20.7231 14.3937 21.0596 14.4981C22.1929 14.8485 23.0407 15.5408 23.4891 16.6698C23.8257 17.5155 23.9227 18.4049 23.8235 19.2932C23.6159 21.1678 23.3634 23.0423 22.7255 24.8306C21.7935 27.4412 19.8763 28.8588 17.1817 29.2955C15.0876 29.6353 12.9766 29.4595 10.873 29.5C10.5098 29.5075 10.1466 29.5012 9.78341 29.5012C7.83961 29.5012 5.89579 29.4926 3.95198 29.5086C3.58452 29.5118 3.49931 29.4224 3.56534 29.0548C3.99671 26.6626 4.40678 24.2683 4.82323 21.874C5.53472 17.7818 6.24408 13.6887 6.95663 9.59756C7.44551 6.79208 7.94078 3.98872 8.42861 1.18325C8.48079 0.881827 8.51487 0.6507 8.93665 0.654961C12.8232 0.692239 16.7098 0.756146 20.5964 0.756146C23.356 0.75508 25.1379 2.21853 25.4351 4.45844ZM15.8683 16.7231C14.5976 16.7231 13.4697 16.7221 12.2715 16.705C11.9424 16.7007 11.7879 16.7955 11.7272 17.1406C11.3086 19.5531 10.8741 21.9634 10.4353 24.3726C10.3724 24.7178 10.4874 24.8211 10.8283 24.8178C11.9924 24.8072 13.9448 24.7944 15.1313 24.7529C16.0973 24.7188 16.7737 24.1394 16.9888 23.1819C17.2562 21.9985 17.5938 19.9653 17.8005 18.7681C18.0636 17.2376 17.1401 16.7231 15.8683 16.7231ZM17.7493 5.38295C16.5873 5.35845 15.4252 5.38721 14.2632 5.36165C13.9128 5.35419 13.7839 5.49799 13.7285 5.80899C13.3717 7.80819 13.0128 9.80526 12.6453 11.8023C12.5921 12.091 12.6752 12.1922 12.9713 12.1922C13.7615 12.1922 15.4519 12.1794 16.239 12.1794C17.6055 12.1794 18.4203 11.519 18.7547 10.1961C19.003 9.21518 19.1574 8.20759 19.2959 7.2032C19.4641 5.98473 18.9657 5.40851 17.7493 5.38295ZM97.4157 0.661351C95.49 0.690109 93.5622 0.660286 91.6397 0.748689C90.0452 0.822181 88.8651 1.64231 88.1675 3.09725C87.8458 3.76719 87.5422 4.44779 87.261 5.13585C86.5784 6.80273 85.6985 8.82004 85.1319 10.1567C84.8262 10.8778 84.6121 11.4434 84.4939 11.8375C84.2373 12.6949 84.0167 13.5139 83.8143 14.316C83.7632 14.5205 83.4405 14.4747 83.4352 14.2627C83.4299 14.0635 83.5747 12.1272 83.5854 11.8801C83.611 11.3007 83.6291 10.7607 83.5811 9.8862C83.4629 7.7102 83.268 5.53846 83.0507 3.3699C82.9058 1.91923 82.303 1.03627 80.7756 0.80727C80.4892 0.764666 80.2004 0.711411 79.9128 0.707151C78.1683 0.685848 76.4247 0.682654 74.68 0.660286C74.3776 0.65709 74.2839 0.781708 74.236 1.06715C74.0409 2.23025 70.1086 24.4632 69.3365 28.8269C69.2481 29.3285 69.3705 29.5 69.8893 29.5012C71.4517 29.5033 74.0517 29.5161 74.4244 29.5161C74.7961 29.5161 75.0379 29.3723 75.1125 28.9377C75.6781 25.6295 76.2298 22.3181 76.8592 19.0215C77.4163 16.1096 77.7806 13.1795 77.9744 10.2238C78.0479 9.10016 78.1565 7.97861 78.2705 6.85918C78.2844 6.72392 78.4335 6.60249 78.5198 6.47468C78.6561 6.59291 78.8052 6.70048 78.9213 6.83682C78.9692 6.89326 78.9459 7.01149 78.9543 7.10203C79.0107 7.71658 79.0683 8.33116 79.1247 8.94678C79.3612 11.551 79.5955 14.1551 79.8362 16.7592C79.9715 18.2238 80.112 19.6883 80.2633 21.1507C80.3336 21.8249 80.5957 22.072 81.2868 22.1115C81.7758 22.1392 82.6364 22.1359 83.1413 22.1359C83.9145 22.1359 84.2713 21.9921 84.5919 21.2391C85.2309 19.7362 90.8834 6.96781 90.959 6.79527C91.0975 6.47894 91.7313 6.57799 91.6291 6.94758C91.2573 8.29387 90.9036 9.64443 90.5437 10.9939C90.1687 12.3956 89.7204 13.7845 89.4466 15.2064C88.8533 18.2878 88.3506 21.3872 87.8095 24.4791C87.5188 26.1386 87.1098 28.435 87.0353 28.8759C86.9607 29.3158 87.1129 29.499 87.4954 29.499C87.8777 29.499 90.6023 29.4937 92.3469 29.5118C92.7102 29.5149 92.7601 29.2391 92.808 28.9654C93.3055 26.1236 97.2837 3.45618 97.713 1.06396C97.7629 0.776382 97.7278 0.65709 97.4157 0.661351ZM69.9446 7.25966C69.5485 9.73069 67.775 19.879 67.2936 22.4832C67.0816 23.6281 66.711 24.7273 66.1678 25.7647C65.0313 27.9322 63.2175 29.1976 60.8422 29.5778C59.3798 29.8121 53.9234 29.8271 52.6964 29.7098C52.0562 29.6491 51.4087 29.4649 50.8079 29.2273C49.0112 28.516 48.1771 27.0919 48.011 25.2258C47.8832 23.8007 48.0908 22.3991 48.338 21.0027C48.7682 18.5742 50.3531 9.6082 50.7547 7.56215C51.0614 5.99858 51.6185 4.52448 52.6154 3.25488C53.9531 1.54965 55.7862 0.706085 57.8802 0.530344C59.7399 0.373774 63.9811 0.455787 65.7556 0.652831C67.6834 0.866916 69.3269 2.03534 69.8275 4.01322C70.0958 5.08366 70.1182 6.17858 69.9446 7.25966ZM63.8341 6.96037C63.9545 5.84094 63.3953 5.24129 62.2663 5.19336C61.2331 5.14969 60.1947 5.14756 59.1616 5.19549C58.1433 5.24343 57.419 5.76958 57.0804 6.7548C56.9684 7.07965 56.8822 7.41623 56.8226 7.75493C56.2847 10.7724 55.7543 13.7909 55.2239 16.8093C54.8628 18.8628 54.5006 20.9175 54.1448 22.972C53.9234 24.2544 54.5369 25.0064 55.8449 25.0522C56.2985 25.0681 58.0059 25.0628 58.4064 25.0586C59.956 25.0415 60.7827 24.3854 61.067 22.8773C61.427 20.9707 61.7455 19.0557 62.0842 17.146C62.4708 14.9678 62.8639 12.7907 63.2452 10.6115C63.455 9.39625 63.7021 8.18417 63.8341 6.96037ZM47.5413 4.01322C47.8118 5.08259 47.8331 6.17751 47.6606 7.25966C47.2643 9.73069 45.491 19.879 45.0095 22.4832C44.7975 23.6281 44.428 24.7273 43.8837 25.7647C42.7472 27.9322 40.9334 29.1976 38.5571 29.5778C37.0947 29.8121 31.6383 29.8271 30.4113 29.7098C29.7711 29.6491 29.1235 29.4649 28.5228 29.2273C26.726 28.516 25.892 27.0919 25.7248 25.2258C25.597 23.8007 25.8047 22.3991 26.0518 21.0027C26.4821 18.5742 28.067 9.6082 28.4685 7.56215C28.7752 5.99858 29.3323 4.52448 30.3292 3.25488C31.667 1.54965 33.5 0.706085 35.595 0.530344C37.4548 0.373774 41.696 0.455787 43.4705 0.652831C45.3973 0.866916 47.0418 2.03534 47.5413 4.01322ZM41.55 6.96037C41.6704 5.84094 41.1113 5.24129 39.9823 5.19336C38.9492 5.14969 37.9106 5.14756 36.8774 5.19549C35.8602 5.24343 35.1349 5.76958 34.7962 6.7548C34.6844 7.07965 34.5982 7.41623 34.5375 7.75493C33.9996 10.7724 33.4692 13.7909 32.9388 16.8093C32.5777 18.8628 32.2155 20.9175 31.8597 22.972C31.6383 24.2544 32.2518 25.0064 33.5597 25.0522C34.0134 25.0681 35.7207 25.0628 36.1213 25.0586C37.6709 25.0415 38.4975 24.3854 38.7818 22.8773C39.1419 20.9707 39.4604 19.0557 39.799 17.146C40.1846 14.9678 40.5787 12.7907 40.9589 10.6115C41.172 9.39625 41.419 8.18417 41.55 6.96037ZM154.461 1.90432C154.658 4.42116 155.669 17.7552 156.54 29.0154C156.571 29.3988 156.485 29.5149 156.091 29.5086C154.71 29.4862 153.328 29.5086 151.948 29.4969C150.745 29.4872 150.291 29.024 150.236 27.8076C150.176 26.5008 150.109 25.1938 150.042 23.887C150.013 23.3075 149.952 23.2415 149.352 23.2393C147.552 23.233 145.752 23.2447 143.953 23.2319C143.49 23.2287 143.222 23.4067 143.051 23.8454C142.507 25.2492 141.928 26.6393 141.37 28.0388C140.972 29.0399 140.219 29.4958 139.168 29.4969C136.259 29.5 133.352 29.499 130.443 29.4947C130.227 29.4947 130.01 29.4574 129.793 29.4436C128.724 29.3711 128.231 28.7609 127.973 27.748C127.702 26.686 127.336 25.442 127.15 24.6166C126.993 23.9136 127.012 23.676 127.566 23.1926C128.118 22.7101 131.03 20.2283 131.427 19.8907C131.824 19.552 132.206 19.7266 132.379 20.354C132.727 21.6045 133.32 23.7314 133.76 25.2641C134.089 26.4134 134.419 27.5616 134.748 28.7097C134.794 28.7077 134.837 28.7055 134.882 28.7034C135.274 27.7905 135.671 26.8778 136.062 25.9639C139.448 18.0375 146.186 2.31119 146.472 1.64338C146.759 0.975556 147.371 0.615552 148.14 0.616617C149.794 0.618747 151.449 0.605966 153.102 0.620878C154.005 0.631528 154.389 1.00112 154.461 1.90432ZM149.594 10.2206C149.622 9.09484 149.79 7.09883 149.797 6.87196C149.804 6.6451 149.421 6.57479 149.373 6.80486C149.325 7.03492 148.068 10.8597 147.38 12.7886C146.764 14.514 146.072 16.2107 145.415 17.9202C145.178 18.5359 145.23 18.619 145.865 18.62C146.92 18.6222 147.973 18.6211 149.028 18.62C149.777 18.619 149.82 18.5668 149.79 17.7935C149.723 16.0148 149.663 14.235 149.591 12.2465C149.591 11.7097 149.576 10.9641 149.594 10.2206ZM182.888 0.658156C181.155 0.658156 179.453 0.653896 178.305 0.653896C177.715 0.653896 177.479 0.945733 177.379 1.52302C176.916 4.20495 176.475 6.60782 176.012 9.28974C175.669 11.274 175.246 13.2498 175.013 15.2469C174.715 17.7882 174.576 20.4307 174.443 22.988C174.424 23.3417 173.903 23.379 173.869 22.9657C173.127 13.9751 172.708 8.54417 172.233 2.6925C172.115 1.23118 171.454 0.653896 170.286 0.653896C168.697 0.653896 164.811 0.681588 163.867 0.654961C163.472 0.643244 163.342 0.778512 163.285 1.16195C163.126 2.25687 162.918 3.34434 162.727 4.43501C162.169 7.5973 158.842 26.6307 158.454 28.8833C158.348 29.4979 158.36 29.5 158.962 29.5C160.326 29.5 161.689 29.5 163.051 29.5C164.24 29.5 164.226 29.4979 164.422 28.3284C164.794 26.1279 166.399 17.49 166.674 15.3512C166.954 13.1742 167.059 10.9737 167.236 8.78382C167.288 8.15009 167.316 7.51422 167.383 6.88261C167.418 6.5535 167.991 6.59291 168.011 6.90925C168.107 8.45044 168.264 10.2931 168.373 11.8332C168.585 14.8038 169.286 24.8424 169.453 26.8874C169.581 28.4488 170.336 29.2029 171.894 29.3818C172.453 29.4458 173.016 29.4884 173.577 29.4947C174.958 29.5108 176.339 29.5 177.72 29.5C178.345 29.5 178.353 29.5012 178.463 28.8727C178.77 27.1035 182.651 4.83336 183.312 1.15449C183.387 0.735908 183.267 0.658156 182.888 0.658156ZM113.216 12.4946C112.85 12.4946 107.946 12.4957 105.311 12.4936C104.785 12.4936 104.772 12.4851 104.861 11.9791C105.208 9.99591 105.58 8.01588 105.905 6.0284C105.981 5.55443 106.186 5.46603 106.619 5.46923C108.73 5.48414 111.392 5.47561 112.952 5.47561C114.513 5.47561 113.1 0.663481 112.454 0.663481C111.807 0.663481 104.826 0.663481 101.454 0.663481C100.739 0.663481 100.746 0.665612 100.622 1.39414C100.323 3.1473 97.5617 18.8927 97.1878 21.074C96.9152 22.6674 96.6148 24.2577 97.011 25.8808C97.3081 27.0982 97.9654 28.0196 99.0773 28.6118C100.384 29.3073 101.819 29.4607 103.251 29.4819C106.431 29.5277 109.612 29.4926 112.793 29.5096C113.172 29.5118 113.249 29.367 113.249 29.0356C113.249 28.1995 113.271 27.3634 113.291 26.5285C113.328 24.9968 113.041 24.6901 111.525 24.6868C109.472 24.6815 107.418 24.6901 105.365 24.6815C104.966 24.6805 104.564 24.6549 104.17 24.5964C103.422 24.4866 103.017 24.02 103.002 23.2607C102.996 22.9167 103.009 22.5673 103.064 22.2297C103.321 20.6725 103.616 19.1206 103.852 17.5603C103.922 17.0959 104.1 16.9723 104.553 16.9766C106.697 16.9979 108.842 16.9926 110.986 16.9798C111.935 16.9745 112.48 16.5857 112.787 15.6921C113.084 14.8272 113.558 13.3808 113.653 13.0261C113.748 12.6714 113.584 12.4946 113.216 12.4946ZM124.219 7.19469C123.013 6.8954 121.469 6.6696 120.373 6.5567C119.769 6.49492 119.491 6.65361 119.414 7.12226C118.981 9.7488 118.052 15.2383 117.589 18.0002C117.447 18.8416 118.041 18.7042 118.399 18.3473C120.668 16.0797 123.374 13.3531 123.798 12.7886C124.221 12.2241 124.353 11.9546 124.499 11.274C124.645 10.5934 124.812 9.25992 124.953 8.43447C125.091 7.61008 124.854 7.35232 124.219 7.19469Z" fill="#F0F8FF"/>
<path d="M8.99728 35.1557C9.61931 35.6509 9.93031 36.3485 9.93031 37.2486C9.93031 37.9867 9.75138 38.6342 9.39457 39.1892C9.03776 39.7441 8.52864 40.1722 7.86828 40.4748C7.20898 40.7761 6.44211 40.9285 5.56766 40.9285H3.80385L3.35012 43.2355H0.853516L2.61732 34.4111H6.34945C7.49124 34.4111 8.37526 34.6604 8.99728 35.1557ZM6.9608 38.5714C7.25797 38.3115 7.40816 37.9409 7.40816 37.4626C7.40816 37.1005 7.28886 36.83 7.04815 36.6489C6.8085 36.4678 6.46661 36.3774 6.02139 36.3774H4.71025L4.19474 38.9623H5.68162C6.23655 38.9634 6.66257 38.8324 6.9608 38.5714Z" fill="#0098FF"/>
<path d="M17.9473 41.5218H14.1906L13.1692 43.2355H10.5352L16.194 34.4111H18.6523L20.7825 43.2355H18.2997L17.9473 41.5218ZM17.568 39.6802L16.9748 36.8182L15.2856 39.6802H17.568Z" fill="#0098FF"/>
<path d="M31.9667 39.3096C31.5386 39.8933 30.9369 40.3192 30.1657 40.5887L31.6653 43.2355H29.0559L27.7448 40.8912H26.4836L26.0172 43.2355H23.5205L25.2854 34.4111H29.0547C30.1817 34.4111 31.055 34.6593 31.6771 35.1557C32.2991 35.6509 32.6091 36.3389 32.6091 37.2219C32.6091 38.0293 32.3949 38.7259 31.9667 39.3096ZM29.7236 36.65C29.4798 36.4689 29.14 36.3784 28.7033 36.3784H27.3922L26.8627 38.9634H28.3497C28.9046 38.9634 29.3339 38.8324 29.6352 38.5725C29.9378 38.3126 30.089 37.9419 30.089 37.4638C30.0879 37.1015 29.9676 36.831 29.7236 36.65Z" fill="#0098FF"/>
<path d="M37.9772 36.3901H35.2676L35.6703 34.4111H43.5743L43.1707 36.3901H40.4727L39.0999 43.2355H36.6032L37.9772 36.3901Z" fill="#0098FF"/>
<path d="M54.907 34.4111L53.1421 43.2355H51.0876L48.1755 38.3946L47.2042 43.2355H44.7598L46.5235 34.4111H48.5792L51.5039 39.2393L52.4604 34.4111H54.907Z" fill="#0098FF"/>
<path d="M60.7687 36.3391L60.4789 37.827H64.4007L64.0343 39.6919H60.1019L59.7866 41.3067H64.4134L64.0097 43.2355H56.9375L58.7024 34.4111H65.6096L65.2197 36.3401L60.7687 36.3391Z" fill="#0098FF"/>
<path d="M75.873 39.3096C75.4449 39.8933 74.843 40.3192 74.0709 40.5887L75.5706 43.2355H72.961L71.651 40.8912H70.3898L69.9234 43.2355H67.4268L69.1905 34.4111H72.96C74.0868 34.4111 74.9602 34.6593 75.5822 35.1557C76.2042 35.6509 76.5153 36.3389 76.5153 37.2219C76.5153 38.0293 76.3012 38.7259 75.873 39.3096ZM73.6277 36.65C73.3839 36.4689 73.0441 36.3784 72.6074 36.3784H71.2963L70.768 38.9634H72.2549C72.8097 38.9634 73.238 38.8324 73.5405 38.5725C73.8419 38.3126 73.9941 37.9419 73.9941 37.4638C73.9941 37.1015 73.8727 36.831 73.6277 36.65Z" fill="#0098FF"/>
<path d="M79.9807 43.1452C79.3246 42.9695 78.7921 42.7426 78.3799 42.4635L79.3631 40.5986C79.8082 40.885 80.2833 41.1013 80.787 41.2472C81.293 41.3942 81.7957 41.4687 82.3006 41.4687C82.7798 41.4687 83.1516 41.3985 83.4168 41.261C83.6809 41.1215 83.8131 40.9298 83.8131 40.687C83.8131 40.4772 83.6937 40.312 83.454 40.1949C83.2145 40.0778 82.8426 39.9509 82.3378 39.8179C81.7669 39.6655 81.293 39.5132 80.9138 39.3576C80.5357 39.2022 80.2098 38.9647 79.936 38.6441C79.6633 38.3256 79.526 37.906 79.526 37.3831C79.526 36.7525 79.6985 36.2018 80.0436 35.7257C80.3866 35.2506 80.8797 34.8832 81.5188 34.6222C82.1578 34.3624 82.9045 34.2324 83.7608 34.2324C84.3914 34.2324 84.9804 34.2984 85.5267 34.4273C86.0721 34.5583 86.5428 34.7458 86.938 34.9886L86.0295 36.8419C85.6855 36.6236 85.3052 36.4574 84.8898 36.3435C84.4744 36.2295 84.0473 36.173 83.6096 36.173C83.1132 36.173 82.7255 36.2529 82.4433 36.4138C82.1621 36.5725 82.0215 36.779 82.0215 37.0315C82.0215 37.2499 82.1429 37.4171 82.3879 37.5353C82.6318 37.6536 83.01 37.7792 83.5212 37.9135C84.0931 38.0561 84.5649 38.2021 84.9399 38.3544C85.3138 38.5056 85.6344 38.7368 85.9037 39.0467C86.1733 39.3588 86.3074 39.7656 86.3074 40.2694C86.3074 40.8915 86.1328 41.44 85.7845 41.915C85.4352 42.389 84.9399 42.7576 84.2976 43.0174C83.6553 43.2772 82.9077 43.4082 82.0588 43.4082C81.3302 43.4104 80.6359 43.322 79.9807 43.1452Z" fill="#0098FF"/>
</g>
</g>
<defs>
<linearGradient id="paint0_linear_3370_1426" x1="115.308" y1="14.8821" x2="141.31" y2="14.8821" gradientUnits="userSpaceOnUse">
<stop stop-color="#0098FF"/>
<stop offset="0.6974" stop-color="#FF0069"/>
</linearGradient>
<clipPath id="clip0_3370_1426">
<rect width="204.882" height="43" fill="white" transform="translate(0.853516 0.40918)"/>
</clipPath>
<clipPath id="clip1_3370_1426">
<rect width="204.882" height="43" fill="white" transform="translate(0.853516 0.40918)"/>
</clipPath>
</defs>
</svg>
