<svg width="100" height="59" viewBox="0 0 100 59" fill="none" xmlns="http://www.w3.org/2000/svg">
<g clip-path="url(#clip0_3370_1396)">
<path fill-rule="evenodd" clip-rule="evenodd" d="M43.8211 2.12429C43.8211 0.951077 44.7809 0 45.9649 0H46.0822C47.2662 0 48.226 0.951079 48.226 2.12429V34.1877C48.226 35.3609 47.2662 36.312 46.0822 36.312H45.9649C44.7809 36.312 43.8211 35.3609 43.8211 34.1877V20.6066C43.8211 19.5609 42.9655 18.7131 41.9102 18.7131C40.8547 18.7131 39.9992 19.5609 39.9992 20.6066V34.1877C39.9992 35.3609 39.0393 36.312 37.8554 36.312H37.7381C36.5541 36.312 35.5942 35.3609 35.5942 34.1877V2.12429C35.5942 0.951077 36.5541 0 37.7381 0H37.8554C39.0393 0 39.9992 0.951079 39.9992 2.12429V13.3328C39.9992 14.3785 40.8547 15.2262 41.9102 15.2262C42.9655 15.2262 43.8211 14.3785 43.8211 13.3328V2.12429ZM54.6952 2.12429C54.6952 0.951077 55.655 0 56.839 0H56.9563C58.1403 0 59.1001 0.951079 59.1001 2.12429V34.1877C59.1001 35.3609 58.1403 36.312 56.9563 36.312H56.839C55.655 36.312 54.6952 35.3609 54.6952 34.1877V2.12429ZM67.7344 0C66.5504 0 65.5905 0.951077 65.5905 2.12429V34.1877C65.5905 35.3609 66.5504 36.312 67.7344 36.312H75.1312C76.1145 36.312 76.9115 35.5222 76.9115 34.548C76.9115 33.5737 76.1145 32.7839 75.1312 32.7839H72.1393C70.9553 32.7839 69.9955 31.8328 69.9955 30.6596V2.12429C69.9955 0.951079 69.0356 0 67.8516 0H67.7344ZM80.742 2.12429C80.742 0.951077 81.7017 0 82.8857 0H83.0031C84.1871 0 85.1468 0.951079 85.1468 2.12429V30.6596C85.1468 31.8328 86.1067 32.7839 87.2907 32.7839H90.2827C91.2658 32.7839 92.0628 33.5737 92.0628 34.548C92.0628 35.5222 91.2658 36.312 90.2827 36.312H82.8857C81.7017 36.312 80.742 35.3609 80.742 34.1877V2.12429ZM97.2881 0C96.1041 0 95.1442 0.951077 95.1442 2.12429V34.1877C95.1442 35.3609 96.1041 36.312 97.2881 36.312H97.4053C98.5893 36.312 99.5492 35.3609 99.5492 34.1877V2.12429C99.5492 0.951079 98.5893 0 97.4053 0H97.2881ZM5.49055 49.3233V49.6647C5.49055 50.8216 5.41239 51.613 5.25607 52.039C5.10463 52.4601 4.80421 52.6706 4.35478 52.6706H3.19702V46.7096H4.40608C4.84084 46.7096 5.12906 46.9105 5.27073 47.3121C5.41728 47.7139 5.49055 48.3844 5.49055 49.3233ZM4.34745 45.8092H2.10522V58.5881H3.19702V53.5855H4.28151C5.00449 53.5855 5.54429 53.3822 5.90089 52.9756C6.07676 52.7771 6.23307 52.4504 6.36985 51.9953C6.51152 51.5404 6.58236 50.7586 6.58236 49.6501V49.5194C6.58236 48.9386 6.56282 48.4425 6.52374 48.0309C6.48954 47.6195 6.38451 47.196 6.20866 46.7603C6.10606 46.5183 5.90089 46.3004 5.59313 46.1069C5.29027 45.9084 4.87504 45.8092 4.34745 45.8092ZM17.6693 45.8092H16.5555L14.4818 58.5881H15.515L15.9033 55.996H18.4826L18.9076 58.5881H19.9627L17.6693 45.8092ZM17.149 47.8713L18.3361 55.103H16.0425L17.1343 47.8713H17.149ZM32.0462 47.4791C32.1097 47.7793 32.1415 48.2512 32.1415 48.895V48.9894C32.1415 49.8655 32.1073 50.4513 32.0388 50.7466C31.9705 51.0369 31.8678 51.2451 31.7311 51.371C31.5992 51.4967 31.3476 51.5597 30.9764 51.5597H29.8332V46.7096H31.0569C31.3697 46.7096 31.5967 46.7628 31.7385 46.8692C31.8849 46.9757 31.9876 47.179 32.0462 47.4791ZM30.9397 45.8092H28.7488V58.5881H29.8406V52.2858L30.9983 52.3584C31.5405 52.3584 31.8654 52.4795 31.9729 52.7215C32.0853 52.9635 32.1415 53.5298 32.1415 54.4205V55.829C32.1415 56.7148 32.1488 57.3611 32.1634 57.7677C32.178 58.1694 32.2245 58.4429 32.3026 58.5881H33.3871C33.3139 58.3896 33.2674 58.2226 33.2479 58.0871C33.2332 57.9467 33.2259 57.424 33.2259 56.5188C33.2259 54.3357 33.0819 52.9659 32.7935 52.4092C32.7008 52.2301 32.5957 52.1042 32.4785 52.0316C32.3613 51.9542 32.2171 51.9009 32.0462 51.872C32.4809 51.7557 32.7862 51.458 32.9621 50.9788C33.1429 50.4948 33.2332 49.8728 33.2332 49.1128C33.2332 48.3529 33.2015 47.7744 33.1379 47.3775C33.0793 46.9757 32.9377 46.637 32.713 46.361C32.415 45.9932 31.8239 45.8092 30.9397 45.8092ZM45.3386 45.8092H41.6968V46.6514H43.0452V58.5881H44.1296V46.6514H45.3386V45.8092ZM58.7851 45.8092H57.8324V51.291L57.9424 55.6911L54.7768 45.8092H54.0147V58.5881H55.0407V52.4164L54.9674 48.9604L57.935 58.5881H58.7851V45.8092ZM71.7478 45.8092H68.3404V58.5881H71.7257V57.7314H69.4322V52.5254H71.6085V51.6469H69.4322V46.6514H71.7478V45.8092ZM84.0436 47.4791C84.1071 47.7793 84.1389 48.2512 84.1389 48.895V48.9894C84.1389 49.8655 84.1047 50.4513 84.0363 50.7466C83.9679 51.0369 83.8654 51.2451 83.7286 51.371C83.5967 51.4967 83.3451 51.5597 82.9738 51.5597H81.8307V46.7096H83.0545C83.3671 46.7096 83.5942 46.7628 83.7359 46.8692C83.8825 46.9757 83.985 47.179 84.0436 47.4791ZM82.9371 45.8092H80.7463V58.5881H81.838V52.2858L82.9957 52.3584C83.5381 52.3584 83.8629 52.4795 83.9703 52.7215C84.0827 52.9635 84.1389 53.5298 84.1389 54.4205V55.829C84.1389 56.7148 84.1462 57.3611 84.1609 57.7677C84.1755 58.1694 84.2219 58.4429 84.3002 58.5881H85.3846C85.3113 58.3896 85.2649 58.2226 85.2454 58.0871C85.2307 57.9467 85.2233 57.424 85.2233 56.5188C85.2233 54.3357 85.0793 52.9659 84.7911 52.4092C84.6982 52.2301 84.5932 52.1042 84.476 52.0316C84.3588 51.9542 84.2146 51.9009 84.0436 51.872C84.4784 51.7557 84.7838 51.458 84.9596 50.9788C85.1403 50.4948 85.2307 49.8728 85.2307 49.1128C85.2307 48.3529 85.1989 47.7744 85.1355 47.3775C85.0768 46.9757 84.9351 46.637 84.7105 46.361C84.4124 45.9932 83.8213 45.8092 82.9371 45.8092ZM94.7348 46.194C94.3978 46.5522 94.1926 47.0774 94.1193 47.7696C94.0851 48.0842 94.068 48.4666 94.068 48.9167C94.068 49.3622 94.1779 49.8025 94.3978 50.2382C94.6176 50.669 95.0548 51.2015 95.7094 51.8357L96.4568 52.5399C97.214 53.2709 97.5926 54.1106 97.5926 55.0594C97.5926 55.5193 97.5852 55.9501 97.5706 56.3518C97.5608 56.7536 97.4899 57.0972 97.358 57.3829C97.2311 57.6636 96.9306 57.804 96.4568 57.804C95.983 57.804 95.6679 57.5862 95.5115 57.1505C95.3602 56.7148 95.2844 55.921 95.2844 54.769V53.462H94.1706V54.7907C94.1706 55.4974 94.2023 56.0929 94.2659 56.5769C94.4466 58.0145 95.1378 58.7334 96.3396 58.7334C97.1211 58.7334 97.7098 58.5155 98.1056 58.0799C98.506 57.6443 98.7064 56.7415 98.7064 55.3717C98.7064 53.9969 98.1861 52.7795 97.1455 51.7194L96.4422 51.0151C95.8657 50.4439 95.5531 50.11 95.5042 50.0132C95.4603 49.9164 95.3918 49.7832 95.299 49.6138C95.2063 49.4396 95.1598 49.1128 95.1598 48.6336C95.1598 47.2638 95.531 46.5789 96.2736 46.5789C96.64 46.5789 96.894 46.6902 97.0357 46.9129C97.1138 47.0338 97.1896 47.2129 97.2629 47.4501C97.3362 47.6873 97.3727 48.3674 97.3727 49.4905V50.2891H98.4939V49.5703C98.4889 48.0939 98.3938 47.1597 98.2081 46.7676C98.1201 46.5739 97.998 46.3804 97.8417 46.1867C97.5584 45.8286 97.0552 45.6494 96.3322 45.6494C95.6093 45.6494 95.0768 45.831 94.7348 46.194Z" fill="#F0F8FF"/>
<path d="M25.9482 2.16907C25.185 1.22176 24.1135 0.574855 22.9223 0.342076L22.9269 0.339787C20.5269 -0.126063 18.0589 -0.11278 15.664 0.378891C13.2691 0.870558 10.9941 1.83097 8.96888 3.20531C6.94369 4.57963 5.20799 6.34096 3.86087 8.3887C2.51375 10.4365 1.58161 12.7305 1.11767 15.14C0.888261 16.3221 0.772012 17.5238 0.770508 18.7282C0.771636 22.4464 1.88563 26.0787 3.96802 29.1536C6.69939 33.2109 10.9082 36.0294 15.6888 37.0028C20.4694 37.9762 25.4396 37.0266 29.5298 34.3583C29.8531 34.1408 30.0783 33.8043 30.1569 33.4215C30.2356 33.0388 30.1613 32.6405 29.9502 32.3122C29.7391 31.9839 29.408 31.7519 29.0282 31.6664C28.6483 31.5808 28.2502 31.6483 27.9196 31.8546C26.0185 33.0797 23.8009 33.7176 21.5421 33.6893C19.2831 33.661 17.0822 32.9676 15.2122 31.6951C13.3423 30.4225 11.8855 28.6269 11.0227 26.5311C10.1599 24.4351 9.92889 22.1309 10.3584 19.9045C10.4407 19.4795 10.5459 19.0592 10.6736 18.6457C11.3824 16.3623 12.7783 14.3554 14.6694 12.9008C16.5604 11.4461 18.854 10.6152 21.2345 10.5222H21.2985C21.673 10.5084 22.0453 10.5153 22.4039 10.5382C22.522 10.5477 22.6408 10.5431 22.7579 10.5245C23.4453 10.4157 24.1034 10.1678 24.6925 9.79568C25.2814 9.42361 25.7888 8.93516 26.1838 8.36007C27.2396 8.72392 28.2298 9.25661 29.1164 9.93753C29.4316 10.1668 29.8238 10.2626 30.2087 10.2044C30.5936 10.1462 30.9402 9.93855 31.1741 9.62621C31.408 9.31387 31.5103 8.92181 31.4591 8.53448C31.4078 8.14713 31.2071 7.79549 30.9002 7.55529C29.7505 6.67406 28.4652 5.98711 27.0951 5.52155C27.1175 4.30342 26.7113 3.11637 25.9482 2.16907Z" fill="#DD0917"/>
</g>
<defs>
<clipPath id="clip0_3370_1396">
<rect width="98.7788" height="58.7334" fill="white" transform="translate(0.770508)"/>
</clipPath>
</defs>
</svg>
