<svg width="150" height="90" viewBox="0 0 150 90" fill="none" xmlns="http://www.w3.org/2000/svg">
<g clip-path="url(#clip0_3370_1396)">
<path fill-rule="evenodd" clip-rule="evenodd" d="M65.3069 3.75134C65.3069 1.97886 66.7569 0.541992 68.5456 0.541992H68.7229C70.5117 0.541992 71.9617 1.97887 71.9617 3.75134V52.1923C71.9617 53.9647 70.5117 55.4016 68.7229 55.4016H68.5456C66.7569 55.4016 65.3069 53.9647 65.3069 52.1923V31.6741C65.3069 30.0942 64.0142 28.8134 62.4198 28.8134C60.8252 28.8134 59.5328 30.0942 59.5328 31.6741V52.1923C59.5328 53.9647 58.0826 55.4016 56.294 55.4016H56.1167C54.3279 55.4016 52.8778 53.9647 52.8778 52.1923V3.75134C52.8778 1.97886 54.3279 0.541992 56.1167 0.541992H56.294C58.0826 0.541992 59.5328 1.97887 59.5328 3.75134V20.6849C59.5328 22.2647 60.8252 23.5455 62.4198 23.5455C64.0142 23.5455 65.3069 22.2647 65.3069 20.6849V3.75134ZM81.7353 3.75134C81.7353 1.97886 83.1852 0.541992 84.974 0.541992H85.1513C86.9401 0.541992 88.3901 1.97887 88.3901 3.75134V52.1923C88.3901 53.9647 86.9401 55.4016 85.1513 55.4016H84.974C83.1852 55.4016 81.7353 53.9647 81.7353 52.1923V3.75134ZM101.435 0.541992C99.6459 0.541992 98.1957 1.97886 98.1957 3.75134V52.1923C98.1957 53.9647 99.6459 55.4016 101.435 55.4016H112.61C114.095 55.4016 115.299 54.2083 115.299 52.7366C115.299 51.2646 114.095 50.0713 112.61 50.0713H108.089C106.301 50.0713 104.851 48.6345 104.851 46.862V3.75134C104.851 1.97887 103.401 0.541992 101.612 0.541992H101.435ZM121.086 3.75134C121.086 1.97886 122.536 0.541992 124.325 0.541992H124.502C126.291 0.541992 127.741 1.97887 127.741 3.75134V46.862C127.741 48.6345 129.191 50.0713 130.98 50.0713H135.5C136.985 50.0713 138.19 51.2646 138.19 52.7366C138.19 54.2083 136.985 55.4016 135.5 55.4016H124.325C122.536 55.4016 121.086 53.9647 121.086 52.1923V3.75134ZM146.084 0.541992C144.295 0.541992 142.845 1.97886 142.845 3.75134V52.1923C142.845 53.9647 144.295 55.4016 146.084 55.4016H146.261C148.05 55.4016 149.5 53.9647 149.5 52.1923V3.75134C149.5 1.97887 148.05 0.541992 146.261 0.541992H146.084ZM7.39769 75.0589V75.5745C7.39769 77.3224 7.27962 78.518 7.04345 79.1616C6.81465 79.7978 6.36078 80.1158 5.68179 80.1158H3.93268V71.11H5.75929C6.41612 71.11 6.85156 71.4135 7.06559 72.0203C7.287 72.6274 7.39769 73.6403 7.39769 75.0589ZM5.67072 69.7498H2.2832V89.0559H3.93268V81.4981H5.5711C6.66336 81.4981 7.47888 81.1909 8.01764 80.5767C8.28333 80.2768 8.51948 79.7831 8.72613 79.0956C8.94016 78.4083 9.04719 77.2272 9.04719 75.5525V75.3551C9.04719 74.4776 9.01766 73.7281 8.95861 73.1063C8.90695 72.4848 8.74827 71.8449 8.4826 71.1866C8.3276 70.821 8.01764 70.4919 7.55267 70.1995C7.09511 69.8996 6.46779 69.7498 5.67072 69.7498ZM25.7971 69.7498H24.1144L20.9815 89.0559H22.5424L23.1291 85.1398H27.0259L27.668 89.0559H29.262L25.7971 69.7498ZM25.011 72.8651L26.8045 83.7906H23.3394L24.9889 72.8651H25.011ZM47.5175 72.2726C47.6134 72.7262 47.6614 73.4391 47.6614 74.4117V74.5543C47.6614 75.878 47.6098 76.7629 47.5064 77.209C47.4031 77.6477 47.248 77.9622 47.0415 78.1524C46.8423 78.3424 46.4621 78.4376 45.9013 78.4376H44.1742V71.11H46.0229C46.4954 71.11 46.8384 71.1905 47.0526 71.3512C47.2738 71.5121 47.4289 71.8193 47.5175 72.2726ZM45.8458 69.7498H42.5359V89.0559H44.1853V79.5344L45.9344 79.6441C46.7535 79.6441 47.2444 79.8271 47.4067 80.1927C47.5765 80.5583 47.6614 81.414 47.6614 82.7595V84.8875C47.6614 86.2257 47.6725 87.2022 47.6945 87.8165C47.7167 88.4233 47.7869 88.8365 47.9049 89.0559H49.5434C49.4327 88.7561 49.3625 88.5038 49.3331 88.2991C49.3109 88.0869 49.2998 87.2972 49.2998 85.9297C49.2998 82.6314 49.0822 80.5619 48.6466 79.721C48.5064 79.4503 48.3477 79.2602 48.1707 79.1505C47.9936 79.0335 47.7758 78.953 47.5175 78.9093C48.1743 78.7336 48.6355 78.2839 48.9013 77.5599C49.1743 76.8287 49.3109 75.8889 49.3109 74.7408C49.3109 73.5927 49.2629 72.7187 49.1669 72.1192C49.0784 71.5121 48.8644 71.0003 48.525 70.5835C48.0747 70.0277 47.1817 69.7498 45.8458 69.7498ZM67.5994 69.7498H62.0975V71.0221H64.1346V89.0559H65.7729V71.0221H67.5994V69.7498ZM87.9141 69.7498H86.4748V78.0316L86.641 84.6792L81.8585 69.7498H80.7072V89.0559H82.2572V79.7319L82.1464 74.5105L86.6299 89.0559H87.9141V69.7498ZM107.498 69.7498H102.35V89.0559H107.465V87.7616H104V79.8964H107.288V78.5693H104V71.0221H107.498V69.7498ZM126.074 72.2726C126.17 72.7262 126.218 73.4391 126.218 74.4117V74.5543C126.218 75.878 126.167 76.7629 126.063 77.209C125.96 77.6477 125.805 77.9622 125.598 78.1524C125.399 78.3424 125.019 78.4376 124.458 78.4376H122.731V71.11H124.58C125.052 71.11 125.395 71.1905 125.609 71.3512C125.831 71.5121 125.986 71.8193 126.074 72.2726ZM124.403 69.7498H121.093V89.0559H122.742V79.5344L124.491 79.6441C125.311 79.6441 125.801 79.8271 125.964 80.1927C126.133 80.5583 126.218 81.414 126.218 82.7595V84.8875C126.218 86.2257 126.229 87.2022 126.252 87.8165C126.274 88.4233 126.344 88.8365 126.462 89.0559H128.1C127.99 88.7561 127.919 88.5038 127.89 88.2991C127.868 88.0869 127.857 87.2972 127.857 85.9297C127.857 82.6314 127.639 80.5619 127.204 79.721C127.063 79.4503 126.905 79.2602 126.728 79.1505C126.55 79.0335 126.333 78.953 126.074 78.9093C126.731 78.7336 127.193 78.2839 127.458 77.5599C127.731 76.8287 127.868 75.8889 127.868 74.7408C127.868 73.5927 127.82 72.7187 127.724 72.1192C127.635 71.5121 127.421 71.0003 127.082 70.5835C126.632 70.0277 125.739 69.7498 124.403 69.7498ZM142.226 70.3312C141.717 70.8723 141.407 71.6658 141.296 72.7114C141.245 73.1868 141.219 73.7646 141.219 74.4446C141.219 75.1175 141.385 75.7828 141.717 76.4411C142.049 77.0919 142.71 77.8963 143.699 78.8544L144.828 79.9184C145.972 81.0227 146.544 82.2914 146.544 83.7249C146.544 84.4196 146.533 85.0704 146.511 85.6774C146.496 86.2844 146.389 86.8035 146.19 87.2351C145.998 87.6592 145.544 87.8713 144.828 87.8713C144.112 87.8713 143.636 87.5422 143.4 86.884C143.171 86.2257 143.057 85.0264 143.057 83.286V81.3115H141.374V83.3189C141.374 84.3865 141.422 85.2862 141.518 86.0174C141.791 88.1894 142.835 89.2753 144.651 89.2753C145.832 89.2753 146.721 88.9462 147.319 88.2882C147.924 87.63 148.227 86.2661 148.227 84.1966C148.227 82.1196 147.44 80.2804 145.868 78.6788L144.806 77.6148C143.935 76.7518 143.463 76.2473 143.389 76.1011C143.322 75.9549 143.219 75.7536 143.079 75.4977C142.939 75.2345 142.868 74.7408 142.868 74.0168C142.868 71.9473 143.429 70.9126 144.551 70.9126C145.105 70.9126 145.489 71.0808 145.703 71.4172C145.82 71.5999 145.935 71.8705 146.046 72.2289C146.156 72.5872 146.212 73.6147 146.212 75.3113V76.5179H147.906V75.4319C147.898 73.2015 147.754 71.79 147.474 71.1977C147.341 70.9051 147.156 70.6127 146.92 70.3201C146.492 69.779 145.732 69.5084 144.64 69.5084C143.548 69.5084 142.743 69.7826 142.226 70.3312Z" fill="#F0F8FF"/>
<path d="M38.3046 3.81898C37.1516 2.38781 35.5329 1.41047 33.7332 1.0588L33.7401 1.05534C30.1143 0.351538 26.3857 0.371606 22.7674 1.11441C19.1492 1.85722 15.7122 3.3082 12.6526 5.38452C9.59294 7.46082 6.97067 10.1218 4.93547 13.2155C2.90027 16.3092 1.492 19.7751 0.791081 23.4152C0.444502 25.2012 0.268874 27.0166 0.266602 28.8362C0.268305 34.4537 1.95131 39.9412 5.09735 44.5868C9.22385 50.7165 15.5825 54.9747 22.8049 56.4452C30.0274 57.9158 37.5362 56.4811 43.7157 52.45C44.2041 52.1213 44.5443 51.6129 44.6631 51.0347C44.7819 50.4565 44.6698 49.8548 44.3507 49.3587C44.0319 48.8628 43.5316 48.5123 42.9578 48.383C42.3839 48.2537 41.7825 48.3558 41.283 48.6673C38.4109 50.5182 35.0606 51.482 31.648 51.4392C28.2352 51.3965 24.9101 50.3488 22.0849 48.4263C19.2598 46.5039 17.059 43.791 15.7554 40.6247C14.4519 37.4581 14.1029 33.9769 14.7519 30.6133C14.8761 29.9712 15.0351 29.3364 15.2281 28.7116C16.2989 25.2619 18.4078 22.2298 21.2647 20.0322C24.1218 17.8346 27.5868 16.5793 31.1833 16.4387H31.2799C31.8458 16.418 32.4082 16.4284 32.9499 16.463C33.1284 16.4773 33.3079 16.4703 33.4847 16.4422C34.5233 16.2779 35.5175 15.9033 36.4075 15.3411C37.2973 14.779 38.0638 14.0411 38.6605 13.1722C40.2557 13.7219 41.7517 14.5267 43.0911 15.5554C43.5673 15.9018 44.1598 16.0466 44.7414 15.9586C45.3228 15.8707 45.8465 15.557 46.1998 15.0851C46.5532 14.6132 46.7078 14.0209 46.6304 13.4357C46.5529 12.8505 46.2496 12.3193 45.786 11.9564C44.0491 10.625 42.1072 9.58721 40.0373 8.88386C40.0712 7.04353 39.4575 5.25015 38.3046 3.81898Z" fill="#DD0917"/>
</g>
<defs>
<clipPath id="clip0_3370_1396">
<rect width="149.233" height="88.7334" fill="white" transform="translate(0.266602 0.541992)"/>
</clipPath>
</defs>
</svg>
