<svg width="73" height="53" viewBox="0 0 73 53" fill="none" xmlns="http://www.w3.org/2000/svg">
<g clip-path="url(#clip0_3370_1444)">
<path d="M48.4024 0.458008H24.6538V40.0998H48.4024V0.458008Z" fill="#EB3E33"/>
<path d="M24.6538 32.6613H40.6679V40.0998H48.404V32.6613V14.924V0.458008L24.6538 32.6613Z" fill="#BAB295"/>
<path d="M72.1517 0.458008H48.4033V40.0998H72.1517V0.458008Z" fill="#EB3E33"/>
<path d="M24.6534 0.458008H0.904785V40.0998H24.6534V0.458008Z" fill="#BAB295"/>
<path d="M72.1517 7.89648L48.4033 40.0998H72.1517V7.89648Z" fill="#BAB295"/>
<path d="M44.6304 7.89644L48.4013 0.458008H72.1499V7.89644H44.6304Z" fill="#BAB295"/>
<path d="M16.8455 15.8768C16.8455 13.7613 16.006 11.7325 14.5118 10.2366C13.0175 8.74075 10.9908 7.90039 8.87761 7.90039C6.7644 7.90039 4.73775 8.74075 3.24348 10.2366C1.74921 11.7325 0.909668 13.7613 0.909668 15.8768V40.0959L15.1849 20.7463C16.2635 19.3529 16.8478 17.6396 16.8455 15.8768Z" fill="#EB3E33"/>
<path d="M26.9345 48.2873C26.9345 49.6125 26.062 50.2618 24.4467 50.2618H22.36V52.1438H21.0205V46.3223H24.605C26.2029 46.3223 26.9345 47.1142 26.9345 48.2873ZM25.57 48.2873C25.57 47.6302 25.1548 47.3558 24.3731 47.3558H22.36V49.2377H24.3731C25.1485 49.2456 25.57 48.9288 25.57 48.2873Z" fill="#BAB295"/>
<path d="M31.2576 51.0115H28.0648L27.5651 52.1516H26.1426L28.8371 46.3223H30.4852L33.172 52.1516H31.7496L31.2576 51.0115ZM30.8096 49.9874L29.6612 47.3385L28.5129 49.9874H30.8096Z" fill="#BAB295"/>
<path d="M38.4489 52.1516L37.2174 50.1787H35.0963V52.1516H33.7568V46.3223H37.3507C38.9314 46.3223 39.746 47.0798 39.746 48.2544C39.746 49.1703 39.3136 49.7208 38.5491 49.9795L39.9372 52.1438L38.4489 52.1516ZM35.0963 49.1625H37.3006C38.1168 49.1625 38.3815 48.7374 38.3815 48.2544C38.3815 47.7714 38.1324 47.3558 37.3006 47.3558H35.0963V49.1625Z" fill="#BAB295"/>
<path d="M45.9339 47.3558H43.7297V52.1516H42.3902V47.3558H40.1875V46.3223H45.9355L45.9339 47.3558Z" fill="#BAB295"/>
<path d="M52.7339 46.3223V52.1516H51.2284L48.0012 47.9878V52.1516H46.6616V46.3223H48.1594L51.3867 50.494V46.3223H52.7339Z" fill="#BAB295"/>
<path d="M58.7347 52.1487H53.5444V46.3193H58.6517V47.3528H54.8839V48.6436H58.4183V49.6613H54.8839V51.1104H58.7347V52.1487Z" fill="#BAB295"/>
<path d="M64.1569 52.1487L62.9272 50.1758H60.8059V52.1487H59.457V46.3193H63.0603C64.6395 46.3193 65.4557 47.0768 65.4557 48.2515C65.4557 49.1673 65.0233 49.7163 64.2573 49.9766L65.6468 52.1424L64.1569 52.1487ZM60.8059 49.1595H63.0102C63.8249 49.1595 64.0912 48.7345 64.0912 48.2515C64.0912 47.7684 63.8421 47.3528 63.0102 47.3528H60.8059V49.1595Z" fill="#BAB295"/>
<path d="M72.1474 50.3344C72.1474 51.6 71.1085 52.2759 69.0357 52.2759C67.0245 52.2759 65.9668 51.5169 65.9668 50.3344H67.3646C67.3976 50.9429 68.0978 51.2502 69.1536 51.2502C70.2593 51.2502 70.7205 50.9601 70.7205 50.5178C70.7205 49.9188 69.8227 49.9768 68.2338 49.7102C66.6456 49.4436 66.1456 48.9606 66.1456 48.0447C66.1456 47.088 66.7939 46.2051 68.9327 46.2051C70.9867 46.2051 71.7853 46.9892 71.8184 48.0196H70.521C70.4711 47.604 69.9885 47.2354 68.9153 47.2354C67.7183 47.2354 67.4352 47.5601 67.4352 47.96C67.4352 48.5089 68.3997 48.5434 69.4231 48.6845C71.0398 48.9025 72.1474 49.0358 72.1474 50.3344Z" fill="#BAB295"/>
<path d="M11.7656 46.3223H10.0674L6.79932 50.0281V50.977H10.4997V52.1516H11.7656V50.977H12.8371V50.1113H11.7656V46.3223ZM10.4997 50.1113H8.13722L10.4997 47.4452V50.1113Z" fill="#BAB295"/>
<path d="M12.7334 46.3223V47.3542H16.7926L13.548 52.1516H15.0504L18.19 47.3542V46.3223H12.7334Z" fill="#BAB295"/>
<path d="M5.39548 49.433L5.41108 49.4189C5.45182 49.3828 5.49103 49.3436 5.53019 49.3013L5.54426 49.2872C5.85993 48.9497 6.04205 48.5087 6.05656 48.0466C6.05656 46.69 5.0022 46.207 3.69406 46.207C2.38592 46.207 1.41779 46.8015 1.27679 48.1172H2.48305C2.55668 47.5103 3.01887 47.1621 3.61106 47.1402C4.35521 47.112 4.7845 47.435 4.81112 47.9243C4.81906 48.0837 4.79086 48.2428 4.72874 48.3897C4.66662 48.5366 4.57217 48.6676 4.45236 48.7727L4.11708 49.0864L0.902344 52.1493H6.14904V51.1252H3.66591L5.39548 49.433Z" fill="#BAB295"/>
</g>
<defs>
<clipPath id="clip0_3370_1444">
<rect width="71.25" height="51.8182" fill="white" transform="translate(0.902344 0.458008)"/>
</clipPath>
</defs>
</svg>
