<svg width="205" height="52" viewBox="0 0 205 52" fill="none" xmlns="http://www.w3.org/2000/svg">
<g clip-path="url(#clip0_3370_1419)">
<g clip-path="url(#clip1_3370_1419)">
<mask id="path-1-inside-1_3370_1419" fill="white">
<path d="M90.2754 21.2889H72.8998C72.453 21.2889 72.0686 21.6043 71.981 22.0453L71.4579 24.6472C71.3405 25.231 71.7844 25.7756 72.3764 25.7756H83.1389V25.9403C83.1389 25.9403 82.4141 26.3719 79.5254 28.2441C76.996 29.8841 74.6543 32.045 73.4106 35.364C73.1419 36.0798 73.6683 36.8457 74.4309 36.8457H80.3285C80.9347 36.8457 81.4675 36.4532 81.664 35.8758C82.4532 33.5642 83.8124 31.6464 86.6386 29.7428C89.8208 27.5991 90.0349 27.2696 90.8551 24.0054C90.9818 23.5032 91.1021 22.9053 91.1958 22.3984C91.3019 21.8209 90.8599 21.2889 90.2754 21.2889ZM107.898 20.6973C98.6307 20.6973 97.4542 24.0964 97.4542 26.634C97.4542 29.1732 99.0914 30.54 104.127 30.9323C108.875 31.3012 109.195 31.6715 109.235 32.2082C109.275 32.7308 109.101 33.4575 106.347 33.4575C104.43 33.4575 103.607 33.2629 103.283 32.7042C102.943 32.1156 102.318 31.7515 101.64 31.7515H96.9075C96.3715 31.7515 95.9434 32.2003 95.97 32.7385C96.0702 34.7426 96.8264 36.8816 102.549 37.3335C104.752 37.5078 107.54 37.5078 109.968 37.2757C115.931 36.706 116.57 33.3554 116.675 31.6637C116.83 29.1449 115.686 27.1409 109.451 26.8207C105.144 26.601 104.689 26.2699 104.689 25.7003C104.689 25.2232 104.945 24.484 107.606 24.5641C109.112 24.6096 109.729 24.9203 109.981 25.2561C110.328 25.7191 110.887 25.9717 111.463 25.9717H116.242C116.803 25.9717 117.241 25.4805 117.173 24.9219C116.945 23.0403 115.624 20.6973 107.898 20.6973ZM195.118 24.5656C196.624 24.6111 197.241 24.9219 197.492 25.2577C197.839 25.7207 198.399 25.9733 198.975 25.9733H203.754C204.315 25.9733 204.752 25.4821 204.685 24.9234C204.459 23.0403 203.137 20.6973 195.411 20.6973C186.144 20.6973 184.968 24.0964 184.968 26.634C184.968 29.1732 186.605 30.54 191.64 30.9323C196.388 31.3012 196.708 31.6715 196.749 32.2082C196.788 32.7308 196.614 33.4575 193.86 33.4575C191.943 33.4575 191.12 33.2629 190.796 32.7042C190.456 32.1156 189.831 31.7515 189.153 31.7515H184.421C183.885 31.7515 183.457 32.2003 183.483 32.7385C183.583 34.7426 184.339 36.8816 190.062 37.3335C192.265 37.5078 195.054 37.5078 197.481 37.2757C203.445 36.706 204.084 33.3554 204.188 31.6637C204.343 29.1449 203.199 27.1409 196.964 26.8207C192.657 26.601 192.202 26.2699 192.202 25.7003C192.201 25.2248 192.457 24.4856 195.118 24.5656ZM137.777 24.8622L138.204 22.5553C138.325 21.8962 137.822 21.2873 137.155 21.2873H121.076C120.501 21.2873 120.007 21.7001 119.903 22.2681L119.476 24.5751C119.354 25.2342 119.857 25.8431 120.525 25.8431H125.236L123.346 35.7675C123.235 36.3465 123.677 36.8848 124.266 36.8848H128.624C129.07 36.8848 129.455 36.5676 129.542 36.1267L131.565 25.8431H136.605C137.179 25.8415 137.672 25.4303 137.777 24.8622ZM153.522 22.7923C153.267 21.9025 152.455 21.2889 151.533 21.2889H145.873C145.181 21.2889 144.535 21.6357 144.151 22.2132L135.21 35.6592C134.862 36.1832 135.235 36.8848 135.863 36.8848H140.944C141.213 36.8848 141.462 36.7468 141.606 36.5175L142.643 34.8697H150.519L150.891 36.2964C150.982 36.643 151.292 36.8848 151.65 36.8848H156.521C157.043 36.8848 157.42 36.3827 157.276 35.8787L153.522 22.7923ZM145.171 30.8586L148.077 26.2448H148.277L149.477 30.8586H145.171ZM175.94 21.2889H164.109C163.525 21.2889 163.022 21.7048 162.911 22.2807L160.31 35.6718C160.188 36.3009 160.668 36.8848 161.305 36.8848H165.556C166.042 36.8848 166.459 36.5379 166.551 36.0594L167.256 32.3918H171.89L173.367 36.2398C173.516 36.6291 173.888 36.8848 174.303 36.8848H178.922C179.629 36.8848 180.114 36.1706 179.854 35.5085C179.373 34.2813 178.665 32.4781 178.142 31.1348L178.19 30.8853C179.89 30.5338 181.829 29.4227 182.06 26.2354C182.29 23.0512 180.915 21.2889 175.94 21.2889ZM174.917 27.2115C174.736 28.0479 174.216 28.6019 172.771 28.6019H167.982L168.509 25.8619H173.613C174.858 25.8619 175.072 26.4928 174.917 27.2115Z"/>
</mask>
<path d="M90.2754 21.2889H72.8998C72.453 21.2889 72.0686 21.6043 71.981 22.0453L71.4579 24.6472C71.3405 25.231 71.7844 25.7756 72.3764 25.7756H83.1389V25.9403C83.1389 25.9403 82.4141 26.3719 79.5254 28.2441C76.996 29.8841 74.6543 32.045 73.4106 35.364C73.1419 36.0798 73.6683 36.8457 74.4309 36.8457H80.3285C80.9347 36.8457 81.4675 36.4532 81.664 35.8758C82.4532 33.5642 83.8124 31.6464 86.6386 29.7428C89.8208 27.5991 90.0349 27.2696 90.8551 24.0054C90.9818 23.5032 91.1021 22.9053 91.1958 22.3984C91.3019 21.8209 90.8599 21.2889 90.2754 21.2889ZM107.898 20.6973C98.6307 20.6973 97.4542 24.0964 97.4542 26.634C97.4542 29.1732 99.0914 30.54 104.127 30.9323C108.875 31.3012 109.195 31.6715 109.235 32.2082C109.275 32.7308 109.101 33.4575 106.347 33.4575C104.43 33.4575 103.607 33.2629 103.283 32.7042C102.943 32.1156 102.318 31.7515 101.64 31.7515H96.9075C96.3715 31.7515 95.9434 32.2003 95.97 32.7385C96.0702 34.7426 96.8264 36.8816 102.549 37.3335C104.752 37.5078 107.54 37.5078 109.968 37.2757C115.931 36.706 116.57 33.3554 116.675 31.6637C116.83 29.1449 115.686 27.1409 109.451 26.8207C105.144 26.601 104.689 26.2699 104.689 25.7003C104.689 25.2232 104.945 24.484 107.606 24.5641C109.112 24.6096 109.729 24.9203 109.981 25.2561C110.328 25.7191 110.887 25.9717 111.463 25.9717H116.242C116.803 25.9717 117.241 25.4805 117.173 24.9219C116.945 23.0403 115.624 20.6973 107.898 20.6973ZM195.118 24.5656C196.624 24.6111 197.241 24.9219 197.492 25.2577C197.839 25.7207 198.399 25.9733 198.975 25.9733H203.754C204.315 25.9733 204.752 25.4821 204.685 24.9234C204.459 23.0403 203.137 20.6973 195.411 20.6973C186.144 20.6973 184.968 24.0964 184.968 26.634C184.968 29.1732 186.605 30.54 191.64 30.9323C196.388 31.3012 196.708 31.6715 196.749 32.2082C196.788 32.7308 196.614 33.4575 193.86 33.4575C191.943 33.4575 191.12 33.2629 190.796 32.7042C190.456 32.1156 189.831 31.7515 189.153 31.7515H184.421C183.885 31.7515 183.457 32.2003 183.483 32.7385C183.583 34.7426 184.339 36.8816 190.062 37.3335C192.265 37.5078 195.054 37.5078 197.481 37.2757C203.445 36.706 204.084 33.3554 204.188 31.6637C204.343 29.1449 203.199 27.1409 196.964 26.8207C192.657 26.601 192.202 26.2699 192.202 25.7003C192.201 25.2248 192.457 24.4856 195.118 24.5656ZM137.777 24.8622L138.204 22.5553C138.325 21.8962 137.822 21.2873 137.155 21.2873H121.076C120.501 21.2873 120.007 21.7001 119.903 22.2681L119.476 24.5751C119.354 25.2342 119.857 25.8431 120.525 25.8431H125.236L123.346 35.7675C123.235 36.3465 123.677 36.8848 124.266 36.8848H128.624C129.07 36.8848 129.455 36.5676 129.542 36.1267L131.565 25.8431H136.605C137.179 25.8415 137.672 25.4303 137.777 24.8622ZM153.522 22.7923C153.267 21.9025 152.455 21.2889 151.533 21.2889H145.873C145.181 21.2889 144.535 21.6357 144.151 22.2132L135.21 35.6592C134.862 36.1832 135.235 36.8848 135.863 36.8848H140.944C141.213 36.8848 141.462 36.7468 141.606 36.5175L142.643 34.8697H150.519L150.891 36.2964C150.982 36.643 151.292 36.8848 151.65 36.8848H156.521C157.043 36.8848 157.42 36.3827 157.276 35.8787L153.522 22.7923ZM145.171 30.8586L148.077 26.2448H148.277L149.477 30.8586H145.171ZM175.94 21.2889H164.109C163.525 21.2889 163.022 21.7048 162.911 22.2807L160.31 35.6718C160.188 36.3009 160.668 36.8848 161.305 36.8848H165.556C166.042 36.8848 166.459 36.5379 166.551 36.0594L167.256 32.3918H171.89L173.367 36.2398C173.516 36.6291 173.888 36.8848 174.303 36.8848H178.922C179.629 36.8848 180.114 36.1706 179.854 35.5085C179.373 34.2813 178.665 32.4781 178.142 31.1348L178.19 30.8853C179.89 30.5338 181.829 29.4227 182.06 26.2354C182.29 23.0512 180.915 21.2889 175.94 21.2889ZM174.917 27.2115C174.736 28.0479 174.216 28.6019 172.771 28.6019H167.982L168.509 25.8619H173.613C174.858 25.8619 175.072 26.4928 174.917 27.2115Z" fill="#F0F8FF" stroke="#F0F8FF" stroke-width="2" mask="url(#path-1-inside-1_3370_1419)"/>
<mask id="path-2-inside-2_3370_1419" fill="white">
<path d="M198.436 44.5141C196.812 44.3871 196.735 44.3228 196.733 44.1107C196.733 43.9649 196.827 43.6619 197.81 43.6917C198.418 43.7104 198.633 43.8456 198.71 43.982C198.792 44.131 198.958 44.2112 199.128 44.2112H200.814C201.144 44.2112 201.38 43.8973 201.295 43.5772C201.108 42.8679 200.392 42.2637 197.741 42.2637C194.527 42.2637 194.043 43.5569 194.063 44.4543C194.084 45.3912 194.671 45.8057 196.071 46.0032C196.399 46.0488 197.065 46.0928 197.822 46.1901C198.291 46.2496 198.4 46.3628 198.4 46.5134C198.4 46.7206 198.364 46.9748 197.347 46.9748C196.604 46.9748 196.285 46.8978 196.183 46.6673C196.099 46.4772 195.926 46.3453 195.718 46.3453H194.004C193.707 46.3453 193.473 46.6059 193.507 46.9027C193.585 47.5586 194.041 48.2553 195.944 48.406C196.758 48.4703 197.955 48.4577 198.85 48.3588C201.392 48.0766 201.423 46.0537 200.917 45.3583C200.516 44.8074 199.916 44.6302 198.436 44.5141ZM181.457 42.4835H177.133C176.894 42.4835 176.689 42.6529 176.644 42.8883L175.721 47.6385C175.661 47.9479 175.895 48.235 176.209 48.235H177.523C177.762 48.235 177.967 48.0656 178.012 47.8286L178.253 46.5778H179.962L180.475 47.9149C180.548 48.1079 180.734 48.235 180.94 48.235H182.367C182.718 48.235 182.959 47.8803 182.831 47.5506C182.659 47.1128 182.437 46.548 182.268 46.1132L182.285 46.0207C182.912 45.8904 183.627 45.4808 183.712 44.3053C183.799 43.133 183.293 42.4835 181.457 42.4835ZM181.081 44.6677C181.014 44.9755 180.822 45.1811 180.289 45.1811H178.523L178.717 44.1705H180.599C181.059 44.1689 181.139 44.4026 181.081 44.6677ZM111.85 42.4835H107.525C107.286 42.4835 107.081 42.6529 107.036 42.8883L106.113 47.6385C106.053 47.9479 106.288 48.235 106.602 48.235H107.916C108.155 48.235 108.359 48.0656 108.405 47.8286L108.645 46.5778H110.354L110.867 47.9149C110.94 48.1079 111.126 48.235 111.332 48.235H112.759C113.11 48.235 113.351 47.8803 113.223 47.5506C113.051 47.1128 112.829 46.548 112.66 46.1132L112.678 46.0207C113.304 45.8904 114.02 45.4808 114.104 44.3053C114.19 43.133 113.684 42.4835 111.85 42.4835ZM111.471 44.6677C111.404 44.9755 111.212 45.1811 110.679 45.1811H108.914L109.108 44.1705H110.99C111.449 44.1689 111.529 44.4026 111.471 44.6677ZM125.021 44.1624H126.632L125.969 47.6401C125.91 47.9492 126.146 48.235 126.458 48.235H127.754C127.991 48.235 128.196 48.0656 128.242 47.8315L128.964 44.1624H130.775C131.016 44.1624 131.22 43.9898 131.266 43.7531L131.391 43.0751C131.447 42.7674 131.213 42.4835 130.9 42.4835H125.145C124.904 42.4835 124.699 42.6558 124.654 42.8928L124.529 43.5708C124.474 43.8769 124.71 44.1624 125.021 44.1624ZM90.9694 42.7046L87.8105 47.4549C87.5887 47.7875 87.826 48.2334 88.2246 48.2334H89.5915C89.7619 48.2334 89.921 48.1454 90.0134 48.0012L90.3351 47.4911H93.2393L93.3347 47.8599C93.3925 48.0795 93.5894 48.2334 93.8174 48.2334H95.1752C95.5063 48.2334 95.7452 47.9149 95.653 47.5945L94.291 42.8443C94.2299 42.6293 94.0346 42.4819 93.8128 42.4819H91.3849C91.2177 42.4835 91.0616 42.5666 90.9694 42.7046ZM91.2662 46.0126L92.3379 44.3118H92.4113L92.8536 46.0126H91.2662ZM76.5494 42.4835H72.2845C72.0455 42.4835 71.8409 42.6529 71.7953 42.8883L70.872 47.6385C70.8128 47.9479 71.0472 48.235 71.3611 48.235H72.675C72.9139 48.235 73.1186 48.0656 73.1641 47.8286L73.4047 46.5778H75.7777C78.1087 46.5778 78.6444 45.6172 78.7633 44.4136C78.882 43.2083 78.3835 42.4835 76.5494 42.4835ZM76.1996 44.5581C76.1323 44.8843 75.9403 45.1009 75.4075 45.1009H73.6872L73.8935 44.0308H75.7182C76.1776 44.0324 76.2575 44.2788 76.1996 44.5581ZM146.476 45.5969H146.418L144.611 42.7156C144.52 42.5698 144.361 42.4819 144.189 42.4819H142.325C142.086 42.4819 141.881 42.6513 141.836 42.8867L140.917 47.6369C140.858 47.9463 141.094 48.2334 141.406 48.2334H142.58C142.819 48.2334 143.025 48.0623 143.069 47.8254L143.58 45.1184H143.637L145.445 47.9996C145.536 48.1454 145.695 48.2334 145.867 48.2334H147.73C147.97 48.2334 148.174 48.064 148.22 47.8286L149.138 43.0781C149.198 42.769 148.962 42.4819 148.649 42.4819H147.476C147.237 42.4819 147.031 42.6529 146.987 42.8899L146.476 45.5969ZM159.314 48.2334H165.144L165.303 47.408C165.362 47.0986 165.127 46.8131 164.814 46.8131H161.291L161.447 46.0016H164.902C165.141 46.0016 165.345 45.8322 165.391 45.5969L165.453 45.2703C165.512 44.9613 165.277 44.6758 164.964 44.6758H161.702L161.844 43.9364H165.495C165.734 43.9364 165.939 43.767 165.984 43.5316L166.072 43.0813C166.131 42.7722 165.895 42.4864 165.583 42.4864H160.227C159.988 42.4864 159.784 42.6558 159.738 42.8915L158.824 47.6417C158.765 47.9479 159.001 48.2334 159.314 48.2334Z"/>
</mask>
<path d="M198.436 44.5141C196.812 44.3871 196.735 44.3228 196.733 44.1107C196.733 43.9649 196.827 43.6619 197.81 43.6917C198.418 43.7104 198.633 43.8456 198.71 43.982C198.792 44.131 198.958 44.2112 199.128 44.2112H200.814C201.144 44.2112 201.38 43.8973 201.295 43.5772C201.108 42.8679 200.392 42.2637 197.741 42.2637C194.527 42.2637 194.043 43.5569 194.063 44.4543C194.084 45.3912 194.671 45.8057 196.071 46.0032C196.399 46.0488 197.065 46.0928 197.822 46.1901C198.291 46.2496 198.4 46.3628 198.4 46.5134C198.4 46.7206 198.364 46.9748 197.347 46.9748C196.604 46.9748 196.285 46.8978 196.183 46.6673C196.099 46.4772 195.926 46.3453 195.718 46.3453H194.004C193.707 46.3453 193.473 46.6059 193.507 46.9027C193.585 47.5586 194.041 48.2553 195.944 48.406C196.758 48.4703 197.955 48.4577 198.85 48.3588C201.392 48.0766 201.423 46.0537 200.917 45.3583C200.516 44.8074 199.916 44.6302 198.436 44.5141ZM181.457 42.4835H177.133C176.894 42.4835 176.689 42.6529 176.644 42.8883L175.721 47.6385C175.661 47.9479 175.895 48.235 176.209 48.235H177.523C177.762 48.235 177.967 48.0656 178.012 47.8286L178.253 46.5778H179.962L180.475 47.9149C180.548 48.1079 180.734 48.235 180.94 48.235H182.367C182.718 48.235 182.959 47.8803 182.831 47.5506C182.659 47.1128 182.437 46.548 182.268 46.1132L182.285 46.0207C182.912 45.8904 183.627 45.4808 183.712 44.3053C183.799 43.133 183.293 42.4835 181.457 42.4835ZM181.081 44.6677C181.014 44.9755 180.822 45.1811 180.289 45.1811H178.523L178.717 44.1705H180.599C181.059 44.1689 181.139 44.4026 181.081 44.6677ZM111.85 42.4835H107.525C107.286 42.4835 107.081 42.6529 107.036 42.8883L106.113 47.6385C106.053 47.9479 106.288 48.235 106.602 48.235H107.916C108.155 48.235 108.359 48.0656 108.405 47.8286L108.645 46.5778H110.354L110.867 47.9149C110.94 48.1079 111.126 48.235 111.332 48.235H112.759C113.11 48.235 113.351 47.8803 113.223 47.5506C113.051 47.1128 112.829 46.548 112.66 46.1132L112.678 46.0207C113.304 45.8904 114.02 45.4808 114.104 44.3053C114.19 43.133 113.684 42.4835 111.85 42.4835ZM111.471 44.6677C111.404 44.9755 111.212 45.1811 110.679 45.1811H108.914L109.108 44.1705H110.99C111.449 44.1689 111.529 44.4026 111.471 44.6677ZM125.021 44.1624H126.632L125.969 47.6401C125.91 47.9492 126.146 48.235 126.458 48.235H127.754C127.991 48.235 128.196 48.0656 128.242 47.8315L128.964 44.1624H130.775C131.016 44.1624 131.22 43.9898 131.266 43.7531L131.391 43.0751C131.447 42.7674 131.213 42.4835 130.9 42.4835H125.145C124.904 42.4835 124.699 42.6558 124.654 42.8928L124.529 43.5708C124.474 43.8769 124.71 44.1624 125.021 44.1624ZM90.9694 42.7046L87.8105 47.4549C87.5887 47.7875 87.826 48.2334 88.2246 48.2334H89.5915C89.7619 48.2334 89.921 48.1454 90.0134 48.0012L90.3351 47.4911H93.2393L93.3347 47.8599C93.3925 48.0795 93.5894 48.2334 93.8174 48.2334H95.1752C95.5063 48.2334 95.7452 47.9149 95.653 47.5945L94.291 42.8443C94.2299 42.6293 94.0346 42.4819 93.8128 42.4819H91.3849C91.2177 42.4835 91.0616 42.5666 90.9694 42.7046ZM91.2662 46.0126L92.3379 44.3118H92.4113L92.8536 46.0126H91.2662ZM76.5494 42.4835H72.2845C72.0455 42.4835 71.8409 42.6529 71.7953 42.8883L70.872 47.6385C70.8128 47.9479 71.0472 48.235 71.3611 48.235H72.675C72.9139 48.235 73.1186 48.0656 73.1641 47.8286L73.4047 46.5778H75.7777C78.1087 46.5778 78.6444 45.6172 78.7633 44.4136C78.882 43.2083 78.3835 42.4835 76.5494 42.4835ZM76.1996 44.5581C76.1323 44.8843 75.9403 45.1009 75.4075 45.1009H73.6872L73.8935 44.0308H75.7182C76.1776 44.0324 76.2575 44.2788 76.1996 44.5581ZM146.476 45.5969H146.418L144.611 42.7156C144.52 42.5698 144.361 42.4819 144.189 42.4819H142.325C142.086 42.4819 141.881 42.6513 141.836 42.8867L140.917 47.6369C140.858 47.9463 141.094 48.2334 141.406 48.2334H142.58C142.819 48.2334 143.025 48.0623 143.069 47.8254L143.58 45.1184H143.637L145.445 47.9996C145.536 48.1454 145.695 48.2334 145.867 48.2334H147.73C147.97 48.2334 148.174 48.064 148.22 47.8286L149.138 43.0781C149.198 42.769 148.962 42.4819 148.649 42.4819H147.476C147.237 42.4819 147.031 42.6529 146.987 42.8899L146.476 45.5969ZM159.314 48.2334H165.144L165.303 47.408C165.362 47.0986 165.127 46.8131 164.814 46.8131H161.291L161.447 46.0016H164.902C165.141 46.0016 165.345 45.8322 165.391 45.5969L165.453 45.2703C165.512 44.9613 165.277 44.6758 164.964 44.6758H161.702L161.844 43.9364H165.495C165.734 43.9364 165.939 43.767 165.984 43.5316L166.072 43.0813C166.131 42.7722 165.895 42.4864 165.583 42.4864H160.227C159.988 42.4864 159.784 42.6558 159.738 42.8915L158.824 47.6417C158.765 47.9479 159.001 48.2334 159.314 48.2334Z" fill="#F0F8FF" stroke="#F0F8FF" stroke-width="2" mask="url(#path-2-inside-2_3370_1419)"/>
<path d="M20.2778 13.6497C20.2778 13.6497 23.1984 13.4376 27.3574 13.4376C31.5163 13.4376 35.2083 13.6497 35.2083 13.6497C35.2083 13.6497 32.409 5.77858 29.8591 1.37047C28.9498 -0.200754 27.6416 -0.160678 26.6243 1.37047C24.6911 4.28417 21.5777 10.7727 20.2778 13.6497Z" fill="#F0F8FF"/>
<path d="M12.6935 33.0812L14.8178 26.6979C14.8178 26.6979 24.0517 25.6644 33.9238 26.2705C24.7532 33.507 16.4319 38.0021 10.5458 40.9341C9.82108 43.6776 9.18612 46.5927 8.86199 48.9321C8.56109 51.106 9.40551 52.0076 11.6313 51.0594C17.2913 48.6483 21.7428 46.6079 33.1176 38.7434C43.2092 31.7672 48.5152 26.9918 53.3523 21.6219C54.2799 20.5917 54.2931 19.1357 52.4481 18.6832C46.1596 17.142 37.4943 16.2471 27.7502 16.2471C17.3395 16.2471 8.07075 17.3958 2.40577 18.6916C0.818312 19.0539 0.28639 20.5099 1.58129 22.0227C4.88918 25.8931 8.07075 29.099 12.6935 33.0812Z" fill="#F0F8FF"/>
<path d="M28.7095 44.9348C28.7095 44.9348 36.9192 39.7219 41.2679 36.1152C42.2019 42.4603 42.6742 46.0217 42.8521 48.977C42.9833 51.156 41.5737 51.8091 39.7536 51.0176C37.5044 50.039 31.8146 47.032 28.7095 44.9348Z" fill="#F0F8FF"/>
</g>
</g>
<defs>
<clipPath id="clip0_3370_1419">
<rect width="204.001" height="51.4043" fill="white" transform="translate(0.853027 0.207031)"/>
</clipPath>
<clipPath id="clip1_3370_1419">
<rect width="204.001" height="51.4043" fill="white" transform="translate(0.853027 0.207031)"/>
</clipPath>
</defs>
</svg>
