<svg width="151" height="72" viewBox="0 0 151 72" fill="none" xmlns="http://www.w3.org/2000/svg">
<g clip-path="url(#clip0_3370_1438)">
<path fill-rule="evenodd" clip-rule="evenodd" d="M44.7476 60.514H48.9094V57.0267H51.2216C52.3776 57.0267 53.4566 56.7943 54.3044 56.4068C55.1522 56.0194 55.8458 55.3995 56.3082 54.702C56.7707 54.0046 57.0018 53.0746 57.0018 52.1448C57.0018 51.1374 56.7707 50.2849 56.3082 49.5875C55.8458 48.8126 55.1522 48.2702 54.3044 47.8827C53.4566 47.4953 52.3776 47.2628 51.2216 47.2628H50.2197L48.9865 50.2074H50.9904C51.7611 50.2074 52.3005 50.3625 52.6859 50.7499C53.0712 51.1374 53.3024 51.6023 53.3024 52.2223C53.3024 52.8422 53.0712 53.3072 52.6859 53.6947C52.3005 54.0046 51.6839 54.1595 50.9904 54.1595H47.368L44.7476 60.514ZM141.78 60.3589C142.782 60.5914 143.784 60.7464 144.862 60.7464C146.095 60.7464 147.175 60.5914 148.023 60.2039C148.871 59.8166 149.564 59.274 150.027 58.6541C150.489 58.0341 150.72 57.2593 150.72 56.4844C150.72 55.5544 150.489 54.8569 149.95 54.3146C149.487 53.7721 148.871 53.3846 148.254 53.1522C147.638 52.9197 146.79 52.6872 145.787 52.4547C144.862 52.2997 144.246 52.0673 143.861 51.9124C143.475 51.7573 143.244 51.4474 143.244 51.1374C143.244 50.8275 143.398 50.5174 143.784 50.285C144.092 50.0525 144.631 49.975 145.402 49.975C146.559 49.975 147.792 50.2849 149.025 50.9824L150.181 48.1927C149.564 47.8052 148.794 47.4953 147.946 47.3402C147.098 47.1078 146.251 47.0303 145.402 47.0303C144.169 47.0303 143.09 47.1853 142.165 47.5728C141.318 47.9603 140.624 48.5026 140.239 49.1225C139.776 49.7426 139.545 50.5174 139.545 51.2923C139.545 52.2223 139.776 52.9197 140.239 53.4621C140.701 54.0046 141.318 54.3921 141.934 54.6245C142.628 54.857 143.398 55.0895 144.4 55.3219C145.325 55.5544 145.941 55.7094 146.328 55.9418C146.713 56.0969 146.944 56.4068 146.944 56.7943C146.944 57.4917 146.251 57.8792 144.785 57.8792C144.015 57.8792 143.244 57.7242 142.474 57.4917C141.703 57.2593 141.009 56.9492 140.393 56.5619L139.16 59.3516C139.931 59.739 140.778 60.049 141.78 60.3589ZM61.3949 57.8792H66.944L67.9459 60.4365H71.7995L65.9421 47.1853H62.2427L56.4624 60.4365H60.2388L61.3949 57.8792ZM64.1694 50.9049L65.8651 55.1669H62.4739L64.1694 50.9049ZM78.6588 56.9492H76.6549V60.4365H72.9556V47.2628H78.9671C80.1232 47.2628 81.2022 47.4953 82.0499 47.8827C82.8977 48.2702 83.5913 48.8126 84.0538 49.5875C84.5162 50.2849 84.7475 51.2149 84.7475 52.1448C84.7475 53.0746 84.5162 53.9271 84.0538 54.6245C83.5913 55.3219 82.9748 55.8645 82.127 56.2518L84.9787 60.4365H81.048L78.6588 56.9492ZM81.048 52.1448C81.048 51.5249 80.8167 51.0599 80.4314 50.6724C80.0461 50.3625 79.4295 50.13 78.7359 50.13H76.6549V54.0046H78.7359C79.5066 54.0046 80.0461 53.8496 80.4314 53.5396C80.8167 53.2297 81.048 52.7647 81.048 52.1448ZM85.441 50.2074H89.4488V60.4365H93.1481V50.2074H97.1558V47.2628H85.3641V50.2074H85.441ZM111.106 47.2628V60.514H108.023L102.242 53.4621V60.514H98.6202V47.2628H101.703L107.483 54.3146V47.2628H111.106ZM124.285 60.514V57.5692H117.426V55.1669H123.283V52.3772H117.426V50.13H124.054V47.2628H113.726V60.514H124.285ZM132.069 56.9492H130.065V60.4365H126.366V47.2628H132.377C133.533 47.2628 134.612 47.4953 135.46 47.8827C136.308 48.2702 137.001 48.8126 137.465 49.5875C137.926 50.2849 138.157 51.2149 138.157 52.1448C138.157 53.0746 137.926 53.9271 137.465 54.6245C137.001 55.3219 136.385 55.8645 135.537 56.2518L138.388 60.4365H134.381L132.069 56.9492ZM134.458 52.1448C134.458 51.5249 134.227 51.0599 133.842 50.6724C133.456 50.3625 132.84 50.13 132.146 50.13H130.065V54.0046H132.146C132.917 54.0046 133.456 53.8496 133.842 53.5396C134.227 53.2297 134.458 52.7647 134.458 52.1448Z" fill="#1882FF"/>
<path fill-rule="evenodd" clip-rule="evenodd" d="M52.3027 41.9162H70.4145C73.2661 41.9162 75.347 41.2188 76.6573 39.9015C77.9674 38.5842 78.6611 36.4919 78.6611 33.6247C78.6611 32.4623 78.5069 31.3774 78.1987 30.5249C77.3508 28.0452 75.8095 26.4953 73.4202 25.7979C74.4993 25.333 75.4241 24.6356 76.1948 23.5507C76.9655 22.4658 77.3508 21.071 77.3508 19.2887C77.3508 16.6539 76.6573 14.7165 75.347 13.3992C74.0368 12.0819 71.9558 11.4619 69.1043 11.4619H64.6341L62.1679 17.5064H66.9463C68.6418 17.5064 69.5668 18.3587 69.5668 20.141V20.9935C69.5668 22.6983 68.719 23.6281 66.9463 23.6281H59.7016L52.3027 41.9162ZM68.2565 29.75C69.9521 29.75 70.8769 30.6025 70.8769 32.3848V33.2372C70.8769 34.942 70.0291 35.8719 68.2565 35.8719H59.6246V29.8275H68.2565V29.75ZM91.1466 41.9938V19.8311H80.3566V25.7205H83.5937V41.9938H91.1466ZM111.031 41.9938C108.256 42.3037 105.482 42.4588 102.861 42.4588C100.935 42.4588 99.3162 41.8389 98.16 40.6764C97.0039 39.514 96.3874 37.8868 96.3874 35.9494V25.7205H93.0734V19.8311H96.3874L98.4683 13.7092H103.94V19.8311H109.335V25.7205H103.94V34.787C103.94 35.252 104.095 35.5619 104.403 35.8719C104.711 36.1818 105.019 36.3369 105.482 36.3369H111.108V41.9938H111.031ZM83.5937 11.5394H91.1466V17.5064H83.5937V11.5394Z" fill="#EEEEEE"/>
<path d="M2.05273 0.0693359H62.6306L33.4976 71.7495H13.228L37.5825 14.4054H2.12981V0.0693359H2.05273Z" fill="url(#paint0_linear_3370_1438)"/>
<path d="M8.21903 0.0693359H62.6312L33.4984 71.7495H19.9338L43.5175 15.0253L2.66992 14.4054L8.21903 0.0693359Z" fill="url(#paint1_linear_3370_1438)"/>
<path d="M20.3935 5.72754H59.931L41.1257 52.2227H27.5611L43.1295 15.0266L16.54 14.4067L20.3935 5.72754Z" fill="url(#paint2_linear_3370_1438)"/>
</g>
<defs>
<linearGradient id="paint0_linear_3370_1438" x1="5.94274" y1="47.7822" x2="66.6167" y2="-12.5622" gradientUnits="userSpaceOnUse">
<stop stop-color="#342CD6"/>
<stop offset="1" stop-color="#1A46EE"/>
</linearGradient>
<linearGradient id="paint1_linear_3370_1438" x1="2.56463" y1="54.2538" x2="59.8755" y2="-2.74553" gradientUnits="userSpaceOnUse">
<stop stop-color="#1D34FF"/>
<stop offset="1" stop-color="#22FF2A"/>
</linearGradient>
<linearGradient id="paint2_linear_3370_1438" x1="17.5976" y1="42.2168" x2="57.1034" y2="2.92555" gradientUnits="userSpaceOnUse">
<stop offset="0.2408" stop-color="#75BEC1"/>
<stop offset="1" stop-color="#47FF51"/>
</linearGradient>
<clipPath id="clip0_3370_1438">
<rect width="149.997" height="71.6802" fill="white" transform="translate(0.73584 0.0693359)"/>
</clipPath>
</defs>
</svg>
