<svg width="52" height="57" viewBox="0 0 52 57" fill="none" xmlns="http://www.w3.org/2000/svg">
<path d="M11.2273 5.29068C16.2858 1.63819 22.4819 -0.00244827 28.6459 0.676696C34.81 1.35585 40.5185 4.3082 44.6928 8.97905C48.8673 13.6501 51.2183 19.7165 51.2997 26.0332C51.3812 32.35 49.1873 38.4771 45.1345 43.2582C41.0819 48.039 35.4514 51.1428 29.3068 51.9863C23.1624 52.8297 16.9263 51.355 11.7754 47.8389C6.62437 44.3227 2.91435 39.0074 1.34842 32.895C-0.217546 26.7824 0.469721 20.2981 3.27973 14.6667" stroke="#57C3FF" stroke-width="1.0533"/>
<mask id="path-2-inside-1_3188_4981" fill="white">
<path d="M41.5661 40.4723C41.5661 36.248 39.9171 32.1966 36.9819 29.2096C34.0468 26.2225 30.0658 24.5444 25.9149 24.5444C21.7639 24.5444 17.783 26.2225 14.8478 29.2096C11.9126 32.1966 10.2637 36.248 10.2637 40.4723L11.2497 40.4723C11.2497 36.5141 12.7948 32.718 15.545 29.9191C18.2953 27.1202 22.0254 25.5479 25.9149 25.5479C29.8043 25.5479 33.5345 27.1203 36.2847 29.9191C39.035 32.718 40.5801 36.5141 40.5801 40.4723H41.5661Z"/>
</mask>
<path d="M41.5661 40.4723C41.5661 36.248 39.9171 32.1966 36.9819 29.2096C34.0468 26.2225 30.0658 24.5444 25.9149 24.5444C21.7639 24.5444 17.783 26.2225 14.8478 29.2096C11.9126 32.1966 10.2637 36.248 10.2637 40.4723L11.2497 40.4723C11.2497 36.5141 12.7948 32.718 15.545 29.9191C18.2953 27.1202 22.0254 25.5479 25.9149 25.5479C29.8043 25.5479 33.5345 27.1203 36.2847 29.9191C39.035 32.718 40.5801 36.5141 40.5801 40.4723H41.5661Z" fill="#57C3FF" stroke="#57C3FF" stroke-width="2.1066" mask="url(#path-2-inside-1_3188_4981)"/>
<path d="M32.828 15.4053C32.828 19.3052 29.7238 22.4509 25.9139 22.4509C22.104 22.4509 18.9998 19.3052 18.9998 15.4053C18.9998 11.5053 22.104 8.35966 25.9139 8.35966C29.7238 8.35966 32.828 11.5053 32.828 15.4053Z" stroke="#57C3FF" stroke-width="1.0533"/>
</svg>
