<svg width="81" height="116" viewBox="0 0 81 116" fill="none" xmlns="http://www.w3.org/2000/svg">
<path d="M41.4711 86.1464C41.4711 86.1464 60.834 86.1466 69.3764 86.1464C75.7914 86.1462 78.7499 93.4045 78.4883 99.8143C78.2416 105.859 75.4264 112.343 69.3764 112.343C60.834 112.343 47.9323 112.343 47.9323 112.343M54.1967 75.3259C54.1967 75.3259 78.1602 54.4043 76.7798 34.8918C75.4687 16.3572 60.052 3 41.4711 3C22.8902 3 7.30069 18.3764 6.16238 34.8918C5.70769 41.4886 12.0849 45.9969 18.6913 46.2817C25.6329 46.5809 29.2525 41.1066 32.3592 34.8918C34.0673 31.4748 36.7449 27.0602 41.4711 26.9188C46.3668 26.7724 50.7209 30.5759 51.1525 34.8918C52.2915 46.2817 12.4256 73.048 5.02338 87.8549C2.67552 92.5514 2.62666 96.4552 3.88401 100.953C5.51275 106.78 14.332 111.774 19.2606 112.343C28.3123 113.389 35.7761 112.343 35.7761 112.343" stroke="#1B1B1B" stroke-opacity="0.69" stroke-width="4.55596" stroke-linecap="round"/>
</svg>
