<svg width="94" height="117" viewBox="0 0 94 117" fill="none" xmlns="http://www.w3.org/2000/svg">
<path d="M2.50455 67.5063C2.50455 67.5063 2.5042 91.4239 2.50455 104.524C2.50468 109.252 5.78283 113.072 10.4775 113.636C24.7185 115.344 36.1084 113.636 49.7727 111.927C74.1737 108.876 89.8674 88.0083 91.3458 61.8114C92.8973 34.3194 76.9976 8.98685 49.7727 4.8618C34.6828 2.57541 19.1962 3.03855 10.084 3.03841C3.24963 3.03831 2.68029 7.59494 2.68073 9.30363C2.68396 21.8126 2.50455 53.2689 2.50455 53.2689M22.4405 23.0857C22.4405 23.0857 22.4405 62.9504 22.4405 90.8557C22.4405 93.3915 22.1827 96.5507 24.7185 96.5507C57.7492 96.5507 71.3575 85.0223 71.9866 61.8114C72.5661 40.4316 54.6407 22.5062 33.2609 23.0857" stroke="#F0F8FF" stroke-width="4.55596" stroke-linecap="round"/>
</svg>
