<svg width="167" height="35" viewBox="0 0 167 35" fill="none" xmlns="http://www.w3.org/2000/svg">
<path d="M8.29742 5.72725H10.6701L11.0012 5.94797L11.233 5.72725L11.4537 5.94797L11.5751 5.83761H11.7958C11.9503 5.83761 12.0276 5.98844 12.0276 6.29008H12.48L12.3586 6.17973V6.05833H12.48L13.9478 6.5108V6.62116L13.716 6.96327L14.4003 7.07363L14.5106 6.96327H14.621C14.9815 7.03685 15.3199 7.30171 15.6363 7.75786C15.8644 7.75786 15.9784 7.87189 15.9784 8.09997L15.868 8.43105H15.9784C16.28 8.43105 16.4309 8.5083 16.4309 8.6628V8.77316L16.1991 9.11527L16.5412 9.22563L16.6516 9.11527L17.2255 10.4727V10.6934H16.9937V11.3666L16.6516 11.8191L16.0888 11.7087L15.7466 11.8191L15.6363 11.7087L15.5259 11.8191L15.4156 11.488L14.621 11.8191L14.5106 11.7087H14.4003L14.0582 11.8191L13.9478 11.7087H13.8264L13.716 11.8191L12.8111 11.5983L12.7007 11.7087V11.8191L12.5904 11.7087H12.48L12.0276 11.8191L11.3433 10.583C11.1153 10.583 11.0012 10.3954 11.0012 10.0202L10.8909 10.1306H10.5487L10.328 9.89882L10.4384 9.78846V9.6781H9.98591V9.89882L9.53344 9.78846L9.20236 9.89882V9.78846L9.08097 9.89882H8.6285V9.6781H8.29742C8.29742 9.97975 8.10981 10.1306 7.73459 10.1306C6.92529 10.8295 6.43235 11.6572 6.25578 12.6136H6.14542L6.25578 12.724L6.03506 14.1918L6.25578 14.4235V14.5339L6.03506 14.876V14.9864L6.14542 15.0967V15.2181C5.86585 15.2181 5.49063 15.4057 5.01976 15.7809V15.6706C4.79169 15.6706 4.67765 15.7809 4.67765 16.0017H4.56729L4.45693 15.8913L4.00446 16.0017L4.11482 16.112V16.3438L4.00446 16.2334L3.66235 16.3438L3.77271 16.6859H3.88306L4.22518 16.4541H4.45693V16.6859H4.22518V16.9066L4.56729 17.2487H4.67765V16.9066H4.78801L5.01976 16.6859C5.36555 16.7815 5.55316 16.9324 5.58259 17.1384C5.20737 17.1384 5.01976 17.2119 5.01976 17.3591L5.24048 17.5908C5.54213 17.5908 5.72974 17.3628 5.80331 16.9066H6.03506L5.9247 17.017V17.1384L6.03506 17.2487L5.9247 17.3591H6.03506L5.9247 17.7012L6.03506 18.0433L6.25578 17.8116L6.14542 17.4694H6.25578L6.70825 17.1384H6.82965C6.82965 17.5136 7.16808 17.7012 7.84495 17.7012L7.95531 18.0433L8.29742 17.9219L9.08097 18.1537L9.65483 18.0433L9.98591 18.1537L10.328 17.8116L10.6701 18.0433C10.6701 17.5872 10.7805 17.3591 11.0012 17.3591H11.5751V16.6859L12.1379 16.2334C12.1379 16.0053 12.2115 15.8913 12.3586 15.8913L13.2636 16.0017L13.716 15.8913L14.0582 16.2334V15.8913H14.2789L14.4003 16.0017L14.5106 15.8913L15.4156 16.112L15.6363 15.8913V16.0017L15.7466 15.8913H16.1991L16.3205 16.0017L16.4309 15.8913H16.5412C17.1445 16.0752 17.4462 16.2261 17.4462 16.3438L17.2255 16.5645L16.9937 16.3438V16.5645L17.3358 17.017L16.9937 17.3591V17.4694H17.2255V17.7012C16.9974 17.7012 16.8833 17.8152 16.8833 18.0433L16.9937 18.1537V18.264C16.9937 18.757 16.5044 19.4338 15.5259 20.2946H15.4156V20.0739H15.0735L15.1838 20.1843V20.2946L14.9631 20.8575H14.8527L14.5106 20.6367H14.4003L14.5106 20.7471V21.0892C14.1575 21.0892 13.8926 21.1628 13.716 21.3099L13.3739 21.1996V21.3099L13.0429 21.652L12.8111 21.4313L12.3586 21.8838H11.7958L11.5751 21.652V21.5417L11.6854 21.4313L11.5751 20.9789H11.4537V21.4313L11.5751 21.9942H10.6701L10.5487 22.1045H10.4384L10.328 21.9942V21.8838L10.2177 21.9942H10.1073L9.76519 21.8838C9.76519 22.0309 9.65116 22.1045 9.42308 22.1045L7.73459 21.8838L7.50284 22.1045C7.12026 22.1045 5.99092 21.7661 4.11482 21.0892V20.8575C4.34289 20.8575 4.45693 20.7839 4.45693 20.6367L4.33554 20.5264H4.22518L3.66235 20.7471V20.0739H3.55199C3.55199 20.3756 3.47474 20.5264 3.32023 20.5264L2.30493 19.3897V19.2793H2.53669V19.169C2.00696 19.169 1.7421 18.9041 1.7421 18.3744H1.85246C1.77889 17.9256 1.59128 17.7012 1.28963 17.7012V17.4694C1.28963 17.3223 1.40367 17.2487 1.63174 17.2487V17.1384H1.17927V16.9066C1.17927 16.6785 1.40367 16.5645 1.85246 16.5645V16.4541L1.28963 16.3438L1.17927 16.4541L1.05788 16.3438V16.2334L1.39999 16.0017L1.7421 16.2334L1.85246 16.112L1.7421 15.5492V15.2181C1.18295 15.2181 0.881302 15.1041 0.837158 14.876V14.3132L0.947517 13.8607L0.837158 13.7393V13.629L1.05788 12.3929L1.17927 12.5033H1.39999V12.3929C1.17191 12.3929 1.05788 12.2789 1.05788 12.0508C1.21974 10.9619 1.52138 10.171 1.96282 9.6781L1.85246 9.33599C2.30861 9.18884 2.53669 8.85041 2.53669 8.32069C3.23563 7.61439 3.94928 7.04788 4.67765 6.62116V6.74256L4.56729 6.85291V6.96327L5.01976 7.07363V6.96327L4.9094 6.5108L5.24048 6.40044L5.58259 6.5108L5.69295 6.17973L6.48753 6.29008H6.59789V6.17973H6.37718V5.94797L8.29742 5.72725ZM6.03506 6.62116L5.9247 6.96327L6.03506 7.07363H6.14542L6.25578 6.96327L6.14542 6.62116H6.03506ZM6.70825 6.74256V6.96327L7.05036 6.85291V6.74256H6.70825ZM7.73459 6.74256V6.85291L8.06567 6.96327L8.17603 6.85291V6.74256H7.73459ZM12.0276 7.5261L12.2483 7.75786L12.3586 7.6475V7.5261H12.0276ZM12.1379 8.09997V8.43105H12.3586L12.2483 8.09997H12.1379ZM13.9478 8.43105H14.2789V8.21033H14.1685L13.9478 8.43105ZM11.4537 10.0202V10.3513H11.6854L11.5751 10.0202H11.4537ZM12.0276 10.2409V10.583H12.3586L12.2483 10.2409H12.0276ZM17.1041 11.1459H17.3358V11.488H17.1041V11.1459ZM1.05788 14.3132V14.4235L1.28963 14.6443H1.39999V14.5339L1.17927 14.3132H1.05788ZM1.28963 15.3285L1.63174 15.4388V15.5492L1.39999 15.7809H1.28963L1.05788 15.5492L1.28963 15.3285ZM3.32023 15.8913V16.2334H3.66235V16.0017L3.32023 15.8913ZM6.37718 15.7809H6.48753L6.70825 16.3438V16.4541H6.48753C6.33303 16.4541 6.25578 16.3401 6.25578 16.112L6.37718 15.7809ZM2.30493 16.112V16.2334L2.53669 16.5645C2.00696 16.5645 1.7421 16.6785 1.7421 16.9066V17.1384L2.08421 16.9066C2.68751 17.1494 2.98916 17.3775 2.98916 17.5908L3.32023 17.2487C3.09952 17.2487 2.98916 17.1715 2.98916 17.017L2.86776 17.1384H2.53669V16.9066C2.7574 16.9066 2.86776 16.833 2.86776 16.6859C2.66176 16.6859 2.5514 16.4946 2.53669 16.112H2.30493ZM5.80331 16.112H6.03506V16.2334L5.69295 16.5645H5.58259L5.36187 16.3438V16.2334H5.58259L5.69295 16.3438H5.80331V16.112ZM12.7007 16.9066V17.017H12.8111L12.9215 16.5645C12.7743 16.5645 12.7007 16.6785 12.7007 16.9066ZM6.48753 16.7963H6.59789V16.9066L6.37718 17.1384H6.14542L6.48753 16.7963ZM3.66235 17.2487V17.3591L3.88306 17.1384V17.017L3.66235 17.2487ZM2.19457 17.8116V18.0433L2.41529 17.8116V17.5908L2.19457 17.8116ZM4.78801 17.7012V18.0433H5.01976L4.9094 17.7012H4.78801ZM6.59789 17.7012V18.4847L7.05036 18.264L6.59789 17.7012ZM7.28212 17.7012L7.05036 17.9219L7.28212 18.1537H7.50284V17.7012H7.28212ZM3.32023 17.8116V17.9219L3.66235 18.264V17.8116H3.32023ZM5.24048 18.0433L5.58259 18.1537V17.8116H5.47223L5.24048 18.0433ZM12.9215 18.0433H13.2636V17.8116H13.1532L12.9215 18.0433ZM14.9631 17.9219L15.1838 18.1537H15.2942L15.0735 17.9219H14.9631ZM5.9247 18.264V18.6061H6.03506L6.25578 18.3744L6.14542 18.264H5.9247ZM7.73459 18.3744V18.6061H7.84495L8.06567 18.3744H7.73459ZM10.8909 18.8269V19.5111H11.0012V18.8269H10.8909ZM11.3433 18.8269L11.4537 19.3897H11.5751V18.8269H11.3433ZM6.59789 18.9372L6.37718 19.169V19.3897L6.70825 19.0586V18.9372H6.59789ZM8.17603 18.9372L8.29742 19.0586V19.169L8.17603 19.2793L8.29742 19.3897H8.40778L8.51814 19.2793L8.40778 18.9372H8.17603ZM7.50284 19.3897H7.61319L7.84495 19.169V19.0586L7.50284 19.3897ZM12.0276 19.0586V19.169L12.2483 19.3897H12.3586L12.0276 19.0586ZM8.97061 19.5111H9.31272V19.2793H9.20236L8.97061 19.5111ZM5.9247 19.8422L6.03506 19.9636V20.416L5.9247 20.5264V20.6367L6.03506 20.7471H6.25578L6.14542 20.1843L6.25578 19.7318H6.14542L6.03506 19.8422H5.9247ZM6.59789 19.9636V20.5264H6.70825V19.9636H6.59789ZM10.8909 20.9789V21.7624H11.0012V20.9789H10.8909ZM8.17603 21.4313H8.51814V21.1996H8.40778L8.17603 21.4313ZM9.98591 21.3099V21.4313L10.328 21.5417V21.1996L9.98591 21.3099ZM12.0276 21.1996V21.5417H12.1379L12.3586 21.3099L12.2483 21.1996H12.0276Z" fill="#F0F8FF"/>
<path d="M20.5583 5.90383H24.8623C24.8623 6.13926 24.98 6.25698 25.2154 6.25698V6.59909L25.094 6.72048L25.2154 6.83084V8.2324L25.094 8.34276L25.2154 8.46415V11.1348L25.094 11.2562L25.2154 11.3666V13.342L25.094 13.4634L25.2154 13.5738V17.5357L25.5576 17.8778H30.91L31.4838 17.9992V18.9262L31.6052 19.3897L31.4838 19.8532V20.7912L31.2521 21.1334L31.4838 21.3651V21.4865L31.2521 21.7183L31.3735 21.8286V22.0714H20.79C20.2456 22.0714 19.9734 21.6447 19.9734 20.7912L20.0948 20.6698V20.5595L19.9734 20.0849L20.2051 19.7428L19.9734 19.5111L20.0948 19.0476L19.9734 18.9262V18.8158L20.2051 18.4627L20.0948 18.3413V17.8778L20.2051 17.7674L20.0948 17.646V17.4143L20.2051 16.9508L20.0948 16.4872V16.3659L20.2051 16.2555L20.0948 16.1341V15.792L20.3265 15.4388L20.0948 15.2071L20.2051 14.7436L20.0948 14.2801V14.1587L20.2051 14.0483L20.0948 13.9269V13.8055L20.2051 13.4634L20.0948 12.8785V11.1348L20.2051 10.6713L20.0948 10.5499V10.4396L20.2051 7.41574V6.83084C20.2051 6.26433 20.3229 5.95533 20.5583 5.90383ZM19.3995 21.7183L19.4768 21.7955H19.543L19.6865 21.5748H19.543L19.3995 21.7183ZM19.3333 22.0714V22.1487H19.543V22.0052L19.3333 22.0714Z" fill="#F0F8FF"/>
<path d="M34.2318 5.84865H36.0858C36.6302 5.87072 36.9025 5.94797 36.9025 6.0804L37.0128 5.95901H37.366L37.4763 6.0804L37.5977 5.95901H38.5247L38.8779 6.31216V21.7624L38.5247 22.1156H37.1342L34 21.9942L33.8786 21.8838V18.5179L34 18.3965L33.8786 18.2861V6.54391C33.9301 6.0804 34.0478 5.84865 34.2318 5.84865Z" fill="#F0F8FF"/>
<path d="M49.5496 5.72725H51.9223L52.2534 5.94797L52.4851 5.72725L52.7058 5.94797L52.8272 5.83761H53.048C53.2025 5.83761 53.2797 5.98844 53.2797 6.29008H53.7322L53.6108 6.17973V6.05833H53.7322L55.2 6.5108V6.62116L54.9682 6.96327L55.6524 7.07363L55.7628 6.96327H55.8731C56.2337 7.03685 56.5721 7.30171 56.8884 7.75786C57.1165 7.75786 57.2306 7.87189 57.2306 8.09997L57.1202 8.43105H57.2306C57.5322 8.43105 57.683 8.5083 57.683 8.6628V8.77316L57.4513 9.11527L57.7934 9.22563L57.9038 9.11527L58.4776 10.4727V10.6934H58.2459V11.3666L57.9038 11.8191L57.3409 11.7087L56.9988 11.8191L56.8884 11.7087L56.7781 11.8191L56.6677 11.488L55.8731 11.8191L55.7628 11.7087H55.6524L55.3103 11.8191L55.2 11.7087H55.0786L54.9682 11.8191L54.0633 11.5983L53.9529 11.7087V11.8191L53.8425 11.7087H53.7322L53.2797 11.8191L52.5955 10.583C52.3674 10.583 52.2534 10.3954 52.2534 10.0202L52.143 10.1306H51.8009L51.5802 9.89882L51.6905 9.78846V9.6781H51.2381V9.89882L50.7856 9.78846L50.4545 9.89882V9.78846L50.3331 9.89882H49.8807V9.6781H49.5496C49.5496 9.97975 49.362 10.1306 48.9868 10.1306C48.1775 10.8295 47.6845 11.6572 47.5079 12.6136H47.3976L47.5079 12.724L47.2872 14.1918L47.5079 14.4235V14.5339L47.2872 14.876V14.9864L47.3976 15.0967V15.2181C47.118 15.2181 46.7428 15.4057 46.2719 15.7809V15.6706C46.0438 15.6706 45.9298 15.7809 45.9298 16.0017H45.8195L45.7091 15.8913L45.2566 16.0017L45.367 16.112V16.3438L45.2566 16.2334L44.9145 16.3438L45.0249 16.6859H45.1352L45.4773 16.4541H45.7091V16.6859H45.4773V16.9066L45.8195 17.2487H45.9298V16.9066H46.0402L46.2719 16.6859C46.6177 16.7815 46.8053 16.9324 46.8348 17.1384C46.4595 17.1384 46.2719 17.2119 46.2719 17.3591L46.4926 17.5908C46.7943 17.5908 46.9819 17.3628 47.0555 16.9066H47.2872L47.1769 17.017V17.1384L47.2872 17.2487L47.1769 17.3591H47.2872L47.1769 17.7012L47.2872 18.0433L47.5079 17.8116L47.3976 17.4694H47.5079L47.9604 17.1384H48.0818C48.0818 17.5136 48.4202 17.7012 49.0971 17.7012L49.2075 18.0433L49.5496 17.9219L50.3331 18.1537L50.907 18.0433L51.2381 18.1537L51.5802 17.8116L51.9223 18.0433C51.9223 17.5872 52.0327 17.3591 52.2534 17.3591H52.8272V16.6859L53.3901 16.2334C53.3901 16.0053 53.4636 15.8913 53.6108 15.8913L54.5157 16.0017L54.9682 15.8913L55.3103 16.2334V15.8913H55.531L55.6524 16.0017L55.7628 15.8913L56.6677 16.112L56.8884 15.8913V16.0017L56.9988 15.8913H57.4513L57.5727 16.0017L57.683 15.8913H57.7934C58.3967 16.0752 58.6983 16.2261 58.6983 16.3438L58.4776 16.5645L58.2459 16.3438V16.5645L58.588 17.017L58.2459 17.3591V17.4694H58.4776V17.7012C58.2495 17.7012 58.1355 17.8152 58.1355 18.0433L58.2459 18.1537V18.264C58.2459 18.757 57.7566 19.4338 56.7781 20.2946H56.6677V20.0739H56.3256L56.436 20.1843V20.2946L56.2153 20.8575H56.1049L55.7628 20.6367H55.6524L55.7628 20.7471V21.0892C55.4096 21.0892 55.1448 21.1628 54.9682 21.3099L54.6261 21.1996V21.3099L54.295 21.652L54.0633 21.4313L53.6108 21.8838H53.048L52.8272 21.652V21.5417L52.9376 21.4313L52.8272 20.9789H52.7058V21.4313L52.8272 21.9942H51.9223L51.8009 22.1045H51.6905L51.5802 21.9942V21.8838L51.4698 21.9942H51.3595L51.0174 21.8838C51.0174 22.0309 50.9033 22.1045 50.6752 22.1045L48.9868 21.8838L48.755 22.1045C48.3724 22.1045 47.2431 21.7661 45.367 21.0892V20.8575C45.5951 20.8575 45.7091 20.7839 45.7091 20.6367L45.5877 20.5264H45.4773L44.9145 20.7471V20.0739H44.8041C44.8041 20.3756 44.7269 20.5264 44.5724 20.5264L43.5571 19.3897V19.2793H43.7888V19.169C43.2591 19.169 42.9943 18.9041 42.9943 18.3744H43.1046C43.031 17.9256 42.8434 17.7012 42.5418 17.7012V17.4694C42.5418 17.3223 42.6558 17.2487 42.8839 17.2487V17.1384H42.4314V16.9066C42.4314 16.6785 42.6558 16.5645 43.1046 16.5645V16.4541L42.5418 16.3438L42.4314 16.4541L42.31 16.3438V16.2334L42.6521 16.0017L42.9943 16.2334L43.1046 16.112L42.9943 15.5492V15.2181C42.4351 15.2181 42.1335 15.1041 42.0893 14.876V14.3132L42.1997 13.8607L42.0893 13.7393V13.629L42.31 12.3929L42.4314 12.5033H42.6521V12.3929C42.4241 12.3929 42.31 12.2789 42.31 12.0508C42.4719 10.9619 42.7735 10.171 43.215 9.6781L43.1046 9.33599C43.5608 9.18884 43.7888 8.85041 43.7888 8.32069C44.4878 7.61439 45.2014 7.04788 45.9298 6.62116V6.74256L45.8195 6.85291V6.96327L46.2719 7.07363V6.96327L46.1616 6.5108L46.4926 6.40044L46.8348 6.5108L46.9451 6.17973L47.7397 6.29008H47.8501V6.17973H47.6293V5.94797L49.5496 5.72725ZM47.2872 6.62116L47.1769 6.96327L47.2872 7.07363H47.3976L47.5079 6.96327L47.3976 6.62116H47.2872ZM47.9604 6.74256V6.96327L48.3025 6.85291V6.74256H47.9604ZM48.9868 6.74256V6.85291L49.3178 6.96327L49.4282 6.85291V6.74256H48.9868ZM53.2797 7.5261L53.5004 7.75786L53.6108 7.6475V7.5261H53.2797ZM53.3901 8.09997V8.43105H53.6108L53.5004 8.09997H53.3901ZM55.2 8.43105H55.531V8.21033H55.4207L55.2 8.43105ZM52.7058 10.0202V10.3513H52.9376L52.8272 10.0202H52.7058ZM53.2797 10.2409V10.583H53.6108L53.5004 10.2409H53.2797ZM58.3562 11.1459H58.588V11.488H58.3562V11.1459ZM42.31 14.3132V14.4235L42.5418 14.6443H42.6521V14.5339L42.4314 14.3132H42.31ZM42.5418 15.3285L42.8839 15.4388V15.5492L42.6521 15.7809H42.5418L42.31 15.5492L42.5418 15.3285ZM44.5724 15.8913V16.2334H44.9145V16.0017L44.5724 15.8913ZM47.6293 15.7809H47.7397L47.9604 16.3438V16.4541H47.7397C47.5852 16.4541 47.5079 16.3401 47.5079 16.112L47.6293 15.7809ZM43.5571 16.112V16.2334L43.7888 16.5645C43.2591 16.5645 42.9943 16.6785 42.9943 16.9066V17.1384L43.3364 16.9066C43.9397 17.1494 44.2413 17.3775 44.2413 17.5908L44.5724 17.2487C44.3517 17.2487 44.2413 17.1715 44.2413 17.017L44.1199 17.1384H43.7888V16.9066C44.0096 16.9066 44.1199 16.833 44.1199 16.6859C43.9139 16.6859 43.8036 16.4946 43.7888 16.112H43.5571ZM47.0555 16.112H47.2872V16.2334L46.9451 16.5645H46.8348L46.614 16.3438V16.2334H46.8348L46.9451 16.3438H47.0555V16.112ZM53.9529 16.9066V17.017H54.0633L54.1736 16.5645C54.0265 16.5645 53.9529 16.6785 53.9529 16.9066ZM47.7397 16.7963H47.8501V16.9066L47.6293 17.1384H47.3976L47.7397 16.7963ZM44.9145 17.2487V17.3591L45.1352 17.1384V17.017L44.9145 17.2487ZM43.4467 17.8116V18.0433L43.6674 17.8116V17.5908L43.4467 17.8116ZM46.0402 17.7012V18.0433H46.2719L46.1616 17.7012H46.0402ZM47.8501 17.7012V18.4847L48.3025 18.264L47.8501 17.7012ZM48.5343 17.7012L48.3025 17.9219L48.5343 18.1537H48.755V17.7012H48.5343ZM44.5724 17.8116V17.9219L44.9145 18.264V17.8116H44.5724ZM46.4926 18.0433L46.8348 18.1537V17.8116H46.7244L46.4926 18.0433ZM54.1736 18.0433H54.5157V17.8116H54.4054L54.1736 18.0433ZM56.2153 17.9219L56.436 18.1537H56.5463L56.3256 17.9219H56.2153ZM47.1769 18.264V18.6061H47.2872L47.5079 18.3744L47.3976 18.264H47.1769ZM48.9868 18.3744V18.6061H49.0971L49.3178 18.3744H48.9868ZM52.143 18.8269V19.5111H52.2534V18.8269H52.143ZM52.5955 18.8269L52.7058 19.3897H52.8272V18.8269H52.5955ZM47.8501 18.9372L47.6293 19.169V19.3897L47.9604 19.0586V18.9372H47.8501ZM49.4282 18.9372L49.5496 19.0586V19.169L49.4282 19.2793L49.5496 19.3897H49.6599L49.7703 19.2793L49.6599 18.9372H49.4282ZM48.755 19.3897H48.8654L49.0971 19.169V19.0586L48.755 19.3897ZM53.2797 19.0586V19.169L53.5004 19.3897H53.6108L53.2797 19.0586ZM50.2228 19.5111H50.5649V19.2793H50.4545L50.2228 19.5111ZM47.1769 19.8422L47.2872 19.9636V20.416L47.1769 20.5264V20.6367L47.2872 20.7471H47.5079L47.3976 20.1843L47.5079 19.7318H47.3976L47.2872 19.8422H47.1769ZM47.8501 19.9636V20.5264H47.9604V19.9636H47.8501ZM52.143 20.9789V21.7624H52.2534V20.9789H52.143ZM49.4282 21.4313H49.7703V21.1996H49.6599L49.4282 21.4313ZM51.2381 21.3099V21.4313L51.5802 21.5417V21.1996L51.2381 21.3099ZM53.2797 21.1996V21.5417H53.3901L53.6108 21.3099L53.5004 21.1996H53.2797Z" fill="#F0F8FF"/>
<path d="M61.8215 5.90383H62.6381L63.9183 6.01419L64.0287 5.90383H64.1501L64.2604 6.01419H64.3818L64.8453 5.90383L65.0771 6.13558L65.3088 5.90383H66.0041L66.2358 6.13558V6.36734L66.1255 6.25698H66.0041V6.36734L66.3572 6.95224L66.2358 7.0626L66.4676 8.34276L66.3572 8.46415L66.4676 9.03802V11.2452H66.8207C66.8207 11.0098 67.012 10.8185 67.3946 10.6713C67.3946 10.3476 67.9391 9.64867 69.0279 8.57451L69.1383 8.69591H69.2597C69.2597 8.2839 69.4914 7.85718 69.9549 7.41574L71.0033 6.25698L71.1137 6.36734H71.2351V5.90383H74.3693L74.8328 6.01419L75.2963 5.90383H76.5765L76.8082 6.13558L76.9296 6.01419H77.1614V6.25698L77.04 6.36734V6.48873L77.1614 6.59909L76.9296 6.83084L76.8082 6.72048H76.5765L76.6979 7.0626C76.6979 7.2686 76.1939 7.81304 75.186 8.69591C75.186 8.98284 74.877 9.3691 74.2589 9.85468C74.2589 10.0239 73.7918 10.6051 72.8574 11.5983V12.1722L73.2105 12.6468L73.0891 12.9889C73.3246 12.9889 73.4423 13.2611 73.4423 13.8055L73.5526 13.6841H73.674L73.7954 13.8055V13.9159L73.4423 14.3904V14.5008H73.5526L73.9058 14.269H74.0272L74.9542 16.2445V16.3548L74.8328 16.4762C75.083 16.4836 75.5869 17.2598 76.3447 18.8048V18.9151H76.113V19.0365L76.6979 19.6104L76.5765 19.9636L76.6979 19.8422H76.8082L77.7352 21.7072V21.939H77.5035V21.7072H77.2717L77.5035 22.0493H77.1614L76.8082 21.939L76.2344 22.0493H72.3939C71.9966 22.0493 71.7648 21.9353 71.6986 21.7072L71.82 21.5858V21.4755L71.0033 20.5374L71.1137 20.4271V20.3057C70.8856 20.3057 70.7716 20.1144 70.7716 19.7318C70.3081 19.4596 70.0763 19.0329 70.0763 18.4516L69.7232 18.0985L70.0763 17.7564L69.9549 17.635H69.8446L69.4914 17.7564V17.635C69.0941 16.5829 68.7851 16.0017 68.5644 15.8913H68.2113C67.5933 16.3401 67.0893 16.9618 66.6994 17.7564C66.5449 17.7564 66.4676 17.9477 66.4676 18.3302C66.1586 18.3302 66.0041 18.4112 66.0041 18.573C66.3131 18.573 66.4676 18.6503 66.4676 18.8048L66.3572 19.3787L66.4676 19.7318L66.0041 19.8422L66.3572 20.3057V20.7802L66.1255 21.4755L66.2358 21.939L66.1255 22.0493H65.3088C65.3088 21.8213 65.2316 21.7072 65.0771 21.7072C64.9226 21.7072 64.8453 21.8213 64.8453 22.0493H61.7111L61.358 21.7072V7.5261C61.358 6.44459 61.5125 5.90383 61.8215 5.90383ZM75.8812 6.48873V6.72048H76.2344V6.48873H75.8812ZM64.0287 7.41574L64.4922 7.5261V7.41574L64.2604 7.18399L64.0287 7.41574ZM63.4548 7.98961L63.5652 8.11101H63.6866L63.7969 7.75786H63.6866L63.4548 7.98961ZM64.0287 8.46415V8.57451L64.2604 8.80627V8.69591L64.0287 8.46415ZM64.8453 10.0864H65.1874V9.85468H65.0771L64.8453 10.0864ZM66.8207 11.9405L66.6994 12.0619V12.2936H66.8207L67.0525 12.0619V11.9405H66.8207ZM64.8453 12.0619L65.1874 12.415V12.2936L64.9557 12.0619H64.8453ZM69.8446 12.9889V13.4524H70.0763V13.2206L69.8446 12.9889ZM67.8692 15.4278V15.5492L68.1009 15.7809L68.2113 15.6596V15.5492L67.8692 15.4278ZM65.8937 17.635V17.8667H66.2358L66.0041 17.635H65.8937ZM63.1568 21.7403V21.8838H63.3776L63.521 21.7403L63.4438 21.6631H63.3776L63.1568 21.7403ZM64.6688 21.7403V21.8838H64.8895L64.746 21.7403H64.6688Z" fill="#F0F8FF"/>
<path d="M92.7052 1.8042L97.6918 2.029H97.9166L98.1414 2.25381L98.8363 2.029C104.286 2.029 107.91 3.99094 109.709 7.91481C110.308 9.45439 110.608 10.81 110.608 11.9817C110.608 15.8511 108.871 18.6441 105.396 20.3608C96.7858 22.3228 92.4804 23.5354 92.4804 23.9986V24.2234L93.6249 24.4482H98.1414L98.3662 24.673L98.6115 24.4482H100.41L100.635 24.673L100.86 24.4482H102.903L103.128 24.673L103.353 24.4482H109.239C109.62 24.4482 109.927 25.2793 110.158 26.9415C110.049 28.1405 109.899 28.7399 109.709 28.7399L110.158 31.0084L109.933 32.1325L109.239 31.6828V32.3573H107.89L106.745 32.5821V32.3573L106.521 32.5821H89.3127L80.9336 32.3573C80.9336 31.9077 80.7088 31.6828 80.2592 31.6828V31.0084C80.2592 25.0136 82.4459 20.5584 86.8194 17.6427L87.0442 17.8675H87.5143V17.6427H87.0442C87.0442 17.1931 89.1628 16.2122 93.4001 14.6998H93.8497L94.5241 15.1495C94.5241 14.6181 95.9615 13.8687 98.8363 12.9014C99.4358 12.2202 99.7355 11.6888 99.7355 11.3073C99.7355 10.1901 98.2981 9.58382 95.4233 9.48845C94.02 9.48845 92.9641 10.0198 92.2556 11.0825C91.8741 11.0825 91.6493 11.4572 91.5812 12.2065L90.4572 13.1262H89.3127L88.6383 12.9014L87.5143 13.1262H85.6954L84.7962 12.9014L83.8765 13.1262H81.3832L80.484 12.2065C80.484 7.42433 83.2021 4.25662 88.6383 2.70342C88.8835 2.40368 90.2392 2.10394 92.7052 1.8042Z" fill="#0394EB"/>
<path d="M120.17 15.4642H120.402L120.512 15.5745H120.622L120.512 15.9166L120.744 16.3802C120.744 17.0055 120.438 17.4617 119.828 17.7486V17.859H119.596L119.486 17.7486H119.375L119.265 17.859V17.4065H119.717C120.174 17.4065 120.402 17.138 120.402 16.6009L120.28 16.4905H119.938V16.6009H120.28V16.8326C120.207 17.0607 119.979 17.1747 119.596 17.1747H119.486V16.943H119.375C119.375 17.252 119.261 17.4065 119.033 17.4065L119.144 17.5169V17.6272L118.801 17.9693L118.923 18.3114H119.265V18.0907H119.596L119.938 18.3114L120.06 18.2011H120.17L120.06 18.0907V17.9693L120.402 17.6272H120.512V17.9693H120.744L120.964 17.5169V17.4065H120.744L120.964 16.3802L120.854 16.2588H121.086C121.086 16.0307 121.159 15.9166 121.307 15.9166H121.428L121.538 16.038C121.994 15.9571 122.223 15.7658 122.223 15.4642H122.333L122.454 15.5745V15.6959L122.333 15.8063H122.454L122.907 15.4642L123.139 15.8063L123.017 15.9166V16.038H123.249C123.286 15.729 123.4 15.5745 123.591 15.5745V15.6959L123.481 15.8063V15.9166L124.043 16.038L124.154 15.9166V15.8063L124.043 15.6959H124.275L124.496 15.9166C124.496 16.0712 124.382 16.1484 124.154 16.1484V16.2588C124.382 16.2588 124.496 16.336 124.496 16.4905C124.65 16.4905 124.728 16.3397 124.728 16.038H124.959V16.2588L125.302 16.038H125.522L125.864 16.3802V16.4905L125.754 16.3802H125.644L125.302 16.4905L125.412 16.8326L125.864 16.6009L125.986 16.7223H126.096L126.549 16.6009C126.637 16.8731 126.942 17.2152 127.465 17.6272C127.465 18.0098 127.693 18.2011 128.149 18.2011L127.917 18.5432L128.027 19.106H128.259L128.149 18.5432H128.37L128.601 18.9957V19.106L128.259 19.2274L128.37 19.5695L128.712 19.3378L128.943 19.5695H128.712L128.833 20.3641L128.37 20.5959L128.149 20.3641L127.917 20.5959V20.7062L128.027 20.8166V20.938L128.149 20.8166H128.37L128.601 21.0483V21.1587H128.491L128.37 21.0483H128.259C128.259 21.5339 128.145 21.876 127.917 22.0747H128.149V22.185L128.712 22.0747H128.833L128.943 22.185H129.054V21.7326L128.943 21.8429H128.491V21.6222L128.601 21.5008L128.943 21.3905V21.2801L128.712 20.8166L128.833 20.7062H129.054L129.175 21.2801V21.6222C129.477 21.6222 129.628 21.9239 129.628 22.5271C129.628 25.2273 129.322 27.0519 128.712 28.0009C128.432 29.1413 127.98 29.7115 127.354 29.7115C127.354 30.2927 126.707 30.7857 125.412 31.1903H125.302L125.18 31.0689H125.07C125.07 31.2234 124.691 31.3375 123.933 31.411V31.0689H123.701V31.411H123.249L122.675 31.5324V31.411L122.565 31.5324H119.144L119.033 31.411C118.606 31.5655 117.999 31.6428 117.212 31.6428L117.091 31.5324H116.981L116.528 31.6428V31.5324L116.407 31.6428H115.16L114.707 31.5324L114.244 31.6428C113.787 31.6428 113.559 31.3007 113.559 30.6165L113.681 30.5061L113.559 30.3957V28.4534L113.681 28.3431L113.559 28.2217V27.7692C113.868 27.7692 114.023 27.6552 114.023 27.4271V27.3167H113.901V27.5374H113.791L113.559 27.3167V26.6325L113.681 26.5221L113.559 26.4007V23.6638L113.449 23.101L113.901 22.9796L114.023 23.101L114.244 22.7589V22.6375L114.133 22.7589H113.901L113.559 22.4168L113.681 22.0747L113.559 21.9643L113.681 21.8429H113.791V22.5271H114.023C114.17 22.5271 114.244 22.3395 114.244 21.9643L114.586 22.3064V22.5271H114.365V22.9796C114.711 22.9796 115.053 22.8656 115.391 22.6375L115.502 22.7589V22.6375L115.391 22.3064H115.722V22.8693L116.065 22.7589L115.954 22.6375V22.4168L116.296 22.6375H116.407V22.4168H116.186L116.296 22.3064V22.185L116.186 21.8429L116.296 21.7326H116.528L116.87 22.8693L117.212 22.7589V22.6375L116.87 22.185L116.981 22.0747H117.091L117.433 22.3064C117.462 21.9239 117.617 21.7326 117.896 21.7326L117.775 21.3905L117.896 20.4745H117.775C117.547 20.5186 117.433 20.7872 117.433 21.2801C117.286 21.2801 117.212 21.1661 117.212 20.938L117.323 20.8166V20.7062L116.981 20.1324L117.091 19.7902L116.981 19.6799H116.87L116.638 20.022L115.844 19.7902L115.612 20.2538H115.844V20.3641L116.407 20.1324V20.2538L116.528 20.1324H116.638L116.87 20.3641L116.186 20.4745L116.296 20.5959V20.8166L116.065 21.0483L116.296 21.7326H116.065L115.722 21.5008L115.612 21.6222V21.7326L115.954 22.0747L115.844 22.185H115.722L115.391 21.8429L114.817 21.9643L114.586 21.7326L114.365 21.9643L114.244 21.5008H114.365L115.391 21.6222V21.5008L115.502 21.3905H115.612V21.2801C115.384 21.2801 115.27 21.2028 115.27 21.0483V20.8166H115.502V20.5959L115.27 20.2538L115.612 20.022L115.502 19.5695H115.391V19.7902H115.16L115.049 19.3378H114.928V19.7902H114.707C114.707 19.6431 114.553 19.5695 114.244 19.5695V19.4481L114.365 19.3378V19.2274H113.901V19.106L114.133 18.8853C114.133 19.0104 114.361 19.1612 114.817 19.3378V19.106L114.586 18.7639L114.817 18.2011H114.365V18.3114L114.475 18.4328L114.365 18.8853H114.133C114.133 18.6572 114.019 18.5432 113.791 18.5432L113.681 18.4328V18.3114L114.133 18.0907L114.244 18.2011V18.0907L114.133 17.5169H114.475V17.9693H114.928C114.825 17.4396 114.711 17.1747 114.586 17.1747V17.5169C114.233 17.1343 113.968 16.943 113.791 16.943V16.7223C114.019 16.7223 114.133 16.645 114.133 16.4905V16.3802L113.901 16.038V15.9166L114.475 16.038V16.2588L114.244 16.6009L114.365 17.0644L114.707 16.8326L114.586 16.7223V16.3802H114.817L114.928 16.038L114.817 15.9166V15.8063L114.928 15.6959V15.5745L115.27 15.6959V15.9166H115.049V16.038L115.27 16.2588L115.391 16.1484V16.4905H115.27L115.16 16.3802H115.049L114.817 16.943H115.16V17.1747L115.049 17.2851V17.4065H116.065C116.447 17.2226 116.638 16.9945 116.638 16.7223H116.87V16.8326L116.749 16.943V17.0644C117.058 17.0644 117.212 17.252 117.212 17.6272H117.323L117.665 17.4065L118.007 17.5169V17.4065L117.665 17.0644L117.323 17.1747L117.091 16.8326V16.3802L117.554 15.9166L118.239 16.1484V16.3802H118.117L117.665 16.2588L117.212 16.6009L117.665 16.7223L118.007 16.6009V16.7223L118.349 16.8326C118.349 17.0607 118.426 17.1747 118.581 17.1747L118.691 16.8326L118.349 15.6959H118.459L118.581 15.8063H118.691L118.923 15.5745H119.033L118.801 16.2588L118.923 16.943L118.801 17.0644H119.144C119.144 16.9099 119.335 16.8326 119.717 16.8326L119.828 16.7223V16.3802H119.717L119.144 16.6009V16.038L119.717 15.9166C119.865 15.9166 119.938 16.0307 119.938 16.2588L120.06 16.3802H120.17L120.28 15.9166L120.17 15.4642ZM117.896 18.5432V18.6536L118.128 18.9957V19.2274H117.896L117.665 18.9957L117.786 18.8853V18.7639L117.665 18.4328H117.323V18.6536L117.554 18.9957V19.2274C117.326 19.2274 117.212 19.301 117.212 19.4481C117.514 19.4481 117.665 19.6762 117.665 20.1324L117.554 20.2538C118.011 20.2538 118.239 20.3678 118.239 20.5959L117.896 21.5008L118.239 22.0747V22.185L117.665 21.9643L117.444 22.3064L118.239 22.5271V22.6375L118.128 22.7589V22.8693L118.349 23.101V25.1537L118.128 25.4958V25.7165L118.349 26.0586V26.7429L118.239 27.3167L118.349 27.1953H118.581L118.812 27.4271V27.5374L118.691 27.6588V27.7692L118.812 27.8796H118.923L119.033 27.4271H119.717C122.153 27.4271 123.37 27.085 123.37 26.4007C123.569 26.4007 123.793 26.1359 124.043 25.6062L123.933 25.264L124.386 24.8116H124.165V24.5798L124.386 24.3481L124.275 23.7852V23.101C124.297 22.7184 124.375 22.5271 124.507 22.5271L124.386 22.4168V22.3064L124.617 22.0747C124.544 21.3905 124.43 21.0483 124.275 21.0483L124.165 21.1587V21.2801L124.386 21.5008L124.165 21.7326H124.043L123.933 21.2801L124.043 21.1587C123.514 20.7467 123.249 20.445 123.249 20.2538H123.37L123.823 20.3641V19.5695L123.933 19.6799H124.165V19.4481L124.043 19.5695H123.933V19.2274L123.823 19.3378H123.028C123.028 19.7204 122.951 19.9116 122.796 19.9116C122.605 19.9116 122.491 19.7571 122.454 19.4481L122.344 19.5695H122.112C122.112 19.187 122.035 18.9957 121.88 18.9957C121.88 19.2237 121.807 19.3378 121.66 19.3378H121.086C120.931 19.3378 120.854 19.2237 120.854 18.9957L120.976 18.8853V18.7639L120.854 18.2011H120.633V18.5432L120.744 18.6536V18.7639L120.291 18.9957C120.291 18.7529 120.214 18.5653 120.06 18.4328L119.717 18.5432L119.375 18.4328L119.155 18.7639L119.375 18.9957L119.949 18.7639L120.06 18.8853V19.106L119.828 19.3378H119.717L119.375 19.106V19.3378H119.265C119.11 19.3378 118.996 19.0361 118.923 18.4328H118.812L118.691 18.9957H118.581L118.349 18.7639V18.4328L118.581 18.0907H118.349C118.202 18.0907 118.128 18.2415 118.128 18.5432H117.896ZM120.17 31.1903L120.06 30.7268H119.949L119.828 30.8482C119.828 31.0763 119.754 31.1903 119.607 31.1903L119.033 31.0689V30.5061L119.607 30.7268H119.717V30.3957L119.607 30.2743C119.224 30.2743 119.033 30.2008 119.033 30.0536H118.691L118.812 30.164L118.691 30.8482L118.923 31.5324H118.812L118.581 31.3007H118.47L118.349 31.411H118.239L118.581 30.2743L118.47 29.9322C118.316 29.9322 118.239 30.0463 118.239 30.2743L117.896 30.3957V30.5061L117.554 30.3957L117.102 30.5061L117.554 30.8482L118.007 30.7268H118.128V30.9586L117.444 31.1903L116.981 30.7268V30.2743L117.212 29.9322L117.554 30.0536L117.896 29.7115V29.5901L117.554 29.7115L117.212 29.4798H117.102C117.102 29.8623 116.947 30.0536 116.638 30.0536V30.164L116.76 30.2743V30.3957H116.528C116.528 30.1162 116.337 29.8881 115.954 29.7115H114.939V29.8219L115.049 29.9322V30.164H114.707L114.939 30.7268H115.049L115.16 30.6165H115.281V30.9586L115.16 30.8482L114.939 31.0689V31.1903H115.16V31.411L114.817 31.5324V31.411L114.707 31.3007V31.1903L114.817 31.0689L114.707 30.7268H114.475V30.3957L114.597 30.2743L114.255 30.0536L114.133 30.5061L114.365 30.8482V31.0689L113.791 31.1903V31.0689L114.023 30.7268V30.6165C114.023 30.4693 113.909 30.3957 113.681 30.3957V30.164C113.857 30.164 114.122 29.9727 114.475 29.5901V29.9322C114.6 29.9322 114.714 29.6674 114.817 29.1376H114.365V29.5901H114.023L114.133 29.0273V28.9059L114.023 29.0273L113.57 28.7955V28.6852L113.681 28.5638C113.909 28.5638 114.023 28.4497 114.023 28.2217H114.255L114.365 28.6852L114.255 28.7955V28.9059H114.707L114.475 28.3431L114.707 28.0009V27.7692C114.251 27.9458 114.023 28.0966 114.023 28.2217L113.791 28.0009V27.8796H114.255V27.7692L114.133 27.6588V27.5374C114.442 27.5374 114.597 27.4639 114.597 27.3167H114.817V27.7692H114.939L115.049 27.3167H115.281V27.5374H115.391L115.502 27.085L115.16 26.8532L115.391 26.5221V26.2904H115.16V26.0586C115.16 25.9115 115.274 25.8379 115.502 25.8379V25.7165H115.391L115.281 25.6062V25.4958L114.255 25.6062H114.133L114.255 25.1537L114.475 25.3744L114.707 25.1537L115.281 25.264L115.612 24.9219H115.733L115.844 25.0323L115.502 25.3744V25.4958L115.612 25.6062L115.954 25.3744H116.186L115.954 26.0586L116.186 26.2904V26.5221L116.076 26.6325L116.76 26.7429L116.528 26.9746H116.418L116.296 26.8532V26.9746L115.733 26.7429V26.8532H115.502L115.733 27.3167L116.528 27.085L116.76 27.4271H116.87L116.981 27.3167L116.87 26.9746L117.212 26.4007V26.2904L117.102 26.18C117.102 25.952 117.175 25.8379 117.323 25.8379C117.323 26.3235 117.437 26.5884 117.665 26.6325H117.786L117.665 25.7165L117.786 25.3744C117.507 25.3744 117.352 25.1868 117.323 24.8116L116.981 25.0323H116.87L116.76 24.9219L117.102 24.4695V24.3481L116.76 24.2377L116.418 25.3744H116.186L116.076 25.264L116.186 24.9219V24.8116L116.076 24.6902H116.296V24.4695H116.186L115.844 24.6902V24.4695L115.954 24.3481L115.612 24.2377V24.8116H115.281L115.391 24.4695V24.3481L115.281 24.4695C114.943 24.2414 114.6 24.1274 114.255 24.1274V24.5798H114.475V24.8116L114.133 25.1537C114.133 24.7711 114.06 24.5798 113.913 24.5798H113.681V25.264H113.57L113.449 25.1537L113.57 25.0323L113.449 24.6902L113.791 24.3481H114.023L114.133 24.4695V24.3481L113.913 24.006L113.791 24.1274L113.339 24.006L113.449 23.4431V20.7062L113.57 20.5959L113.449 20.4745V19.7902L113.681 19.5695H113.791V19.7902H113.913V19.6799C113.913 19.4518 113.758 19.3378 113.449 19.3378V18.8853L113.57 18.7639L113.449 18.6536V16.7223L113.57 16.6009L113.449 16.4905C113.449 15.8063 113.677 15.4642 114.133 15.4642L114.597 15.5745L115.049 15.4642H116.296L116.418 15.5745V15.4642L116.87 15.5745H116.981L117.102 15.4642C117.889 15.4642 118.496 15.5414 118.923 15.6959L119.033 15.5745H122.454L122.565 15.6959V15.5745L123.139 15.6959H123.591V16.038H123.823V15.6959C124.581 15.7695 124.959 15.8835 124.959 16.038H125.07L125.191 15.9166H125.302C126.596 16.3213 127.244 16.8179 127.244 17.4065C127.869 17.4065 128.322 17.973 128.601 19.106C129.212 20.0551 129.517 21.8797 129.517 24.5798C129.517 25.1905 129.366 25.4958 129.065 25.4958V25.8379L128.943 26.4007H128.723L128.601 26.2904L128.833 25.8379V25.7165L128.491 25.6062L128.381 25.4958V25.264H128.833L128.943 25.3744V24.9219H128.833L128.723 25.0323H128.601L128.038 24.9219V25.0323H127.807C128.035 25.2309 128.149 25.5731 128.149 26.0586H128.259L128.381 25.9483H128.491V26.0586L128.259 26.2904H128.038L127.917 26.18V26.2904L127.807 26.4007V26.5221L128.038 26.7429L128.259 26.5221L128.723 26.7429L128.601 27.5374H128.833L128.601 27.7692L128.259 27.5374L128.149 27.8796L128.491 28.0009V28.1113L128.259 28.5638H128.038L128.149 28.0009H127.917L127.807 28.5638L128.038 28.9059C127.582 28.9059 127.354 29.0972 127.354 29.4798C126.832 29.8918 126.527 30.2339 126.438 30.5061L125.986 30.3957H125.875L125.754 30.5061L125.302 30.2743L125.191 30.6165L125.533 30.7268H125.644L125.754 30.6165V30.7268L125.412 31.0689H125.191L124.849 30.8482V31.0689H124.617C124.617 30.7673 124.54 30.6165 124.386 30.6165C124.386 30.771 124.272 30.8482 124.043 30.8482V30.9586C124.272 30.9586 124.386 31.0358 124.386 31.1903L124.165 31.411H123.933L124.043 31.3007V31.1903L123.933 31.0689L123.37 31.1903V31.3007L123.481 31.411V31.5324C123.289 31.5324 123.175 31.3779 123.139 31.0689H122.907V31.1903L123.028 31.3007L122.796 31.6428L122.344 31.3007H122.223L122.344 31.411V31.5324L122.223 31.6428H122.112C122.112 31.3411 121.884 31.1499 121.428 31.0689L121.318 31.1903H121.196C121.049 31.1903 120.976 31.0763 120.976 30.8482H120.744L120.854 30.7268L120.633 29.7115H120.854V29.5901L120.633 29.1376H120.402V29.4798H120.291L119.949 29.1376V29.0273L120.06 28.9059H119.949L119.828 28.7955L119.486 29.0273H119.155V28.7955H118.812L118.691 29.1376L119.033 29.4798V29.5901L118.923 29.7115C119.151 29.7115 119.265 29.8623 119.265 30.164H119.375V29.9322H119.486C119.868 29.9322 120.096 30.0463 120.17 30.2743V30.5061H119.828V30.6165H120.17L120.291 30.5061C120.291 29.9764 120.063 29.7115 119.607 29.7115H119.155V29.248L119.265 29.3694H119.375L119.486 29.248H119.717V29.3694C120.328 29.649 120.633 30.1014 120.633 30.7268L120.402 31.1903L120.512 31.5324H120.402L120.291 31.6428H120.06L120.17 31.1903ZM118.128 28.5638C118.128 28.8728 118.202 29.0273 118.349 29.0273H118.581L118.349 28.6852V28.3431L118.581 28.1113H118.691L118.812 28.6852H118.923C118.996 28.0745 119.11 27.7692 119.265 27.7692H119.375V28.0009L119.717 27.7692H119.828L120.06 28.0009V28.2217L119.949 28.3431L119.375 28.1113L119.155 28.3431L119.375 28.6852L119.717 28.5638L120.06 28.6852C120.214 28.5527 120.291 28.3615 120.291 28.1113L120.744 28.3431V28.4534L120.633 28.5638V28.9059H120.854L120.976 28.3431V28.2217L120.854 28.1113C120.854 27.8832 120.931 27.7692 121.086 27.7692H121.66C121.807 27.7692 121.88 27.8832 121.88 28.1113C122.035 28.1113 122.112 27.92 122.112 27.5374H122.344L122.454 27.6588C122.491 27.3498 122.605 27.1953 122.796 27.1953C122.951 27.1953 123.028 27.3866 123.028 27.7692H123.823L123.933 27.8796V27.5374H124.043L124.165 27.6588V27.4271H123.933L123.823 27.5374V26.7429L123.37 26.8532H123.249C123.249 26.6693 123.514 26.3676 124.043 25.9483L123.933 25.8379L124.043 25.3744H124.165L124.386 25.6062L124.165 25.8379V25.9483L124.275 26.0586C124.43 26.0586 124.544 25.7165 124.617 25.0323L124.386 24.8116V24.6902L124.507 24.5798C124.375 24.5798 124.297 24.3885 124.275 24.006V23.3217L124.386 22.7589L124.165 22.5271V22.3064H124.386L123.933 21.8429L124.043 21.5008C123.793 20.9711 123.569 20.7062 123.37 20.7062C123.37 20.022 122.153 19.6799 119.717 19.6799H119.033L118.923 19.2274H118.812L118.691 19.3378V19.4481L118.812 19.5695V19.6799L118.581 19.9116H118.349L118.239 19.7902L118.349 20.3641V21.0483L118.128 21.3905V21.6222L118.349 21.9643V24.006L118.128 24.2377V24.3481L118.239 24.4695V24.5798L117.444 24.8116L117.665 25.1537L118.239 24.9219V25.0323L117.896 25.6062L118.239 26.5221C118.239 26.7429 118.011 26.8532 117.554 26.8532L117.665 26.9746C117.665 27.4308 117.514 27.6588 117.212 27.6588C117.212 27.806 117.326 27.8796 117.554 27.8796V28.1113L117.323 28.4534V28.6852H117.665L117.786 28.3431V28.2217L117.665 28.1113L117.896 27.8796H118.128V28.1113L117.896 28.4534V28.5638H118.128Z" fill="#F0F8FF"/>
<path d="M143.941 16.3912V16.6119H144.063L144.294 16.3912H143.941ZM146.016 16.3912L145.895 16.5016V16.6119H146.016L146.358 16.5016V16.3912H146.016ZM146.126 17.0754L146.358 17.3072H146.468L146.237 17.0754H146.126ZM143.831 18.1128L143.941 18.2232H144.063C144.063 18.0686 144.213 17.9914 144.515 17.9914L144.405 17.6493L143.831 18.1128ZM143.831 18.4549L144.063 18.6867L144.173 18.5653V18.4549H143.831ZM133.049 19.8234L133.391 20.0551V19.9447L133.281 19.6026L133.049 19.8234ZM133.512 20.629V20.9711L133.733 20.7504V20.629H133.512ZM133.049 21.0925L133.159 21.545L133.281 21.4346H133.391L133.965 21.545L134.086 21.4346V21.2028L133.733 21.0925L133.391 21.2028L133.049 21.0925ZM135.918 20.9711L136.15 21.2028L135.918 21.4346H135.797L135.686 21.0925L135.797 20.9711H135.918ZM136.371 21.2028L136.602 21.4346V21.545L136.371 21.3242V21.2028ZM133.159 23.9618V24.3039H133.391L133.281 23.9618H133.159ZM132.938 24.7564V24.9882H133.281V24.7564H132.938ZM132.817 25.6834H133.623V25.4517H133.049L132.817 25.6834ZM133.049 26.2573V26.3676H133.512V26.2573H133.049ZM134.086 30.4951H134.428V30.2633H134.307L134.086 30.4951ZM137.75 31.411H137.871L137.64 31.1793H137.518L137.75 31.411ZM146.358 30.7268V30.6054L146.016 30.4951H145.895V30.6054L146.016 30.7268H146.358ZM135.112 30.3737V30.2633H134.881V30.6054L135.112 30.3737ZM135.499 30.5171V30.4068H135.267V30.175L135.499 29.8329L136.073 29.9433H136.183L136.304 29.3694L136.073 28.5638H136.304V28.7955L136.525 28.5638V27.9899L136.073 27.3057V27.1953L136.183 27.0739L135.841 27.1953H135.73L135.841 27.5374V27.6478L135.73 27.7692C135.73 28.0708 135.462 28.2989 134.925 28.4534C134.77 28.4534 134.616 28.1481 134.461 27.5374H134.23V27.8796L134.351 27.9899H134.23L134.119 28.1113H134.009L133.887 27.9899L133.667 28.4534L134.119 28.6852V28.9169L133.545 29.0273V29.1376C133.854 29.1376 134.009 29.2149 134.009 29.3694V29.4908C134.009 29.6379 133.854 29.7115 133.545 29.7115V29.8329L133.667 29.9433L134.23 29.8329H134.461V30.0647H134.583V29.9433L134.351 29.6012V29.1376H134.583L134.23 28.5638H134.351L134.693 28.7955L134.583 29.4908L134.693 29.8329H134.803L134.925 29.259H135.499L135.609 29.3694L134.803 30.5171H135.499ZM146.237 30.0316L146.468 29.7998H146.358L146.126 30.0316H146.237ZM133.281 27.5043L133.391 27.1622V27.0519L133.049 27.2836L133.281 27.5043ZM134.086 27.0519L133.733 26.7098H133.623L133.854 27.2836L134.086 27.0519ZM133.733 26.478V26.3676L133.512 26.1359V26.478H133.733ZM137.066 26.2462L137.298 26.0145H137.408V26.3676L137.298 26.478L137.066 26.2462ZM133.391 25.9041L133.733 26.0145L134.086 25.9041V25.6724L133.965 25.562L133.391 25.6724H133.281L133.159 25.562L133.049 26.0145L133.391 25.9041ZM135.797 26.1359L135.686 26.0145L135.797 25.6724H135.918L136.15 25.9041L135.918 26.1359H135.797ZM136.371 25.7938L136.602 25.562V25.6724L136.371 25.9041V25.7938ZM137.871 25.4406L137.75 25.3303L138.214 24.8668H138.324V25.0985H138.556L138.092 24.4143H138.214L138.445 24.646H138.556L138.666 24.5246H138.787L139.008 24.7564V24.8668L138.898 24.9882V25.2199L139.361 25.3303H139.472L139.582 25.2199L139.814 25.4406V25.562H138.787L137.982 25.4406L137.871 25.562V25.4406ZM133.281 23.1562L133.391 22.803H133.159V23.1562H133.281ZM138.214 23.0348L138.324 22.9244L138.214 22.5823H137.982L138.092 23.0348H138.214ZM133.281 22.3506V22.1188H132.938V22.3506H133.281ZM133.049 21.6553H133.623V21.4346H132.817L133.049 21.6553ZM133.512 20.8607V20.7393H133.049V20.8607H133.512ZM146.237 19.1391L146.358 19.0177L146.126 18.797H146.016V19.0177L146.126 19.1391H146.237ZM139.472 18.6756L139.582 18.5653L139.814 18.797L139.582 19.0177H139.472V18.6756ZM144.747 18.9074L144.979 18.6756V18.5653L144.636 18.9074H144.747ZM143.025 18.4439C143.025 18.6793 143.102 18.797 143.257 18.797L143.147 18.3335H143.025V18.4439ZM145.552 18.797L145.663 18.6756V18.3335H145.552L145.442 18.6756V18.797H145.552ZM144.405 18.6756V17.9914L144.173 18.2232V18.4439L144.405 18.6756ZM145.089 18.4439V18.1018L144.868 17.87V18.4439H145.089ZM146.237 18.4439L146.358 18.1018V17.9914H146.237L146.126 18.1018V18.4439H146.237ZM143.831 18.3335V18.2232L143.941 18.1018V17.9914L143.599 17.87H143.489V18.2232L143.831 18.3335ZM134.307 16.8437H134.428V16.6119H134.086L134.307 16.8437ZM139.361 16.1484V16.038H139.13V16.3802L139.361 16.1484ZM146.237 16.1484H146.358L146.468 16.038L146.237 15.8063H146.126L146.016 15.9277L146.237 16.1484ZM141.315 31.5435H137.64L137.529 31.4221V31.5435L137.298 31.3117L136.955 31.5435H136.834L136.724 31.4221V31.5435L135.576 31.4221H133.623L133.512 31.3117V31.4221C132.894 31.3485 132.585 31.1977 132.585 30.9696L132.707 30.5061L132.475 29.0163L132.585 28.5527L132.475 28.2106L132.707 27.6368C132.574 27.6368 132.497 27.4455 132.475 27.0629V26.8311L132.585 26.0255L132.475 25.9152V25.8048L132.585 25.6834V25.5731L132.475 25.4517V25.3413L132.585 25.2309L132.475 25.1095V23.6197L132.585 23.5093L132.475 23.3879V21.556L132.585 21.4346L132.475 21.3242V21.2139L132.585 21.0925L132.475 20.9821V20.0661L132.585 19.3709L132.475 18.797V17.9914L132.585 17.1968H132.475V16.9651L132.585 16.6229H132.475C132.475 15.7769 132.666 15.3538 133.049 15.3538L134.307 15.4642H137.298L137.408 15.5856L137.298 15.6959L137.408 16.2698V17.7707L137.176 17.9914L137.408 18.3445V18.4549L137.176 18.6867L137.408 19.0288V20.64C137.408 21.1697 137.713 21.4751 138.324 21.556L138.787 21.4346L139.019 21.6663L139.361 21.4346H139.593L139.703 21.556L139.825 21.4346H140.277L140.399 21.556L140.509 21.4346H140.741C140.895 21.4346 140.973 21.5523 140.973 21.7877H141.083C141.083 21.5523 141.16 21.4346 141.315 21.4346H141.546L141.657 21.556V21.4346L142.12 21.556H142.231L142.352 21.4346C142.58 21.4346 142.694 21.5118 142.694 21.6663L142.926 21.4346L143.378 21.556L143.842 21.4346H146.59C146.899 21.4346 147.053 21.8944 147.053 22.8141V23.0458L146.943 23.1562L147.053 23.2776V24.3039L146.943 24.8778L147.053 24.9992C147.053 25.3008 146.939 25.4517 146.711 25.4517H137.982C137.798 25.4517 137.647 25.7607 137.529 26.3787L137.64 26.8311V27.2947L138.214 27.405H140.399L141.083 27.6368V27.5264L146.711 27.6368H146.822L146.943 27.7471L147.053 29.5901C147.002 30.9659 146.811 31.6538 146.479 31.6538H143.842L143.268 31.5435L142.926 31.6538H142.573L142.462 31.5435L142.352 31.6538H142.231L142.12 31.5435V31.6538L141.315 31.5435ZM140.366 19.1502L140.664 18.9184H140.95V19.1502H141.094V19.0288L140.95 18.6867H140.366L140.222 18.797L140.818 17.7707H140.664L140.52 17.6493L140.222 18.2232H139.924V18.0024L139.494 18.1128L139.063 18.0024L139.196 17.6493V17.5389L139.063 17.4286L139.196 17.3072V17.0865H139.063L138.909 17.1968V17.3072L139.063 17.4286H138.909C138.718 17.4286 138.622 17.3145 138.622 17.0865C138.136 17.0865 137.894 17.0092 137.894 16.8547V16.7333H138.037L138.169 16.8547V16.5126L137.894 16.1594V16.0491H138.324V15.9387L138.169 15.8173V15.707L138.467 15.4752H138.622V15.707L138.909 16.1594C139.983 16.2477 140.52 16.4795 140.52 16.8547H140.664V16.7333L140.52 16.0491C140.763 16.0491 140.906 15.8578 140.95 15.4752H141.094L141.248 15.5856V15.707L141.094 15.8173H141.248C141.462 16.1999 141.947 16.3912 142.705 16.3912V16.2808L142.264 15.8173L142.705 15.4752H142.849L142.992 15.5856V15.707L142.849 15.8173V15.9387H142.992C143.183 15.9387 143.279 15.821 143.279 15.5856V15.4752L144.747 15.707L145.177 15.4752V15.5856H145.475V15.707L145.332 15.8173H145.475L145.906 15.4752L146.932 15.5856V15.707C146.932 15.8615 146.741 15.9387 146.358 15.9387V16.1594H146.788V16.5126L146.634 17.0865L146.932 17.3072V17.5389L146.358 17.4286H146.204C146.204 17.6346 146.446 17.7486 146.932 17.7707V18.1128L146.358 18.2232L146.502 18.3445V18.4549L146.358 18.5763L146.788 18.4549H146.932C146.932 18.8375 146.833 19.0288 146.634 19.0288C146.634 19.2568 146.542 19.3709 146.358 19.3709H146.204C146.204 19.1428 146.104 19.0288 145.906 19.0288V19.3709H145.475V19.0288L145.63 18.9184L145.332 18.6867L144.747 19.0288L144.449 18.797V18.6867L144.901 18.2232H144.007L144.305 18.5763C144.305 19.1355 144.162 19.4408 143.875 19.4923H143.72L143.577 19.1502L143.72 19.0288V18.5763H143.434L143.279 18.9184L143.434 19.2605L143.147 19.4923C142.992 19.4923 142.845 19.3378 142.705 19.0288V18.9184L142.849 18.797V18.6867H142.551V19.0288L141.524 18.9184V18.797L141.977 18.3445L142.418 18.5763H142.551V18.4549L142.264 18.0024H142.12L141.977 18.1128H141.679L141.524 18.0024L141.679 17.6493V17.5389L141.524 17.4286H141.679V17.0865H141.524V17.4286H141.392C141.193 17.4286 141.094 17.3145 141.094 17.0865C140.608 17.0865 140.366 17.0092 140.366 16.8547V16.7333L139.924 16.8547L139.35 16.7333H139.196C139.196 16.851 139.394 16.9687 139.792 17.0865L140.366 16.9651L140.222 17.5389H140.818V17.3072H140.95C141.149 17.3072 141.296 17.6125 141.392 18.2232L141.248 18.3445H141.524V18.4549L141.248 18.797L142.418 19.4923H141.392L141.248 19.3709L141.094 19.4923H140.95L140.366 19.1502ZM137.044 18.797V18.5763L137.264 18.797V19.0288L137.044 18.797ZM137.099 18.9184V18.5763L137.441 18.4549C137.669 18.4549 137.824 18.6094 137.905 18.9184L137.783 19.0288L137.099 18.9184ZM136.691 17.7707H137.044V17.881L136.812 18.1128H136.691V17.7707ZM139.847 17.4286L139.394 17.3072L139.273 17.4286L139.394 17.881L139.847 17.4286ZM137.551 17.7707H137.905C137.846 17.5426 137.691 17.3881 137.441 17.3072V17.4286L137.331 17.5389L137.551 17.7707ZM140.079 17.0865V16.9651L139.968 16.8547V16.7333L139.615 16.8547H139.505L139.394 16.7333H139.163V16.8547L139.273 16.9651C139.501 16.9651 139.615 17.0423 139.615 17.1968L140.079 17.0865ZM138.412 16.9651L138.191 16.6229H138.412V16.2808L138.07 16.1594H137.96V16.2808L138.07 16.3912V16.9651H138.412ZM138.931 16.9651L138.589 16.6229V16.9651H138.931ZM138.931 16.5126V16.2808L138.699 16.0491L138.478 16.2808L138.699 16.5126H138.931ZM137.673 15.707L137.905 15.4752H138.015V15.8173L137.905 15.9387L138.015 16.0491H137.673V15.707ZM139.163 15.8173V15.5856H139.273L139.505 15.8173V15.9387L139.394 16.0491L139.163 15.8173ZM137.099 15.707V15.5856L137.209 15.4752L137.551 15.8173V15.9387H137.331L137.099 15.707ZM137.816 18.6756L137.927 18.5653L138.158 18.797L137.927 19.0177H137.816V18.6756ZM139.935 18.4439C139.935 18.6793 140.012 18.797 140.167 18.797L140.057 18.3335H139.935V18.4439ZM137.64 16.954L137.871 16.7223L137.64 16.3802H137.529L137.419 16.5016L137.529 16.954H137.64ZM139.251 16.7223V16.6119L138.787 16.5016H138.677V16.6119L138.787 16.7223H139.251ZM137.706 16.1484V16.038H137.474V16.3802L137.706 16.1484ZM138.787 15.5745H139.141V15.8063H138.787V15.5745ZM138.368 19.3709L138.6 19.1502H138.71V19.4923H138.368V19.3709ZM138.191 17.4286L137.739 17.3072L137.618 17.4286L137.739 17.881L138.191 17.4286ZM137.905 17.881V17.7707L137.562 17.6493H137.452V17.7707L137.562 17.881H137.905ZM139.052 17.7707H139.174V17.5389H138.821L139.052 17.7707ZM138.423 17.0865V16.9651L138.313 16.8547V16.7333L137.96 16.8547H137.849L137.739 16.7333H137.507V16.8547L137.618 16.9651C137.846 16.9651 137.96 17.0423 137.96 17.1968L138.423 17.0865ZM138.368 17.0865L138.478 16.9651L138.6 17.0865H138.942V16.5126L138.478 16.8547H138.368L138.247 16.7333C138.247 16.4317 138.364 16.2808 138.6 16.2808V16.0491L138.478 15.9387L138.026 16.0491L138.136 16.1594L138.026 16.9651V17.0865H138.368ZM137.673 16.9651L137.562 16.8547C137.562 16.3912 137.676 16.1594 137.905 16.1594V15.9387H137.673L137.452 16.3912V16.9651H137.673ZM139.052 16.2808V15.9387H138.821V16.2808H139.052ZM137.507 15.8173V15.5856H137.618L137.849 15.8173V15.9387L137.739 16.0491L137.507 15.8173ZM139.472 18.6756L139.582 18.5653L139.814 18.797L139.582 19.0177H139.472V18.6756ZM143.025 18.4439C143.025 18.6793 143.102 18.797 143.257 18.797L143.147 18.3335H143.025V18.4439ZM143.831 18.3335V18.2232L143.941 18.1018V17.9914L143.599 17.87H143.489V18.2232L143.831 18.3335ZM139.361 16.1484V16.038H139.13V16.3802L139.361 16.1484ZM137.044 18.797V18.5763L137.264 18.797V19.0288L137.044 18.797ZM137.099 18.9184V18.5763L137.441 18.4549C137.669 18.4549 137.824 18.6094 137.905 18.9184L137.783 19.0288L137.099 18.9184ZM136.691 17.7707H137.044V17.881L136.812 18.1128H136.691V17.7707ZM139.847 17.4286L139.394 17.3072L139.273 17.4286L139.394 17.881L139.847 17.4286ZM137.551 17.7707H137.905C137.846 17.5426 137.691 17.3881 137.441 17.3072V17.4286L137.331 17.5389L137.551 17.7707ZM140.079 17.0865V16.9651L139.968 16.8547V16.7333L139.615 16.8547H139.505L139.394 16.7333H139.163V16.8547L139.273 16.9651C139.501 16.9651 139.615 17.0423 139.615 17.1968L140.079 17.0865ZM138.412 16.9651L138.191 16.6229H138.412V16.2808L138.07 16.1594H137.96V16.2808L138.07 16.3912V16.9651H138.412ZM138.931 16.9651L138.589 16.6229V16.9651H138.931ZM138.931 16.5126V16.2808L138.699 16.0491L138.478 16.2808L138.699 16.5126H138.931ZM137.673 15.707L137.905 15.4752H138.015V15.8173L137.905 15.9387L138.015 16.0491H137.673V15.707ZM139.163 15.8173V15.5856H139.273L139.505 15.8173V15.9387L139.394 16.0491L139.163 15.8173ZM137.099 15.707V15.5856L137.209 15.4752L137.551 15.8173V15.9387H137.331L137.099 15.707ZM137.816 18.6756L137.927 18.5653L138.158 18.797L137.927 19.0177H137.816V18.6756ZM139.935 18.4439C139.935 18.6793 140.012 18.797 140.167 18.797L140.057 18.3335H139.935V18.4439ZM137.64 16.954L137.871 16.7223L137.64 16.3802H137.529L137.419 16.5016L137.529 16.954H137.64ZM139.251 16.7223V16.6119L138.787 16.5016H138.677V16.6119L138.787 16.7223H139.251ZM137.706 16.1484V16.038H137.474V16.3802L137.706 16.1484ZM138.787 15.5745H139.141V15.8063H138.787V15.5745ZM138.368 19.3709L138.6 19.1502H138.71V19.4923H138.368V19.3709ZM138.191 17.4286L137.739 17.3072L137.618 17.4286L137.739 17.881L138.191 17.4286ZM137.905 17.881V17.7707L137.562 17.6493H137.452V17.7707L137.562 17.881H137.905ZM139.052 17.7707H139.174V17.5389H138.821L139.052 17.7707ZM138.423 17.0865V16.9651L138.313 16.8547V16.7333L137.96 16.8547H137.849L137.739 16.7333H137.507V16.8547L137.618 16.9651C137.846 16.9651 137.96 17.0423 137.96 17.1968L138.423 17.0865ZM138.368 17.0865L138.478 16.9651L138.6 17.0865H138.942V16.5126L138.478 16.8547H138.368L138.247 16.7333C138.247 16.4317 138.364 16.2808 138.6 16.2808V16.0491L138.478 15.9387L138.026 16.0491L138.136 16.1594L138.026 16.9651V17.0865H138.368ZM137.673 16.9651L137.562 16.8547C137.562 16.3912 137.676 16.1594 137.905 16.1594V15.9387H137.673L137.452 16.3912V16.9651H137.673ZM139.052 16.2808V15.9387H138.821V16.2808H139.052ZM137.507 15.8173V15.5856H137.618L137.849 15.8173V15.9387L137.739 16.0491L137.507 15.8173ZM139.361 17.8038V17.6934H139.13V18.0355L139.361 17.8038ZM137.099 20.5738V20.2317L137.441 20.1103C137.669 20.1103 137.824 20.2648 137.905 20.5738L137.783 20.6842L137.099 20.5738ZM139.847 19.084L139.394 18.9626L139.273 19.084L139.394 19.5364L139.847 19.084ZM137.551 19.4261H137.905C137.846 19.198 137.691 19.0435 137.441 18.9626V19.084L137.331 19.1943L137.551 19.4261ZM140.079 18.7418V18.6204L139.968 18.5101V18.3887L139.615 18.5101H139.505L139.394 18.3887H139.163V18.5101L139.273 18.6204C139.501 18.6204 139.615 18.6977 139.615 18.8522L140.079 18.7418ZM138.412 18.6204L138.191 18.2783H138.412V17.9362L138.07 17.8148H137.96V17.9362L138.07 18.0466V18.6204H138.412ZM138.931 18.6204L138.589 18.2783V18.6204H138.931ZM138.931 18.168V17.9362L138.699 17.7045L138.478 17.9362L138.699 18.168H138.931ZM137.673 17.3624L137.905 17.1306H138.015V17.4727L137.905 17.5941L138.015 17.7045H137.673V17.3624ZM139.163 17.4727V17.241H139.273L139.505 17.4727V17.5941L139.394 17.7045L139.163 17.4727ZM137.099 17.3624V17.241L137.209 17.1306L137.551 17.4727V17.5941H137.331L137.099 17.3624ZM137.816 20.331L137.927 20.2206L138.158 20.4524L137.927 20.6731H137.816V20.331ZM139.935 20.0993C139.935 20.3347 140.012 20.4524 140.167 20.4524L140.057 19.9889H139.935V20.0993ZM141.315 20.331V19.6468L141.083 19.8785V20.0993L141.315 20.331ZM137.64 18.6094L137.871 18.3777L137.64 18.0355H137.529L137.419 18.1569L137.529 18.6094H137.64ZM139.251 18.3777V18.2673L138.787 18.1569H138.677V18.2673L138.787 18.3777H139.251ZM137.706 17.8038V17.6934H137.474V18.0355L137.706 17.8038ZM138.787 17.2299H139.141V17.4617H138.787V17.2299ZM138.368 21.0263L138.6 20.8055H138.71V21.1477H138.368V21.0263ZM138.191 19.084L137.739 18.9626L137.618 19.084L137.739 19.5364L138.191 19.084ZM137.905 19.5364V19.4261L137.562 19.3047H137.452V19.4261L137.562 19.5364H137.905ZM139.052 19.4261H139.174V19.1943H138.821L139.052 19.4261ZM138.423 18.7418V18.6204L138.313 18.5101V18.3887L137.96 18.5101H137.849L137.739 18.3887H137.507V18.5101L137.618 18.6204C137.846 18.6204 137.96 18.6977 137.96 18.8522L138.423 18.7418ZM138.368 18.7418L138.478 18.6204L138.6 18.7418H138.942V18.168L138.478 18.5101H138.368L138.247 18.3887C138.247 18.087 138.364 17.9362 138.6 17.9362V17.7045L138.478 17.5941L138.026 17.7045L138.136 17.8148L138.026 18.6204V18.7418H138.368ZM137.673 18.6204L137.562 18.5101C137.562 18.0466 137.676 17.8148 137.905 17.8148V17.5941H137.673L137.452 18.0466V18.6204H137.673ZM139.052 17.9362V17.5941H138.821V17.9362H139.052ZM137.507 17.4727V17.241H137.618L137.849 17.4727V17.5941L137.739 17.7045L137.507 17.4727ZM139.361 17.8038V17.6934H139.13V18.0355L139.361 17.8038ZM137.099 20.5738V20.2317L137.441 20.1103C137.669 20.1103 137.824 20.2648 137.905 20.5738L137.783 20.6842L137.099 20.5738ZM139.847 19.084L139.394 18.9626L139.273 19.084L139.394 19.5364L139.847 19.084ZM137.551 19.4261H137.905C137.846 19.198 137.691 19.0435 137.441 18.9626V19.084L137.331 19.1943L137.551 19.4261ZM140.079 18.7418V18.6204L139.968 18.5101V18.3887L139.615 18.5101H139.505L139.394 18.3887H139.163V18.5101L139.273 18.6204C139.501 18.6204 139.615 18.6977 139.615 18.8522L140.079 18.7418ZM138.412 18.6204L138.191 18.2783H138.412V17.9362L138.07 17.8148H137.96V17.9362L138.07 18.0466V18.6204H138.412ZM138.931 18.6204L138.589 18.2783V18.6204H138.931ZM138.931 18.168V17.9362L138.699 17.7045L138.478 17.9362L138.699 18.168H138.931ZM137.673 17.3624L137.905 17.1306H138.015V17.4727L137.905 17.5941L138.015 17.7045H137.673V17.3624ZM139.163 17.4727V17.241H139.273L139.505 17.4727V17.5941L139.394 17.7045L139.163 17.4727ZM137.099 17.3624V17.241L137.209 17.1306L137.551 17.4727V17.5941H137.331L137.099 17.3624ZM137.816 20.331L137.927 20.2206L138.158 20.4524L137.927 20.6731H137.816V20.331ZM139.935 20.0993C139.935 20.3347 140.012 20.4524 140.167 20.4524L140.057 19.9889H139.935V20.0993ZM141.315 20.331V19.6468L141.083 19.8785V20.0993L141.315 20.331ZM137.64 18.6094L137.871 18.3777L137.64 18.0355H137.529L137.419 18.1569L137.529 18.6094H137.64ZM139.251 18.3777V18.2673L138.787 18.1569H138.677V18.2673L138.787 18.3777H139.251ZM137.706 17.8038V17.6934H137.474V18.0355L137.706 17.8038ZM138.787 17.2299H139.141V17.4617H138.787V17.2299ZM138.368 21.0263L138.6 20.8055H138.71V21.1477H138.368V21.0263ZM138.191 19.084L137.739 18.9626L137.618 19.084L137.739 19.5364L138.191 19.084ZM137.905 19.5364V19.4261L137.562 19.3047H137.452V19.4261L137.562 19.5364H137.905ZM139.052 19.4261H139.174V19.1943H138.821L139.052 19.4261ZM138.423 18.7418V18.6204L138.313 18.5101V18.3887L137.96 18.5101H137.849L137.739 18.3887H137.507V18.5101L137.618 18.6204C137.846 18.6204 137.96 18.6977 137.96 18.8522L138.423 18.7418ZM138.368 18.7418L138.478 18.6204L138.6 18.7418H138.942V18.168L138.478 18.5101H138.368L138.247 18.3887C138.247 18.087 138.364 17.9362 138.6 17.9362V17.7045L138.478 17.5941L138.026 17.7045L138.136 17.8148L138.026 18.6204V18.7418H138.368ZM137.673 18.6204L137.562 18.5101C137.562 18.0466 137.676 17.8148 137.905 17.8148V17.5941H137.673L137.452 18.0466V18.6204H137.673ZM139.052 17.9362V17.5941H138.821V17.9362H139.052ZM137.507 17.4727V17.241H137.618L137.849 17.4727V17.5941L137.739 17.7045L137.507 17.4727Z" fill="#F0F8FF"/>
<path d="M156.059 21.2028L156.18 21.9091H156.423L156.533 21.7877L156.655 21.9091L157.604 21.556C157.765 21.556 157.846 21.6737 157.846 21.9091L158.674 21.7877H159.149L159.259 22.2623H159.502V21.9091C159.266 21.9091 159.149 21.8319 159.149 21.6774L159.502 21.4346H159.623C159.623 21.67 159.7 21.7877 159.855 21.7877H159.976V21.4346L160.451 21.9091L160.329 22.0305H160.572L160.683 21.9091H160.804L160.925 22.0305V21.7877H161.157V22.0305C161.157 22.163 160.881 22.2807 160.329 22.3837V22.5051C160.565 22.5051 160.683 22.5823 160.683 22.7368L160.572 23.2114L160.925 23.3328V23.2114L160.804 22.6154C160.959 22.6154 161.036 22.4977 161.036 22.2623C161.514 22.2623 161.753 22.185 161.753 22.0305L161.279 21.6774V21.4346L161.753 21.3132V21.4346L161.875 21.3132H161.985C162.272 21.7105 162.551 21.9091 162.824 21.9091L162.934 22.0305V22.1409L162.581 22.5051C162.691 22.8288 162.89 23.0642 163.177 23.2114L163.055 23.9287H162.934C162.934 23.7668 162.739 23.6859 162.349 23.6859L162.228 23.5645L162.106 23.6859V23.4542H161.985L161.632 23.5645V23.3328L160.925 23.9287V24.0391L161.279 23.8073L161.985 23.9287L162.349 23.8073L162.459 23.9287V24.0391L162.349 24.1605V24.2819L162.459 24.4032H162.228V24.5136C162.404 24.5136 162.562 24.6718 162.702 24.9882V25.1095L162.459 25.3413C162.305 25.3413 162.228 25.2236 162.228 24.9882H161.985C161.985 25.3854 161.908 25.5841 161.753 25.5841H161.632V25.4627L161.875 24.9882L161.51 24.8668L161.157 24.9882L161.279 25.1095V25.5841H160.925L160.804 24.8668L161.036 24.635V24.5136H160.925L160.572 24.635L160.683 25.1095C160.565 25.4259 160.447 25.5841 160.329 25.5841L160.208 24.9882H159.976C159.976 25.3854 159.895 25.5841 159.734 25.5841H159.149L158.906 25.3413V25.1095C158.957 24.6387 159.075 24.4032 159.259 24.4032L159.502 24.635H159.623V24.1605L159.502 24.2819H159.38L159.149 24.0391L159.502 23.6859H159.623C159.623 23.9213 159.7 24.0391 159.855 24.0391H159.976V23.8073L159.855 23.2114H159.623V23.5645H159.38L159.259 23.2114C159.443 23.0569 159.723 22.9796 160.098 22.9796V22.3837L159.855 22.1409V22.2623L159.976 22.7368L159.38 22.6154L158.784 23.8073L159.149 24.4032C158.751 24.5063 158.553 24.6608 158.553 24.8668H158.431L157.957 24.5136H157.846L157.957 24.635V24.7564L157.846 24.8668L157.957 24.9882V25.3413L157.725 25.5841L157.604 25.4627V25.3413L157.725 25.2309L157.604 24.8668H157.482C157.269 24.8668 157.151 25.0654 157.129 25.4627H156.897V24.9882H156.655C156.655 25.2236 156.537 25.3413 156.301 25.3413L156.059 25.1095C156.059 25.6613 155.625 25.9372 154.756 25.9372L154.878 26.8863L154.999 26.7649H155.231L155.474 27.0077L155.121 27.4823L155.474 27.8354L155.231 28.0672L154.646 27.8354C154.646 28.1003 154.922 28.2989 155.474 28.4313V28.6631H155.352L154.999 28.4313L154.646 28.9059H154.878V29.259C154.642 29.259 154.525 29.3363 154.525 29.4908L154.756 29.7336V29.4908L154.878 29.6122H154.999L154.646 30.2081L154.999 30.5613H155.121L154.878 31.5104L154.999 31.389H155.121L155.352 31.6318V31.7421L154.878 31.8635L154.403 31.389H154.171V31.6318H153.807L153.929 31.5104V31.389H153.807L153.222 31.7421H152.98V31.5104H152.858L152.505 31.6318V31.5104L152.626 31.389V31.2676H152.505L152.626 30.793H152.748C152.88 30.793 153.038 31.0321 153.222 31.5104L153.454 31.2676C153.278 31.2676 153.119 31.1094 152.98 30.793L153.333 30.4399H153.454C153.616 30.4399 153.697 30.5576 153.697 30.793L153.576 31.1572L153.697 31.2676H153.807L154.05 31.0358L154.525 31.1572V30.5613H154.403L153.929 30.9144V30.6827L153.807 30.5613L153.929 30.4399C154.326 30.4399 154.525 30.2412 154.525 29.8439H154.282L154.171 30.3185L154.05 30.2081H153.929L152.98 30.3185L152.505 29.8439C152.387 29.8439 152.27 30.0021 152.152 30.3185H152.273L152.858 30.2081C152.858 30.3626 152.704 30.4399 152.395 30.4399C152.395 30.7562 152.273 30.9144 152.031 30.9144L152.273 31.5104H152.031C151.957 30.9586 151.839 30.6827 151.677 30.6827H151.556L151.677 30.793V30.9144L151.556 31.0358L151.677 31.1572V31.2676C151.677 31.4515 151.479 31.5729 151.081 31.6318V31.5104L151.324 31.1572V31.0358L151.203 30.5613L151.324 30.2081H151.203L150.607 30.0867V29.7336H150.85L151.446 29.8439L151.556 29.4908L150.971 29.3804L150.85 29.4908V29.259L151.203 29.1376L151.556 29.259L151.677 29.1376L151.92 29.3804V29.1376H152.031L151.799 28.31L151.92 27.9568L151.799 28.0672H151.081L150.85 27.8354L150.971 27.714L150.497 26.7649C150.57 26.2941 150.688 26.0586 150.85 26.0586H150.971V26.4118L150.728 26.7649L151.92 27.1291L152.031 26.5332H151.799L151.92 25.9372L151.799 25.1095L152.273 25.8158H152.395L152.273 25.9372V26.6546C152.406 26.6546 152.523 26.4559 152.626 26.0586H152.505L152.858 25.1095H152.626L152.273 25.3413C152.273 25.1059 152.156 24.9882 151.92 24.9882V24.7564L152.505 24.8668L153.101 24.7564L153.222 24.8668V24.9882L153.101 25.1095H152.98L153.101 25.7055L153.697 25.1095H153.807C153.807 24.9109 153.649 24.7932 153.333 24.7564V24.5136H153.576L154.282 24.9882L155.121 24.5136H155.827V24.4032L155.705 24.2819V24.1605L155.827 23.6859V23.5645H155.121C155.121 23.2187 155.04 22.9833 154.878 22.8582C154.988 22.4609 155.264 22.2623 155.705 22.2623L156.059 22.6154C156.772 22.5198 157.129 22.3616 157.129 22.1409V22.0305L156.301 22.3837L155.948 22.2623V22.0305L156.059 21.9091L155.827 21.3132L155.948 21.2028H156.059ZM150.728 27.714V27.9568L150.607 28.0672V28.1886L151.081 28.31L151.446 28.1886L151.677 28.5417L151.446 28.7845H151.324L150.971 28.5417C150.971 28.8581 150.85 29.0163 150.607 29.0163L150.497 28.9059V28.7845L150.728 28.5417C150.552 28.5417 150.434 28.3467 150.375 27.9568L150.728 27.714ZM155.076 15.2435L155.198 15.3538H155.308L156.599 15.2435L157.416 15.3538L158.597 15.2435L159.524 15.3538L160.462 15.2435H160.583L161.632 15.3538L161.753 15.2435H161.875C163.942 15.2435 165.347 16.4905 166.09 18.9846L166.322 20.7393C166.322 22.7405 165.465 24.1825 163.751 25.0654L161.422 25.6503L157.891 25.6613H155.551C155.235 25.6613 155.076 26.1285 155.076 27.0629V27.2947L155.198 27.6478L155.076 28.2327V31.4L154.966 31.5104V31.6318L151.799 31.7532H150.629L150.165 31.2786V28.939L150.044 27.6478L150.165 27.5374L150.044 26.7098V25.4296L150.165 25.3082L150.044 25.1868V25.0764L150.165 24.7233L150.044 24.1384L150.165 22.2623L150.044 22.1519V22.0305L150.165 21.567L150.044 21.4456L150.165 20.8607V16.645C150.165 15.7842 150.279 15.3538 150.508 15.3538H153.796L155.076 15.2435ZM155.198 19.5695V21.0925C155.198 21.2249 155.43 21.3831 155.893 21.567L157.769 21.4456V21.567L157.891 21.4456H158.244L158.354 21.567H158.475L158.707 21.3242H160.23L160.815 20.7393V20.5076C160.815 19.8086 160.425 19.4592 159.645 19.4592H155.783L155.198 19.5695Z" fill="#F0F8FF"/>
</svg>
