<svg width="472" height="398" viewBox="0 0 472 398" fill="none" xmlns="http://www.w3.org/2000/svg">
<path fill-rule="evenodd" clip-rule="evenodd" d="M262.129 1.15595C262.173 1.45575 262.335 1.74265 262.488 1.79329C262.667 1.85182 262.721 1.70562 262.639 1.39029C262.456 0.689646 262.032 0.494959 262.129 1.15595ZM414.308 18.6845C414.354 18.9036 414.498 19.0772 414.63 19.0703C414.984 19.0514 414.919 18.5171 414.547 18.3931C414.346 18.3262 414.257 18.4354 414.308 18.6845ZM346.9 21.3304C346.9 21.5291 347.004 21.8786 347.131 22.1068C347.258 22.3349 347.598 23.095 347.886 23.7959C348.174 24.4968 349.259 26.2705 350.295 27.7375C351.332 29.2045 352.647 31.3721 353.217 32.5546C354.555 35.3302 355.505 36.6056 356.683 37.2064C357.205 37.4727 357.738 37.6906 357.867 37.6906C358.462 37.6906 356.846 33.7349 354.673 29.8733C352.503 26.0154 348.412 20.9687 347.455 20.9687C347.119 20.9687 346.9 21.1113 346.9 21.3304ZM259.24 22.7391C259.04 22.9799 259.035 23.1223 259.221 23.2374C259.538 23.4333 260.226 22.9108 260.042 22.6139C259.852 22.3074 259.56 22.3531 259.24 22.7391ZM367.823 32.4774C368.097 34.3784 368.431 35.3524 369.005 35.9264C370.257 37.1784 370.411 36.1615 369.388 33.3907C368.867 31.9791 368.615 31.5828 368.2 31.5219C367.708 31.45 367.684 31.5126 367.823 32.4774ZM306.944 32.8386C306.713 32.8988 306.525 32.9743 306.525 33.0065C306.525 33.6274 307.442 35.8258 307.906 36.317C308.646 37.101 309.065 37.1504 309.278 36.4789C309.495 35.7976 309.234 34.8899 308.478 33.6898C307.844 32.6821 307.747 32.6286 306.944 32.8386ZM297.613 34.8103C297.684 35.0805 297.845 35.3017 297.97 35.3017C298.288 35.3017 298.108 34.5266 297.765 34.4121C297.587 34.3529 297.531 34.4977 297.613 34.8103ZM351.185 37.8697C352.779 41.4742 353.066 42.0048 353.915 42.9066C355.023 44.0848 357.415 45.2037 357.41 44.5417C357.405 43.9684 356.251 41.8252 355.135 40.3183C354.503 39.4643 353.565 38.1944 353.052 37.4961C352.168 36.2952 350.937 35.3046 350.326 35.3027C350.17 35.3022 350.543 36.4183 351.185 37.8697ZM116.358 47.8233C116.358 48.0314 116.528 48.2014 116.736 48.2014C117.158 48.2014 117.084 47.6871 116.641 47.5395C116.485 47.4874 116.358 47.6152 116.358 47.8233ZM134.036 56.0476C134.036 56.5803 134.759 57.279 135.31 57.279C135.853 57.279 135.812 56.666 135.231 56.0846C134.633 55.4862 134.036 55.4676 134.036 56.0476ZM246.959 56.0051C246.668 56.2951 246.794 56.5497 247.158 56.41C247.355 56.3342 247.516 56.1763 247.516 56.059C247.516 55.8087 247.187 55.7767 246.959 56.0051ZM190.508 61.6833C189.526 62.1109 188.984 62.9222 188.984 63.9678C188.984 65.0341 189.533 65.8332 190.561 66.2625C193.316 67.4134 195.89 65.0322 194.596 62.5297C194.398 62.146 194.029 61.7213 193.776 61.5861C193.136 61.2435 191.4 61.2951 190.508 61.6833ZM223.865 70.1787C223.865 70.3101 223.966 70.4176 224.089 70.4176C224.213 70.4176 224.381 70.3101 224.462 70.1787C224.543 70.0474 224.442 69.9399 224.237 69.9399C224.032 69.9399 223.865 70.0474 223.865 70.1787ZM343.499 70.8815C341.516 71.5155 339.813 72.676 339.507 73.6027C339.369 74.0224 338.734 75.0102 338.097 75.7975C336.501 77.7693 336.15 78.5373 336.15 80.0485C336.15 82.695 339.085 86.8992 341.886 88.2632C344.437 89.5059 347.393 89.8276 350.193 89.1674C352.207 88.6927 353.429 88.0353 354.921 86.6237C356.736 84.9074 357.287 83.529 357.29 80.6896C357.292 78.6278 357.223 78.2721 356.526 76.802C354.257 72.0112 348.355 69.3293 343.499 70.8815ZM256.594 72.7467C256.593 72.9765 256.068 74.1012 255.426 75.2459C253.921 77.9284 253.727 78.521 253.73 80.4266C253.732 81.5764 253.884 82.3298 254.293 83.2079C255.452 85.6961 257.622 86.1276 260.169 84.3761C260.838 83.916 261.636 83.4442 261.943 83.3274C262.335 83.1786 262.579 82.8071 262.764 82.0816C262.908 81.5131 263.512 80.2417 264.107 79.2563C264.701 78.2709 265.189 77.3283 265.191 77.1613C265.197 76.696 264.162 75.1802 263.133 74.1485C261.768 72.779 260.634 72.3402 258.446 72.3339C256.84 72.3294 256.594 72.3841 256.594 72.7467ZM247.755 76.0202C247.755 76.6709 248.317 77.603 248.668 77.5337C249.353 77.3985 249.564 76.6981 249.082 76.1649C248.569 75.5981 247.755 75.5092 247.755 76.0202ZM345.458 76.6738C345.948 77.1998 346.084 77.5841 345.781 77.5841C345.543 77.5841 344.511 76.5801 344.511 76.3482C344.511 75.9882 344.964 76.1437 345.458 76.6738ZM333.764 80.5105C333.769 81.2211 334.119 81.7472 334.45 81.5422C334.801 81.3255 334.789 80.6196 334.429 80.2596C333.995 79.8253 333.76 79.914 333.764 80.5105ZM345.505 80.6908C346.209 81.3948 346.301 81.8848 345.763 82.0639C345.535 82.1401 344.272 80.4746 344.272 80.0972C344.272 79.7635 344.861 80.0468 345.505 80.6908ZM376.704 83.1341C375.961 83.3861 375.811 84.034 376.495 84.034C376.982 84.034 377.576 83.4628 377.443 83.1224C377.396 83.0018 377.079 83.0068 376.704 83.1341ZM344.333 84.8844C344.395 85.205 344.359 85.4673 344.253 85.4673C343.944 85.4673 343.317 84.4468 343.317 83.9439C343.317 83.5058 343.34 83.5032 343.769 83.8919C344.018 84.1171 344.272 84.5638 344.333 84.8844ZM123.67 90.6229C123.59 90.8307 123.525 91.4069 123.525 91.9033C123.525 92.5984 123.341 93.0003 122.727 93.6515C121.283 95.1827 120.561 97.4029 120.3 101.114L120.15 103.264L122.678 105.772L125.206 108.281H128.367C131.344 108.281 131.614 108.241 133.014 107.594C136.541 105.965 138.576 102.357 138.576 97.7332V95.7663L136.246 93.3937C134.113 91.2208 133.81 90.9984 132.651 90.7524C130.936 90.3885 129.027 90.428 128.303 90.8422C127.459 91.3245 126.289 91.2796 125.197 90.7227C124.067 90.1461 123.858 90.1324 123.67 90.6229ZM334.348 91.6943C334.261 91.8343 334.248 92.0063 334.318 92.0765C334.489 92.2475 334.955 91.9461 334.955 91.6642C334.955 91.3589 334.543 91.3792 334.348 91.6943ZM356.871 92.0454C356.309 92.6078 355.826 93.7549 356.055 93.984C356.229 94.1579 358.466 93.5767 359.025 93.2124C359.647 92.8063 359.746 91.7999 359.184 91.5844C358.373 91.2729 357.462 91.4544 356.871 92.0454ZM441.745 92.0378C441.468 92.7659 441.442 93.2066 441.664 93.4281C441.956 93.7207 442.462 93.0569 442.462 92.3799C442.462 91.4681 442.038 91.266 441.745 92.0378ZM364.036 92.3006C363.776 92.5607 364.091 92.8727 364.613 92.8727C364.894 92.8727 365.055 92.7473 364.997 92.5741C364.884 92.233 364.277 92.0602 364.036 92.3006ZM368.554 92.7857C368.207 93.1321 367.924 93.5022 367.924 93.6077C367.924 94.3323 369.712 93.8762 369.962 93.0879C370.296 92.0354 369.479 91.8601 368.554 92.7857ZM298.761 92.9097C297.614 93.5373 297.274 94.7838 298.251 94.7838C299.058 94.7838 300.075 93.908 300.075 93.2136C300.075 92.5746 299.582 92.4606 298.761 92.9097ZM196.629 95.9782C196.629 96.5591 197.464 96.6387 197.679 96.078C197.893 95.5207 197.877 95.5004 197.227 95.5004C196.789 95.5004 196.629 95.6277 196.629 95.9782ZM349.89 98.8391C349.496 99.4764 349.481 101.518 349.862 102.517C350.31 103.69 350.77 104.187 351.751 104.56C352.38 104.799 352.441 104.764 352.766 103.987C353.502 102.227 353.069 99.822 351.865 98.9788C351.271 98.5624 350.112 98.4805 349.89 98.8391ZM308.049 99.4269C306.513 100.096 306.055 101.741 307.112 102.797C308.408 104.093 311.036 103.001 311.057 101.158C311.068 100.19 310.704 99.6491 309.84 99.3476C308.922 99.0278 308.971 99.0256 308.049 99.4269ZM263.137 102.233C263.221 102.652 263.472 103.196 263.696 103.444C264.083 103.87 264.118 103.872 264.41 103.473C264.579 103.242 264.717 102.913 264.717 102.741C264.717 102.301 263.839 101.472 263.373 101.472C263.064 101.472 263.016 101.628 263.137 102.233ZM346.704 102.23C346.817 102.995 347.378 103.077 347.378 102.328C347.378 101.927 347.247 101.711 347.003 101.711C346.754 101.711 346.654 101.886 346.704 102.23ZM334.238 105.106C333.13 105.352 331.488 106.415 330.383 107.604C329.432 108.626 326.466 113.168 325.544 115.012C322.975 120.153 323.615 123.81 327.43 125.785C329.018 126.608 332.187 126.795 334.477 126.201C336.597 125.651 340.432 124.204 341.193 123.667C341.966 123.12 343.282 120.635 344.217 117.955C345.459 114.397 345.487 111.82 344.304 110.104C343.677 109.195 340.262 106.028 339.054 105.236C338.336 104.765 336.056 104.703 334.238 105.106ZM154.919 107.534C154.833 107.759 154.831 108.012 154.915 108.096C154.999 108.18 155.195 108.122 155.351 107.966C155.566 107.751 155.567 107.617 155.355 107.405C155.142 107.192 155.038 107.223 154.919 107.534ZM212.079 108.082C211.774 108.386 211.922 109.563 212.313 109.954C212.55 110.191 212.908 110.294 213.209 110.213C213.485 110.139 213.785 110.077 213.876 110.076C213.966 110.074 213.876 109.589 213.674 108.997C213.386 108.152 213.193 107.922 212.773 107.922C212.479 107.922 212.166 107.994 212.079 108.082ZM379.391 108.795C378.84 109.016 377.958 109.883 377.958 110.204C377.958 110.581 380.124 111.506 381.007 111.506C381.745 111.506 382.736 110.663 382.736 110.034C382.736 109.141 380.549 108.331 379.391 108.795ZM289.251 110.873C289.183 111.051 288.383 111.686 287.472 112.286C285.278 113.732 284.678 114.5 283.955 116.787C283.205 119.16 283.085 120.266 283.591 120.125C283.788 120.07 284.896 120.011 286.054 119.994C287.948 119.966 288.238 119.9 288.954 119.329C289.703 118.731 289.749 118.607 289.757 117.164C289.762 116.322 289.873 115.215 290.004 114.704C290.521 112.684 290.577 111.359 290.161 110.943C289.684 110.466 289.416 110.445 289.251 110.873ZM125.2 111.144C124.834 111.585 125.017 112.109 125.656 112.451C126.354 112.824 127.238 111.956 126.866 111.261C126.568 110.703 125.621 110.637 125.2 111.144ZM147.268 111.395C146.499 111.786 145.982 112.607 145.982 113.436C145.982 113.697 146.244 114.429 146.566 115.062L147.149 116.214L145.914 116.786C144.169 117.595 141.855 119.935 140.988 121.767C139.918 124.03 139.623 126.12 139.961 129.039C140.115 130.366 140.303 131.672 140.379 131.941C140.51 132.405 140.412 132.431 138.382 132.459C136.555 132.485 135.804 132.636 133.195 133.503L130.144 134.518L129.283 135.968C128.809 136.766 128.019 137.819 127.526 138.308C127.004 138.826 126.63 139.428 126.63 139.751C126.63 140.056 126.311 141.054 125.92 141.97C125.53 142.886 125.207 143.958 125.203 144.352C125.186 146.056 125.971 150.135 126.517 151.179C126.832 151.78 127.161 152.721 127.249 153.269C127.362 153.98 127.523 154.266 127.81 154.266C128.031 154.266 128.823 154.642 129.571 155.102C130.319 155.562 131.528 156.306 132.258 156.755C134.16 157.925 136.212 158.253 139.234 157.87C140.514 157.708 142.207 157.541 142.995 157.5C144.392 157.427 144.441 157.401 144.907 156.498C145.169 155.988 146.137 154.818 147.057 153.897C149.322 151.63 150.521 149.55 150.521 147.887C150.521 146.321 150.832 146.087 153.592 145.575C155.451 145.23 156.255 144.899 156.255 144.477C156.255 144.381 155.455 144.235 154.479 144.153C152.05 143.947 150.898 143.453 150.399 142.402C149.946 141.447 150.087 140.46 150.707 140.252C152.903 139.517 157.418 137.569 158.728 136.792C160.454 135.768 162.227 134.134 162.227 133.566C162.227 133.381 162.561 132.13 162.968 130.788C163.76 128.182 163.99 125.405 163.489 124.525C163.276 124.152 163.292 123.963 163.564 123.664C163.956 123.23 163.779 122.494 163.282 122.494C162.542 122.494 162.153 121.359 162.299 119.622C162.43 118.058 162.401 117.925 161.795 117.279C161.441 116.902 160.804 116.157 160.379 115.622C159.331 114.305 158.729 114.221 155.757 114.974C152.984 115.677 151.99 115.624 151.091 114.726C150.644 114.279 150.521 113.9 150.521 112.979C150.521 112.306 150.388 111.693 150.21 111.545C149.64 111.072 148.062 110.991 147.268 111.395ZM178.374 112.666C178.167 113.002 178.486 113.691 178.801 113.586C179.154 113.468 179.149 112.647 178.793 112.528C178.641 112.477 178.453 112.539 178.374 112.666ZM228.288 113.405C228.111 113.962 228.708 115.21 229.251 115.418C229.906 115.67 230.554 115.583 230.554 115.244C230.554 113.608 228.701 112.104 228.288 113.405ZM121.254 114.88C121.42 116.427 121.411 116.464 120.729 116.949C119.611 117.745 118.696 119.686 118.563 121.543C118.345 124.592 119.724 126.927 122.104 127.537C123.012 127.77 123.323 127.98 123.542 128.509C123.896 129.363 124.099 129.356 124.757 128.466C125.048 128.072 125.465 127.75 125.681 127.75C125.899 127.75 126.725 127.426 127.518 127.029C129.803 125.888 130.931 123.79 130.931 120.684C130.931 119.217 130.907 119.163 129.7 117.842C128.071 116.059 127.069 115.567 125.077 115.567C123.531 115.567 123.484 115.547 122.295 114.436L121.086 113.304L121.254 114.88ZM276.901 115.319C276.901 115.578 277.235 116.169 277.643 116.633C278.253 117.329 278.549 117.478 279.315 117.478C279.827 117.478 280.246 117.419 280.246 117.346C280.246 116.959 279.456 115.783 278.905 115.349C278.066 114.689 276.901 114.672 276.901 115.319ZM329.938 118.089C329.938 118.278 329.831 118.433 329.699 118.433C329.568 118.433 329.46 118.212 329.46 117.941C329.46 117.671 329.568 117.516 329.699 117.597C329.831 117.678 329.938 117.9 329.938 118.089ZM334.955 118.322C334.955 118.383 334.74 118.433 334.477 118.433C334.207 118.433 333.999 118.274 333.999 118.067C333.999 117.774 334.096 117.751 334.477 117.955C334.74 118.096 334.955 118.261 334.955 118.322ZM333.032 122.807C333.054 123.165 332.565 122.708 332.235 122.061C332.054 121.708 331.842 121.043 331.763 120.583C331.64 119.873 331.724 119.964 332.319 121.18C332.705 121.969 333.026 122.701 333.032 122.807ZM330.655 122.503C330.655 123.103 330.266 123.107 329.946 122.51C329.543 121.757 329.629 121.484 330.177 121.778C330.44 121.918 330.655 122.245 330.655 122.503ZM369.368 124.207C367.761 124.669 366.018 126.074 364.733 127.947C364.057 128.931 363.209 130.046 362.847 130.424C361.939 131.373 362.015 132.057 363.18 133.403C363.724 134.032 364.467 135.21 364.831 136.02C365.447 137.393 365.595 137.544 367.019 138.244C370.248 139.834 375.659 140.38 377.513 139.302C379.127 138.365 380.634 134.958 380.634 132.246C380.634 129.85 378.975 127.128 376.245 125.046C375.525 124.497 375.001 124.341 373.26 124.158C370.754 123.894 370.445 123.898 369.368 124.207ZM215.106 124.54C214.802 125.331 215.436 126.005 217.08 126.641C217.969 126.984 218.744 127.216 218.804 127.157C219.044 126.916 218.261 125.553 217.496 124.882C216.591 124.088 215.348 123.91 215.106 124.54ZM345.529 127.918C344.718 128.074 343.64 129.289 343.489 130.216C343.212 131.927 344.42 134.957 345.762 135.912C346.497 136.435 347.139 136.355 347.139 135.74C347.139 135.021 347.733 135.546 348.526 136.966C349.436 138.595 350.105 139.203 350.993 139.211C351.539 139.215 351.657 139.076 351.889 138.155C352.268 136.648 352.22 133.591 351.789 131.921C351.186 129.578 350.49 128.39 349.528 128.062C348.715 127.785 346.612 127.709 345.529 127.918ZM244.649 128.844C244.649 129.053 244.777 129.18 244.933 129.128C245.376 128.981 245.449 128.466 245.027 128.466C244.82 128.466 244.649 128.636 244.649 128.844ZM138.36 130.947C138.148 131.203 138.172 131.31 138.47 131.424C139.107 131.669 139.292 131.595 139.292 131.094C139.292 130.545 138.763 130.461 138.36 130.947ZM243.558 132.075C243.369 132.381 243.917 134.2 244.198 134.2C244.731 134.2 245.605 133.593 245.605 133.223C245.605 132.766 244.542 131.811 244.034 131.811C243.862 131.811 243.648 131.93 243.558 132.075ZM367.924 132.527C368.672 133.328 369.225 133.438 369.553 132.852C369.865 132.295 370.338 132.683 370.194 133.378C370.128 133.699 370.018 134.229 369.95 134.558C369.705 135.736 368.011 135.059 367.193 133.456C366.338 131.779 366.743 131.263 367.924 132.527ZM247.098 133.241C246.296 133.73 246.049 134.438 246.68 134.438C247.523 134.438 246.717 135.662 245.441 136.32C244.715 136.693 243.225 136.653 242.429 136.237C241.842 135.931 241.744 135.932 241.626 136.241C241.552 136.434 241.664 136.856 241.876 137.179C242.378 137.946 242.364 138.668 241.842 138.936C241.612 139.054 240.64 139.339 239.682 139.57C238.131 139.943 237.896 139.95 237.532 139.631C236.539 138.76 235.093 138.856 235.093 139.792C235.093 140.092 235.308 140.531 235.571 140.769C236.068 141.219 236.185 141.975 235.841 142.518C235.598 142.901 234.134 143.264 232.802 143.271C231.995 143.276 231.778 143.381 231.553 143.874C231.152 144.755 230.635 144.603 230.125 143.456C229.221 141.419 227.415 140.176 225.352 140.173C224.205 140.171 222.096 140.98 220.776 141.928L219.623 142.757L219.115 142.071C218.836 141.693 217.776 140.769 216.759 140.018C215.743 139.266 214.749 138.47 214.55 138.25C214.112 137.762 210.272 137.212 208.2 137.339L206.807 137.424L206.122 136.409C205.4 135.339 204.752 135.078 204.752 135.858C204.752 136.486 204.263 136.747 203.992 136.264C203.833 135.979 203.434 135.872 202.53 135.872C201.715 135.873 200.952 135.695 200.31 135.355C198.978 134.65 198.541 134.861 198.541 136.209C198.541 137.603 197.876 138.364 196.152 138.941C195.387 139.197 194.807 139.54 194.763 139.762C194.722 139.972 195.287 140.794 196.017 141.589C196.999 142.657 197.346 143.217 197.346 143.735C197.346 144.489 196.41 145.791 195.707 146.014C195.374 146.119 195.222 146.6 195.004 148.231C194.836 149.486 194.488 150.791 194.13 151.514L193.534 152.713L194.365 153.477C194.822 153.897 195.196 154.408 195.196 154.612C195.196 154.82 195.4 154.982 195.66 154.982C196.181 154.982 196.868 155.825 196.868 156.463C196.868 156.694 196.6 157.059 196.271 157.274C195.502 157.778 195.497 158.327 196.263 158.327C196.941 158.327 197.346 158.933 197.346 159.946C197.346 160.824 196.833 161.287 194.665 162.366C193.717 162.838 192.898 163.37 192.846 163.548C192.777 163.78 192.893 163.826 193.254 163.711C194.199 163.411 194.256 163.856 193.351 164.459C192.855 164.791 192.006 165.489 191.465 166.013L190.48 166.965L189.972 166.143C189.486 165.356 188.733 164.757 186.775 163.596C186.063 163.175 185.879 162.921 185.879 162.364C185.879 161.752 185.809 161.68 185.332 161.799C185.031 161.875 184.502 161.829 184.157 161.698C183.724 161.533 183.308 161.542 182.819 161.727C182.244 161.944 181.894 161.913 180.984 161.566C179.655 161.058 178.584 159.594 178.338 157.948C178.252 157.38 178.035 156.722 177.854 156.486C177.568 156.112 177.496 156.103 177.287 156.416C177.155 156.613 177.01 156.881 176.964 157.011C176.916 157.148 175.086 157.303 172.6 157.381C168.817 157.5 168.174 157.58 167.067 158.069C165.891 158.589 165.778 158.599 165.224 158.236C164.383 157.685 163.661 157.733 163.661 158.339C163.661 159.431 162.517 160.827 160.766 161.872C160.057 162.295 159.878 162.562 159.772 163.353C159.6 164.635 159.382 164.855 157.307 165.839C155.352 166.767 155.192 167.08 156.171 168.059C156.519 168.407 156.899 169.115 157.015 169.633C157.231 170.591 156.971 173.2 156.499 174.808C156.144 176.02 156.148 176.032 157.41 177.604C158.782 179.314 159.366 180.656 159.536 182.493L159.662 183.846L160.734 184.116C161.323 184.265 163.379 185.101 165.301 185.974C167.224 186.848 169.442 187.741 170.23 187.959C171.645 188.35 171.672 188.348 172.499 187.808C173.116 187.405 173.947 187.194 175.656 187.008C176.932 186.868 178.093 186.754 178.235 186.754C178.378 186.754 178.911 187.659 179.42 188.766C180.203 190.47 180.859 191.293 181.432 191.293C181.5 191.293 181.493 190.406 181.417 189.322C181.125 185.146 182.818 181.59 186.161 179.357C187.374 178.547 187.674 178.434 187.837 178.724C188.129 179.246 189.38 179.803 189.935 179.658C190.284 179.567 190.418 179.334 190.418 178.817C190.418 178.179 190.356 178.118 189.835 178.249C188.952 178.47 188.877 178.02 189.564 176.617C190.373 174.963 191.342 174.415 192.436 174.992C192.909 175.24 193.899 175.396 195.253 175.435C196.401 175.468 197.438 175.555 197.557 175.628C197.884 175.831 200.614 172.795 201.273 171.495L201.853 170.35L203.721 170.081C204.748 169.933 206.224 169.563 207.001 169.259C208.335 168.736 208.436 168.639 208.819 167.515C209.336 165.994 210.113 164.468 210.561 164.097C210.829 163.874 211.052 163.871 211.519 164.085C212.056 164.329 212.25 164.273 213.154 163.608C213.718 163.193 214.594 162.787 215.1 162.706C216.073 162.551 216.457 162.155 219.553 158.115C220.597 156.753 220.982 156.416 221.497 156.416C222.36 156.416 223.225 155.701 223.017 155.159C222.93 154.931 222.627 154.742 222.346 154.74C220.995 154.73 220.937 153.821 222.191 152.307C222.905 151.446 222.955 151.427 224.164 151.57C225.408 151.718 226.228 152.3 226.246 153.049C226.252 153.326 226.327 153.32 226.672 153.018C227.432 152.351 228.686 151.836 229.222 151.971C229.512 152.043 229.895 152.375 230.073 152.707C230.25 153.039 230.53 153.31 230.695 153.31C230.86 153.31 231.117 153.681 231.267 154.135C231.439 154.656 232.127 155.479 233.137 156.373C234.731 157.782 234.738 157.786 236.049 157.693C238.307 157.532 239.793 158.921 239.179 160.619C238.923 161.327 238.932 161.582 239.239 162.229C239.44 162.652 239.717 163.903 239.856 165.009C239.995 166.115 240.202 167.115 240.318 167.23C240.433 167.345 240.89 167.404 241.334 167.362C242.086 167.29 242.15 167.216 242.276 166.274C242.451 164.963 242.583 164.862 243.163 165.6C243.427 165.935 243.703 166.21 243.777 166.21C243.851 166.21 244.297 165.948 244.768 165.629C245.239 165.309 246.158 164.87 246.81 164.654C247.917 164.286 248.066 164.287 249.066 164.669C250.623 165.263 253.443 165.061 255.052 164.239C256.764 163.365 258.485 161.734 260.289 159.276C261.925 157.048 262.05 156.675 261.492 155.699C261.287 155.341 261.147 154.424 261.142 153.412C261.13 151.041 260.666 149.92 258.624 147.33C257.644 146.086 256.673 144.719 256.468 144.292C256.139 143.609 255.98 143.516 255.145 143.516C254.364 143.516 254.147 143.41 253.923 142.919C253.773 142.59 253.45 142.322 253.206 142.322C252.616 142.322 252.352 141.559 252.154 139.29C251.957 137.022 251.86 136.821 250.499 135.844C249.804 135.345 249.232 134.665 248.887 133.928C248.593 133.3 248.245 132.782 248.113 132.777C247.982 132.772 247.525 132.981 247.098 133.241ZM287.055 133.242C286.853 133.88 287.087 134.2 287.756 134.2C288.42 134.2 288.954 133.63 288.761 133.128C288.548 132.571 287.24 132.659 287.055 133.242ZM370.791 133.989C370.791 134.12 370.683 134.161 370.552 134.08C370.42 133.999 370.313 133.825 370.313 133.694C370.313 133.562 370.42 133.521 370.552 133.602C370.683 133.684 370.791 133.857 370.791 133.989ZM76.9383 134.553C76.9383 134.879 77.0656 135.889 77.2214 136.797C77.5776 138.875 77.2656 139.495 75.6599 139.899C74.2272 140.26 72.7288 141.969 71.2517 144.927C70.3489 146.734 70.1307 147.411 70.1357 148.39C70.1436 149.953 70.7136 152.36 71.7536 155.221C72.5644 157.452 72.6005 157.503 73.8624 158.213C76.0281 159.432 78.049 160.246 79.8255 160.616C81.4961 160.965 81.8927 160.942 84.5833 160.341C85.0811 160.23 85.2539 160.344 85.6208 161.03C86.1636 162.044 87.247 162.87 88.3653 163.122C90.4613 163.595 90.456 162.019 88.3575 160.82C87.6828 160.434 87.0879 159.989 87.0356 159.832C86.8751 159.348 88.7892 157.497 90.0718 156.896C90.9632 156.479 91.3196 156.165 91.4138 155.715C91.4842 155.378 91.8579 153.919 92.2437 152.474C93.1403 149.116 93.1977 146.729 92.4126 145.458C92.1197 144.985 91.7681 144.036 91.6312 143.35C91.4016 142.2 91.2506 141.996 89.7147 140.753C88.7978 140.012 87.2411 139.013 86.2556 138.534C84.5749 137.717 84.3216 137.663 82.1713 137.663C79.5438 137.663 79.2691 137.527 78.5609 135.875C77.801 134.102 76.9383 133.4 76.9383 134.553ZM228.802 134.359C228.714 134.446 228.643 134.629 228.643 134.765C228.643 134.915 228.754 134.9 228.925 134.729C229.081 134.574 229.152 134.391 229.085 134.323C229.017 134.255 228.889 134.271 228.802 134.359ZM187.073 135.596C187.073 136.174 187.771 136.787 188.75 137.068C189.388 137.251 189.593 137.217 189.832 136.891C190.222 136.358 190.029 135.93 189.206 135.505C188.216 134.993 187.073 135.042 187.073 135.596ZM230.474 135.553C230.178 135.85 230.313 136.111 230.764 136.111C231.01 136.111 231.346 135.949 231.509 135.752C231.76 135.45 231.715 135.394 231.22 135.394C230.897 135.394 230.562 135.466 230.474 135.553ZM175.265 137.464C175.181 137.683 175.205 137.956 175.319 138.069C175.643 138.393 176.323 138.02 176.323 137.518C176.323 136.949 175.48 136.906 175.265 137.464ZM219.086 137.444C219.086 137.652 219.214 137.78 219.37 137.728C219.813 137.58 219.887 137.066 219.465 137.066C219.257 137.066 219.086 137.236 219.086 137.444ZM216.706 137.767C216.326 138.477 216.407 138.738 217.008 138.738C217.667 138.738 218.131 138.324 218.131 137.735C218.131 137.136 217.03 137.161 216.706 137.767ZM339.235 138.902C338.065 141.47 337.54 143.516 338.052 143.516C338.179 143.516 338.403 143.74 338.549 144.013C338.793 144.468 338.758 144.504 338.142 144.431C337.499 144.356 337.448 144.425 337.002 145.972L336.534 147.593L337.184 148.242C337.753 148.811 338.019 148.891 339.339 148.891C340.621 148.891 340.976 148.791 341.723 148.222C342.206 147.853 342.762 147.241 342.959 146.86C343.461 145.889 343.405 143.771 342.838 142.255C342.319 140.867 340.5 137.999 340.043 137.846C339.887 137.794 339.523 138.269 339.235 138.902ZM192.926 138.977C193.008 139.109 193.175 139.216 193.299 139.216C193.423 139.216 193.524 139.109 193.524 138.977C193.524 138.846 193.356 138.738 193.151 138.738C192.946 138.738 192.845 138.846 192.926 138.977ZM202.326 139.782C202.27 140.039 202.138 140.093 201.91 139.951C201.709 139.825 201.641 139.574 201.739 139.32C201.938 138.801 202.451 139.205 202.326 139.782ZM257.398 139.336C257.185 139.888 257.484 140.411 258.012 140.411C258.621 140.411 259.071 139.638 258.686 139.253C258.296 138.864 257.561 138.911 257.398 139.336ZM185.401 139.663C185.401 139.8 185.067 139.849 184.624 139.778C184.048 139.686 183.622 139.808 182.971 140.251C182.49 140.579 182.037 140.79 181.967 140.719C181.896 140.648 181.353 140.734 180.761 140.909C179.86 141.175 179.703 141.307 179.805 141.714C179.872 141.983 179.96 142.511 180 142.889C180.1 143.839 180.605 144.052 181.641 143.582C182.486 143.199 182.499 143.173 182.369 142.072L182.236 140.953L183.162 140.785C183.671 140.692 184.314 140.562 184.591 140.496C185.028 140.391 185.118 140.513 185.263 141.408L185.431 142.441L186.147 141.645C187.076 140.612 187.034 139.611 186.058 139.499C185.696 139.457 185.401 139.531 185.401 139.663ZM335.672 140.641C335.672 140.899 335.887 141.225 336.15 141.366C336.697 141.659 336.783 141.387 336.38 140.634C336.06 140.036 335.672 140.04 335.672 140.641ZM179.094 145.254C178.393 146.175 178.304 146.745 178.831 146.947C179.028 147.022 179.189 147.249 179.189 147.45C179.189 148.074 179.555 147.857 180.222 146.839C180.847 145.884 181.079 144.71 180.642 144.71C180.522 144.71 180.264 144.65 180.07 144.575C179.849 144.49 179.483 144.744 179.094 145.254ZM270.933 145.248C269.395 146.034 268.893 146.846 268.923 148.496C268.966 150.863 270.129 152.348 272.088 152.536C274.804 152.797 277.146 150.973 277.136 148.604C277.127 146.544 275.16 144.71 272.959 144.71C272.42 144.71 271.516 144.951 270.933 145.248ZM411.635 145.924C411.321 146.594 410.757 147.4 410.383 147.715L409.702 148.288L408.702 147.778C407.309 147.067 405.63 147.164 403.22 148.093C402.163 148.501 400.83 148.847 400.257 148.862C399.351 148.887 399.154 148.992 398.741 149.672C398.468 150.12 397.402 151.011 396.242 151.759C393.691 153.405 393.373 153.861 393.576 155.587C393.702 156.66 393.665 156.893 393.369 156.893C393.171 156.893 393.009 157.055 393.009 157.252C393.009 157.449 393.116 157.61 393.248 157.61C393.379 157.61 393.487 157.869 393.487 158.185C393.487 158.601 393.157 158.997 392.292 159.618C391.029 160.525 390.86 160.987 391.472 161.861C391.678 162.155 391.812 162.634 391.771 162.927C391.708 163.366 391.49 163.488 390.523 163.625C388.903 163.856 388.571 164.225 389.021 165.3C389.432 166.285 390.361 167.071 391.376 167.294C391.94 167.418 392.443 167.283 393.548 166.713C394.34 166.305 395.113 165.971 395.267 165.971C395.421 165.971 395.683 166.505 395.85 167.157C396.175 168.422 397.191 170.039 398.228 170.942C399.273 171.85 401.569 172.915 403.253 173.272C404.123 173.456 406.08 173.609 407.603 173.611C410.343 173.615 410.375 173.609 410.651 173.004C411.071 172.082 412.752 171.414 413.874 171.724C414.359 171.858 414.848 171.91 414.961 171.84C415.074 171.77 415.215 171.13 415.274 170.417C415.334 169.704 415.57 168.834 415.8 168.483C416.166 167.924 416.326 167.864 417.098 167.995L417.98 168.144L417.894 167.068C417.813 166.053 417.847 165.983 418.489 165.84C419.826 165.541 420.005 165.457 420.005 165.127C420.005 164.944 419.784 164.675 419.514 164.531C418.174 163.813 417.683 161.541 418.613 160.359C419.088 159.755 419.108 159.606 418.847 158.595C418.433 156.992 417.063 154.301 416.073 153.147C415.3 152.245 415.231 152.052 415.372 151.176C415.537 150.139 415.408 149.99 414.834 150.563C414.637 150.76 414.219 150.921 413.905 150.921C413.055 150.921 412.736 149.5 413.024 147.004C413.148 145.94 413.237 145.055 413.222 145.039C413.208 145.022 412.973 144.94 412.701 144.857C412.284 144.729 412.115 144.898 411.635 145.924ZM182.295 145.666C182.295 145.797 182.618 145.905 183.012 145.905C183.406 145.905 183.729 145.797 183.729 145.666C183.729 145.535 183.406 145.427 183.012 145.427C182.618 145.427 182.295 145.535 182.295 145.666ZM304.853 146.987C304.853 148.148 306.15 150.444 306.806 150.444C307.331 150.444 306.705 147.621 306.015 146.88C305.376 146.194 304.853 146.242 304.853 146.987ZM114.557 146.874C114.279 147.325 114.67 148.294 115.131 148.294C115.712 148.294 116.451 147.45 116.275 146.989C116.114 146.569 114.8 146.482 114.557 146.874ZM159.121 147.696C159.121 147.916 159.237 148.056 159.378 148.009C159.519 147.962 159.635 147.821 159.635 147.696C159.635 147.572 159.519 147.431 159.378 147.384C159.237 147.337 159.121 147.477 159.121 147.696ZM97.6434 148.692C97.3078 149.027 97.5042 149.96 97.9619 150.205C98.6865 150.592 99.3953 150.116 99.3953 149.241C99.3953 148.597 99.3225 148.533 98.5991 148.533C98.1609 148.533 97.7309 148.604 97.6434 148.692ZM172.881 149.136C172.116 149.535 171.524 150.218 171.699 150.501C171.835 150.721 174.532 150.742 175.585 150.532C176 150.448 176.449 150.177 176.582 149.927C176.789 149.54 176.702 149.423 175.984 149.123C174.907 148.673 173.76 148.678 172.881 149.136ZM230.554 149.355C230.554 149.675 230.437 150.01 230.294 150.098C229.894 150.345 229.532 149.834 229.71 149.273C229.932 148.572 230.554 148.632 230.554 149.355ZM64.6211 149.827C64.3662 150.013 64.23 150.238 64.3184 150.327C64.5788 150.587 65.4709 150.203 65.4709 149.83C65.4709 149.397 65.21 149.396 64.6211 149.827ZM178.046 150.104C177.706 150.713 178.143 151.543 178.991 151.894C179.476 152.095 180.136 152.121 181.17 151.981C181.986 151.87 183.321 151.774 184.136 151.768C185.564 151.758 185.608 151.74 185.303 151.28C184.608 150.227 183.511 149.856 180.828 149.763C178.578 149.686 178.259 149.725 178.046 150.104ZM189.658 152.008C189.587 152.133 189.459 152.558 189.375 152.952L189.222 153.669L189.596 152.997C189.802 152.628 189.93 152.203 189.879 152.053C189.827 151.896 189.734 151.877 189.658 152.008ZM151.619 152.531C151.541 152.609 151.476 152.878 151.476 153.129C151.476 153.69 152.271 153.611 152.381 153.039C152.456 152.649 151.883 152.267 151.619 152.531ZM431.711 152.832C431.711 153.14 431.832 153.31 432.01 153.251C432.174 153.196 432.309 153.008 432.309 152.832C432.309 152.657 432.174 152.469 432.01 152.414C431.832 152.355 431.711 152.525 431.711 152.832ZM266.42 152.833C265.255 153.108 264.662 153.804 264.632 154.932C264.586 156.712 265.496 157.61 267.348 157.61C268.675 157.61 269.973 156.464 269.973 155.293C269.973 154.09 269.309 153.109 268.307 152.83C267.843 152.702 267.411 152.607 267.345 152.619C267.279 152.632 266.863 152.728 266.42 152.833ZM184.251 156.595C184.347 157.101 185.294 157.28 185.772 156.883C186.357 156.398 186.16 156.177 185.145 156.177C184.347 156.177 184.186 156.252 184.251 156.595ZM192.245 157.857C190.608 159.096 190.158 159.608 191.314 158.916C192.06 158.47 194.196 156.656 193.977 156.655C193.898 156.655 193.119 157.196 192.245 157.857ZM371.855 157.48C371.363 157.972 371.269 158.297 371.269 159.493C371.269 160.754 371.343 160.978 371.904 161.42C372.707 162.052 373.719 162.323 373.846 161.942C373.898 161.787 374.32 161.501 374.784 161.307C375.624 160.956 375.627 160.948 375.522 159.678C375.37 157.846 374.641 156.893 373.391 156.893C372.701 156.893 372.281 157.054 371.855 157.48ZM234.873 158.705C234.884 158.983 234.941 159.04 235.017 158.849C235.086 158.677 235.078 158.471 234.998 158.392C234.919 158.312 234.863 158.453 234.873 158.705ZM224.449 158.825C224.175 159.269 224.748 159.639 225.168 159.291C225.371 159.123 225.537 158.891 225.537 158.775C225.537 158.475 224.64 158.516 224.449 158.825ZM234.416 160.397C234.254 161.002 234.164 161.539 234.216 161.591C234.268 161.642 234.447 161.195 234.615 160.596C234.783 159.997 234.873 159.46 234.815 159.402C234.757 159.345 234.578 159.792 234.416 160.397ZM219.96 161.391C219.441 161.964 219.46 162.315 220.026 162.618C220.905 163.088 221.691 162.923 221.864 162.231C222.142 161.128 220.753 160.515 219.96 161.391ZM99.1691 163.448C98.6652 164.055 99.0472 164.578 99.9312 164.493C100.582 164.431 100.709 164.321 100.709 163.821C100.709 163.356 100.572 163.208 100.091 163.152C99.7496 163.112 99.3377 163.244 99.1691 163.448ZM143.486 163.562C143.409 163.686 143.448 163.851 143.572 163.928C143.697 164.005 143.861 163.966 143.938 163.841C144.015 163.717 143.976 163.552 143.852 163.475C143.727 163.399 143.563 163.437 143.486 163.562ZM232.626 164.583C232.183 165.289 231.794 166.576 231.701 167.643C231.632 168.439 231.664 168.477 232.346 168.428C232.778 168.398 233.28 168.127 233.611 167.746C234.076 167.209 234.148 166.894 234.088 165.647C234.026 164.345 233.959 164.171 233.495 164.105C233.156 164.057 232.852 164.224 232.626 164.583ZM126.073 164.458C125.744 164.787 125.931 165.254 126.392 165.254C126.71 165.254 126.869 165.095 126.869 164.777C126.869 164.316 126.402 164.129 126.073 164.458ZM134.753 166.449C134.753 166.58 134.962 166.688 135.217 166.688C135.472 166.688 135.747 166.58 135.828 166.449C135.912 166.313 135.711 166.21 135.365 166.21C135.028 166.21 134.753 166.317 134.753 166.449ZM131.647 167.643C131.314 167.977 131.17 168.439 131.17 169.178C131.17 170.534 132.006 171.589 133.37 171.957C134.568 172.279 134.97 171.969 135.156 170.582C135.316 169.39 134.774 168.272 133.726 167.634C132.755 167.042 132.247 167.044 131.647 167.643ZM428.172 168.778C428.232 169.302 428.386 169.451 428.933 169.513C429.311 169.556 429.725 169.486 429.853 169.358C430.171 169.04 429.232 168.121 428.59 168.121C428.192 168.121 428.111 168.249 428.172 168.778ZM273.796 168.937C273.796 169.145 273.966 169.315 274.174 169.315C274.596 169.315 274.522 168.801 274.079 168.654C273.923 168.601 273.796 168.729 273.796 168.937ZM240.674 169.435C240.507 169.87 240.726 170.51 241.041 170.51C241.388 170.51 242.021 169.804 242.021 169.418C242.021 168.957 240.852 168.972 240.674 169.435ZM315.245 169.511C314.588 169.757 313.49 170.244 312.805 170.592C312.12 170.941 310.795 171.334 309.86 171.467C307.507 171.801 307.329 171.93 307.139 173.451L306.978 174.734L305.858 174.951C305.075 175.103 304.713 175.298 304.656 175.598C304.537 176.224 305.053 176.721 305.822 176.721C306.192 176.721 306.77 176.826 307.107 176.954C307.692 177.176 307.72 177.271 307.723 179.044C307.728 182.215 308.683 184.731 310.408 186.118C311.196 186.751 311.556 186.858 313.394 187.002C314.544 187.093 315.787 187.289 316.157 187.438C317.898 188.141 319.932 187.246 322.558 184.625C325.131 182.056 325.962 179.796 325.422 176.839C324.878 173.865 322.782 170.89 320.462 169.8C318.915 169.072 316.737 168.952 315.245 169.511ZM466.341 169.927C465.915 170.44 466.309 171.49 467.071 171.869C468.179 172.421 469.133 171.21 468.509 170.045C468.188 169.444 466.803 169.369 466.341 169.927ZM208.097 171.465C208.097 171.728 208.193 171.943 208.31 171.943C208.579 171.943 208.829 171.322 208.638 171.13C208.35 170.843 208.097 171 208.097 171.465ZM355.54 171.499C355.584 171.809 355.728 172.036 355.859 172.003C356.212 171.915 356.15 171.164 355.779 171.041C355.561 170.968 355.486 171.112 355.54 171.499ZM359.297 173.012C358.534 173.434 358.021 174.587 358.228 175.412C358.507 176.522 359.735 176.49 361.002 175.342C361.543 174.853 361.736 174.453 361.777 173.735L361.832 172.779L360.876 172.723C360.351 172.692 359.64 172.822 359.297 173.012ZM221.768 173.271C220.657 174.048 221.391 175.176 222.753 174.786C223.843 174.473 224.12 173.905 223.489 173.274C223.013 172.798 222.444 172.797 221.768 173.271ZM302.99 173.663C302.643 174.009 302.614 174.726 302.937 174.926C303.311 175.157 304.136 174.596 304.136 174.11C304.136 173.866 303.966 173.601 303.758 173.521C303.277 173.337 303.325 173.328 302.99 173.663ZM277.382 174.926C276.955 175.44 277.266 176.004 277.976 176.004C278.313 176.004 278.651 175.842 278.727 175.643C278.886 175.23 278.424 174.571 277.976 174.571C277.811 174.571 277.544 174.731 277.382 174.926ZM343.556 175.052C340.891 175.263 338.976 175.844 337.937 176.756C336.941 177.631 337.046 177.864 338.77 178.606C341.082 179.6 343.143 179.882 348.334 179.915C353.149 179.945 353.249 179.936 354.306 179.345C355.69 178.572 355.79 177.98 354.699 177.022C352.901 175.444 348.475 174.661 343.556 175.052ZM254.444 177.079C254.444 177.276 254.606 177.437 254.803 177.437C255 177.437 255.161 177.276 255.161 177.079C255.161 176.882 255 176.721 254.803 176.721C254.606 176.721 254.444 176.882 254.444 177.079ZM200.815 178.624C200.366 179.35 201.591 181.45 202.841 182.096C203.748 182.565 205.202 182.566 205.382 182.098C205.603 181.52 204.663 179.996 203.656 179.301C202.589 178.564 201.075 178.203 200.815 178.624ZM195.759 179.512C195.565 179.977 195.343 180.893 195.265 181.547C195.129 182.697 195.143 182.733 195.698 182.654C196.433 182.551 197.106 181.241 197.107 179.914C197.107 179.114 197.013 178.902 196.61 178.796C196.213 178.693 196.041 178.837 195.759 179.512ZM146.094 180.077C145.867 180.445 146.178 180.682 146.484 180.375C146.656 180.203 146.66 180.07 146.497 179.969C146.363 179.886 146.182 179.935 146.094 180.077ZM312.498 180.71C312.498 181.154 312.421 181.278 312.251 181.108C312.116 180.973 312.073 180.682 312.157 180.463C312.379 179.887 312.498 179.973 312.498 180.71ZM189.219 181.863C188.757 182.419 189.086 182.524 189.58 181.978C189.819 181.714 189.903 181.499 189.767 181.499C189.632 181.499 189.385 181.662 189.219 181.863ZM208.157 181.657C207.992 181.723 207.858 181.995 207.858 182.261C207.858 182.603 207.968 182.702 208.236 182.599C208.444 182.519 208.659 182.454 208.714 182.454C208.769 182.454 208.814 182.239 208.814 181.976C208.814 181.493 208.699 181.438 208.157 181.657ZM269.968 183.584C269.284 184.194 269.177 184.443 269.177 185.416C269.177 186.69 269.653 187.344 270.827 187.68C272.582 188.184 274.222 186.673 273.906 184.843C273.708 183.691 273.086 183.14 271.826 182.998C270.892 182.892 270.659 182.966 269.968 183.584ZM194.85 184.087C194.571 184.965 194.074 185.184 193.385 184.732C193.044 184.509 192.736 184.362 192.701 184.406C192.666 184.449 192.406 185.177 192.124 186.024C191.461 188.02 191.447 189.694 192.09 190.337C192.736 190.983 192.922 190.945 193.623 190.026C194.328 189.102 194.828 187.046 194.636 185.862C194.546 185.311 194.629 184.837 194.881 184.452C195.09 184.133 195.202 183.814 195.131 183.742C195.059 183.671 194.933 183.826 194.85 184.087ZM203.558 184.03C203.558 184.443 204.608 185.55 205.321 185.888C206.314 186.359 207.847 186.392 208.445 185.955C209.04 185.52 208.779 184.535 207.972 184.167C207.351 183.884 203.558 183.766 203.558 184.03ZM245.366 184.336C245.366 184.649 245.983 185.101 246.164 184.921C246.491 184.593 246.303 184.126 245.844 184.126C245.581 184.126 245.366 184.221 245.366 184.336ZM282.874 184.98C281.553 185.593 280.4 186.514 279.977 187.293C279.811 187.6 279.984 188.341 280.617 190.04C282.316 194.597 283.146 195.534 285.687 195.762C288.3 195.997 290.492 194.881 291.459 192.825C291.905 191.875 291.984 191.362 291.916 189.854C291.806 187.43 290.978 186.006 289.114 185.033C287.342 184.107 284.8 184.085 282.874 184.98ZM200.93 185.532C200.93 185.864 202.11 186.552 202.385 186.382C202.733 186.167 201.924 185.321 201.37 185.321C201.128 185.321 200.93 185.416 200.93 185.532ZM388.512 186.245C388.321 186.366 388.226 186.769 388.273 187.257C388.342 187.982 388.426 188.068 389.067 188.068C389.707 188.068 389.792 187.982 389.861 187.257C389.935 186.486 389.646 186.045 389.067 186.045C388.935 186.045 388.686 186.135 388.512 186.245ZM225.046 186.717L224.502 187.157L225.294 187.433C226.368 187.808 226.958 187.78 227.124 187.348C227.492 186.389 226.007 185.938 225.046 186.717ZM79.3274 187.206C79.3274 187.725 80.0116 188.076 80.3546 187.733C80.7065 187.381 80.3592 186.754 79.8126 186.754C79.4958 186.754 79.3274 186.911 79.3274 187.206ZM156.255 187.132C156.255 187.554 156.769 187.481 156.917 187.038C156.969 186.882 156.841 186.754 156.633 186.754C156.425 186.754 156.255 186.924 156.255 187.132ZM228.117 187.633C227.786 187.72 227.754 187.854 227.944 188.354C228.072 188.691 228.115 189.161 228.04 189.399C227.889 189.874 228.522 190.337 229.324 190.337C229.944 190.337 230.04 189.981 229.737 188.8C229.409 187.524 229.173 187.355 228.117 187.633ZM277.319 187.967C276.681 188.339 276.795 189.107 277.516 189.288C278.3 189.485 278.677 189.108 278.48 188.324C278.316 187.671 277.997 187.573 277.319 187.967ZM189.574 188.928C189.486 189.204 189.534 189.549 189.679 189.694C190.037 190.051 190.775 189.319 190.577 188.803C190.37 188.262 189.761 188.338 189.574 188.928ZM183.371 189.141C183.175 189.757 183.468 190.278 183.755 189.825C184.029 189.392 184.023 188.665 183.745 188.665C183.622 188.665 183.454 188.879 183.371 189.141ZM245.665 189.977C244.53 190.47 244.201 191.344 244.758 192.38C245.181 193.165 246.739 194.159 247.546 194.159C249.037 194.159 249.614 190.955 248.302 189.96C247.751 189.542 246.648 189.549 245.665 189.977ZM231.084 190.471C230.407 190.945 230.41 191.557 231.091 192.174C232.193 193.171 233.421 193.02 233.421 191.887C233.421 190.694 231.997 189.831 231.084 190.471ZM202.5 190.735C202.28 191.309 202.732 191.68 203.189 191.301C203.392 191.133 203.558 190.847 203.558 190.666C203.558 190.2 202.684 190.257 202.5 190.735ZM150.378 190.911C150.29 191.138 150.337 191.443 150.481 191.588C150.672 191.779 150.787 191.737 150.903 191.436C150.991 191.208 150.944 190.904 150.799 190.759C150.608 190.568 150.493 190.609 150.378 190.911ZM235.81 191.412C235.81 191.929 235.906 192.029 236.347 191.966C236.7 191.916 236.885 191.726 236.885 191.412C236.885 191.099 236.7 190.908 236.347 190.858C235.906 190.795 235.81 190.895 235.81 191.412ZM334.286 191.102C333.858 191.529 333.938 192.056 334.418 191.965C334.648 191.921 334.87 191.644 334.912 191.35C334.996 190.762 334.731 190.657 334.286 191.102ZM190.927 192.835C189.733 194.097 189.337 194.913 189.51 195.753C189.575 196.068 189.79 196.176 190.277 196.141C191.288 196.068 191.802 195.451 192.33 193.677C192.898 191.771 192.892 191.854 192.469 191.692C192.264 191.614 191.654 192.066 190.927 192.835ZM173.459 191.936C173.461 192.042 173.567 192.29 173.695 192.487C173.894 192.796 173.927 192.79 173.93 192.442C173.932 192.219 173.826 191.971 173.695 191.89C173.563 191.809 173.457 191.829 173.459 191.936ZM200.691 192.103C200.691 192.477 201.334 192.799 201.668 192.593C202.124 192.311 201.875 191.771 201.288 191.771C200.937 191.771 200.691 191.908 200.691 192.103ZM176.496 192.154C176.236 192.414 176.551 192.726 177.073 192.726C177.354 192.726 177.515 192.601 177.457 192.427C177.344 192.086 176.737 191.914 176.496 192.154ZM159.692 193.821C159.507 194.559 160.035 195.208 160.634 194.978C161.077 194.808 161.407 193.855 161.16 193.456C161.075 193.318 160.744 193.204 160.426 193.204C160.003 193.204 159.806 193.37 159.692 193.821ZM365.296 193.443C365.296 193.574 365.403 193.682 365.535 193.682C365.666 193.682 365.774 193.574 365.774 193.443C365.774 193.311 365.666 193.204 365.535 193.204C365.403 193.204 365.296 193.311 365.296 193.443ZM373.12 193.846C372.527 194.001 372.599 194.332 373.4 195.133C373.935 195.668 374.319 195.832 375.036 195.832C376.063 195.832 376.873 195.201 376.636 194.585C376.355 193.853 374.548 193.473 373.12 193.846ZM175.009 194.637C175.246 194.9 175.495 195.115 175.56 195.115C175.626 195.115 175.485 194.9 175.247 194.637C175.01 194.374 174.761 194.159 174.696 194.159C174.63 194.159 174.771 194.374 175.009 194.637ZM419.647 194.859C417.878 195.287 416.999 196.488 417.229 198.165C417.621 201.021 420.579 202.515 422.502 200.826C424.543 199.034 423.949 195.569 421.483 194.884C420.999 194.75 420.549 194.65 420.483 194.663C420.417 194.676 420.041 194.764 419.647 194.859ZM167.167 195.511C166.986 195.692 167.438 196.309 167.751 196.309C167.867 196.309 167.961 196.094 167.961 195.832C167.961 195.372 167.494 195.184 167.167 195.511ZM164.709 196.411C164.637 196.599 164.614 197.002 164.657 197.307C164.808 198.371 166.766 198.09 166.766 197.005C166.766 196.205 164.986 195.691 164.709 196.411ZM235.229 196.666C234.976 196.862 233.578 197.408 232.124 197.879C228.381 199.093 227.583 199.601 227.089 201.088C226.586 202.602 226.089 202.892 224.616 202.531C223.665 202.298 221.145 200.858 220.75 200.322C220.679 200.227 219.873 199.976 218.958 199.766C218.043 199.555 216.937 199.174 216.501 198.919L215.707 198.455L213.634 199.072C212.494 199.412 210.831 199.912 209.939 200.183C209.046 200.454 207.879 200.992 207.345 201.379C206.651 201.881 206.212 202.041 205.802 201.938C205.305 201.813 205.23 201.879 205.23 202.433C205.23 202.874 204.928 203.351 204.252 203.974L203.275 204.876L203.447 206.711C203.57 208.026 203.539 208.595 203.337 208.72C203.182 208.816 202.71 209.422 202.29 210.067C201.593 211.134 201.4 211.269 200.136 211.569C197.555 212.183 196.924 211.246 198.354 208.922C198.945 207.961 199.125 207.397 199.13 206.479L199.138 205.285L197.939 205.016C196.514 204.695 195.682 204.285 195.651 203.885C195.638 203.726 195.645 203.205 195.667 202.729C195.704 201.907 195.661 201.854 194.805 201.694C193.531 201.455 192.223 200.737 191.664 199.97C191.246 199.396 190.85 199.248 188.507 198.787C186.572 198.407 185.505 198.059 184.662 197.535L183.495 196.81L182.154 197.515C180.735 198.262 179.307 198.428 178.416 197.951C178.013 197.735 177.857 197.759 177.629 198.071C177.473 198.284 177.242 198.459 177.116 198.459C176.99 198.459 176.733 198.809 176.545 199.236C176.25 199.905 176.097 200.004 175.434 199.952C174.754 199.9 174.551 200.045 173.663 201.221C172.475 202.794 171.718 203.237 170.217 203.237C169.252 203.237 169.127 203.292 169.274 203.655C169.94 205.293 169.907 206.254 169.131 207.805C168.706 208.655 167.421 209.926 166.987 209.926C166.598 209.926 166.749 210.278 167.483 211.082C167.897 211.535 168.203 212.137 168.208 212.508C168.223 213.677 168.859 216.713 169.372 218.068C169.65 218.802 170.291 220.087 170.797 220.924C171.713 222.438 171.715 222.446 171.228 222.84L170.739 223.236L171.261 224.827C171.548 225.703 171.783 226.57 171.783 226.756C171.783 227.448 174.004 227.749 175.375 227.242C177.318 226.523 177.445 226.532 178.866 227.475L180.201 228.362L181.829 227.838C182.724 227.55 184.709 227.191 186.241 227.04C188.527 226.813 189.086 226.681 189.366 226.298C189.675 225.875 189.803 225.859 190.782 226.121C192.296 226.526 192.292 226.527 192.594 225.33C192.927 224.008 193.08 223.902 193.981 224.367L194.691 224.735L194.676 223.601C194.655 222.031 194.894 221.557 196.862 219.281L198.585 217.289L198.503 215.578L198.421 213.867L200.008 213.797L201.594 213.727L202.294 215.842C203.076 218.203 204.361 220.313 205.458 221.034C205.981 221.378 206.286 221.859 206.545 222.748L206.906 223.985L207.679 223.764C208.56 223.511 210.572 223.476 211.403 223.698C211.835 223.814 211.938 223.976 211.854 224.412C211.762 224.896 211.841 224.975 212.422 224.975C212.832 224.975 213.418 225.257 213.913 225.692C214.841 226.506 215.171 226.567 215.762 226.032C215.991 225.824 216.937 225.46 217.864 225.221C218.791 224.983 220.465 224.293 221.585 223.687C223.795 222.492 224.103 222.401 224.103 222.945C224.103 223.446 224.157 223.429 226.338 222.24C227.411 221.656 228.724 221.108 229.255 221.023C230.213 220.87 230.234 220.883 231.463 222.383C232.634 223.813 232.704 223.974 232.704 225.253C232.704 226.897 232.862 227.364 233.417 227.364C233.973 227.364 234.369 226.861 234.963 225.397L235.451 224.194L237.96 224.137C239.34 224.105 240.914 224.183 241.458 224.311C242.641 224.586 243.02 224.421 244.888 222.81C245.611 222.187 246.604 221.512 247.096 221.309C247.711 221.055 247.947 220.831 247.854 220.588C247.774 220.379 248.264 219.518 249.052 218.484C250.429 216.678 251.845 214.187 252.389 212.618C252.646 211.876 252.643 211.588 252.376 210.949C252.199 210.524 251.839 209.233 251.576 208.08C251.313 206.927 251.036 205.715 250.96 205.387L250.822 204.79L251.379 205.299C253.889 207.596 257.669 206.653 258.497 203.523C259.083 201.314 257.938 198.649 255.93 197.545L254.908 196.982L252.87 198.006C250.6 199.147 250.643 199.105 250.144 200.606C249.703 201.934 249.004 202.079 248.505 200.946C248.295 200.471 247.893 200.105 247.376 199.918C246.934 199.758 245.951 199.163 245.193 198.597C242.865 196.859 242.481 196.731 239.405 196.676C237.888 196.649 236.431 196.555 236.168 196.468C235.887 196.376 235.5 196.457 235.229 196.666ZM261.657 197.283C261.704 197.424 261.845 197.54 261.97 197.54C262.095 197.54 262.235 197.424 262.282 197.283C262.329 197.142 262.189 197.026 261.97 197.026C261.751 197.026 261.61 197.142 261.657 197.283ZM190.908 197.847C190.537 198.294 190.742 198.937 191.254 198.937C191.787 198.937 191.981 198.247 191.565 197.831C191.255 197.522 191.177 197.524 190.908 197.847ZM198.899 198.459C199.103 198.853 199.323 199.176 199.389 199.176C199.455 199.176 199.342 198.853 199.138 198.459C198.934 198.065 198.714 197.743 198.648 197.743C198.582 197.743 198.695 198.065 198.899 198.459ZM148.988 200.285C148.817 200.731 148.79 200.691 149.509 201.065C149.953 201.296 150.076 201.28 150.192 200.978C150.405 200.422 150.115 199.893 149.598 199.893C149.345 199.893 149.071 200.069 148.988 200.285ZM166.433 200.511C166.167 201.203 166.284 202.228 166.643 202.366C167.158 202.564 167.535 201.732 167.259 201.006C166.97 200.246 166.616 200.034 166.433 200.511ZM333.442 201.485C333.154 201.773 333.275 202.227 333.681 202.383C333.9 202.467 334.172 202.443 334.286 202.329C334.4 202.215 334.424 201.943 334.34 201.724C334.184 201.318 333.73 201.197 333.442 201.485ZM277.857 202.16C277.857 202.694 278.297 203.476 278.597 203.476C279.036 203.476 278.731 201.934 278.275 201.848C278.015 201.798 277.857 201.916 277.857 202.16ZM108.594 203.308C106.605 204.434 105.907 207.226 107.032 209.55C107.796 211.127 108.93 211.837 110.691 211.837C111.455 211.837 112.371 211.686 112.726 211.501C115.685 209.962 116.156 205.059 113.515 203.3C112.372 202.538 109.945 202.542 108.594 203.308ZM282.396 202.843C282.396 203.241 283.048 204.697 283.499 205.304C284.09 206.101 285.673 207.206 285.9 206.98C285.973 206.906 285.904 206.306 285.746 205.647C285.411 204.251 283.988 202.759 282.993 202.759C282.665 202.759 282.396 202.797 282.396 202.843ZM328.505 206.647C328.505 207.476 329.132 208.232 329.697 208.084C330.272 207.934 330.314 207.361 329.805 206.635C329.304 205.919 328.505 205.927 328.505 206.647ZM320.863 207.238C320.869 208.36 321.225 208.624 321.579 207.77C321.842 207.135 321.838 206.981 321.555 206.802C321.005 206.453 320.859 206.545 320.863 207.238ZM166.864 207.657C166.646 208.527 167.108 208.969 167.66 208.418C167.972 208.106 168.011 207.909 167.82 207.606C167.413 206.96 167.034 206.98 166.864 207.657ZM313.347 207.277C313.13 207.627 313.638 208.492 314.059 208.492C314.551 208.492 314.495 207.927 313.955 207.439C313.665 207.176 313.446 207.118 313.347 207.277ZM130.632 207.556C130.1 207.866 130.102 208.301 130.637 208.962C130.966 209.367 131.206 209.448 131.712 209.321C132.466 209.132 132.607 208.292 131.989 207.673C131.557 207.242 131.222 207.212 130.632 207.556ZM335.239 209.624C335.359 210.247 336.15 210.316 336.15 209.704C336.15 209.362 335.996 209.209 335.654 209.209C335.312 209.209 335.184 209.338 335.239 209.624ZM133.456 211.734C132.895 212.295 133.002 212.918 133.714 213.243C134.484 213.594 134.725 213.391 134.913 212.234C135.045 211.417 135.014 211.359 134.443 211.359C134.107 211.359 133.663 211.528 133.456 211.734ZM148.204 213.188C148.01 213.694 148.984 214.514 149.663 214.416C150.306 214.324 150.455 213.51 149.904 213.107C149.306 212.67 148.386 212.714 148.204 213.188ZM99.3893 215.799C97.733 217.739 97.1597 218.679 96.9016 219.876C96.6998 220.814 97.0201 221.043 97.9 220.588C99.4637 219.78 100.566 218.093 101.394 215.241C101.734 214.073 101.73 213.987 101.348 213.987C101.121 213.987 100.24 214.802 99.3893 215.799ZM61.8873 214.942C61.8873 215.074 61.9948 215.181 62.1262 215.181C62.2576 215.181 62.3651 215.074 62.3651 214.942C62.3651 214.811 62.2576 214.703 62.1262 214.703C61.9948 214.703 61.8873 214.811 61.8873 214.942ZM270.106 215.127C269.758 215.476 270.01 216.804 270.511 217.26C272.244 218.838 273.446 218.478 272.506 216.662C271.955 215.597 270.541 214.693 270.106 215.127ZM157.696 215.882C157.56 216.136 157.449 216.679 157.449 217.088C157.449 217.698 157.586 217.89 158.211 218.152C159.215 218.574 159.838 218.212 159.838 217.207C159.838 215.719 158.295 214.764 157.696 215.882ZM161.033 216.945C161.033 217.142 161.14 217.369 161.272 217.45C161.403 217.532 161.51 217.437 161.51 217.24C161.51 217.043 161.403 216.815 161.272 216.734C161.14 216.653 161.033 216.747 161.033 216.945ZM154.386 218.685C154.502 219.284 155.06 219.366 155.06 218.784C155.06 218.491 154.906 218.287 154.684 218.287C154.462 218.287 154.34 218.449 154.386 218.685ZM266.668 220.34C266.287 220.607 266.145 220.912 266.197 221.356C266.351 222.689 269.256 222.629 269.256 221.291C269.256 220.161 267.726 219.599 266.668 220.34ZM160.475 223.94C159.854 224.561 160.805 225.692 161.947 225.692C162.546 225.692 162.705 225.592 162.705 225.214C162.705 224.268 161.078 223.338 160.475 223.94ZM165.705 225.745C165.203 226.461 165.237 227.057 165.795 227.356C166.51 227.738 167.202 227.65 167.475 227.141C167.826 226.485 167.786 226.234 167.244 225.692C166.624 225.072 166.166 225.088 165.705 225.745ZM124.958 225.692C124.958 225.823 125.18 225.931 125.45 225.931C125.72 225.931 125.875 225.823 125.794 225.692C125.713 225.561 125.492 225.453 125.302 225.453C125.113 225.453 124.958 225.561 124.958 225.692ZM206.273 225.81C206.19 226.025 206.237 226.316 206.377 226.456C206.741 226.82 207.43 226.488 207.335 225.994C207.229 225.444 206.464 225.311 206.273 225.81ZM229.41 225.65C228.997 225.92 229.405 227.005 230.049 227.35C230.758 227.729 231.987 227.671 231.987 227.258C231.987 226.326 230.139 225.173 229.41 225.65ZM189.641 226.98C189.405 227.159 189.223 227.612 189.223 228.022C189.223 228.596 189.348 228.777 189.826 228.897C190.523 229.072 191.374 228.693 191.374 228.207C191.374 226.912 190.524 226.31 189.641 226.98ZM193.785 229.011C193.076 229.556 193.255 230.231 194.109 230.231C194.546 230.231 194.749 230.072 194.856 229.647C195.001 229.069 194.843 228.554 194.525 228.564C194.434 228.567 194.101 228.768 193.785 229.011ZM326.637 228.968C326.738 229.49 328.179 230.471 328.839 230.466C329.115 230.464 329.502 230.355 329.699 230.224C329.999 230.023 329.931 229.869 329.277 229.272C328.68 228.726 328.27 228.559 327.528 228.559C326.741 228.559 326.573 228.636 326.637 228.968ZM179.709 229.196C179.826 229.795 180.384 229.877 180.384 229.295C180.384 229.002 180.23 228.797 180.008 228.797C179.785 228.797 179.664 228.96 179.709 229.196ZM215.951 229.157C215.352 229.483 214.929 230.293 215.21 230.575C215.541 230.906 216.534 230.655 217.088 230.101C217.579 229.61 217.64 229.428 217.406 229.146C217.05 228.717 216.757 228.719 215.951 229.157ZM308.478 229.194C308.525 229.436 308.722 229.634 308.918 229.634C309.43 229.634 309.356 228.939 308.833 228.839C308.514 228.777 308.417 228.875 308.478 229.194ZM151.402 229.312C150.819 229.638 150.9 230.387 151.536 230.558C152.379 230.784 152.432 230.751 152.432 230.017C152.432 229.251 152.018 228.967 151.402 229.312ZM190.939 229.411C190.452 229.963 190.696 230.579 191.435 230.665C191.986 230.728 192.09 230.65 192.09 230.175C192.09 229.654 191.697 229.024 191.385 229.045C191.313 229.05 191.112 229.215 190.939 229.411ZM227.423 229.394C227.08 229.58 226.621 230.006 226.402 230.34C226.15 230.724 225.783 230.947 225.404 230.947C223.604 230.947 222.192 232.304 222.192 234.032C222.192 235.289 222.619 236.041 223.628 236.563C224.812 237.175 225.635 237.016 226.883 235.936C227.939 235.022 228.095 234.962 229.107 235.081C229.761 235.158 230.416 235.092 230.747 234.914C232.16 234.156 232.647 232.043 231.745 230.583C230.891 229.203 228.822 228.633 227.423 229.394ZM137.68 229.672C137.17 229.878 137.316 231.133 137.87 231.309C138.534 231.52 139.053 231.034 139.053 230.202C139.053 229.642 138.953 229.518 138.516 229.533C138.22 229.543 137.844 229.606 137.68 229.672ZM326.273 232.01C326.192 232.222 326.327 232.416 326.623 232.51C327.208 232.695 327.418 232.529 327.228 232.033C327.049 231.567 326.448 231.553 326.273 232.01ZM233.589 232.523C232.104 233.328 232.064 235.748 233.516 236.961C234.31 237.625 236.164 237.543 236.896 236.811C237.652 236.055 237.69 234.566 236.983 233.421C236.166 232.099 234.96 231.78 233.589 232.523ZM197.346 233.814C197.346 233.945 197.507 234.053 197.704 234.053C197.902 234.053 198.063 233.945 198.063 233.814C198.063 233.683 197.902 233.575 197.704 233.575C197.507 233.575 197.346 233.683 197.346 233.814ZM383.93 235.128C383.93 235.325 384.092 235.486 384.289 235.486C384.486 235.486 384.647 235.325 384.647 235.128C384.647 234.931 384.486 234.77 384.289 234.77C384.092 234.77 383.93 234.931 383.93 235.128ZM176.998 238.997C176.806 239.801 177.051 240.264 177.669 240.264C178.196 240.264 178.256 240.175 178.189 239.488C178.133 238.908 177.986 238.693 177.608 238.639C177.279 238.592 177.065 238.717 176.998 238.997ZM215.981 239.891C215.981 240.096 216.088 240.264 216.22 240.264C216.351 240.264 216.458 240.163 216.458 240.039C216.458 239.915 216.351 239.748 216.22 239.667C216.088 239.585 215.981 239.687 215.981 239.891ZM201.567 240.423C201.479 240.511 201.408 240.941 201.408 241.379C201.408 242.008 201.505 242.175 201.872 242.175C202.461 242.175 203.064 241.331 202.906 240.726C202.788 240.276 201.912 240.078 201.567 240.423ZM219.543 242.383C218.849 242.945 218.792 244.32 219.434 245.03C220.064 245.726 221.559 245.702 222.059 244.988C222.573 244.255 222.538 242.823 221.994 242.331C221.412 241.805 220.226 241.83 219.543 242.383ZM178.271 242.892C178.271 243.22 178.326 243.355 178.392 243.19C178.458 243.026 178.458 242.757 178.392 242.593C178.326 242.429 178.271 242.563 178.271 242.892ZM313.129 244.013C312.859 244.282 312.965 244.564 313.334 244.564C313.531 244.564 313.693 244.463 313.693 244.339C313.693 244.038 313.319 243.822 313.129 244.013ZM177.918 244.481C177.832 244.567 176.965 244.614 175.992 244.586L174.221 244.534L173.914 246.251C173.634 247.821 173.544 247.996 172.874 248.278C172.471 248.448 171.575 249.187 170.883 249.92C169.847 251.017 169.485 251.253 168.831 251.253C168.121 251.253 168.009 251.347 167.77 252.148C167.623 252.641 167.46 253.884 167.408 254.911C167.28 257.45 166.819 258.095 165.215 257.977C164.443 257.92 164.011 257.997 163.873 258.216C163.523 258.767 163.627 258.909 164.736 259.399C165.892 259.91 166.011 260.105 165.452 260.569C165.204 260.775 165.094 261.322 165.094 262.344C165.094 263.274 164.964 263.994 164.743 264.286C164.135 265.09 164.304 265.488 165.393 265.813C167.847 266.547 169.395 267.885 169.889 269.702C170.041 270.263 170.203 270.853 170.248 271.013C170.293 271.173 171.048 271.63 171.926 272.028L173.522 272.752L173.379 273.958C173.194 275.52 173.669 275.788 174.688 274.698C175.509 273.82 175.285 273.853 177.398 274.301C183.526 275.599 190.162 273.01 193.254 268.115C195.248 264.957 195.845 261.55 195.071 257.737L194.639 255.61L195.156 254.952C195.765 254.177 195.84 253.04 195.296 252.831C195.088 252.751 194.499 252.686 193.987 252.686C193.132 252.686 193.013 252.602 192.539 251.674C192.255 251.118 191.259 249.935 190.325 249.046C188.853 247.645 188.509 247.43 187.739 247.43C187.093 247.43 186.628 247.235 186.035 246.714C185.497 246.242 184.961 245.997 184.465 245.997C183.858 245.997 183.617 245.835 183.219 245.161C182.615 244.136 182.245 244.103 181.89 245.042C181.742 245.436 181.444 245.758 181.229 245.758C180.717 245.758 179.595 245.172 179.203 244.699C178.885 244.317 178.199 244.2 177.918 244.481ZM83.7471 246.752C82.8992 247.219 81.6865 248.482 81.2233 249.381C80.6545 250.484 80.2015 252.461 80.4588 252.718C80.7694 253.029 82.1149 252.075 82.9061 250.982C83.3058 250.431 83.8467 249.287 84.1081 248.441C84.7639 246.318 84.7397 246.206 83.7471 246.752ZM201.49 246.843C201.412 247.046 201.408 247.272 201.482 247.345C201.691 247.554 202.124 247.2 202.124 246.819C202.124 246.361 201.668 246.378 201.49 246.843ZM203.558 247.311C203.558 247.53 203.673 247.67 203.814 247.623C203.956 247.576 204.071 247.436 204.071 247.311C204.071 247.186 203.956 247.046 203.814 246.998C203.673 246.951 203.558 247.092 203.558 247.311ZM206.498 248.54C206.299 249.056 207.138 249.729 207.422 249.282C207.526 249.117 207.613 248.795 207.615 248.565C207.62 248.025 206.703 248.004 206.498 248.54ZM213.874 248.804C213.934 249.325 214.073 249.461 214.547 249.461C215.021 249.461 215.16 249.325 215.22 248.804C215.288 248.211 215.223 248.147 214.547 248.147C213.872 248.147 213.806 248.211 213.874 248.804ZM203.08 249.461C203.08 249.658 203.241 249.819 203.438 249.819C203.635 249.819 203.797 249.658 203.797 249.461C203.797 249.264 203.635 249.103 203.438 249.103C203.241 249.103 203.08 249.264 203.08 249.461ZM166.109 249.977C165.603 250.182 165.755 251.203 166.318 251.382C166.859 251.553 167.234 251.195 167.241 250.502C167.243 250.198 166.682 249.728 166.448 249.838C166.426 249.848 166.274 249.911 166.109 249.977ZM207.684 250.586C206.995 250.919 206.816 251.519 207.172 252.3C207.692 253.441 209.769 252.91 209.769 251.636C209.769 250.457 208.879 250.009 207.684 250.586ZM217.812 251.173C217.572 251.413 217.621 252.447 217.872 252.447C217.993 252.447 218.248 252.507 218.439 252.58C218.898 252.756 219.15 252.058 218.838 251.474C218.592 251.014 218.112 250.873 217.812 251.173ZM285.263 254.827C284.708 255.19 285.281 255.911 286.125 255.911C286.703 255.911 286.816 255.813 286.816 255.314C286.816 254.852 286.68 254.702 286.219 254.654C285.89 254.62 285.46 254.698 285.263 254.827ZM238.725 255.559C237.708 256.506 237.765 258.027 238.832 258.433C240.012 258.881 240.587 258.718 240.958 257.829C241.454 256.643 241.39 256.132 240.675 255.57C239.883 254.947 239.384 254.944 238.725 255.559ZM195.875 257.093C195.668 257.548 195.662 257.786 195.855 257.979C196.307 258.431 196.908 258.012 196.825 257.304C196.722 256.44 196.223 256.329 195.875 257.093ZM222.897 257.008C222.301 258.122 223.27 259.293 224.138 258.507C224.7 257.998 224.703 257.409 224.144 256.903C223.562 256.376 223.22 256.405 222.897 257.008ZM405.81 257.193C405.707 257.359 405.687 257.56 405.766 257.639C405.98 257.852 406.213 257.538 406.098 257.192C406.017 256.949 405.961 256.949 405.81 257.193ZM229.684 258.063C229.445 258.685 230.247 259.613 231.023 259.613C231.406 259.613 231.785 259.508 231.865 259.38C232.026 259.119 231.582 258.157 231.175 257.885C230.72 257.581 229.828 257.687 229.684 258.063ZM267.106 257.872C266.811 257.939 266.746 258.507 266.736 261.113C266.723 264.511 266.457 265.883 265.642 266.757C265.196 267.237 264.961 267.296 263.906 267.193C262.741 267.079 262.638 267.118 261.605 268.061C261.01 268.605 259.868 269.549 259.067 270.16C257.422 271.415 256.433 272.601 256.013 273.822C255.801 274.44 255.437 274.808 254.596 275.256C253.198 275.998 252.633 276.014 252.264 275.32C251.885 274.609 251.27 274.167 251.012 274.421C250.898 274.532 250.438 274.564 249.99 274.492C249.291 274.378 249.014 274.496 248.031 275.325C246.083 276.968 245.346 276.839 242.874 274.426C240.672 272.277 240.177 272.212 240.733 274.142C240.91 274.757 241.155 276.067 241.278 277.052C241.496 278.797 241.486 278.858 240.897 279.394C240.202 280.026 239.74 279.981 237.475 279.061C235.556 278.281 234.499 278.315 233.101 279.202C232.409 279.64 231.652 279.919 231.149 279.919C230.377 279.919 230.335 279.959 230.46 280.584C230.533 280.951 230.424 281.902 230.218 282.699C229.882 283.996 229.88 284.275 230.199 285.351C230.763 287.248 232.631 288.682 235.566 289.473L236.526 289.731V291.836C236.526 294.225 236.828 295.358 237.522 295.578C237.785 295.661 239.058 296.581 240.352 297.621C243.446 300.11 244.714 300.696 247.012 300.699C248.384 300.701 248.842 300.79 249.069 301.101C249.338 301.468 249.397 301.458 249.806 300.981C250.128 300.606 250.52 300.463 251.229 300.463C252.743 300.463 254.442 299.847 255.815 298.8L257.066 297.847L257.92 298.351C259.036 299.009 259.462 298.673 258.842 297.623C258.213 296.558 258.573 295.771 260.103 294.865C261.725 293.906 261.706 293.934 261.271 293.091C260.831 292.241 260.787 291.047 261.157 289.987C261.452 289.14 261.65 289.064 262.11 289.618C262.719 290.352 263.619 290.506 266.973 290.452L270.304 290.397L271.29 289.338C271.832 288.756 272.435 288.279 272.629 288.279C272.823 288.279 273.389 288.697 273.888 289.207C275.25 290.602 276.423 289.994 275.27 288.491C274.389 287.344 274.433 287.123 275.777 285.894C276.472 285.259 277.359 284.165 277.747 283.463C278.37 282.339 278.452 281.966 278.433 280.316L278.411 278.444L279.687 277.501C280.389 276.983 280.963 276.469 280.963 276.359C280.963 276.249 280.541 276.103 280.026 276.034C278.231 275.793 277.249 274.613 277.277 272.733C277.292 271.733 277.218 271.558 276.679 271.309C276.342 271.152 275.904 270.946 275.707 270.851C275.143 270.577 274.28 269.168 274.003 268.068C273.697 266.852 273.065 266.587 272.106 267.27C271.226 267.896 270.116 267.869 269.498 267.206C268.742 266.394 268.124 264.038 267.813 260.777C267.658 259.152 267.516 257.815 267.498 257.806C267.48 257.797 267.303 257.827 267.106 257.872ZM340.012 260.987C339.252 261.634 339.235 262.699 339.972 263.436C340.994 264.458 342.361 263.697 342.361 262.105C342.361 260.759 341.026 260.123 340.012 260.987ZM378.542 262.262C378.329 262.608 378.893 263.197 379.438 263.197C379.742 263.197 379.877 263.061 379.827 262.806C379.734 262.333 378.754 261.919 378.542 262.262ZM101.354 263.961C101.008 264.307 100.97 265.586 101.307 265.586C101.662 265.586 102.501 264.68 102.501 264.297C102.501 264.114 102.331 263.899 102.123 263.819C101.642 263.635 101.689 263.626 101.354 263.961ZM75.309 264.69C75.351 264.985 75.4929 265.227 75.6243 265.227C75.7557 265.227 75.8976 264.985 75.9397 264.69C75.992 264.32 75.8938 264.152 75.6243 264.152C75.3549 264.152 75.2567 264.32 75.309 264.69ZM162.81 265.463C162.389 265.785 162.423 265.793 163.183 265.547C164.22 265.211 164.352 265.108 163.746 265.108C163.486 265.108 163.065 265.268 162.81 265.463ZM136.28 266.165C136.208 266.353 136.184 266.756 136.227 267.061C136.339 267.85 137.467 267.853 137.579 267.065C137.715 266.105 136.599 265.332 136.28 266.165ZM159.36 266.243C158.756 266.544 158.503 266.843 158.449 267.317C158.381 267.905 158.448 267.974 159.092 267.974C160.093 267.974 161.148 267.04 160.928 266.348C160.727 265.715 160.453 265.697 159.36 266.243ZM226.254 266.951C226.254 267.741 226.736 268.284 227.798 268.688C229.386 269.291 230.124 268.374 229.053 267.128C228.653 266.664 228.206 266.46 227.38 266.367C226.261 266.241 226.254 266.245 226.254 266.951ZM389.664 269.762C389.664 270.517 391.374 271.957 392.76 272.369C394.665 272.934 395.159 272.885 395.159 272.131C395.159 270.861 393.511 269.87 390.774 269.495C389.818 269.364 389.664 269.401 389.664 269.762ZM76.6779 271.386C75.4901 272.781 75.2268 273.353 75.3119 274.352L75.3854 275.215L76.1724 274.551C77.0745 273.789 77.7797 272.528 78.0201 271.248C78.2461 270.043 77.7809 270.091 76.6779 271.386ZM103.935 271.422C103.935 272.112 104.025 272.274 104.408 272.274C104.716 272.274 104.934 272.062 105.034 271.666C105.208 270.972 105.2 270.959 104.472 270.735C103.984 270.585 103.935 270.649 103.935 271.422ZM373.18 271.879C373.18 272.85 374.757 273.769 375.544 273.256C376.017 272.948 375.715 272.356 374.8 271.799C373.733 271.148 373.18 271.175 373.18 271.879ZM201.527 273.839C201.133 274.041 200.676 274.383 200.512 274.6C200.023 275.244 200.154 276.479 200.789 277.218C201.283 277.792 201.544 277.888 202.602 277.888C203.66 277.888 203.921 277.792 204.415 277.218C204.816 276.751 204.991 276.258 204.991 275.595C204.991 273.785 203.302 272.929 201.527 273.839ZM85.0611 279.799C85.0611 280.757 85.5943 280.947 86.0248 280.142C86.2207 279.776 86.2154 279.561 86.004 279.306C85.487 278.683 85.0611 278.906 85.0611 279.799ZM179.603 279.394C178.723 280.405 178.348 282.307 179.028 282.307C179.525 282.307 180.315 281.317 180.57 280.375C180.765 279.655 180.734 279.476 180.379 279.254C180.048 279.048 179.879 279.078 179.603 279.394ZM80.0414 280.456C79.4394 281.444 79.3696 283.39 79.9442 283.169C80.152 283.089 80.3642 283.024 80.4158 283.024C80.6375 283.024 81.2386 281.564 81.2386 281.025C81.2386 280.279 81.0126 279.68 80.7316 279.68C80.6124 279.68 80.3018 280.029 80.0414 280.456ZM216.339 281.272C215.14 281.906 214.791 282.337 214.404 283.666C214.121 284.641 213.869 285.027 213.335 285.303C212.95 285.501 212.636 285.86 212.636 286.099C212.636 286.599 214.295 289.27 215.229 290.272C217.233 292.423 220.745 292.346 222.557 290.112C223.795 288.585 224.118 288.332 225.176 288.066C225.768 287.917 226.254 287.688 226.254 287.557C226.254 287.426 225.825 287.025 225.301 286.665C224.574 286.164 224.265 285.735 223.99 284.842C223.493 283.223 222.66 282.225 221.196 281.496C219.72 280.76 217.501 280.658 216.339 281.272ZM347.537 281.989C346.909 282.617 348.183 283.98 349.398 283.98C350.176 283.98 350.245 283.922 350.245 283.277C350.245 282.821 350.058 282.443 349.714 282.202C349.178 281.826 347.832 281.695 347.537 281.989ZM166.199 283.868C166.117 284.082 166.05 284.525 166.05 284.852C166.05 285.331 166.153 285.431 166.587 285.37C167.027 285.307 167.125 285.142 167.125 284.461C167.125 283.56 166.477 283.145 166.199 283.868ZM450.247 287.29C450.04 287.626 450.359 288.315 450.674 288.21C451.027 288.092 451.022 287.27 450.666 287.152C450.514 287.101 450.326 287.163 450.247 287.29ZM276.515 292.52C276.183 293.044 276.548 293.944 277.174 294.143C277.843 294.355 278.155 294.04 277.977 293.331C277.673 292.121 277.002 291.749 276.515 292.52ZM53.2951 296.386C52.755 297.395 53.1807 298.418 53.8945 297.826C54.3628 297.438 54.3611 295.924 53.8924 295.924C53.7001 295.924 53.4313 296.132 53.2951 296.386ZM193.726 296.79C193.25 296.929 192.693 298.173 192.933 298.561C193.436 299.376 196.753 299.863 197.302 299.202C197.618 298.82 197.074 297.6 196.398 297.178C195.866 296.846 194.311 296.62 193.726 296.79ZM449.981 300.234C449.757 300.596 450.364 301.257 450.654 300.967C450.922 300.699 450.714 299.985 450.367 299.985C450.24 299.985 450.066 300.097 449.981 300.234ZM320.681 300.621C320.257 300.792 320.31 301.79 320.768 302.248C321.266 302.746 321.641 302.61 321.916 301.831C322.252 300.88 321.606 300.247 320.681 300.621ZM231.032 301.418C231.032 301.549 231.199 301.657 231.404 301.657C231.609 301.657 231.71 301.549 231.629 301.418C231.548 301.287 231.38 301.179 231.256 301.179C231.133 301.179 231.032 301.287 231.032 301.418ZM235.989 304.139C235.429 304.564 235.461 304.834 236.167 305.673C236.886 306.528 238.086 307.033 239.931 307.257C241.185 307.41 241.305 307.385 241.305 306.965C241.305 305.064 237.462 303.021 235.989 304.139ZM341.654 304.393C341.157 304.992 341.452 305.599 342.242 305.599C342.735 305.599 342.977 305.468 343.035 305.169C343.129 304.676 342.684 304.046 342.242 304.046C342.077 304.046 341.812 304.202 341.654 304.393ZM36.8791 305.368C35.9636 306.088 35.2418 307.225 35.0123 308.31C34.8517 309.067 34.873 309.101 35.4045 308.94C36.7317 308.538 37.935 306.644 37.7214 305.293L37.6385 304.77L36.8791 305.368ZM146.499 306.927C146.543 307.227 146.722 307.519 146.898 307.577C147.114 307.649 147.191 307.507 147.137 307.137C147.093 306.837 146.913 306.544 146.738 306.486C146.521 306.415 146.445 306.556 146.499 306.927ZM296.969 308.823C296.969 309.174 297.129 309.301 297.566 309.301C298.234 309.301 298.39 308.722 297.786 308.491C297.154 308.248 296.969 308.324 296.969 308.823ZM288.727 309.833C288.333 309.973 287.58 310.389 287.055 310.757C286.529 311.125 285.777 311.503 285.382 311.598C284.234 311.873 282.493 313.525 282.163 314.653C282.005 315.191 281.501 316.31 281.041 317.139C280.582 317.969 280.269 318.812 280.347 319.013C280.424 319.215 280.283 319.842 280.033 320.407C279.579 321.433 279.579 321.435 280.141 323.071C280.799 324.987 280.869 326.295 280.357 327.078C280.154 327.386 279.347 328.089 278.562 328.64C277.067 329.688 276.193 330.905 276.625 331.336C276.98 331.692 277.894 331.387 278.925 330.568C279.806 329.868 280.596 329.569 282.456 329.236C283.332 329.079 283.362 329.098 283.824 330.117C284.084 330.69 284.299 331.354 284.302 331.592C284.306 331.89 284.775 332.237 285.805 332.704C288.5 333.926 289.931 334.234 292.788 334.206L295.416 334.181L296.321 335.158C297.433 336.36 297.81 336.145 297.339 334.579C296.919 333.187 297.112 332.88 299.029 331.883C300.695 331.017 301.733 329.738 303.416 326.476L304.599 324.182L304.246 320.982C303.872 317.595 303.439 315.735 302.82 314.86C302.613 314.567 301.361 313.519 300.037 312.532C296.964 310.241 294.958 309.531 291.641 309.559C290.433 309.569 289.121 309.693 288.727 309.833ZM95.3339 310.854C95.3339 311.051 95.4415 311.212 95.5729 311.212C95.7042 311.212 95.8118 311.051 95.8118 310.854C95.8118 310.657 95.7042 310.496 95.5729 310.496C95.4415 310.496 95.3339 310.657 95.3339 310.854ZM419.859 312.056C419.641 312.388 419.53 312.728 419.613 312.811C419.818 313.017 420.722 312.171 420.722 311.772C420.722 311.258 420.288 311.401 419.859 312.056ZM470.449 314.291C470.193 314.453 470.184 314.605 470.405 315.019C470.754 315.67 471.25 315.539 471.25 314.796C471.25 314.176 470.94 313.981 470.449 314.291ZM270.206 316.833C269.977 317.109 269.967 317.339 270.166 317.776C270.589 318.705 271.459 319.132 272.759 319.05C273.799 318.983 273.922 318.915 273.986 318.363C274.105 317.345 273.02 316.468 271.642 316.468C270.917 316.468 270.4 316.599 270.206 316.833ZM318.106 317.195C317.913 317.507 318.417 318.14 318.858 318.14C319.05 318.14 319.187 317.891 319.187 317.543C319.187 317.111 319.059 316.945 318.724 316.945C318.468 316.945 318.191 317.058 318.106 317.195ZM163.34 317.455C162.604 317.882 162.161 319.245 162.461 320.154C162.912 321.523 164.774 321.993 166.033 321.057C166.942 320.381 167.028 318.619 166.193 317.784C165.543 317.134 164.165 316.975 163.34 317.455ZM409.413 321.552C409.155 321.745 409.095 321.955 409.235 322.176C409.491 322.582 410.21 322.352 410.21 321.864C410.21 321.354 409.861 321.217 409.413 321.552ZM244.729 324.247C244.53 324.766 245.036 325.254 245.398 324.892C245.703 324.587 245.514 323.873 245.127 323.873C244.987 323.873 244.809 324.042 244.729 324.247ZM417.298 325.227C417.002 325.522 417.133 326.501 417.467 326.501C417.939 326.501 418.41 325.853 418.247 325.429C418.105 325.057 417.579 324.945 417.298 325.227ZM268.198 325.682C267.375 326.506 268.015 327.289 269.417 327.173C270.5 327.084 270.727 326.538 269.988 325.799C269.4 325.211 268.714 325.166 268.198 325.682ZM0.992034 326.716C0.470745 327.203 0.25 327.629 0.25 328.149C0.25 328.996 0.751464 329.133 1.62108 328.524C2.05421 328.221 2.63259 326.9 2.63761 326.202C2.64095 325.777 1.67435 326.079 0.992034 326.716ZM305.809 327.815C305.809 328.012 305.916 328.173 306.048 328.173C306.179 328.173 306.287 328.012 306.287 327.815C306.287 327.618 306.179 327.456 306.048 327.456C305.916 327.456 305.809 327.618 305.809 327.815ZM151.074 328.291C149.945 328.771 149.006 330.332 148.985 331.76C148.961 333.4 149.32 333.672 150.411 332.84C151.519 331.995 152.138 330.97 152.336 329.653C152.547 328.249 152.158 327.829 151.074 328.291ZM406.029 329.466C405.683 330.28 405.43 331.047 405.467 331.172C405.504 331.296 405.397 331.667 405.23 331.995C404.941 332.566 404.945 332.571 405.311 332.115C405.694 331.638 405.695 331.638 406.101 332.14C406.845 333.061 407.226 332.994 407.784 331.848C408.414 330.55 408.414 330.562 407.798 330.562C407.337 330.562 407.311 330.471 407.458 329.4C407.6 328.366 407.565 328.224 407.138 328.113C406.736 328.007 406.555 328.229 406.029 329.466ZM461.574 329.248C461.574 329.907 461.669 330.084 462.023 330.084C462.642 330.084 463.079 329.489 462.892 328.901C462.792 328.585 462.531 328.412 462.156 328.412C461.651 328.412 461.574 328.522 461.574 329.248ZM415.406 330.82C414.81 331.167 414.866 332.163 415.493 332.362C416.204 332.588 416.766 331.969 416.567 331.179C416.403 330.523 416.085 330.425 415.406 330.82ZM246.905 331.54C246.816 331.684 246.906 331.966 247.107 332.166C247.542 332.601 247.994 332.386 247.994 331.742C247.994 331.235 247.186 331.085 246.905 331.54ZM418.386 332.367C417.633 332.894 417.715 333.746 418.59 334.482C419.474 335.226 419.628 335.239 420.244 334.623C420.765 334.102 420.863 333.183 420.474 332.457C420.172 331.891 419.129 331.847 418.386 332.367ZM406.925 333.348C406.44 333.544 406.549 335.669 407.078 336.323L407.53 336.881L407.915 335.962C408.69 334.106 408.207 332.831 406.925 333.348ZM348.241 333.738C347.945 333.954 347.842 334.292 347.897 334.865C347.963 335.555 348.096 335.717 348.747 335.903C350.183 336.312 350.76 335.117 349.658 334.015C348.986 333.343 348.825 333.311 348.241 333.738ZM403.868 335.926C403.202 336.592 403.099 337.435 403.659 337.649C404.192 337.854 404.707 337.247 404.874 336.219C405.045 335.166 404.722 335.072 403.868 335.926ZM156.79 337.964C156.388 338.607 156.405 339.878 156.815 339.878C157.181 339.878 157.783 339.243 158.003 338.624C158.365 337.602 157.358 337.054 156.79 337.964ZM64.2764 337.924C64.2764 338.213 64.7296 338.549 64.8954 338.384C64.9553 338.323 64.8407 338.138 64.6405 337.972C64.4135 337.784 64.2764 337.765 64.2764 337.924ZM403.713 340.812C401.642 342.976 400.496 343.752 398.962 344.03C397.974 344.209 397.526 343.842 396.705 342.187C395.747 340.256 393.763 339.874 389.784 340.853C388.223 341.237 386.389 341.44 383.094 341.593C380.598 341.709 378.125 341.828 377.599 341.856C376.691 341.906 376.603 341.847 375.819 340.655L374.994 339.401H373.388C371.942 339.401 371.732 339.463 371.292 340.022C370.569 340.941 370.462 341.998 370.91 343.785L371.309 345.373L370.468 346.508C370.006 347.132 368.76 348.499 367.701 349.548C366.641 350.596 365.774 351.559 365.774 351.688C365.774 351.818 366.06 352.152 366.409 352.431L367.045 352.937L365.916 353.484C364.31 354.261 363.504 355.551 363.504 357.342C363.504 359.263 364.115 360.08 365.48 359.981C366.018 359.942 366.695 360.037 366.984 360.192C367.474 360.454 367.502 360.597 367.38 362.211C367.253 363.882 367.271 363.958 367.836 364.216C368.16 364.363 368.556 364.483 368.717 364.483C368.878 364.483 369.217 364.867 369.469 365.337C369.722 365.806 370.768 366.884 371.793 367.733C373.612 369.237 373.658 369.301 373.658 370.343C373.658 370.93 373.725 371.411 373.809 371.411C373.892 371.411 374.32 371.188 374.761 370.916L375.563 370.42L378.134 370.931C382.419 371.781 383.75 371.807 385.906 371.081C388.176 370.316 389.664 370.245 389.664 370.9C389.664 371.145 389.342 371.751 388.947 372.247C388.472 372.845 388.231 373.419 388.231 373.952C388.231 375.131 388.824 374.973 389.524 373.608C389.764 373.141 390.094 372.834 390.334 372.856C390.887 372.908 391.814 372.594 391.814 372.354C391.814 372.247 391.933 371.856 392.078 371.486L392.341 370.814L392.592 371.411C392.806 371.921 392.858 371.944 392.947 371.572C393.004 371.333 392.88 370.948 392.671 370.717C392.115 370.103 392.198 369.841 393.12 369.297C393.576 369.029 394.458 368.101 395.08 367.236C395.891 366.109 396.316 365.707 396.581 365.817C397.407 366.158 397.61 366 398.11 364.625C398.706 362.985 399.418 362.358 400.91 362.158C401.631 362.061 402.105 361.833 402.422 361.429C402.677 361.106 403.52 360.541 404.297 360.174C405.906 359.413 406.533 358.907 407.009 357.986C407.461 357.113 407.408 354.631 406.904 353.023L406.494 351.716L404.367 350.931C402.098 350.094 401.524 349.708 400.975 348.645C400.651 348.019 400.682 347.863 401.447 346.25C402.203 344.658 402.906 343.723 403.158 343.975C403.215 344.032 403.4 344.504 403.57 345.024C403.919 346.092 404.525 346.325 405.693 345.841C406.507 345.504 406.572 345.079 405.91 344.417C405.298 343.806 405.278 342.481 405.871 341.944C406.402 341.464 406.549 338.684 406.044 338.684C405.882 338.684 404.833 339.642 403.713 340.812ZM289.674 339.175C289.472 339.502 289.745 340.595 290.029 340.595C290.308 340.595 290.997 339.909 290.997 339.631C290.997 339.436 290.239 338.923 289.951 338.923C289.885 338.923 289.76 339.036 289.674 339.175ZM453.261 341.373C452.76 341.976 452.723 342.851 453.174 343.429C453.534 343.891 453.749 343.964 454.353 343.832C455.442 343.593 455.727 343.147 455.359 342.258C454.914 341.183 453.806 340.716 453.261 341.373ZM338.539 342.16C338.539 342.467 339.242 343.614 339.665 343.997C339.917 344.225 340.465 344.48 340.884 344.564C341.496 344.686 341.644 344.638 341.644 344.316C341.644 343.703 340.977 342.549 340.463 342.274C339.984 342.018 338.539 341.932 338.539 342.16ZM355.083 342.903C354.378 343.188 354.95 344.417 355.788 344.417C356.348 344.417 356.393 343.102 355.84 342.89C355.632 342.81 355.444 342.754 355.422 342.764C355.4 342.774 355.247 342.837 355.083 342.903ZM332.067 344.147C331.375 344.708 331.316 346.085 331.954 346.789C332.458 347.347 333.715 347.646 334.611 347.421C335.317 347.244 336.021 345.856 335.783 345.108C335.353 343.752 333.232 343.204 332.067 344.147ZM148.371 344.75C148.371 344.933 148.532 345.145 148.729 345.22C148.973 345.314 149.087 345.207 149.087 344.887C149.087 344.629 148.926 344.417 148.729 344.417C148.532 344.417 148.371 344.567 148.371 344.75ZM407.347 345.009C407.078 345.334 407.241 346.476 407.587 346.69C407.693 346.755 407.659 347.126 407.512 347.514C407.298 348.08 407.323 348.383 407.637 349.04C408.019 349.843 409.345 350.748 409.761 350.491C410.093 350.286 410.006 349.521 409.613 349.195C409.002 348.688 409.214 348.269 410.219 347.998C410.969 347.796 411.274 347.551 411.584 346.9C411.932 346.17 411.939 346.032 411.635 345.84C411.442 345.718 411.06 345.617 410.785 345.615C410.51 345.613 409.683 345.405 408.948 345.152C407.845 344.772 407.565 344.747 407.347 345.009ZM434.578 347.164C432.936 348.674 432.226 348.815 430.604 347.956L429.616 347.433L428.174 348.08C426.304 348.919 423.434 349.648 421.282 349.832C419.739 349.964 419.543 349.931 419.272 349.496C419 349.061 418.782 349.024 417.039 349.122C415.624 349.201 414.644 349.109 413.375 348.777C411.698 348.338 411.628 348.338 411.175 348.759C410.918 348.999 410.588 349.195 410.443 349.195C410.2 349.195 410.329 350.074 410.618 350.389C410.678 350.455 412.414 350.568 414.475 350.64C416.536 350.712 418.355 350.852 418.516 350.952C419.121 351.326 418.849 352.559 417.988 353.347C416.361 354.837 414.906 360.803 415.436 363.81C415.907 366.484 418.242 370.542 420.85 373.22C421.827 374.222 422.285 374.505 423.28 374.718C423.955 374.863 425.02 375.307 425.647 375.704C426.426 376.198 427.095 376.429 427.757 376.433C428.348 376.436 428.957 376.62 429.322 376.905C430.074 377.493 430.572 377.504 431.08 376.943C431.3 376.7 432.096 376.365 432.849 376.197C434.31 375.873 436.152 375.03 437.326 374.15C437.877 373.737 438.171 373.662 438.6 373.825C439.304 374.094 440.312 373.853 440.312 373.416C440.312 373.223 440.555 373.083 440.89 373.083C441.735 373.083 441.966 371.886 441.286 371.022C440.606 370.158 440.663 369.608 441.495 368.993C442.389 368.332 442.825 367.236 443.191 364.736C443.704 361.228 443.149 357.665 441.608 354.57C440.602 352.55 439.631 351.435 438.448 350.942C437.962 350.739 437.256 350.355 436.88 350.087C436.197 349.602 436.196 349.594 436.359 347.725C436.471 346.444 436.441 345.85 436.265 345.85C436.123 345.85 435.364 346.442 434.578 347.164ZM341.184 349.585C340.62 350.302 340.592 350.478 340.936 351.122C341.241 351.69 342.409 351.741 342.941 351.208C343.385 350.764 343.436 349.648 343.03 349.243C342.551 348.764 341.707 348.92 341.184 349.585ZM357.976 349.314C357.791 349.796 358.033 350.367 358.498 350.546C359.049 350.757 359.408 350.28 359.23 349.571C359.057 348.884 358.208 348.71 357.976 349.314ZM403.469 349.087C403.077 349.479 403.628 349.911 404.519 349.911C405.293 349.911 405.452 349.835 405.388 349.493C405.333 349.207 405.043 349.053 404.466 349.004C404.002 348.965 403.554 349.003 403.469 349.087ZM355.262 350.15C354.999 350.413 354.784 350.882 354.784 351.193C354.784 351.975 355.66 353.017 356.317 353.017C357.599 353.017 358.116 351.148 357.098 350.192C356.41 349.546 355.879 349.534 355.262 350.15ZM359.483 350.787C359.039 351.231 359.805 353.256 360.416 353.256C360.832 353.256 360.855 352.972 360.47 352.587C360.264 352.381 360.26 352.3 360.456 352.3C360.606 352.3 360.795 352.408 360.876 352.539C360.957 352.671 361.286 352.778 361.607 352.778C362.09 352.778 362.19 352.66 362.19 352.094C362.19 351.508 362.043 351.353 361.167 351.019C360.046 350.591 359.723 350.547 359.483 350.787ZM363.671 351.393C363.514 351.55 363.385 351.926 363.385 352.229C363.385 352.675 363.514 352.778 364.072 352.778C364.905 352.778 365.391 352.259 365.18 351.595C365.006 351.048 364.133 350.931 363.671 351.393ZM165.498 353.638C165.025 354.744 164.872 355.415 164.979 355.902C165.19 356.863 165.433 356.936 166.206 356.271C166.808 355.753 166.883 355.517 166.966 353.879C167.049 352.233 167.016 352.062 166.613 352.064C166.294 352.066 165.98 352.51 165.498 353.638ZM443.998 352.805C443.819 353.095 444.348 353.533 444.732 353.411C444.863 353.37 445.005 353.156 445.048 352.937C445.137 352.48 444.267 352.37 443.998 352.805ZM361.175 355.108C360.651 355.226 360.633 355.965 361.143 356.474C361.651 356.983 362.053 356.826 362.143 356.083C362.224 355.403 361.793 354.968 361.175 355.108ZM411.404 359.501C411.404 359.651 411.623 360.506 411.889 361.401C412.434 363.231 412.792 363.35 413.259 361.856C413.75 360.281 413.656 359.838 412.761 359.515C411.768 359.156 411.404 359.152 411.404 359.501ZM365.11 363.661C363.801 364.578 364.953 367.252 366.434 366.733C367.018 366.529 367.095 366.372 367.159 365.267C367.227 364.104 367.189 364.008 366.514 363.66C365.644 363.21 365.754 363.21 365.11 363.661ZM305.862 364.616C305.238 365.053 305.187 365.605 305.703 366.341C306.465 367.429 307.72 366.612 307.72 365.027C307.72 364.331 307.647 364.244 307.057 364.244C306.691 364.244 306.154 364.412 305.862 364.616ZM446.046 364.969C446.046 365.227 446.207 365.439 446.404 365.439C446.601 365.439 446.762 365.289 446.762 365.106C446.762 364.923 446.601 364.711 446.404 364.636C446.16 364.542 446.046 364.649 446.046 364.969ZM353.16 367.398C352.731 367.826 352.814 368.895 353.31 369.343C354.242 370.187 355.678 369.522 355.391 368.379C355.299 368.011 355.111 367.576 354.975 367.411C354.658 367.03 353.536 367.022 353.16 367.398ZM412.496 367.562C412.424 367.678 412.533 367.912 412.737 368.082C413.418 368.648 413.793 369.702 413.793 371.053C413.793 372.643 413.326 373.658 412.368 374.154C411.409 374.65 411.191 374.621 409.651 373.8C408.912 373.406 408.028 373.083 407.685 373.083C407.089 373.083 407.069 373.125 407.227 374.057L407.391 375.031L406.664 374.655C406.244 374.438 405.878 374.374 405.799 374.503C405.521 374.952 405.999 376.777 406.534 377.313C407.25 378.028 407.496 378.004 407.924 377.176C408.507 376.049 409.739 375.622 411.926 375.791L413.793 375.935L414.378 374.808C414.699 374.188 415.284 373.205 415.677 372.623C416.486 371.428 416.473 370.926 415.578 368.879C415.132 367.857 414.92 367.635 414.27 367.505C413.209 367.293 412.652 367.311 412.496 367.562ZM161.272 368.544C161.272 368.676 161.379 368.783 161.51 368.783C161.642 368.783 161.749 368.676 161.749 368.544C161.749 368.413 161.642 368.305 161.51 368.305C161.379 368.305 161.272 368.413 161.272 368.544ZM319.998 371.787C319.794 372.598 320.172 372.974 320.834 372.619C321.137 372.457 321.337 372.115 321.337 371.761C321.337 371.293 321.215 371.172 320.745 371.172C320.307 371.172 320.112 371.333 319.998 371.787ZM442.161 372.886C442.504 373.296 444.014 374.186 443.812 373.858C443.727 373.721 443.262 373.375 442.777 373.089C442.292 372.803 442.015 372.712 442.161 372.886ZM391.25 373.543C390.754 373.724 389.67 376.769 389.671 377.98C389.673 380.401 392.04 379.585 392.423 377.032C392.574 376.025 392.195 373.668 391.85 373.471C391.765 373.422 391.495 373.455 391.25 373.543ZM394.208 373.686C394.374 373.886 394.56 374.001 394.62 373.941C394.785 373.775 394.449 373.322 394.16 373.322C394.001 373.322 394.02 373.459 394.208 373.686ZM447.36 375.804C447.36 376.74 447.467 376.908 448.872 378.162C450.943 380.013 451.772 380.25 451.432 378.895C451.291 378.331 447.957 374.733 447.957 375.145C447.957 375.225 447.823 375.18 447.658 375.044C447.427 374.853 447.36 375.025 447.36 375.804ZM394.203 380.966C393.697 381.473 393.524 383.116 393.976 383.116C394.461 383.116 395.625 382.39 395.868 381.935C396.004 381.682 396.115 381.253 396.115 380.982C396.115 380.315 394.865 380.305 394.203 380.966ZM392.292 384.191C392.292 384.388 392.4 384.55 392.531 384.55C392.662 384.55 392.77 384.388 392.77 384.191C392.77 383.994 392.662 383.833 392.531 383.833C392.4 383.833 392.292 383.994 392.292 384.191ZM389.988 384.911C389.824 385.338 390.298 385.983 390.776 385.983C391.252 385.983 391.446 385.327 391.095 384.905C390.715 384.447 390.165 384.45 389.988 384.911ZM385.544 385.326C385.38 385.773 385.598 386.222 385.981 386.222C386.183 386.222 386.319 385.98 386.319 385.625C386.319 385.004 385.744 384.783 385.544 385.326ZM404.768 385.877C404.023 386.399 404.061 387.363 404.834 387.557C405.162 387.639 405.592 387.645 405.79 387.569C406.287 387.378 406.272 385.842 405.771 385.65C405.292 385.466 405.385 385.445 404.768 385.877ZM401.654 393.678C401.29 394.042 401.291 394.647 401.657 395.013C402.114 395.469 402.5 395.347 402.622 394.708C402.765 393.963 402.088 393.244 401.654 393.678ZM383.491 397.045C383.166 397.436 383.36 397.688 383.988 397.688C384.284 397.688 384.416 397.549 384.366 397.29C384.263 396.76 383.828 396.638 383.491 397.045Z" fill="black" fill-opacity="0.35"/>
</svg>
