<svg width="130" height="94" viewBox="0 0 130 94" fill="none" xmlns="http://www.w3.org/2000/svg">
<g clip-path="url(#clip0_3370_1444)">
<path d="M86.7338 93.8184H43.7363V22.0459H86.7338V93.8184Z" fill="#EB3E33"/>
<path d="M43.7363 35.5134H72.7302V22.0459H86.7366V35.5134V67.6274V93.8184L43.7363 35.5134Z" fill="#BAB295"/>
<path d="M129.732 93.8184H86.7349V22.0459H129.732V93.8184Z" fill="#EB3E33"/>
<path d="M43.7352 93.8184H0.737793V22.0459H43.7352V93.8184Z" fill="#BAB295"/>
<path d="M129.732 80.3506L86.7349 22.0456H129.732V80.3506Z" fill="#BAB295"/>
<path d="M79.9043 80.3509L86.7317 93.8184H129.729V80.3509H79.9043Z" fill="#BAB295"/>
<path d="M29.5993 65.9023C29.5993 69.7324 28.0794 73.4057 25.3741 76.114C22.6686 78.8223 18.9993 80.3438 15.1732 80.3438C11.3472 80.3438 7.67791 78.8223 4.9725 76.114C2.26708 73.4057 0.74707 69.7324 0.74707 65.9023V22.053L26.5927 57.0859C28.5456 59.6086 29.6035 62.7107 29.5993 65.9023Z" fill="#EB3E33"/>
<path d="M47.8657 7.22246C47.8657 4.82317 46.2859 3.64763 43.3615 3.64763H39.5834V0.240269H37.1582V10.7803H43.648C46.5411 10.7803 47.8657 9.34638 47.8657 7.22246ZM45.3952 7.22246C45.3952 8.41219 44.6435 8.90907 43.2281 8.90907H39.5834V5.50171H43.2281C44.6321 5.48752 45.3952 6.0611 45.3952 7.22246Z" fill="#BAB295"/>
<path d="M55.6926 2.29031H49.9119L49.0071 0.226087H46.4316L51.3102 10.7803H54.2941L59.1587 0.226087H56.5832L55.6926 2.29031ZM54.8814 4.14451L52.8022 8.94026L50.7231 4.14451H54.8814Z" fill="#BAB295"/>
<path d="M68.7124 0.226087L66.4828 3.79809H62.6425V0.226087H60.2173V10.7803H66.724C69.586 10.7803 71.0609 9.40877 71.0609 7.28203C71.0609 5.62379 70.278 4.62721 68.8938 4.1587L71.407 0.240268L68.7124 0.226087ZM62.6425 5.63799H66.6333C68.111 5.63799 68.5904 6.40752 68.5904 7.28203C68.5904 8.15665 68.1394 8.90907 66.6333 8.90907H62.6425V5.63799Z" fill="#BAB295"/>
<path d="M82.2644 8.90907H78.2735V0.226087H75.8484V8.90907H71.8604V10.7803H82.2672L82.2644 8.90907Z" fill="#BAB295"/>
<path d="M94.5761 10.7803V0.226087H91.8503L86.0073 7.76484V0.226087H83.582V10.7803H86.2937L92.1368 3.22733V10.7803H94.5761Z" fill="#BAB295"/>
<path d="M105.441 0.230969H96.0435V10.7852H105.29V8.91396H98.4685V6.57706H104.868V4.73435H98.4685V2.11073H105.441V0.230969Z" fill="#BAB295"/>
<path d="M115.257 0.230969L113.031 3.80298H109.19V0.230969H106.748V10.7852H113.272C116.131 10.7852 117.609 9.41366 117.609 7.28692C117.609 5.6288 116.826 4.63491 115.439 4.16359L117.955 0.242341L115.257 0.230969ZM109.19 5.64299H113.181C114.656 5.64299 115.138 6.41242 115.138 7.28692C115.138 8.16154 114.687 8.91396 113.181 8.91396H109.19V5.64299Z" fill="#BAB295"/>
<path d="M129.724 3.51593C129.724 1.22454 127.843 0.000804901 124.091 0.000804901C120.449 0.000804901 118.534 1.375 118.534 3.51593H121.065C121.125 2.41428 122.392 1.85781 124.304 1.85781C126.306 1.85781 127.141 2.38308 127.141 3.18382C127.141 4.26847 125.515 4.1634 122.639 4.64609C119.763 5.12879 118.858 6.00328 118.858 7.66152C118.858 9.39364 120.032 10.9922 123.904 10.9922C127.623 10.9922 129.069 9.57248 129.129 7.70703H126.78C126.689 8.45945 125.816 9.12673 123.872 9.12673C121.705 9.12673 121.193 8.53895 121.193 7.81491C121.193 6.82114 122.939 6.75864 124.792 6.5031C127.719 6.10836 129.724 5.86702 129.724 3.51593Z" fill="#BAB295"/>
<path d="M20.4017 10.7803H17.3271L11.4102 4.07075V2.35283H18.1099V0.226087H20.4017V2.35283H22.3418V3.92017H20.4017V10.7803ZM18.1099 3.92017H13.8325L18.1099 8.74724V3.92017Z" fill="#BAB295"/>
<path d="M22.1538 10.7803V8.91188H29.5031L23.6287 0.226087H26.3489L32.0331 8.91188V10.7803H22.1538Z" fill="#BAB295"/>
<path d="M8.86834 5.14849L8.89659 5.17405C8.97034 5.23937 9.04133 5.31044 9.11223 5.38702L9.13771 5.41258C9.70924 6.02358 10.039 6.82197 10.0652 7.65859C10.0652 10.1148 8.15629 10.9893 5.78788 10.9893C3.41945 10.9893 1.66662 9.91304 1.41135 7.53076H3.59531C3.72863 8.62961 4.56543 9.26007 5.6376 9.2997C6.9849 9.35084 7.76214 8.766 7.81035 7.88001C7.82472 7.59152 7.77367 7.3035 7.66119 7.03752C7.54871 6.77155 7.37771 6.53442 7.1608 6.34397L6.55376 5.77601L0.733398 0.230653H10.2327V2.08474H5.73691L8.86834 5.14849Z" fill="#BAB295"/>
</g>
<defs>
<clipPath id="clip0_3370_1444">
<rect width="129" height="93.8182" fill="white" transform="matrix(1 0 0 -1 0.733398 93.8184)"/>
</clipPath>
</defs>
</svg>
