<svg width="334" height="330" viewBox="0 0 334 330" fill="none" xmlns="http://www.w3.org/2000/svg">
<path fill-rule="evenodd" clip-rule="evenodd" d="M218.292 0.50357C218.225 0.762187 218.169 1.37623 218.167 1.86781C218.164 2.5554 218.245 2.83796 218.518 3.09247C218.885 3.43421 218.933 3.72824 219.196 7.24265C219.299 8.61116 219.471 9.29021 219.666 9.09351C219.71 9.04921 219.637 7.71199 219.504 6.12181C219.266 3.28233 219.267 3.22657 219.604 2.9907C219.879 2.79793 219.947 2.55728 219.947 1.77202C219.947 0.575235 219.625 0.0332031 218.914 0.0332031C218.512 0.0332031 218.39 0.125395 218.292 0.50357ZM200.291 7.1467C199.452 7.85327 199.572 8.9098 200.546 9.37162C201.02 9.59671 201.224 9.60834 201.735 9.43952C202.359 9.23376 202.584 8.8927 202.797 7.83583C203.011 6.76904 201.299 6.29832 200.291 7.1467ZM246.5 7.47288C246.115 7.90989 246.244 8.24325 246.799 8.24325C247.255 8.24325 247.312 8.18629 247.312 7.73012C247.312 7.16397 246.889 7.03022 246.5 7.47288ZM175.65 19.1748C175.65 19.5913 175.738 19.7187 176.085 19.8059C176.65 19.9477 176.747 19.8314 176.552 19.2435C176.454 18.9462 176.251 18.7415 176.021 18.7076C175.709 18.6618 175.65 18.7366 175.65 19.1748ZM190.641 19.6739C190.282 20.071 190.275 20.8317 190.629 20.9676C190.778 21.0248 191.146 21.0715 191.447 21.0715C191.907 21.0715 192.027 20.983 192.203 20.5169C192.393 20.0129 192.377 19.9352 192.027 19.6655C191.525 19.2794 190.995 19.2827 190.641 19.6739ZM86.8842 24.6716C86.8842 24.9608 87.7946 25.6785 88.1669 25.6828C88.4527 25.686 88.4053 25.5884 87.8791 25.0894C87.2466 24.4899 86.8842 24.3377 86.8842 24.6716ZM145.749 28.9931C145.342 29.4262 145.254 30.2871 145.582 30.6156C145.695 30.7285 146.219 30.8209 146.745 30.8209C147.869 30.8209 148.114 30.6348 148.114 29.7801C148.114 29.2989 148.014 29.0845 147.692 28.8736C147.07 28.466 146.193 28.52 145.749 28.9931ZM169.949 32.6454C169.709 32.8854 169.843 33.5372 170.153 33.6354C170.609 33.7804 171.032 33.5726 171.032 33.2032C171.032 32.7579 170.243 32.3515 169.949 32.6454ZM224.448 34.4053C223.98 34.6047 223.71 35.0966 223.71 35.749C223.71 36.4478 224.119 36.7219 225.163 36.7219C225.665 36.7219 226.175 36.6196 226.334 36.4872C226.696 36.187 226.719 34.8809 226.367 34.5895C226.035 34.3136 224.915 34.2062 224.448 34.4053ZM271.328 34.9899C269.959 36.426 270.154 38.1135 271.752 38.6608C272.47 38.9066 273.651 38.9216 273.651 38.6853C273.651 38.5891 273.853 38.2051 274.1 37.8321C274.479 37.2596 274.537 37.013 274.474 36.2535C274.433 35.7585 274.26 35.1419 274.091 34.8831C273.813 34.4591 273.688 34.414 272.819 34.4246C271.962 34.435 271.796 34.498 271.328 34.9899ZM245.74 35.8663C245.392 35.9941 244.873 36.2725 244.585 36.4851C244.13 36.8218 244.062 36.9765 244.062 37.6833C244.062 38.44 244.115 38.5383 244.847 39.138C245.512 39.6828 245.785 39.7921 246.633 39.8533C247.551 39.9198 247.67 39.887 248.071 39.4534C248.447 39.0485 248.509 38.824 248.509 37.8829C248.509 36.5525 248.34 36.2 247.542 35.8663C246.81 35.5608 246.571 35.5608 245.74 35.8663ZM144.01 38.6858C143.698 39.4396 143.879 39.7151 144.688 39.7151C145.354 39.7151 145.377 39.6959 145.377 39.1507C145.377 38.0958 144.393 37.7613 144.01 38.6858ZM208.862 38.7316C208.909 39.2205 208.982 39.294 209.471 39.341C210.004 39.3925 210.027 39.3698 210.027 38.7851C210.027 38.2007 210.002 38.1757 209.418 38.1757C208.833 38.1757 208.81 38.1985 208.862 38.7316ZM201.989 39.2875C201.989 39.8011 202.045 39.8861 202.389 39.8861C202.638 39.8861 202.854 39.7416 202.961 39.5013C203.209 38.948 203.058 38.6889 202.487 38.6889C202.031 38.6889 201.989 38.7402 201.989 39.2875ZM112.993 42.2515C112.837 42.4236 112.71 42.7314 112.71 42.9357C112.71 43.2464 112.808 43.307 113.312 43.307C113.785 43.307 113.956 43.217 114.104 42.8903C114.209 42.6611 114.248 42.3533 114.192 42.2062C114.052 41.8417 113.34 41.8685 112.993 42.2515ZM134.636 42.315C134.331 42.6206 134.388 43.4929 134.73 43.7531C134.895 43.8781 135.241 43.9828 135.5 43.9857C135.957 43.991 135.97 43.964 135.97 43.0504V42.1097H135.406C135.095 42.1097 134.749 42.2021 134.636 42.315ZM262.053 43.3366C262.094 43.7599 262.214 43.9151 262.596 44.0416C263.165 44.2299 263.382 44.0165 263.386 43.2642C263.389 42.8279 263.339 42.7939 262.694 42.7939C262.016 42.7939 262 42.8072 262.053 43.3366ZM174.142 44.5139C173.842 44.6341 173.759 44.7836 173.8 45.1272C173.868 45.6968 174.266 45.9565 174.849 45.8102C175.763 45.5808 175.89 44.323 174.997 44.344C174.744 44.35 174.36 44.4265 174.142 44.5139ZM120.597 45.6744C120.398 45.9535 120.235 46.3433 120.235 46.5404C120.235 46.8488 120.338 46.8989 120.971 46.8989C121.375 46.8989 121.799 46.8065 121.911 46.6936C122.228 46.3774 122.166 45.5846 121.817 45.4844C121.653 45.437 121.392 45.3462 121.238 45.2825C121.044 45.2023 120.847 45.3227 120.597 45.6744ZM221.272 46.7415C221.07 46.8596 220.973 47.1276 220.973 47.5716C220.973 48.2705 221.198 48.4308 222.186 48.4359C222.554 48.4379 222.668 48.3191 222.861 47.7339C223.074 47.0879 223.067 47.0101 222.77 46.7932C222.393 46.5171 221.699 46.4932 221.272 46.7415ZM157.691 47.2923C157.691 47.7601 157.987 48.0962 158.4 48.0962C158.909 48.0962 158.951 47.7356 158.49 47.3082C157.935 46.7937 157.691 46.7889 157.691 47.2923ZM158.669 49.9125C158.601 49.9797 158.546 50.1662 158.546 50.3269C158.546 50.765 159.588 50.9358 159.874 50.5447C159.993 50.3815 160.064 50.168 160.032 50.07C159.964 49.862 158.848 49.7331 158.669 49.9125ZM113.565 56.5373C113.565 57.6062 114.398 59.0068 115.3 59.4574C115.93 59.7717 117.949 59.8299 118.047 59.5366C118.085 59.4208 118.369 59.5213 118.769 59.7931C119.132 60.0391 119.504 60.2402 119.596 60.2402C119.689 60.2402 119.669 60.3543 119.554 60.4937C119.379 60.7043 119.5 60.8998 120.27 61.6483C120.779 62.1438 121.422 62.6646 121.699 62.8055C121.976 62.9466 122.241 63.111 122.288 63.1709C122.461 63.392 130.645 68.7924 130.806 68.7924C130.898 68.7924 131.018 68.9078 131.072 69.0489C131.21 69.4093 132.074 69.3701 132.487 68.9846C132.826 68.669 132.854 68.6773 134.216 69.4808C134.977 69.9301 136.091 70.5671 136.69 70.8965C138.005 71.6195 139.553 72.5009 139.904 72.7272C140.045 72.818 140.43 73.0347 140.759 73.2085C141.088 73.3823 141.743 73.7423 142.213 74.0088C142.683 74.2751 143.337 74.6425 143.667 74.8252C143.996 75.0079 144.342 75.2179 144.436 75.292C144.609 75.428 145.31 75.8272 146.735 76.602C147.164 76.835 147.746 77.1608 148.028 77.3262C148.31 77.4916 148.964 77.8602 149.482 78.1453C151.319 79.1584 151.686 79.4184 151.599 79.6454C151.551 79.7718 151.763 80.0471 152.079 80.27C152.391 80.4891 152.733 80.7481 152.839 80.8452C152.945 80.9424 153.204 81.1374 153.416 81.2785C153.833 81.5573 155.96 83.0729 156.238 83.2891C156.332 83.3623 156.87 83.7186 157.435 84.0808C157.999 84.4431 158.781 84.9614 159.173 85.2325C159.565 85.5037 159.949 85.7287 160.028 85.7326C160.107 85.7364 160.438 85.9673 160.763 86.2457C161.089 86.524 161.455 86.7518 161.576 86.7518C161.697 86.7518 161.796 86.8237 161.796 86.9114C161.796 86.9992 161.95 87.1196 162.137 87.1791C162.325 87.2386 162.575 87.3794 162.693 87.4918C162.811 87.6043 163.716 88.2284 164.704 88.8789C165.691 89.5294 166.965 90.4137 167.534 90.844C168.104 91.2744 168.83 91.819 169.148 92.0542C169.466 92.2894 170.232 92.9231 170.849 93.4624C171.467 94.0017 172.103 94.4441 172.262 94.4458C172.67 94.45 172.732 94.6212 172.623 95.4401C172.522 96.1886 172.401 96.3104 170.155 97.9279C169.353 98.5052 168.149 98.6131 167.641 98.1532C167.469 97.9972 167.208 97.8696 167.063 97.8696C166.917 97.8696 166.692 97.7246 166.563 97.5474C165.994 96.7662 164.278 94.7 164.155 94.6484C164.08 94.6169 164.02 94.5216 164.02 94.4364C164.02 94.2989 163.783 93.9678 163.25 93.3604C163.156 93.2532 162.771 92.7808 162.395 92.3106C162.018 91.8402 161.043 90.7727 160.227 89.9382C159.351 89.0416 158.781 88.3253 158.834 88.1871C158.946 87.8959 157.133 85.9811 156.467 85.6861C156.2 85.5677 155.981 85.4129 155.981 85.3418C155.981 85.2706 155.832 85.2125 155.649 85.2125C155.466 85.2125 155.265 85.1288 155.202 85.0265C155.139 84.9243 154.95 84.8765 154.781 84.9207C154.591 84.9703 154.129 84.7164 153.561 84.2507C152.662 83.5142 151.664 82.7375 150.882 82.1662C149.306 81.0151 148.668 80.5385 148.37 80.2921C148.182 80.1361 147.297 79.4375 146.403 78.7397C145.51 78.042 144.74 77.4233 144.693 77.365C144.473 77.0922 143.153 76.1472 142.993 76.1472C142.455 76.1472 143.292 77.078 144.677 78.0191C145.015 78.2491 145.407 78.5521 145.548 78.6923C145.689 78.8326 146.574 79.5138 147.515 80.206C148.456 80.8984 149.495 81.6907 149.824 81.9668C150.153 82.2428 150.653 82.6432 150.936 82.8565C151.477 83.2662 151.839 83.5578 152.446 84.073C152.65 84.2459 153.014 84.504 153.255 84.6467C153.496 84.7891 153.895 85.2249 154.142 85.6151C154.974 86.9284 157.562 89.0799 158.073 88.8837C158.317 88.7903 158.697 89.1647 160.514 91.2845C161.078 91.943 161.578 92.5203 161.625 92.5673C161.763 92.7053 163.912 95.1651 164.459 95.8108C164.734 96.1366 165.326 96.7984 165.773 97.2812C166.219 97.7641 166.585 98.2895 166.585 98.4488C166.585 98.7785 166.086 99.7324 165.466 100.589C165.235 100.909 165.046 101.313 165.046 101.487C165.046 101.661 164.998 101.804 164.941 101.804C164.82 101.804 163.123 100.91 162.993 100.779C162.866 100.649 160.341 99.409 160.204 99.409C160.14 99.409 159.606 99.1863 159.017 98.9143C158.429 98.6422 157.486 98.255 156.922 98.0537C156.357 97.8525 155.665 97.5816 155.382 97.4516C155.1 97.3218 154.523 97.1228 154.1 97.01C153.676 96.8969 153.176 96.7412 152.988 96.6641C152.638 96.5204 151.972 96.3217 150.765 96.0001C145.364 94.562 142.334 94.4626 140.864 95.6751C140.234 96.1944 140.087 96.7123 140.4 97.3161C140.485 97.4795 140.735 97.9806 140.956 98.4298C141.618 99.7749 143.378 101.859 144.981 103.197C145.81 103.889 146.514 104.513 146.546 104.583C146.577 104.654 146.705 104.711 146.831 104.711C146.956 104.711 147.084 104.772 147.116 104.846C147.147 104.92 147.442 105.167 147.771 105.396C148.101 105.625 149.042 106.334 149.864 106.972C150.686 107.61 151.442 108.132 151.545 108.132C151.715 108.132 153.672 107.344 155.382 106.587C156.193 106.229 157.299 105.757 157.777 105.566C157.965 105.491 158.484 105.268 158.929 105.071C159.375 104.873 159.819 104.711 159.915 104.711C160.012 104.711 160.224 104.641 160.387 104.555C160.699 104.391 162.491 103.586 163.079 103.346C163.267 103.269 163.767 103.052 164.191 102.864L164.96 102.522L165.161 103.061C165.271 103.357 165.369 104.177 165.378 104.882C165.409 107.301 165.98 109.579 166.747 110.347C167.083 110.683 167.101 110.823 166.992 112.263L166.875 113.816L166.309 114.052C165.631 114.336 165.388 114.738 165.388 115.574C165.388 116.43 165.777 116.77 166.757 116.77C167.367 116.77 167.7 116.657 168.188 116.285C168.79 115.826 168.846 115.814 169.238 116.071C169.495 116.24 170.026 116.342 170.641 116.342H171.63V117.468C171.63 118.838 171.909 119.149 173.032 119.029C174.001 118.925 174.623 118.252 174.623 117.307C174.623 116.659 173.841 115.829 173.23 115.829H172.723L173.272 115.174C173.823 114.519 174.623 112.378 174.623 111.562C174.623 111.289 174.682 111.201 174.791 111.31C174.882 111.401 175.008 112.13 175.069 112.929L175.181 114.381L176.127 114.696C176.647 114.869 177.271 115.195 177.514 115.42C177.756 115.645 178.014 115.829 178.085 115.829C178.157 115.829 178.215 115.945 178.215 116.086C178.215 116.227 178.275 116.342 178.349 116.342C178.422 116.342 178.586 116.592 178.713 116.898C178.903 117.359 178.957 117.398 179.025 117.124C179.197 116.434 179.983 116.113 180.579 116.491C180.89 116.688 180.013 117.413 178.991 117.803C178.565 117.966 178.215 118.166 178.215 118.247C178.215 118.328 178.105 118.395 177.97 118.395C177.602 118.395 177.467 119.017 177.514 120.51C177.576 122.504 177.061 123.594 176.144 123.411C175.772 123.337 175.65 123.377 175.65 123.572C175.65 123.78 175.532 123.806 175.059 123.699C174.41 123.553 173.939 123.172 173.939 122.795C173.939 122.325 173.393 121.466 172.815 121.025C172.024 120.421 171.122 120.122 170.07 120.113C168.533 120.1 168.177 120.246 167.43 121.196C167.051 121.678 166.621 122.216 166.476 122.392C166.33 122.568 166.139 122.917 166.052 123.168C165.964 123.418 165.624 123.769 165.295 123.946C164.326 124.467 163.249 125.766 162.498 127.318C162.112 128.115 161.796 128.892 161.796 129.045C161.796 129.197 161.73 129.362 161.648 129.412C161.567 129.463 161.403 129.854 161.283 130.282C161.163 130.71 160.999 131.102 160.918 131.152C160.547 131.381 160.925 132.369 161.705 133.209C161.802 133.314 162.151 133.725 162.48 134.122C163.284 135.093 165.134 136.439 166.029 136.706C167.189 137.05 168.404 136.693 170.348 135.437C172.529 134.027 173.458 133.618 174.478 133.618C174.797 133.618 174.966 133.529 174.966 133.361C174.966 133.22 174.897 133.104 174.815 133.104C174.731 133.104 174.621 132.931 174.57 132.72C174.518 132.508 174.394 132.027 174.294 131.651C174.194 131.274 174.041 130.492 173.955 129.912C173.869 129.332 173.666 128.578 173.504 128.237C173.216 127.631 173.218 127.607 173.589 127.213C173.862 126.922 173.959 126.624 173.937 126.151C173.857 124.443 174.111 123.937 174.954 124.122C175.242 124.185 175.479 124.342 175.479 124.469C175.479 125.002 178.554 126.947 179.397 126.947C179.583 126.947 179.775 127.013 179.826 127.095C179.876 127.176 180.189 127.287 180.522 127.341C180.854 127.395 181.337 127.581 181.595 127.755C181.852 127.929 182.371 128.169 182.747 128.289C183.93 128.666 184.714 129.044 184.716 129.239C184.719 129.51 187.38 130.667 187.567 130.479C187.613 130.433 188.125 130.62 188.705 130.895C189.285 131.169 189.914 131.395 190.102 131.397C190.376 131.399 190.395 131.43 190.196 131.556C189.996 131.683 190.096 131.872 190.713 132.537C191.643 133.54 192.683 135.605 193 137.081C193.093 137.512 193.168 137.552 193.895 137.552C194.627 137.552 194.747 137.487 195.474 136.696L196.26 135.841L197.5 137.044C198.862 138.367 198.965 138.668 198.468 139.882C198.128 140.713 197.61 141.135 196.924 141.14C196.483 141.143 196.185 140.926 195.18 139.871C194.512 139.171 193.814 138.517 193.628 138.417C193.003 138.083 191.075 138.195 190.338 138.61C188.608 139.582 188.293 142.691 189.768 144.231C190.802 145.31 191.951 145.512 193.608 144.906C194.123 144.718 194.564 144.564 194.589 144.564C194.614 144.564 194.332 144.875 193.964 145.255C192.75 146.506 192.876 147.797 194.306 148.744L195.026 149.22L194.448 149.672C192.8 150.96 192.069 152.103 192.069 153.394C192.069 154.202 192.147 154.267 192.657 153.881C193.33 153.372 194.015 153.585 195.649 154.813C196.428 155.398 196.707 155.511 197.38 155.511C197.822 155.511 198.545 155.351 198.989 155.154C199.517 154.921 199.951 154.836 200.246 154.911L200.697 155.024L200.274 155.354C198.73 156.56 197.45 157.159 195.686 157.502C195.298 157.577 195.009 157.783 194.793 158.138C194.422 158.748 193.95 160.685 193.95 161.598C193.95 162.289 193.601 162.68 192.977 162.689C192.771 162.692 192.561 162.761 192.511 162.842C192.461 162.923 192.052 163.089 191.603 163.21C191.154 163.331 190.713 163.495 190.624 163.575C190.534 163.655 190.303 163.721 190.11 163.721C189.633 163.721 186.212 165.469 185.627 166.011C185.296 166.318 185.119 166.388 185.031 166.245C184.941 166.101 184.77 166.09 184.434 166.209C184.027 166.352 183.954 166.481 183.907 167.143C183.803 168.591 184.171 169.024 185.044 168.478C185.308 168.313 185.631 168.362 186.764 168.735C188.385 169.269 189.022 169.309 189.431 168.9C189.709 168.622 189.738 168.626 189.971 168.977C190.714 170.095 191.223 170.392 192.402 170.392C193.199 170.392 193.299 170.346 193.61 169.836C194.157 168.938 193.984 167.425 193.268 166.848C193.126 166.733 192.65 166.637 192.211 166.634C191.49 166.629 191.323 166.711 190.492 167.47C189.625 168.262 189.563 168.29 189.409 167.96C189.298 167.721 188.785 167.456 187.793 167.123C186.993 166.855 186.304 166.634 186.262 166.632C186.178 166.628 189.53 164.946 192.325 163.59C193.719 162.913 194.165 162.772 194.735 162.828C195.271 162.881 195.497 163.003 195.704 163.354C196.345 164.439 197.794 165.545 198.953 165.834C199.349 165.933 199.423 166.041 199.423 166.526C199.423 167.29 199.694 167.476 201.079 167.667C202.251 167.828 203.015 168.104 203.015 168.368C203.015 168.446 202.847 168.51 202.642 168.51C202.437 168.51 202.033 168.583 201.744 168.671C201.455 168.76 200.526 169 199.68 169.204C198.833 169.408 197.97 169.682 197.762 169.812C197.553 169.943 197.301 170.05 197.202 170.05C196.92 170.05 195.642 170.907 194.934 171.571C194.223 172.237 194.114 172.707 194.634 172.872C194.853 172.941 194.976 173.131 194.976 173.396C194.976 173.788 195.034 173.813 195.932 173.813C196.457 173.813 197.361 173.7 197.941 173.563C198.521 173.426 199.457 173.223 200.022 173.112C200.586 173.002 201.394 172.796 201.818 172.656C202.241 172.515 202.857 172.337 203.186 172.259C207.542 171.231 209.174 171.056 210.832 171.439L211.663 171.631L211.186 172.578C210.923 173.098 210.646 173.609 210.569 173.711C210.493 173.814 210.176 174.514 209.865 175.266C209.554 176.019 209.203 176.866 209.085 177.148C208.845 177.722 207.942 180.116 207.471 181.424C207.301 181.894 206.968 182.895 206.729 183.648C206.252 185.154 206.373 185.086 204.788 184.737C203.987 184.56 203.85 184.578 203.202 184.942C202.291 185.454 201.989 186.078 201.989 187.445C201.989 189.088 202.657 190.081 203.913 190.305C204.572 190.423 204.695 190.654 204.398 191.219C204.271 191.46 203.535 193.562 203.26 194.47C203.207 194.644 203.125 194.645 202.855 194.476C202.337 194.153 202.222 194.457 202.678 194.942L203.085 195.375L202.773 196.182C202.602 196.626 202.399 197.258 202.322 197.587C202.045 198.774 201.42 200.884 201.116 201.658C201.032 201.874 200.962 202.18 200.962 202.339C200.962 202.497 200.812 203.013 200.629 203.485C200.445 203.957 200.166 204.805 200.008 205.37C199.85 205.934 199.615 206.726 199.486 207.129C199.221 207.958 199.184 208.534 199.394 208.534C199.472 208.534 199.62 208.361 199.722 208.149C201.501 204.473 202.817 200.41 203.201 197.416C203.497 195.096 203.569 194.746 203.886 194.04C204.065 193.641 204.212 193.236 204.212 193.14C204.212 193.044 204.283 192.831 204.37 192.668C204.457 192.504 204.62 192.007 204.733 191.563C204.86 191.063 205.053 190.719 205.242 190.659C205.712 190.51 206.333 189.815 206.79 188.926C207.277 187.978 207.367 186.14 206.962 185.384C206.774 185.032 206.763 184.844 206.914 184.546C207.02 184.334 207.383 183.468 207.721 182.621C208.058 181.775 208.402 180.928 208.485 180.74C209.088 179.379 209.343 178.686 209.343 178.409C209.343 178.233 209.42 178.089 209.514 178.089C209.608 178.089 209.685 178.007 209.685 177.908C209.685 177.809 209.83 177.405 210.007 177.01C210.183 176.616 210.614 175.561 210.962 174.668C211.915 172.228 211.976 172.102 212.193 172.102C212.303 172.102 212.515 172.055 212.664 171.998C212.897 171.909 212.935 172.086 212.935 173.271C212.935 174.501 212.975 174.677 213.315 174.915C213.524 175.061 213.911 175.181 214.174 175.181C214.568 175.181 214.671 175.091 214.754 174.679C214.899 173.952 215.271 173.894 215.581 174.549C215.725 174.852 216.054 175.253 216.312 175.44C216.57 175.627 217.112 176.087 217.515 176.464C218.151 177.057 218.291 177.323 218.567 178.462C218.742 179.184 218.929 179.846 218.983 179.932C219.036 180.019 218.93 180.25 218.747 180.446C218.39 180.83 217.724 182.434 217.724 182.911C217.723 183.258 217.064 184.417 216.866 184.417C216.789 184.417 216.624 184.186 216.499 183.904C216.374 183.622 216.175 183.391 216.057 183.391C215.79 183.391 215.78 183.603 216.036 183.858C216.143 183.965 216.219 184.498 216.207 185.043C216.188 185.852 216.109 186.103 215.772 186.415L215.36 186.797L215.115 186.184C214.808 185.414 215.014 184.436 215.907 182.423C216.568 180.932 216.636 180.654 216.337 180.654C216.233 180.654 215.997 180.462 215.812 180.227C215.343 179.631 214.902 179.68 214.648 180.355C214.533 180.661 214.373 181.065 214.292 181.253C214.21 181.441 213.998 182.018 213.819 182.536C213.353 183.886 212.875 184.93 212.723 184.93C212.651 184.93 212.593 185.035 212.593 185.163C212.593 185.475 211.615 186.493 210.925 186.9C210.395 187.213 210.17 187.667 210.546 187.667C210.656 187.667 210.639 187.814 210.503 188.052C210.36 188.303 210.288 189.061 210.297 190.233C210.308 191.753 210.378 192.195 210.752 193.11C211.18 194.156 211.186 194.219 210.93 194.992C210.785 195.432 210.599 195.865 210.517 195.954C210.436 196.043 210.369 196.289 210.369 196.5C210.369 196.711 210.307 196.921 210.232 196.968C210.157 197.015 209.987 197.447 209.856 197.93C209.725 198.412 209.556 198.845 209.48 198.891C209.405 198.938 209.343 199.151 209.343 199.365C209.343 199.579 209.292 199.805 209.229 199.867C209.167 199.93 208.967 200.385 208.784 200.88C207.817 203.497 207.252 205.064 207.165 205.37C207.111 205.558 206.917 205.928 206.733 206.192C206.379 206.7 206.401 206.894 206.796 206.737C207.017 206.65 208.711 203.851 209.124 202.89C209.225 202.655 209.436 202.154 209.594 201.778C209.751 201.402 209.944 200.94 210.023 200.752C210.237 200.242 210.393 199.785 210.545 199.212C211.318 196.316 211.566 195.239 211.566 194.778C211.566 194.332 211.709 194.13 212.379 193.627C212.826 193.292 213.804 192.722 214.552 192.361C215.949 191.688 217.039 190.766 217.039 190.259C217.039 189.966 217.69 189.442 217.957 189.519C218.328 189.626 219.23 189.158 219.409 188.766C219.517 188.529 219.605 187.575 219.605 186.647C219.605 184.682 219.676 184.417 220.201 184.417C220.867 184.417 221.081 185.245 220.722 186.431C220.352 187.652 220.102 189.202 220.215 189.572C220.261 189.726 220.107 190.215 219.871 190.658C219.636 191.101 219.395 191.718 219.337 192.03C219.274 192.363 219.108 192.628 218.932 192.674C218.555 192.772 217.692 194.295 217.759 194.744C217.831 195.229 218.175 195.274 218.3 194.815C218.505 194.068 218.744 194.871 218.747 196.313C218.748 197.071 218.821 197.763 218.909 197.853C219.004 197.95 219.008 198.322 218.918 198.785C218.499 200.949 218.14 204.771 218.356 204.771C218.545 204.771 218.921 203.022 218.921 202.143C218.921 201.79 218.994 201.179 219.084 200.785C219.173 200.39 219.294 199.625 219.352 199.084C219.454 198.147 219.478 198.105 219.874 198.204C220.184 198.282 220.289 198.24 220.289 198.034C220.289 197.882 220.212 197.759 220.118 197.759C220.024 197.759 219.947 197.498 219.947 197.18C219.947 196.587 220.47 196.048 221.047 196.048C221.188 196.048 221.575 195.918 221.908 195.76C222.413 195.519 222.512 195.382 222.512 194.926C222.512 194.625 222.403 194.288 222.268 194.177C221.937 193.902 222.238 193.036 222.707 192.914C222.973 192.844 223.092 192.938 223.226 193.324C223.487 194.072 223.784 193.932 224.106 192.912C224.425 191.9 224.479 190.628 224.221 190.233C224.082 190.021 223.949 190.095 223.46 190.66C223.134 191.037 222.864 191.286 222.861 191.214C222.853 191.045 223.221 190.398 223.496 190.099C223.613 189.971 223.71 189.791 223.71 189.7C223.71 189.608 223.902 189.341 224.137 189.105L224.565 188.678V189.172C224.565 189.988 225.01 190.233 226.494 190.233C227.211 190.233 228.007 190.137 228.263 190.021C228.633 189.852 228.742 189.852 228.799 190.021C228.837 190.137 228.944 190.233 229.035 190.233C229.127 190.233 229.447 190.463 229.748 190.745C230.048 191.027 230.347 191.258 230.411 191.258C230.591 191.259 230.746 191.875 230.811 192.851C230.852 193.465 231.084 194.162 231.563 195.107C232.206 196.377 232.256 196.578 232.259 197.895C232.262 199.514 232.543 200.26 233.213 200.428C233.451 200.488 233.7 200.482 233.766 200.416C233.832 200.35 233.899 199.783 233.916 199.155C233.932 198.528 233.952 197.923 233.959 197.811C233.968 197.664 234.3 197.635 235.15 197.706C235.798 197.761 236.515 197.758 236.743 197.701C237.34 197.551 237.905 197.008 237.905 196.584C237.905 196.273 237.805 196.219 237.229 196.219C236.391 196.219 235.68 195.91 235.688 195.55C235.7 195.032 236.625 193.422 237.113 193.068L237.603 192.713L237.968 193.226C238.755 194.332 239.437 194.851 240.098 194.847C241.129 194.841 241.478 194.41 242.351 192.072C242.762 190.972 242.955 190.862 244.33 190.949C245.103 190.998 245.197 191.052 245.465 191.601C245.625 191.93 245.76 192.402 245.765 192.649C245.775 193.201 246.233 194.338 246.446 194.338C246.531 194.338 246.65 194.588 246.71 194.894C246.771 195.199 246.926 195.834 247.056 196.305C247.186 196.775 247.531 198.122 247.824 199.298C248.117 200.474 248.468 201.81 248.604 202.268C248.74 202.726 248.85 203.187 248.849 203.294C248.848 203.401 249.009 204.027 249.207 204.686C249.405 205.344 249.632 206.152 249.711 206.482C249.789 206.811 249.972 207.504 250.116 208.021C250.26 208.539 250.507 209.539 250.665 210.245C250.823 210.95 251.096 211.983 251.27 212.539C251.445 213.096 251.588 213.69 251.588 213.859C251.588 214.028 251.695 214.42 251.827 214.729C251.958 215.038 252.234 216.022 252.441 216.915C252.648 217.809 252.9 218.715 253.003 218.928C253.14 219.215 253.136 219.37 252.987 219.519C252.331 220.174 253.222 223.244 254.068 223.244C254.276 223.244 254.306 223.382 254.219 223.928C254.129 224.491 254.159 224.612 254.388 224.612C254.736 224.612 254.746 224.899 254.41 225.235C254.269 225.376 254.153 225.785 254.153 226.143C254.153 226.513 254.264 226.886 254.41 227.007C254.551 227.124 254.666 227.311 254.666 227.423C254.666 227.535 254.879 227.784 255.139 227.976C255.462 228.215 255.737 228.701 256.007 229.505C256.224 230.154 256.473 230.818 256.56 230.981C256.647 231.145 256.719 231.391 256.719 231.529C256.719 231.884 257.088 232.651 257.259 232.651C257.583 232.651 257.265 231.236 256.505 229.297C256.2 228.519 256.184 228.3 256.355 227.316C256.461 226.707 256.548 226.085 256.548 225.933C256.548 225.589 255.92 224.921 255.351 224.66C255.115 224.553 255.019 224.459 255.137 224.453C255.512 224.432 255.379 223.652 254.966 223.453C254.754 223.351 254.677 223.262 254.795 223.256C255.13 223.237 255.057 221.4 254.688 220.593C254.517 220.216 254.153 219.671 253.88 219.38C253.432 218.903 253.098 218.108 252.845 216.915C252.795 216.68 252.612 215.987 252.437 215.376C251.94 213.638 251.228 210.912 251.074 210.159C250.948 209.544 250.292 207.019 249.852 205.455C249.759 205.126 249.62 204.587 249.542 204.258C249.157 202.634 248.472 199.977 248.248 199.236C248.11 198.778 247.993 198.278 247.989 198.124C247.985 197.97 247.867 197.536 247.728 197.16C247.226 195.804 247.108 194.899 247.138 192.627C247.166 190.504 247.198 190.289 247.539 189.959C248.103 189.413 248.651 188.757 249.955 187.068C250.609 186.222 251.565 185.086 252.08 184.546C252.847 183.738 253.115 183.562 253.576 183.562C254.21 183.562 254.799 183.335 255.743 182.727L256.392 182.309L256.291 181.182C256.152 179.63 256.306 179.442 257.313 179.932C258.161 180.344 259.733 180.45 260.322 180.135C260.603 179.985 260.652 179.769 260.652 178.702C260.652 177.288 260.601 177.34 262.448 176.884C262.919 176.768 263.73 176.463 264.251 176.205C265.186 175.742 265.204 175.74 265.596 176.057C265.849 176.262 266.263 176.378 266.743 176.378H267.494V175.191C267.494 174.277 267.407 173.853 267.117 173.352C266.909 172.994 266.695 172.662 266.641 172.615C266.586 172.568 266.291 172.133 265.984 171.648C265.567 170.988 265.455 170.655 265.538 170.322C265.714 169.621 265.099 166.788 264.42 165.175C264.002 164.182 263.873 163.152 263.977 161.642C264.038 160.763 264.129 159.402 264.179 158.618C264.261 157.332 264.334 157.093 264.927 156.177C265.597 155.14 265.898 154.088 265.702 153.47C265.474 152.752 263.904 152.09 262.427 152.09C261.609 152.09 260.65 151.757 260.268 151.339C259.778 150.803 259.903 150.668 260.781 150.786C266.736 151.585 269.722 150.494 270.555 147.215C270.89 145.895 270.669 143.963 270.312 145.09C270.25 145.285 270.103 145.407 269.985 145.362C269.867 145.317 269.442 145.426 269.041 145.606C268.493 145.852 267.918 145.933 266.727 145.933C265.336 145.933 265.045 145.878 264.342 145.485C263.496 145.012 263.156 144.602 262.98 143.841C262.865 143.349 262.817 143.379 264.15 143.107C264.333 143.07 264.594 143.131 264.73 143.244C264.885 143.373 265.617 143.449 266.705 143.451C268.578 143.453 268.635 143.437 271.81 142.018C272.256 141.819 272.68 141.654 272.751 141.651C272.98 141.641 273.703 140.968 273.598 140.863C273.543 140.807 273.251 140.848 272.95 140.953C272.397 141.145 271.427 141.214 271.427 141.06C271.427 140.769 272.777 139.784 273.181 139.78C273.639 139.775 273.651 139.751 273.651 138.776C273.651 138.227 273.81 137.168 274.004 136.424C274.232 135.548 274.323 134.809 274.261 134.328L274.166 133.584L274.769 134.114C275.692 134.924 276.72 134.839 277.975 133.849C278.231 133.648 278.44 133.404 278.44 133.308C278.44 133.212 278.526 133.104 278.633 133.069C278.739 133.033 278.858 132.623 278.899 132.156C278.955 131.504 278.89 131.178 278.617 130.742C278.003 129.764 276.583 129.412 275.44 129.955C274.674 130.318 274.346 130.867 274.2 132.028C274.093 132.881 274.048 132.966 273.822 132.748C273.681 132.613 273.104 132.118 272.539 131.649C271.975 131.179 271.475 130.756 271.427 130.708C271.38 130.66 271.054 130.429 270.702 130.195C270.35 129.961 270.061 129.631 270.06 129.461C270.059 129.02 269.638 128.308 269.038 127.731C268.753 127.456 268.52 127.129 268.52 127.004C268.52 126.627 267.727 126.745 267.183 127.203C266.494 127.783 266.047 127.755 265.783 127.116C265.487 126.402 264.817 126.246 264.395 126.794C264.222 127.019 264.079 127.334 264.077 127.493C264.072 127.887 263.42 128.315 262.826 128.315C262.197 128.315 261.088 129.084 260.223 130.118C259.848 130.567 259.313 131.157 259.035 131.43C258.585 131.872 258.554 131.965 258.753 132.284C258.892 132.507 259.027 133.596 259.107 135.15C259.261 138.106 259.479 138.652 260.772 139.321C261.355 139.622 261.946 140.249 261.793 140.402C261.731 140.464 261.122 140.518 260.44 140.522C258.732 140.532 257.087 139.896 255.926 138.777C254.865 137.754 254.378 136.74 254.3 135.391L254.24 134.348L255.813 132.657C256.678 131.727 257.547 130.774 257.745 130.539C257.943 130.304 258.514 129.649 259.015 129.085C260.294 127.644 261.988 125.647 262.786 124.638C263.158 124.167 263.504 123.744 263.554 123.697C263.604 123.65 263.951 123.227 264.324 122.756C264.697 122.286 265.049 121.863 265.106 121.816C265.164 121.769 265.691 121.114 266.279 120.362C266.866 119.609 267.451 118.865 267.579 118.707C267.706 118.55 268.332 117.741 268.971 116.911C269.609 116.081 270.231 115.299 270.353 115.174C270.475 115.049 270.65 114.806 270.742 114.634C270.849 114.434 271.031 114.352 271.243 114.408C271.751 114.541 272.829 114.119 273.317 113.597C273.557 113.34 274.019 112.777 274.344 112.347C274.987 111.493 275.306 111.397 275.999 111.851C276.339 112.074 276.912 112.164 278.285 112.211L280.117 112.274L280.877 111.529C281.294 111.119 281.917 110.36 282.261 109.843C282.604 109.325 282.943 108.825 283.014 108.731C283.085 108.637 283.244 108.364 283.367 108.126C283.489 107.887 283.932 107.234 284.35 106.675C284.768 106.116 285.11 105.609 285.11 105.549C285.11 105.488 285.322 105.395 285.58 105.342C286.137 105.228 286.782 104.786 286.623 104.628C286.561 104.566 286.177 104.63 285.768 104.77C285.045 105.016 285.008 105.01 284.426 104.573C283.841 104.134 283.339 103.696 281.946 102.413C280.82 101.376 279.82 100.948 278.523 100.948C277.77 100.948 277.176 101.055 276.73 101.271C276.076 101.587 276.057 101.587 275.771 101.271C275.412 100.874 274.355 100.841 273.652 101.204C273.056 101.513 273.108 101.58 272.269 99.4141C271.844 98.3169 271.539 97.7644 271.337 97.7241C271.101 97.677 271.065 97.7326 271.172 97.9806C271.248 98.1547 271.5 98.8745 271.733 99.58C271.966 100.286 272.218 101.017 272.292 101.205C272.366 101.393 272.47 101.86 272.523 102.242C272.633 103.039 273.24 105.017 273.46 105.294C273.648 105.532 273.828 106.418 273.932 107.619C274.002 108.437 273.951 108.655 273.537 109.287C273.127 109.913 272.978 110.014 272.458 110.016C271.614 110.02 270.539 110.426 270.26 110.846C270.068 111.135 270.059 111.46 270.213 112.601C270.316 113.372 270.401 114.09 270.401 114.198C270.401 114.306 270.055 114.767 269.632 115.221C269.208 115.676 268.862 116.108 268.862 116.181C268.862 116.254 268.804 116.339 268.734 116.371C268.624 116.419 267.909 117.25 266.253 119.25C266.059 119.485 265.662 119.949 265.371 120.28C265.081 120.611 264.612 121.181 264.33 121.546C264.047 121.912 263.66 122.372 263.469 122.569C263.279 122.766 263.009 123.088 262.871 123.284C262.626 123.632 261.425 125.06 260.738 125.821C260.55 126.029 260.127 126.537 259.797 126.949C259.468 127.362 258.999 127.934 258.756 128.221C258.512 128.508 258.166 128.922 257.986 129.142C257.355 129.913 257.036 130.29 256.295 131.137C255.883 131.608 255.153 132.474 254.673 133.062C254.124 133.732 253.67 134.131 253.453 134.131C253.262 134.131 253.155 134.053 253.214 133.957C253.327 133.775 252.48 131.912 252.186 131.696C251.871 131.464 249.777 131.556 249.236 131.826C248.654 132.116 248.406 132.557 248.675 132.825C248.772 132.922 248.851 133.14 248.851 133.31C248.851 133.534 248.983 133.618 249.338 133.618C249.607 133.618 249.963 133.77 250.134 133.96C250.304 134.148 250.593 134.302 250.776 134.302C251.083 134.302 251.099 134.384 250.985 135.366C250.765 137.261 250.046 137.954 247.927 138.318C247.338 138.419 247.211 138.376 246.853 137.96C246.63 137.7 246.403 137.29 246.35 137.049C246.296 136.808 246.188 136.355 246.109 136.042C245.982 135.545 246.027 135.409 246.467 134.948C246.744 134.659 246.97 134.328 246.97 134.214C246.97 134.1 247.316 133.874 247.74 133.712C248.163 133.55 248.509 133.348 248.509 133.261C248.509 133.051 247.882 133.062 247.476 133.279C247.243 133.404 247.038 133.392 246.762 133.237C245.657 132.615 245.426 131.757 245.858 129.879C246.216 128.327 246.481 126.441 246.368 126.258C246.324 126.186 246.634 125.777 247.057 125.348C247.642 124.754 247.886 124.334 248.082 123.584C248.431 122.244 248.421 122.187 247.741 121.527C247.059 120.865 246.858 120.292 247.128 119.787C247.231 119.595 247.303 119.104 247.287 118.696C247.27 118.236 247.432 117.524 247.713 116.82C248.214 115.569 248.268 115.254 247.966 115.355C247.798 115.41 247.206 116.773 246.854 117.913C246.805 118.071 246.667 118.162 246.546 118.116C246.349 118.04 246.118 118.403 245.196 120.232C245.09 120.443 244.945 120.616 244.875 120.617C244.804 120.618 244.747 120.731 244.747 120.87C244.747 121.008 244.588 121.403 244.395 121.747C244.101 122.27 244.049 122.637 244.076 123.973C244.105 125.429 244.07 125.622 243.691 126.131C243.073 126.959 241.628 129.17 241.268 129.839C241.096 130.159 240.84 130.536 240.701 130.675C240.561 130.815 240.318 131.13 240.16 131.375C239.5 132.399 238.295 133.62 237.58 133.987C237.336 134.113 237.095 134.27 237.044 134.337C236.871 134.568 234.987 135.328 234.589 135.328C234.355 135.328 233.668 135.753 232.931 136.354C231.755 137.313 231.614 137.38 230.79 137.38C230.287 137.38 229.838 137.289 229.743 137.167C229.54 136.904 229.235 135.696 229.093 134.589C229.033 134.12 228.844 133.621 228.657 133.434C228.399 133.176 228.327 132.863 228.327 131.995C228.327 131.385 228.251 130.558 228.158 130.156C228.065 129.755 227.87 128.888 227.723 128.23C227.577 127.571 227.39 126.763 227.309 126.434C227.13 125.708 226.682 123.585 226.462 122.414C226.373 121.944 226.214 121.136 226.107 120.618C226 120.101 225.848 119.254 225.77 118.737C225.516 117.055 225.378 116.513 225.205 116.513C225.097 116.513 225.072 117.003 225.136 117.839C225.235 119.126 225.326 119.677 225.762 121.645C225.877 122.162 226.031 122.893 226.105 123.269C226.179 123.646 226.363 124.4 226.514 124.945C226.665 125.491 226.788 126.163 226.788 126.44C226.788 126.716 226.864 127.27 226.957 127.671C227.14 128.464 227.595 130.8 227.833 132.164C227.915 132.634 227.936 133.267 227.88 133.569C227.792 134.046 227.658 134.165 226.877 134.457C225.769 134.871 225.328 134.765 222.471 133.396C221.412 132.888 220.199 132.377 219.776 132.259C219.353 132.141 218.891 131.975 218.75 131.889C218.609 131.804 218.378 131.681 218.237 131.615C218.096 131.55 216.826 130.725 215.415 129.782C214.004 128.839 212.665 127.967 212.439 127.846C211.827 127.516 209.779 126.044 209.714 125.887C209.682 125.811 209.593 125.75 209.516 125.75C209.378 125.75 207.213 124.386 206.85 124.07C206.749 123.982 206.505 123.859 206.309 123.797C206.114 123.735 205.86 123.571 205.746 123.434C205.489 123.125 205.067 123.106 205.067 123.404C205.067 123.526 205.506 123.891 206.041 124.215C207.211 124.924 212.003 128.122 214.405 129.797C215.355 130.459 216.471 131.185 216.885 131.411C217.299 131.637 217.676 131.869 217.724 131.926C217.771 131.983 218.051 132.154 218.347 132.306C219.733 133.016 220.27 134.109 220.028 135.728C219.818 137.125 219.684 137.174 215.669 137.311C212.325 137.424 212.131 137.413 211.464 137.073C211.079 136.877 210.516 136.434 210.213 136.088L209.662 135.461L210.037 135.061C210.506 134.561 210.399 134.265 209.613 133.892C209.275 133.731 208.542 133.221 207.985 132.757C206.466 131.493 205.895 131.222 204.763 131.228C203.602 131.235 203.205 131.485 203.074 132.294C202.967 132.951 203.243 133.506 204.122 134.401C205.004 135.298 205.51 135.55 206.178 135.425C206.508 135.363 206.777 135.239 206.777 135.149C206.777 135.059 206.854 134.986 206.949 134.986C207.043 134.986 207.12 135.251 207.12 135.574C207.12 135.898 207.043 136.211 206.949 136.269C206.854 136.327 206.777 136.524 206.777 136.706C206.777 137.177 205.546 138.349 204.903 138.491C204.413 138.598 204.373 138.655 204.471 139.102C204.564 139.524 204.503 139.64 204.041 139.921C203.505 140.247 203.497 140.247 202.371 139.838C201.244 139.429 200.85 139.179 200.189 138.449C199.997 138.238 199.751 138.065 199.643 138.065C199.535 138.065 199.391 137.892 199.324 137.681C199.136 137.088 197.346 135.401 196.77 135.274C196.232 135.155 195.032 133.699 194.319 132.302C194.065 131.804 193.778 131.533 193.302 131.343C192.318 130.949 190.502 130.649 190.372 130.858C190.303 130.971 190.088 130.951 189.756 130.801C189.476 130.675 188.84 130.396 188.343 130.18C187.714 129.908 187.468 129.714 187.534 129.543C187.586 129.408 187.537 129.045 187.425 128.736C187.235 128.211 187.183 128.182 186.61 128.279C186.273 128.337 185.805 128.388 185.57 128.392C185.334 128.397 185.101 128.455 185.051 128.521C184.975 128.623 181.795 127.163 181.542 126.91C181.495 126.863 181.505 126.698 181.564 126.544C181.712 126.16 182.565 126.188 183.49 126.607C184.173 126.917 184.295 126.924 185.029 126.698C185.467 126.563 186.386 126.363 187.07 126.256C188.273 126.066 188.819 125.781 188.819 125.345C188.819 125.229 189.171 124.6 189.601 123.946C190.177 123.07 190.36 122.643 190.294 122.329C190.244 122.094 190.078 121.292 189.924 120.548C189.518 118.587 188.74 117.454 187.28 116.698C186.857 116.479 186.395 116.232 186.254 116.149C186.113 116.067 185.824 115.924 185.612 115.833C185.014 115.574 185.143 115.077 186.203 113.554C187.558 111.608 188.018 111.256 188.481 111.814C188.675 112.048 188.727 112.048 188.985 111.814C189.144 111.67 189.402 111.553 189.56 111.553C189.763 111.553 189.845 111.406 189.845 111.044C189.845 110.695 189.975 110.45 190.256 110.266C190.482 110.118 190.866 109.694 191.111 109.325C191.751 108.357 191.749 106.678 191.106 105.662C190.859 105.271 190.409 104.789 190.106 104.591C189.588 104.251 189.55 104.154 189.446 102.926C189.246 100.56 187.952 98.9104 185.741 98.2018C184.757 97.8867 181.747 97.8722 181.02 98.179C180.532 98.3853 180.424 98.3629 179.652 97.8934C179.191 97.613 178.237 97.0909 177.531 96.733C176.826 96.375 176.21 96.0417 176.163 95.9922C176.116 95.9426 175.846 95.7868 175.564 95.6461C175.282 95.5053 175.013 95.3514 174.966 95.3043C174.456 94.7926 173.364 94.1021 173.127 94.1417C172.887 94.1821 172.838 94.087 172.878 93.6633C172.908 93.3435 172.824 93.0479 172.664 92.9155C172.519 92.795 172.4 92.6234 172.4 92.5341C172.4 92.4448 172.304 92.2741 172.186 92.1546C172.069 92.035 171.78 91.6772 171.545 91.3592C171.178 90.8632 170.136 89.645 169.578 89.0589C169.484 88.96 168.791 88.3482 168.039 87.6991C167.286 87.05 166.632 86.4703 166.585 86.4108C166.538 86.3514 165.807 85.7196 164.96 85.0069C164.114 84.2941 162.832 83.1033 162.112 82.3607L160.804 81.0103L160.895 80.2006C160.986 79.3919 160.985 79.3893 159.895 78.32C158.709 77.1567 156.797 75.6341 156.523 75.6341C156.429 75.6341 156.326 75.5757 156.295 75.5046C156.237 75.3732 153.637 73.5816 153.504 73.5816C153.367 73.5816 150.643 71.6479 149.054 70.4231C148.772 70.2055 148.195 69.7654 147.771 69.4449C147.348 69.1245 146.363 68.3654 145.582 67.7582C144.801 67.151 143.454 66.1395 142.589 65.5104C141.724 64.8813 140.923 64.2847 140.809 64.1848C140.696 64.0849 140.529 64.0032 140.439 64.0032C140.348 64.0032 140.249 63.9455 140.218 63.8749C140.186 63.8042 139.468 63.3276 138.621 62.8154C137.775 62.3035 137.044 61.835 136.996 61.7745C136.949 61.7139 136.558 61.4594 136.126 61.2088C135.475 60.831 135.133 60.7534 134.117 60.7534H132.892V61.344C132.892 62.016 133.163 62.7051 133.661 63.299C134.008 63.7119 137.956 66.734 138.165 66.7469C138.228 66.7506 138.546 66.9815 138.871 67.26C139.197 67.5383 139.563 67.7661 139.684 67.7661C139.805 67.7661 139.904 67.8279 139.904 67.9035C139.904 67.979 140.288 68.2291 140.756 68.4593C141.225 68.6896 141.61 68.9292 141.612 68.9918C141.614 69.0828 143.795 70.2645 145.035 70.8466C146.674 71.6158 150.076 73.5973 150.229 73.872C150.454 74.2741 152.36 76.1407 153.163 76.7448C153.974 77.3556 155.667 78.9039 156.437 79.7391C157.158 80.5209 157.782 81.6206 157.506 81.6206C157.179 81.6206 155.468 80.7421 155.468 80.5743C155.468 80.4912 155.388 80.4233 155.29 80.4233C155.192 80.4233 154.95 80.2731 154.753 80.0894C154.196 79.5703 152.341 78.7065 151.867 78.7457C151.633 78.7652 151.212 78.6229 150.932 78.4296C150.652 78.2361 149.884 77.7468 149.225 77.3421C148.567 76.9372 147.528 76.2835 146.916 75.8893C145.05 74.6856 143.169 73.5816 142.986 73.5816C142.89 73.5816 142.812 73.5102 142.812 73.423C142.812 73.3359 142.6 73.1534 142.341 73.0175C140.769 72.192 140.322 71.9474 140.246 71.8711C139.996 71.6206 135.154 69.157 133.874 68.629C133.236 68.3658 132.905 68.134 132.933 67.9705C132.958 67.8318 132.631 67.4781 132.208 67.1844C131.118 66.4286 129.645 65.5425 129.478 65.5425C129.4 65.5425 129.292 65.4271 129.238 65.286C129.184 65.1449 129.057 65.0294 128.956 65.0294C128.798 65.0294 127.838 64.4274 127.59 64.172C127.543 64.1236 127.1 63.7806 126.606 63.4098C125.731 62.7527 125.531 62.4222 125.879 62.2072C126.068 62.0909 126.111 61.1095 125.947 60.6819C125.88 60.5077 125.633 60.4113 125.255 60.4113C124.78 60.4113 124.61 60.5103 124.375 60.9234C123.953 61.6647 123.376 61.607 122.536 60.7393C121.601 59.7735 121.02 59.5001 120.119 59.6019C119.71 59.6479 119.33 59.6134 119.275 59.5248C119.221 59.4363 118.991 59.2937 118.765 59.2076C118.513 59.112 118.354 58.9138 118.354 58.6966C118.354 58.2852 117.933 57.4168 117.516 56.9701C117.019 56.4356 116.03 56.1352 114.768 56.1352C113.619 56.1352 113.565 56.1533 113.565 56.5373ZM263.906 57.2042C263.678 57.8099 263.477 58.3175 263.229 58.9146C263.141 59.1262 262.972 59.6074 262.852 59.9837C262.732 60.36 262.581 60.7448 262.517 60.8389C262.454 60.9329 262.193 61.5487 261.939 62.2072C261.685 62.8657 261.375 63.6354 261.249 63.9176C261.124 64.1999 260.968 64.6432 260.903 64.9027C260.839 65.1623 260.717 65.417 260.634 65.4687C260.55 65.5205 260.481 65.7121 260.481 65.8947C260.481 67.122 261.583 64.9451 263.083 60.7534C263.37 59.9537 263.783 58.7992 264.002 58.1877C264.221 57.5762 264.404 56.9798 264.408 56.8621C264.422 56.445 264.112 56.6565 263.906 57.2042ZM214.474 58.6911C214.474 59.0193 214.608 59.2884 214.859 59.464C215.211 59.7112 215.261 59.7093 215.457 59.4411C215.575 59.2802 215.671 58.9324 215.671 58.6682C215.671 58.233 215.615 58.1877 215.073 58.1877C214.524 58.1877 214.474 58.2298 214.474 58.6911ZM223.813 59.8266C223.63 60.3059 223.7 60.4113 224.204 60.4113C224.657 60.4113 224.907 60.1633 224.907 59.7131C224.907 59.4368 223.924 59.5389 223.813 59.8266ZM237.253 61.3948C237.295 61.7642 237.408 61.8768 237.777 61.9192C238.2 61.9679 238.247 61.9202 238.247 61.4488C238.247 60.9776 238.194 60.9244 237.723 60.9244C237.252 60.9244 237.204 60.9721 237.253 61.3948ZM182.172 67.4817C181.201 67.8426 180.881 68.6477 181.286 69.7138C181.462 70.1752 182.256 70.6738 182.816 70.6738C183.672 70.6738 184.543 69.8145 184.543 68.9713C184.543 68.694 184.184 67.7682 183.966 67.482C183.839 67.3164 182.618 67.3163 182.172 67.4817ZM199.295 68.2281C198.891 68.2811 198.739 68.3887 198.739 68.6225C198.739 69.0999 199.401 69.4765 200.241 69.4765H200.983L200.93 68.8351C200.882 68.2534 200.829 68.192 200.364 68.1746C200.082 68.1641 199.6 68.1882 199.295 68.2281ZM123.069 68.7797C122.63 69.2644 122.79 69.6455 123.727 70.3543C124.404 70.8663 124.75 71.0027 125.522 71.0636C126.048 71.105 126.651 71.1972 126.863 71.2684C127.394 71.4469 127.369 71.0636 126.834 70.8199C126.606 70.7161 126.457 70.5337 126.503 70.4147C126.609 70.139 125.637 69.0236 125.007 68.6981C124.326 68.3456 123.428 68.3832 123.069 68.7797ZM214.046 71.7001C213.987 71.8882 213.866 72.0422 213.778 72.0422C213.514 72.0422 213.599 72.4167 213.918 72.6593C214.083 72.7843 214.429 72.889 214.688 72.8919C215.107 72.8969 215.158 72.836 215.158 72.3329C215.158 72.0225 215.066 71.6761 214.953 71.5633C214.638 71.2482 214.167 71.3192 214.046 71.7001ZM192.508 72.995C192.361 73.143 192.24 73.4124 192.24 73.5937C192.24 73.8706 192.363 73.9236 193.009 73.9236C193.656 73.9236 193.779 73.8706 193.779 73.5937C193.779 73.2123 193.348 72.7263 193.009 72.7263C192.882 72.7263 192.656 72.8473 192.508 72.995ZM261.574 74.4953C261.194 74.822 261.109 75.039 261.109 75.6736C261.109 76.8509 261.554 77.6478 262.289 77.7856C263.136 77.9445 264.349 77.4558 264.675 76.8243C265.091 76.0205 264.998 75.2451 264.414 74.6331C263.96 74.1583 263.789 74.0947 262.969 74.0947C262.241 74.0947 261.939 74.1814 261.574 74.4953ZM245.575 76.5329C244.954 77.0575 244.747 77.5301 244.747 78.4152C244.747 79.0016 244.843 79.2573 245.188 79.581C245.566 79.9365 245.796 79.9957 246.799 79.9957C247.801 79.9957 248.032 79.9365 248.41 79.581C248.991 79.0352 249.015 77.9077 248.467 76.8741L248.082 76.1472L247.056 76.148C246.242 76.1487 245.935 76.2283 245.575 76.5329ZM138.81 77.8109C138.669 77.952 139.044 78.3708 139.312 78.3708C139.434 78.3708 139.559 78.4284 139.591 78.499C139.622 78.5697 140.032 78.8086 140.503 79.0303C140.973 79.252 141.562 79.5407 141.812 79.6717C142.325 79.9411 143.146 80.0025 142.889 79.7523C142.728 79.5961 139.699 78.0124 139.18 77.8133C139.032 77.7565 138.866 77.7555 138.81 77.8109ZM144.052 79.9934C143.84 80.1465 143.667 80.3846 143.667 80.5226C143.667 80.6608 143.84 80.8401 144.052 80.921C144.263 81.0019 144.59 81.2391 144.778 81.4482C145.292 82.0181 146.383 82.5196 146.897 82.4212C147.202 82.3631 147.71 82.5307 148.497 82.9491C149.131 83.2864 149.707 83.5049 149.777 83.435C149.939 83.273 149.337 82.818 148.195 82.2401C147.413 81.8436 147.288 81.708 147.192 81.1481C147.05 80.3157 146.431 79.8675 145.303 79.7815C144.69 79.7348 144.324 79.7967 144.052 79.9934ZM91.331 81.7061C91.331 82.4101 91.3669 82.4758 91.7526 82.4758C92.2246 82.4758 92.5282 82.0451 92.5282 81.3753C92.5282 80.9877 92.4583 80.9364 91.9296 80.9364C91.3342 80.9364 91.331 80.9405 91.331 81.7061ZM180.549 83.6303C180.503 83.7949 180.416 84.1029 180.355 84.3145C180.277 84.5876 180.317 84.6993 180.493 84.6993C180.737 84.6993 180.945 84.2139 180.949 83.6303C180.951 83.4658 180.88 83.331 180.792 83.331C180.704 83.331 180.595 83.4658 180.549 83.6303ZM215.244 84.7363C214.706 85.0467 214.562 85.2486 214.339 86.002C214.093 86.8389 214.071 87.436 214.289 87.436C214.375 87.436 214.909 87.8785 215.475 88.4195C216.935 89.8157 217.043 89.8941 217.851 90.1597C218.448 90.3555 218.706 90.3598 219.293 90.184C220.861 89.714 221.486 88.8928 221.486 87.3014C221.486 86.0952 221.178 85.444 220.348 84.9003C219.842 84.5685 219.554 84.5288 217.683 84.5334C216.418 84.5367 215.45 84.6171 215.244 84.7363ZM137.819 85.9847C137.531 86.6165 137.813 87.0084 138.554 87.0084C139.117 87.0084 139.134 86.9879 139.134 86.3242C139.134 85.6777 139.104 85.6372 138.58 85.5865C138.12 85.5422 137.99 85.6106 137.819 85.9847ZM181.123 86.1197C181.123 86.4479 181.326 87.0038 181.608 87.4453C182.154 88.3001 183.566 89.6625 183.898 89.6543C184.018 89.6512 184.26 89.4507 184.437 89.2085C184.714 88.8288 184.731 88.6786 184.563 88.1176C184.343 87.3849 183.164 86.0759 182.44 85.762C182.177 85.6479 181.773 85.5545 181.542 85.5545C181.182 85.5545 181.123 85.6337 181.123 86.1197ZM258.075 86.0136C257.815 86.6988 257.944 87.1526 258.452 87.3303C259.162 87.579 259.455 87.3695 259.455 86.6136C259.455 86.0701 259.377 85.916 259.02 85.7531C258.392 85.467 258.27 85.5007 258.075 86.0136ZM145.821 88.4142C144.739 88.6909 143.795 91.1733 144.65 91.4925C144.815 91.5539 145.05 91.7437 145.173 91.9146C145.455 92.3063 146.881 92.3405 147.592 91.9727C148.513 91.4966 148.988 90.3008 148.693 89.2007C148.509 88.5139 147.023 88.1068 145.821 88.4142ZM124.415 89.7437C124.231 90.7226 124.368 90.8569 125.551 90.8569H126.601L126.49 90.3865C126.341 89.7494 125.627 89.1464 125.023 89.1464C124.591 89.1464 124.512 89.2244 124.415 89.7437ZM174.623 90.9347C174.623 91.4725 174.676 91.5354 175.211 91.6358C175.98 91.78 176.163 91.6445 176.163 90.9323C176.163 90.3487 176.156 90.3437 175.393 90.3437C174.629 90.3437 174.623 90.3484 174.623 90.9347ZM219.263 91.37C219.263 91.8219 219.322 91.8831 219.758 91.8831C220.238 91.8831 220.46 91.6355 220.46 91.0994C220.46 90.9362 220.264 90.8569 219.861 90.8569C219.31 90.8569 219.263 90.8976 219.263 91.37ZM195.928 92.0752C195.279 92.2274 194.268 92.8697 193.819 93.4155C193.147 94.2322 192.924 95.0339 192.924 96.6369C192.924 98.3679 192.893 98.2873 194.322 100.287C195.359 101.737 196.666 103.172 196.951 103.172C197.072 103.172 197.2 103.259 197.236 103.366C197.273 103.477 197.703 103.566 198.241 103.574C198.966 103.584 199.317 103.495 199.773 103.181C200.568 102.634 200.954 102.141 200.959 101.664C200.961 101.446 201.03 101.138 201.113 100.98C201.333 100.56 201.989 96.6465 201.989 95.753C201.989 94.1169 200.721 92.4635 199.166 92.072C198.288 91.8508 196.88 91.8522 195.928 92.0752ZM157.007 92.4553C157.007 92.8215 157.592 93.2515 158.09 93.2515C158.624 93.2515 158.688 92.9198 158.234 92.5083C157.855 92.1655 157.007 92.1289 157.007 92.4553ZM244.952 94.1409C244.609 94.4833 244.719 94.9609 245.267 95.5084C245.733 95.9746 245.817 96.0025 246.079 95.7778C246.24 95.6399 246.506 95.4793 246.671 95.4208C247.019 95.2973 247.049 94.9814 246.771 94.3713C246.605 94.0066 246.458 93.9356 245.865 93.9356C245.476 93.9356 245.065 94.028 244.952 94.1409ZM255.91 94.2673C255.796 94.4498 255.428 94.7294 255.092 94.8889C254.267 95.2802 253.848 96.2067 253.632 98.1154C253.412 100.052 253.123 100.927 251.755 103.784C250.936 105.494 250.567 106.536 250.564 107.149C250.562 107.572 250.501 107.619 249.963 107.619C249.438 107.619 249.364 107.672 249.364 108.047C249.364 108.408 249.444 108.474 249.877 108.474C250.245 108.474 250.396 108.389 250.411 108.175C250.422 108.01 250.5 108.26 250.585 108.731C250.776 109.792 250.627 111.204 250.206 112.312C250.03 112.777 249.834 113.732 249.77 114.436C249.667 115.573 249.685 115.703 249.931 115.608C250.084 115.55 250.254 115.576 250.31 115.666C250.365 115.756 250.511 115.829 250.634 115.829C250.959 115.829 251.784 113.269 252.096 111.296C252.473 108.909 253.201 105.249 253.526 104.117C253.657 103.659 254.062 103.101 254.771 102.402C255.99 101.201 257.152 99.4839 257.423 98.483C257.527 98.0986 257.576 97.2284 257.533 96.549C257.472 95.5823 257.356 95.1641 256.999 94.6248C256.493 93.8611 256.22 93.7711 255.91 94.2673ZM269.132 95.1757C269.485 96.2945 270.372 96.8235 270.166 95.7928C270.056 95.2472 269.645 94.8062 269.235 94.7963C269.079 94.7926 269.047 94.9089 269.132 95.1757ZM157.691 95.9026C157.691 96.4248 157.745 96.5013 158.113 96.5013C158.643 96.5013 159.01 95.9134 158.708 95.5496C158.596 95.4145 158.322 95.304 158.098 95.304C157.747 95.304 157.691 95.3862 157.691 95.9026ZM234.006 96.0224C233.893 96.1352 233.8 96.3892 233.8 96.5868C233.8 97.075 234.119 97.3565 234.671 97.3565C235.061 97.3565 235.148 97.2658 235.243 96.7549C235.306 96.4241 235.31 96.0778 235.252 95.9852C235.107 95.7497 234.253 95.7752 234.006 96.0224ZM202.257 98.7115C201.88 99.1276 201.733 100.207 201.97 100.82C202.117 101.201 202.258 101.29 202.711 101.289C203.635 101.288 204.524 100.969 204.642 100.597C204.766 100.208 204.623 99.3334 204.344 98.7676C204.188 98.4505 204.013 98.3827 203.354 98.3827C202.783 98.3827 202.47 98.4765 202.257 98.7115ZM215.329 98.9814C215.329 99.5515 215.358 99.58 215.928 99.58C216.498 99.58 216.526 99.5515 216.526 98.9814C216.526 98.4113 216.498 98.3827 215.928 98.3827C215.358 98.3827 215.329 98.4113 215.329 98.9814ZM217.815 99.4268C217.283 99.8942 217.21 100.054 217.21 100.769C217.21 102.005 217.993 102.571 219.313 102.29C220.326 102.074 220.631 101.658 220.631 100.495C220.631 99.7371 220.564 99.5522 220.18 99.2504C219.49 98.7074 218.555 98.7772 217.815 99.4268ZM225.975 99.0931C225.858 99.2104 225.762 99.6031 225.762 99.9657V100.625L226.574 100.573C227.378 100.521 227.386 100.515 227.36 99.9462C227.345 99.6302 227.268 99.3084 227.189 99.2313C226.911 98.9607 226.19 98.8786 225.975 99.0931ZM206.637 101.842C206.35 102.129 206.388 102.604 206.707 102.727C207.067 102.864 207.291 102.711 207.291 102.327C207.291 101.881 206.893 101.586 206.637 101.842ZM223.134 104.553C222.768 104.84 222.683 105.05 222.683 105.665C222.683 106.21 222.752 106.422 222.93 106.422C223.066 106.422 223.278 106.561 223.401 106.732C223.841 107.341 224.028 107.31 224.387 106.567C225.219 104.845 224.412 103.548 223.134 104.553ZM207.667 105.088C207.554 105.201 207.462 105.47 207.462 105.686C207.462 106.022 207.549 106.08 208.06 106.08C208.63 106.08 208.659 106.051 208.659 105.481C208.659 104.97 208.601 104.882 208.265 104.882C208.049 104.882 207.78 104.975 207.667 105.088ZM199.419 107.203C199.113 108.007 199.2 108.332 199.705 108.272C200.275 108.204 200.533 107.804 200.386 107.218C200.234 106.614 199.646 106.604 199.419 107.203ZM214.194 107.534C214.019 107.989 214.271 108.303 214.811 108.303C215.212 108.303 215.329 108.227 215.329 107.967C215.329 107.406 214.381 107.045 214.194 107.534ZM133.747 110.617C133.747 110.923 133.874 111.097 134.186 111.215C134.863 111.473 134.944 111.426 134.944 110.783C134.944 110.213 134.916 110.185 134.345 110.185C133.819 110.185 133.747 110.237 133.747 110.617ZM154.955 110.502C154.955 110.582 155.513 111.14 156.195 111.74C156.877 112.341 157.537 112.93 157.661 113.048C157.958 113.331 158.204 113.322 158.204 113.027C158.204 112.775 155.416 110.356 155.126 110.356C155.032 110.356 154.955 110.421 154.955 110.502ZM224.279 111.254C224.329 111.654 224.418 112.404 224.477 112.921C224.631 114.277 224.721 114.632 224.91 114.632C225.125 114.632 225.127 113.233 224.914 112.428C224.824 112.088 224.705 111.521 224.649 111.168C224.508 110.26 224.165 110.339 224.279 111.254ZM210.601 111.128C210.474 111.459 210.833 111.895 211.234 111.895C211.56 111.895 211.835 111.335 211.653 111.041C211.488 110.774 210.712 110.838 210.601 111.128ZM249.193 111.565C249.193 112.012 249.251 112.082 249.578 112.035C249.854 111.996 249.978 111.847 250.017 111.51C250.064 111.105 250.01 111.04 249.632 111.04C249.256 111.04 249.193 111.115 249.193 111.565ZM191.954 112.227C191.164 112.585 190.829 113.011 190.531 114.033C190.362 114.611 190.38 114.848 190.644 115.555C191.004 116.518 191.488 116.93 192.601 117.221C193.324 117.41 193.461 117.392 194.217 117.013C195.267 116.487 195.717 115.672 195.717 114.299C195.717 113.202 195.333 112.377 194.683 112.081C194.059 111.796 192.747 111.866 191.954 112.227ZM203.357 112.021C202.152 112.484 201.326 114.098 201.567 115.521C201.853 117.218 202.804 118.053 204.449 118.053C205.981 118.053 206.745 117.585 207.464 116.205C207.763 115.631 207.828 115.276 207.768 114.55C207.679 113.479 207.009 112.317 206.332 112.059C205.87 111.884 203.783 111.857 203.357 112.021ZM318.373 113.782C317.983 114.537 318.141 114.803 318.979 114.803H319.678L319.625 114.076C319.579 113.43 319.522 113.343 319.112 113.296C318.743 113.253 318.597 113.349 318.373 113.782ZM239.597 113.71C239.008 113.886 238.683 115.605 239.15 116.072C239.592 116.514 240.62 116.735 241.172 116.506C242.752 115.852 242.342 113.81 240.604 113.682C240.202 113.652 239.748 113.665 239.597 113.71ZM95.8098 114.332C95.8574 114.827 95.9276 114.895 96.444 114.944C97.0729 115.004 97.3103 114.791 97.3145 114.161C97.3168 113.818 97.2328 113.777 96.5367 113.777C95.7592 113.777 95.7563 113.779 95.8098 114.332ZM159.385 114.355C159.493 114.486 160.407 115.154 161.416 115.84C163.022 116.933 164.414 117.92 164.96 118.355C165.478 118.766 166.796 119.592 166.936 119.592C167.333 119.592 167.017 119.21 165.986 118.448C165.375 117.995 164.875 117.567 164.875 117.497C164.875 117.426 164.799 117.368 164.706 117.368C164.613 117.368 163.868 116.874 163.05 116.269C162.233 115.665 161.366 115.07 161.124 114.948C160.882 114.826 160.501 114.59 160.276 114.422C159.771 114.046 159.086 113.995 159.385 114.355ZM244.861 115.088C244.519 115.429 244.983 116.684 245.45 116.684C246.096 116.684 246.628 116.301 246.628 115.836C246.628 115.588 246.536 115.292 246.423 115.179C246.205 114.962 245.054 114.895 244.861 115.088ZM147.734 116.154C146.74 116.618 146.403 117.004 146.403 117.678C146.403 118.155 146.544 118.41 147.095 118.934C147.75 119.558 147.844 119.592 148.888 119.592H149.99L150.249 118.973C150.558 118.233 150.571 117.874 150.317 117.029C150.11 116.336 149.437 115.82 148.771 115.843C148.551 115.85 148.084 115.991 147.734 116.154ZM307.243 116.919C307.051 117.422 307.25 117.795 307.742 117.851C308.192 117.903 308.22 117.871 308.168 117.338C308.126 116.899 308.026 116.757 307.728 116.715C307.502 116.683 307.302 116.767 307.243 116.919ZM249.534 117.069C249.534 117.187 249.418 117.504 249.277 117.774C249.058 118.195 248.509 120.031 248.509 120.344C248.509 120.401 248.58 120.447 248.667 120.447C248.754 120.447 248.913 120.159 249.021 119.806C249.129 119.453 249.278 119.01 249.353 118.822C249.854 117.556 249.98 116.855 249.706 116.855C249.612 116.855 249.535 116.952 249.534 117.069ZM62.173 117.305C61.7623 117.715 61.9015 118.466 62.4013 118.537C63.1874 118.648 63.6238 118.426 63.6238 117.913C63.6238 117.651 63.5315 117.345 63.4186 117.232C63.1277 116.941 62.5 116.977 62.173 117.305ZM220.374 117.22C219.897 117.457 219.434 118.454 219.434 119.245C219.434 120.221 220.005 120.618 221.41 120.618C222.446 120.618 222.497 120.597 222.84 120.042C223.198 119.465 223.335 117.991 223.066 117.625C222.655 117.066 221.142 116.838 220.374 117.22ZM277.338 117.459C277.117 117.698 276.896 118.14 276.845 118.443C276.795 118.746 276.68 119.301 276.588 119.678C276.148 121.495 276.137 121.376 276.759 121.609C277.486 121.884 278.44 123.16 278.44 123.861C278.44 124.53 278.708 124.535 278.842 123.868C278.912 123.517 279.046 123.355 279.265 123.355C279.635 123.355 280.673 122.398 281.116 121.647C281.284 121.364 281.481 121.131 281.555 121.131C281.629 121.131 281.689 121.016 281.689 120.875C281.689 120.734 281.748 120.618 281.819 120.618C281.891 120.618 282.044 120.467 282.159 120.282C282.346 119.983 282.268 119.843 281.466 119.042C280.968 118.545 280.449 117.984 280.311 117.796C279.921 117.264 279.369 117.026 278.52 117.026C277.904 117.026 277.654 117.118 277.338 117.459ZM161.026 117.348C159.584 117.645 158.889 118.517 158.889 120.025C158.889 121.132 159.205 121.909 159.944 122.618C160.618 123.263 161.245 123.526 162.107 123.525C163.22 123.523 163.953 123.218 164.472 122.539C164.92 121.954 164.96 121.782 164.96 120.461C164.96 119.462 164.895 119 164.746 118.951C164.629 118.911 164.533 118.785 164.533 118.669C164.533 118.322 163.607 117.545 162.982 117.365C162.354 117.185 161.84 117.18 161.026 117.348ZM270.243 117.819C269.81 118.37 269.793 118.885 270.188 119.577C270.46 120.057 270.564 120.103 271.364 120.104C272.427 120.105 272.71 119.834 272.71 118.815C272.71 117.911 272.166 117.383 271.226 117.374C270.746 117.37 270.513 117.475 270.243 117.819ZM238.3 118.332C238.156 118.708 238.456 119.152 238.897 119.218C239.455 119.301 239.958 118.948 239.958 118.474C239.958 118.088 239.892 118.053 239.183 118.053C238.623 118.053 238.378 118.13 238.3 118.332ZM211.908 119.335C211.908 119.697 211.988 119.763 212.422 119.763C212.855 119.763 212.935 119.697 212.935 119.335C212.935 118.974 212.855 118.908 212.422 118.908C211.988 118.908 211.908 118.974 211.908 119.335ZM198.53 120.543C197.438 121.603 197.274 122.948 198.09 124.144C198.609 124.904 198.809 124.958 199.864 124.626C201.45 124.127 202.502 122.953 202.502 121.681C202.502 121.221 202.364 120.956 201.891 120.51C201.332 119.984 201.189 119.934 200.218 119.934C199.233 119.934 199.111 119.978 198.53 120.543ZM307.79 120.257C307.639 120.423 307.515 120.648 307.515 120.757C307.515 120.991 308.274 121.211 308.532 121.052C308.821 120.873 308.741 120.376 308.388 120.156C308.124 119.991 308.013 120.009 307.79 120.257ZM255.693 121.912C255.693 122.099 256.088 122.758 256.274 122.882C256.686 123.157 256.89 123.002 256.89 122.414C256.89 121.844 256.861 121.816 256.291 121.816C255.962 121.816 255.693 121.859 255.693 121.912ZM133.661 122.49C133.041 122.744 132.673 123.328 132.59 124.188C132.424 125.915 133.203 126.947 134.671 126.947H135.457L135.458 127.588C135.458 128.215 135.857 129.056 136.446 129.676C137.317 130.593 139.317 130.097 140.003 128.794C140.351 128.132 140.309 126.715 139.918 125.948C139.379 124.892 138.372 124.534 136.996 124.91C136.804 124.962 136.728 124.808 136.694 124.296C136.613 123.068 136.52 122.894 135.797 122.604C135.059 122.309 134.215 122.264 133.661 122.49ZM234.485 123.269C234.485 123.612 234.57 123.697 234.912 123.697C235.254 123.697 235.34 123.612 235.34 123.269C235.34 122.927 235.254 122.842 234.912 122.842C234.57 122.842 234.485 122.927 234.485 123.269ZM152.251 124.524C152.041 124.706 151.839 125.153 151.769 125.588C151.674 126.185 151.474 126.51 150.801 127.166C150.011 127.935 149.959 128.038 150.042 128.657C150.245 130.173 152.067 131.035 153.265 130.182C153.875 129.748 154.205 128.994 154.527 127.298C154.662 126.588 154.822 125.795 154.884 125.536C154.954 125.237 154.925 125.065 154.804 125.065C154.699 125.065 154.613 124.957 154.613 124.826C154.613 124.552 153.759 124.21 153.074 124.21C152.82 124.21 152.45 124.351 152.251 124.524ZM191.385 124.638C191.385 124.999 191.464 125.065 191.898 125.065C192.331 125.065 192.411 124.999 192.411 124.638C192.411 124.277 192.331 124.21 191.898 124.21C191.464 124.21 191.385 124.277 191.385 124.638ZM196.002 126.03C195.797 126.087 195.746 126.43 195.746 127.764L195.746 129.427H196.687H197.627L197.676 127.674L197.725 125.921L196.992 125.94C196.589 125.951 196.144 125.992 196.002 126.03ZM277.756 126.092C277.756 126.186 277.5 126.263 277.188 126.263C276.497 126.263 275.891 126.882 275.753 127.73C275.631 128.484 276.061 129.17 276.656 129.17C277.299 129.17 278.098 128.7 278.098 128.321C278.098 128.141 278.175 127.946 278.269 127.888C278.506 127.741 278.483 126.937 278.226 126.384C278.013 125.926 277.756 125.766 277.756 126.092ZM224.052 126.947C224.052 127.38 224.118 127.46 224.479 127.46C224.84 127.46 224.907 127.38 224.907 126.947C224.907 126.514 224.84 126.434 224.479 126.434C224.118 126.434 224.052 126.514 224.052 126.947ZM100.652 127.177C99.6454 127.558 98.8564 128.667 98.8564 129.703C98.8564 131.384 100.727 132.272 102.434 131.401C103.656 130.778 104.231 128.936 103.535 127.873C103.009 127.072 101.742 126.765 100.652 127.177ZM141.255 127.338C140.739 127.684 140.668 127.825 140.623 128.593C140.585 129.231 140.646 129.518 140.853 129.69C141.239 130.01 142.112 129.982 142.866 129.624C143.467 129.339 143.496 129.287 143.496 128.476C143.496 127.701 143.447 127.596 142.94 127.287C142.226 126.852 141.965 126.86 141.255 127.338ZM237.766 127.413C237.8 127.706 237.979 127.959 238.247 128.093C238.623 128.282 238.694 128.266 238.829 127.969C238.914 127.783 239.049 127.631 239.129 127.631C239.208 127.631 239.274 127.477 239.274 127.289C239.274 126.997 239.159 126.947 238.493 126.947C237.743 126.947 237.714 126.966 237.766 127.413ZM252.101 128.059C252.101 128.42 252.181 128.486 252.614 128.486C253.047 128.486 253.127 128.42 253.127 128.059C253.127 127.698 253.047 127.631 252.614 127.631C252.181 127.631 252.101 127.698 252.101 128.059ZM49.0861 129.416C49.0861 129.681 49.2096 129.871 49.4282 129.94C49.8453 130.073 50.4544 129.899 50.4544 129.648C50.4544 129.371 49.9045 129.011 49.471 129.005C49.1759 129.001 49.0861 129.096 49.0861 129.416ZM253.241 129.456C253.178 129.518 253.127 129.779 253.127 130.036C253.127 130.528 253.385 130.71 254.082 130.71C254.538 130.71 254.638 130.27 254.318 129.672C254.148 129.354 253.477 129.219 253.241 129.456ZM145.463 130.927C144.693 131.494 144.394 131.916 144.187 132.727C143.713 134.587 145.041 135.822 147.528 135.837C148.039 135.84 148.316 135.739 148.565 135.456C149.103 134.848 149.405 134.277 149.637 133.433C149.972 132.212 149.845 131.746 148.998 131.102C148.33 130.593 148.148 130.539 147.117 130.544C146.214 130.549 145.868 130.629 145.463 130.927ZM183.328 132.473C182.895 132.679 182.402 132.963 182.232 133.104C181.382 133.811 181.02 135.981 181.561 137.122C181.927 137.894 182.897 138.715 183.915 139.115C184.181 139.219 184.758 139.488 185.198 139.713L185.997 140.121L186.246 139.734C186.383 139.522 186.987 138.851 187.589 138.245C188.19 137.639 188.751 136.96 188.836 136.737C189.236 135.686 188.844 133.827 188.083 133.166C186.821 132.07 184.794 131.775 183.328 132.473ZM199.252 132.945C199.252 133.673 199.537 134.132 199.985 134.125C200.61 134.116 200.962 133.726 200.962 133.043V132.42H200.107C199.267 132.42 199.252 132.429 199.252 132.945ZM179.131 134.467C178.93 134.551 178.641 134.796 178.49 135.012C178.167 135.472 178.126 136.539 178.42 136.833C178.711 137.124 179.608 137.088 180.066 136.767C180.409 136.526 180.448 136.373 180.404 135.441C180.356 134.456 180.325 134.385 179.925 134.351C179.69 134.332 179.333 134.384 179.131 134.467ZM287.847 136.291V137.083L288.637 136.994C289.441 136.903 289.721 136.682 289.725 136.136C289.728 135.791 289.097 135.499 288.349 135.499C287.866 135.499 287.847 135.529 287.847 136.291ZM82.7122 136.112C82.6551 136.26 82.6084 136.535 82.6084 136.721C82.6084 137 82.706 137.051 83.1642 137.006C83.653 136.959 83.7266 136.886 83.7736 136.397C83.8232 135.883 83.789 135.841 83.3216 135.841C83.0183 135.841 82.7744 135.949 82.7122 136.112ZM180.781 138.578C180.781 139.214 180.82 139.28 181.165 139.231C181.481 139.186 181.55 139.068 181.55 138.578C181.55 138.087 181.481 137.969 181.165 137.924C180.82 137.875 180.781 137.941 180.781 138.578ZM177.928 138.439C177.329 138.729 177.118 139.445 177.42 140.167C177.705 140.851 178.135 141.143 178.854 141.143C179.253 141.143 179.382 141.039 179.549 140.575C179.662 140.263 179.754 139.693 179.754 139.309C179.754 138.68 179.701 138.593 179.216 138.423C178.575 138.2 178.418 138.202 177.928 138.439ZM278.098 139.946C277.666 140.378 277.662 140.63 278.086 140.63C278.473 140.63 278.953 140.197 278.953 139.848C278.953 139.496 278.496 139.548 278.098 139.946ZM290.756 139.998C289.998 140.258 289.922 140.661 290.492 141.408C290.843 141.868 291.063 141.997 291.49 141.993C292.291 141.985 292.662 141.622 292.76 140.75C292.837 140.068 292.807 139.986 292.441 139.888C291.871 139.735 291.443 139.763 290.756 139.998ZM284.01 140.899C283.863 141.047 283.742 141.324 283.742 141.514C283.742 141.832 283.814 141.85 284.64 141.743C285.509 141.63 285.965 141.324 285.965 140.854C285.965 140.52 284.353 140.557 284.01 140.899ZM270.705 141.239C270.565 141.379 267.289 141.851 267.184 141.746C267.135 141.697 267.252 141.657 267.444 141.657C267.637 141.657 267.89 141.541 268.007 141.4C268.162 141.213 268.572 141.143 269.51 141.143C270.22 141.143 270.757 141.186 270.705 141.239ZM174.567 143.481C174.395 143.653 174.43 144.188 174.62 144.305C174.854 144.45 175.479 144.088 175.479 143.807C175.479 143.473 174.812 143.235 174.567 143.481ZM302.466 143.676C301.032 144.169 300.615 145.464 301.547 146.525C302.284 147.365 303.084 147.368 303.992 146.536C304.629 145.953 304.639 145.924 304.522 145.039C304.457 144.543 304.309 144.038 304.194 143.917C303.941 143.651 302.943 143.512 302.466 143.676ZM178.621 144.538C177.837 145.193 177.905 146.79 178.734 147.218C179.462 147.595 179.978 147.529 180.492 146.992C180.859 146.609 180.952 146.349 180.952 145.698C180.952 144.474 180.752 144.221 179.791 144.228C179.275 144.232 178.853 144.343 178.621 144.538ZM170.903 144.933C170.786 145.05 170.69 145.395 170.69 145.701C170.69 146.391 171.2 146.788 172.088 146.788C172.678 146.788 172.735 146.744 172.835 146.212C172.894 145.895 172.917 145.452 172.885 145.228C172.835 144.869 172.726 144.815 171.971 144.771C171.453 144.74 171.031 144.804 170.903 144.933ZM169.888 146.933C169.683 146.994 169.31 147.223 169.059 147.443C168.667 147.786 168.62 147.927 168.718 148.469C168.92 149.588 170.211 150.783 171.588 151.125C171.999 151.227 172.058 151.324 172.058 151.897C172.058 152.257 172.144 152.8 172.25 153.103C172.42 153.591 172.4 153.683 172.079 153.908C171.877 154.049 171.716 154.348 171.716 154.58C171.716 154.943 171.794 154.998 172.315 154.998C172.799 154.998 172.913 154.933 172.913 154.656C172.913 154.244 172.895 154.245 173.593 154.594C174.308 154.951 175.201 154.945 176.108 154.576C177.371 154.064 177.869 152.388 177.211 150.864C176.852 150.031 176.498 149.679 175.703 149.365C175.147 149.145 174.44 149.262 173.475 149.733C173.156 149.889 173.041 149.853 172.753 149.508C172.565 149.282 172.409 148.999 172.406 148.88C172.398 148.59 171.577 147.27 171.237 147.002C170.949 146.774 170.499 146.752 169.888 146.933ZM172.571 148.071C172.571 148.432 172.651 148.498 173.084 148.498C173.517 148.498 173.597 148.432 173.597 148.071C173.597 147.71 173.517 147.643 173.084 147.643C172.651 147.643 172.571 147.71 172.571 148.071ZM106.441 148.259C105.894 148.529 105.704 148.903 105.7 149.72C105.697 150.249 105.954 150.38 106.99 150.38C107.956 150.38 108.365 149.866 108.181 148.884C108.002 147.931 107.484 147.744 106.441 148.259ZM308.377 149.044C307.926 149.528 307.935 149.953 308.402 150.28C308.796 150.556 309.551 150.479 309.779 150.14C310.028 149.768 309.913 149.025 309.579 148.846C309.079 148.579 308.762 148.631 308.377 149.044ZM160.424 150.476C160.026 151.523 160.269 152.261 161.011 152.261C161.736 152.261 161.967 151.993 161.967 151.149C161.967 150.325 161.736 150.038 161.074 150.038C160.712 150.038 160.548 150.148 160.424 150.476ZM122.63 151.799C122.63 152.774 123.249 153.096 123.613 152.311C123.992 151.497 123.898 151.235 123.228 151.235C122.665 151.235 122.63 151.268 122.63 151.799ZM137.438 152.515C136.295 152.922 135.912 153.452 135.83 154.739C135.744 156.093 135.96 156.669 136.742 157.179C138.254 158.162 140.577 157.106 140.87 155.303C141.033 154.299 140.8 153.51 140.147 152.857C139.65 152.361 139.43 152.262 138.829 152.269C138.433 152.273 137.807 152.384 137.438 152.515ZM124.416 152.85C123.975 153.524 124.15 154.031 124.887 154.213C125.688 154.411 126.05 154.145 126.05 153.358C126.05 152.419 124.927 152.07 124.416 152.85ZM153.758 153.174C153.758 153.435 153.906 153.643 154.185 153.769C154.597 153.957 154.613 153.942 154.613 153.369C154.613 152.849 154.559 152.774 154.185 152.774C153.851 152.774 153.758 152.862 153.758 153.174ZM168.595 153.154C168.214 153.63 168.219 153.748 168.626 153.966C169.189 154.267 169.835 153.907 169.835 153.292C169.835 152.841 169.774 152.775 169.364 152.777C169.088 152.778 168.771 152.933 168.595 153.154ZM121.976 155.041C122.012 155.288 122.169 155.445 122.416 155.48C122.729 155.525 122.801 155.453 122.801 155.095C122.801 154.737 122.719 154.656 122.361 154.656C122.004 154.656 121.932 154.727 121.976 155.041ZM184.549 154.987C184.452 155.169 184.372 155.476 184.372 155.671C184.372 155.96 184.48 156.024 184.971 156.024C185.537 156.024 185.57 155.993 185.57 155.444C185.57 155.072 185.472 154.826 185.299 154.76C184.869 154.595 184.738 154.634 184.549 154.987ZM154.784 157.136C154.784 157.625 155.287 157.731 155.633 157.314C155.909 156.982 155.714 156.708 155.201 156.708C154.87 156.708 154.784 156.797 154.784 157.136ZM161.52 158.836C161.333 159.322 161.535 159.701 162.011 159.756C162.445 159.806 162.48 159.764 162.48 159.2C162.48 158.661 162.43 158.59 162.047 158.59C161.809 158.59 161.572 158.701 161.52 158.836ZM88.6372 158.953C88.5197 159.073 88.4234 159.31 88.4234 159.479C88.4234 159.961 89.8798 159.919 90.1416 159.43C90.3782 158.988 90.3611 158.972 89.5287 158.841C89.0799 158.771 88.7789 158.809 88.6372 158.953ZM22.2341 159.359C22.2341 159.702 22.3197 159.787 22.6617 159.787C23.0038 159.787 23.0893 159.702 23.0893 159.359C23.0893 159.017 23.0038 158.932 22.6617 158.932C22.3197 158.932 22.2341 159.017 22.2341 159.359ZM167.272 159.049C166.724 159.284 166.566 159.615 166.618 160.426L166.671 161.241L167.716 161.291C168.758 161.341 168.763 161.339 169.042 160.752C169.352 160.099 169.391 159.649 169.169 159.298C169.01 159.046 167.685 158.873 167.272 159.049ZM115.19 160.809C113.545 161.232 112.881 161.957 112.881 163.332C112.881 165.398 114.141 166.468 116.261 166.203C117.031 166.107 117.302 165.971 117.938 165.362L118.696 164.635V163.346C118.696 162.322 118.627 161.969 118.359 161.628C117.693 160.781 116.499 160.473 115.19 160.809ZM301.358 162.096C301.358 162.438 301.444 162.524 301.786 162.524C302.128 162.524 302.213 162.438 302.213 162.096C302.213 161.754 302.128 161.669 301.786 161.669C301.444 161.669 301.358 161.754 301.358 162.096ZM111.342 165.688C111.342 166.03 111.427 166.116 111.769 166.116C112.111 166.116 112.197 166.03 112.197 165.688C112.197 165.346 112.111 165.26 111.769 165.26C111.427 165.26 111.342 165.346 111.342 165.688ZM171.588 165.723C171.184 166.593 171.29 166.8 172.144 166.8C172.908 166.8 172.913 166.796 172.913 166.207C172.913 165.796 172.812 165.56 172.582 165.437C172.061 165.158 171.818 165.228 171.588 165.723ZM181.95 166.447C181.794 166.722 181.409 167.077 181.095 167.237C180.356 167.613 180.401 167.555 180.284 168.268C180.187 168.855 180.129 168.9 179.07 169.226C178.459 169.414 177.754 169.676 177.505 169.809C177.255 169.941 176.934 170.05 176.792 170.05C176.65 170.05 176.181 170.201 175.749 170.386C175.318 170.57 174.966 170.656 174.966 170.577C174.966 170.258 173.085 169.557 171.919 169.442C170.425 169.295 168.196 169.489 167.893 169.792C167.769 169.917 167.481 170.05 167.254 170.089C166.863 170.157 166.859 170.168 167.184 170.31C167.372 170.393 167.68 170.604 167.868 170.78C168.056 170.955 168.425 171.143 168.689 171.196C169.087 171.277 169.16 171.37 169.117 171.741C169.066 172.176 169.029 172.189 167.702 172.238C166.92 172.267 166.288 172.372 166.218 172.484C166.129 172.628 166.038 172.629 165.867 172.487C165.74 172.382 165.253 172.17 164.785 172.016C164.317 171.862 163.626 171.597 163.25 171.427C162.175 170.939 160.905 170.541 160.791 170.655C160.612 170.835 161.792 171.4 163.677 172.037C164.872 172.44 165.901 172.942 165.901 173.122C165.901 173.212 166.284 173.422 166.753 173.588C167.701 173.925 168.026 174.326 167.349 174.326C167.08 174.326 166.927 174.423 166.927 174.593C166.927 174.79 167.068 174.846 167.464 174.807C167.877 174.766 168.135 174.88 168.583 175.305C169.973 176.621 172.291 176.43 173.852 174.87C174.622 174.101 174.946 173.363 175.081 172.074C175.175 171.174 175.226 171.078 175.699 170.913C175.982 170.815 176.357 170.734 176.533 170.734C176.708 170.734 176.985 170.666 177.149 170.583C177.312 170.5 177.907 170.264 178.472 170.058C179.036 169.852 179.643 169.605 179.82 169.509C180.047 169.385 180.178 169.392 180.263 169.53C180.339 169.652 180.783 169.706 181.455 169.674L182.526 169.622L183.014 168.767C183.664 167.629 183.726 166.211 183.132 166.052C182.447 165.869 182.239 165.938 181.95 166.447ZM122.368 167.334C121.679 167.669 121.452 168.788 121.925 169.515C122.115 169.807 123.402 169.859 123.675 169.586C123.785 169.476 123.913 168.993 123.959 168.513C124.028 167.796 123.985 167.596 123.721 167.396C123.35 167.115 122.864 167.093 122.368 167.334ZM86.9156 168.981C86.9627 169.391 87.0533 169.458 87.623 169.505C88.3482 169.565 88.7655 169.318 88.7655 168.831C88.7655 168.556 88.6307 168.51 87.8136 168.51C86.8758 168.51 86.8623 168.517 86.9156 168.981ZM157.795 170.662C157.738 170.811 157.691 171.198 157.691 171.523C157.691 172.225 157.999 172.4 158.715 172.103C159.277 171.87 159.485 171.431 159.328 170.807C159.24 170.457 159.12 170.392 158.562 170.392C158.115 170.392 157.865 170.48 157.795 170.662ZM199.799 175.386C199.312 175.873 199.787 176.72 200.547 176.72C200.925 176.72 200.962 176.652 200.962 175.951C200.962 175.222 200.937 175.181 200.483 175.181C200.22 175.181 199.912 175.273 199.799 175.386ZM117.195 176.131C116.757 176.438 116.68 177.251 117.059 177.566C117.194 177.677 117.598 177.744 117.957 177.715C118.58 177.664 118.613 177.63 118.664 177.008C118.752 175.94 118.058 175.526 117.195 176.131ZM217.595 179.371C217.478 179.504 217.381 179.771 217.381 179.963C217.381 180.235 217.492 180.312 217.884 180.312C218.486 180.312 218.626 180.133 218.48 179.55C218.36 179.071 217.935 178.985 217.595 179.371ZM152.047 180.398C152.047 180.74 152.133 180.825 152.475 180.825C152.817 180.825 152.902 180.74 152.902 180.398C152.902 180.056 152.817 179.97 152.475 179.97C152.133 179.97 152.047 180.056 152.047 180.398ZM208.488 186.213C208.488 186.555 208.573 186.641 208.915 186.641C209.257 186.641 209.343 186.555 209.343 186.213C209.343 185.871 209.257 185.786 208.915 185.786C208.573 185.786 208.488 185.871 208.488 186.213ZM217.783 186.677C217.837 186.886 217.836 187.494 217.78 188.028C217.661 189.163 217.356 189.404 216.265 189.224L215.586 189.111L215.645 188.209C215.725 186.989 216.229 186.473 217.49 186.322C217.596 186.309 217.728 186.469 217.783 186.677ZM155.753 188.123C155.51 188.366 155.649 189.333 155.968 189.623C156.668 190.256 157.405 189.46 157.027 188.479C156.887 188.118 156.731 188.009 156.356 188.009C156.087 188.009 155.816 188.06 155.753 188.123ZM207.287 189.467C207.168 189.61 207.117 189.774 207.173 189.83C207.348 190.006 207.804 189.744 207.804 189.468C207.804 189.133 207.565 189.133 207.287 189.467ZM221.889 190.532C222.064 191.587 222.004 192.693 221.754 193.022C221.605 193.218 221.478 193.265 221.407 193.151C221.345 193.051 221.011 192.968 220.664 192.967C219.817 192.963 219.524 192.767 219.743 192.351C219.836 192.174 220.051 191.692 220.221 191.28C220.438 190.758 220.675 190.482 221.009 190.366C221.271 190.274 221.486 190.13 221.486 190.045C221.486 189.96 221.553 189.891 221.635 189.891C221.717 189.891 221.831 190.179 221.889 190.532ZM224.909 190.789C224.913 191.33 225.095 191.556 225.635 191.691C226.051 191.796 226.104 191.761 226.104 191.389C226.104 190.919 225.627 190.404 225.193 190.404C225.009 190.404 224.908 190.542 224.909 190.789ZM269.375 190.831C269.375 191.173 269.461 191.259 269.803 191.259C270.145 191.259 270.23 191.173 270.23 190.831C270.23 190.489 270.145 190.404 269.803 190.404C269.461 190.404 269.375 190.489 269.375 190.831ZM225.587 192.724C225.345 193.36 225.379 193.67 225.76 194.295C226.162 194.955 226.679 195.019 227.14 194.466C227.556 193.967 227.554 193.715 227.13 193.604C226.931 193.552 226.788 193.371 226.788 193.17C226.788 192.565 226.592 192.285 226.167 192.285C225.881 192.285 225.702 192.42 225.587 192.724ZM222.999 194.754C222.761 195.277 222.915 195.706 223.341 195.706C223.569 195.706 223.699 195.546 223.773 195.175C223.831 194.883 223.837 194.576 223.784 194.491C223.604 194.2 223.188 194.339 222.999 194.754ZM102.277 195.022C102.277 195.41 102.355 195.535 102.598 195.535C102.775 195.535 103.022 195.411 103.148 195.26C103.342 195.026 103.327 194.949 103.05 194.747C102.531 194.367 102.277 194.457 102.277 195.022ZM62.6736 197.309C61.5769 197.714 60.7322 198.438 60.7218 198.98C60.7187 199.136 60.5225 199.31 60.2817 199.37C60.0366 199.432 59.8959 199.558 59.959 199.66C60.0205 199.759 60.2133 199.804 60.3876 199.758C60.5959 199.703 60.7399 199.787 60.808 200.002C60.9781 200.538 61.7924 200.838 63.0594 200.832C64.2857 200.826 64.618 200.669 65.2112 199.816C65.5125 199.382 65.6124 198.021 65.3708 197.641C65.0343 197.112 63.6625 196.943 62.6736 197.309ZM211.908 197.81C211.908 197.946 211.86 198.298 211.802 198.592C211.704 199.082 211.732 199.127 212.14 199.127C212.924 199.127 212.968 197.771 212.189 197.618C212.033 197.587 211.908 197.672 211.908 197.81ZM162.993 198.699C162.993 199.219 163.048 199.298 163.409 199.298C163.964 199.298 164.176 198.683 163.736 198.35C163.21 197.951 162.993 198.053 162.993 198.699ZM214.046 198.683C213.208 199.053 212.897 199.529 212.883 200.465C212.872 201.154 212.964 201.425 213.393 201.969C213.68 202.334 213.969 202.807 214.035 203.018C214.176 203.472 214.675 203.519 215.391 203.145C215.661 203.005 215.973 202.89 216.085 202.89C216.197 202.89 216.534 202.636 216.835 202.326C217.327 201.818 217.381 201.659 217.381 200.726C217.381 199.862 217.311 199.614 216.96 199.236C216.226 198.443 215.082 198.226 214.046 198.683ZM226.635 199.794C225.76 200.612 226.094 201.82 227.216 201.893C228.292 201.963 228.593 201.868 228.889 201.367C229.339 200.605 229.255 200.36 228.411 199.963C227.986 199.764 227.597 199.532 227.546 199.449C227.391 199.199 227.192 199.274 226.635 199.794ZM54.2171 200.239C54.2171 200.423 54.4051 200.495 54.8829 200.495C55.317 200.495 55.5829 200.406 55.6473 200.239C55.7256 200.034 55.5905 199.982 54.9814 199.982C54.416 199.982 54.2171 200.049 54.2171 200.239ZM56.5546 200.096C56.2919 200.359 56.4807 200.495 57.1063 200.495C57.5404 200.495 57.8064 200.406 57.8707 200.239C57.9475 200.038 57.8265 199.982 57.3187 199.982C56.9611 199.982 56.6172 200.033 56.5546 200.096ZM48.7868 201.006C47.9428 201.521 48.0717 201.746 49.1289 201.603C50.1898 201.46 50.6254 201.26 50.6254 200.917C50.6254 200.542 49.455 200.599 48.7868 201.006ZM204.554 202.737C204.554 203.078 206.532 205.455 206.816 205.455C207.209 205.455 206.075 203.453 205.342 202.851C204.93 202.513 204.554 202.459 204.554 202.737ZM211.658 203.226C211.242 203.685 211.436 204.087 212.074 204.087C212.532 204.087 212.593 204.029 212.593 203.592C212.593 203.299 212.482 203.055 212.322 202.994C211.965 202.857 212.004 202.843 211.658 203.226ZM208.83 205.904C208.83 206.283 208.87 206.32 209.086 206.14C209.227 206.022 209.343 205.821 209.343 205.691C209.343 205.562 209.227 205.455 209.086 205.455C208.924 205.455 208.83 205.619 208.83 205.904ZM71.9527 206.484C71.501 206.656 71.0169 206.892 70.8766 207.008C70.6835 207.168 70.5735 207.172 70.4237 207.022C70.1908 206.789 69.2679 206.754 69.2679 206.978C69.2679 207.063 69.5566 207.2 69.9093 207.284C70.4169 207.403 70.6337 207.586 70.9488 208.157C71.1677 208.554 71.668 209.092 72.0605 209.353C73.4879 210.303 73.7245 210.335 78.9312 210.279C81.5651 210.25 83.9535 210.27 84.2386 210.322C84.6147 210.391 84.8106 210.558 84.9508 210.93L85.1441 211.442H86.5748C87.4956 211.442 88.1255 211.36 88.3425 211.211C88.5281 211.084 88.8916 210.928 89.1503 210.866C89.4091 210.803 89.6207 210.646 89.6207 210.516C89.6207 210.256 89.9222 210.099 90.8179 209.893C92.2797 209.558 93.1089 209.272 93.1723 209.082C93.2625 208.812 93.1798 208.82 91.6731 209.237C89.8175 209.749 89.4496 209.804 89.4496 209.564C89.4496 209.315 86.5929 209.416 85.2884 209.711C84.3791 209.916 83.4526 209.813 80.727 209.204C79.8334 209.004 78.7174 208.777 78.2471 208.698C77.7767 208.619 76.6607 208.397 75.7671 208.203C74.8735 208.009 73.8729 207.807 73.5437 207.755C73.2144 207.702 72.6201 207.577 72.223 207.477L71.5009 207.295L72.0944 206.993C72.4207 206.826 72.8802 206.642 73.1158 206.583C73.3511 206.524 73.5437 206.4 73.5437 206.307C73.5437 206.058 72.8801 206.132 71.9527 206.484ZM106.764 207.596C106.137 208.307 106.113 209.199 106.704 209.879C107.561 210.868 109.124 210.241 109.113 208.912C109.11 208.563 109.014 208.156 108.899 208.006C108.398 207.354 107.183 207.12 106.764 207.596ZM128.115 208.13C127.722 208.629 127.679 208.98 127.928 209.635C128.066 210 128.203 210.073 128.74 210.071C130.021 210.067 130.155 209.963 130.155 208.976C130.155 207.922 129.959 207.679 129.107 207.679C128.622 207.679 128.385 207.787 128.115 208.13ZM204.554 209.646C204.554 210.164 204.632 210.587 204.726 210.587C204.837 210.587 204.842 210.694 204.741 210.886C204.496 211.35 204.041 212.423 204.041 212.537C204.041 212.593 204.156 212.639 204.298 212.639C204.439 212.639 204.554 212.495 204.554 212.318C204.554 212.142 204.669 211.901 204.811 211.784C204.952 211.667 205.067 211.461 205.067 211.327C205.067 211.192 205.298 211.002 205.58 210.903C206.072 210.732 206.093 210.683 206.093 209.715V208.705H205.324H204.554V209.646ZM208.387 209.133C208.127 209.529 208.127 209.592 208.387 209.988C208.608 210.326 208.81 210.416 209.347 210.416H210.027V209.56V208.705H209.347C208.81 208.705 208.608 208.795 208.387 209.133ZM201.747 210.618C201.398 211.116 201.401 211.685 201.755 212.039C201.982 212.266 201.997 212.398 201.84 212.743C201.734 212.977 201.647 213.473 201.647 213.845C201.647 214.322 201.573 214.521 201.398 214.521C201.261 214.521 201.018 214.797 200.858 215.135C200.597 215.684 200.548 215.716 200.394 215.435C200.017 214.744 199.323 214.669 198.769 215.259C198.223 215.839 198.279 216.483 198.897 216.739C199.173 216.853 199.558 216.896 199.753 216.834C199.95 216.771 200.107 216.797 200.107 216.892C200.107 216.987 199.896 217.088 199.637 217.118C199.206 217.167 199.162 217.24 199.114 217.984C199.072 218.641 199.116 218.797 199.339 218.797C199.78 218.797 200.286 218.463 200.428 218.079C200.557 217.73 200.566 217.731 200.988 218.154C202.133 219.298 203.367 219.247 204.169 218.021C204.486 217.537 204.554 217.195 204.554 216.083C204.554 214.402 204.225 213.494 203.617 213.494C203.373 213.494 203.121 213.637 203.015 213.837C202.914 214.025 202.677 214.179 202.488 214.179C202.185 214.179 202.157 214.102 202.252 213.537C202.428 212.497 202.48 212.388 202.885 212.21C203.391 211.988 203.498 211.107 203.066 210.726C202.503 210.232 202.043 210.194 201.747 210.618ZM255.723 211.656C255.763 211.931 255.912 212.056 256.248 212.095C256.653 212.141 256.719 212.088 256.719 211.71C256.719 211.334 256.643 211.271 256.194 211.271C255.747 211.271 255.677 211.328 255.723 211.656ZM86.0702 213.834C85.9534 214.021 85.858 214.367 85.858 214.604C85.858 214.999 85.9195 215.034 86.6276 215.034H87.3973V214.264C87.3973 213.509 87.3865 213.494 86.8399 213.494C86.4689 213.494 86.2113 213.608 86.0702 213.834ZM99.455 213.777C99.2669 213.816 98.8051 213.917 98.4288 214.003C98.0525 214.088 97.2613 214.256 96.6704 214.376C95.6051 214.592 94.4089 215.332 94.4103 215.773C94.4109 216.022 95.7135 216.574 96.2928 216.571C96.9005 216.568 98.8148 215.943 99.4849 215.529C100.07 215.167 100.215 214.796 99.8398 214.62C99.6688 214.541 99.6688 214.501 99.8398 214.421C100.066 214.315 100.144 213.652 99.9253 213.685C99.8547 213.696 99.6431 213.737 99.455 213.777ZM161.458 216.566C161.213 217.024 161.364 217.257 161.903 217.257C162.27 217.257 162.324 217.189 162.278 216.789C162.211 216.209 161.72 216.076 161.458 216.566ZM269.204 216.712C269.204 216.882 269.317 217.17 269.455 217.353C269.701 217.678 269.706 217.677 269.712 217.314C269.719 216.834 269.551 216.402 269.357 216.402C269.273 216.402 269.204 216.541 269.204 216.712ZM96.8895 218.579C96.3822 218.703 96.1199 218.967 96.1199 219.353C96.1199 219.659 96.2004 219.686 96.8451 219.6C97.5176 219.51 98.1723 219.02 98.1723 218.607C98.1723 218.448 97.4806 218.433 96.8895 218.579ZM32.4105 219.812C31.6626 220.112 30.8261 220.337 30.4315 220.342C30.203 220.346 29.8237 220.458 29.5885 220.593C29.0431 220.905 28.7333 220.913 28.7333 220.615C28.7333 220.325 27.6866 220.137 26.8334 220.273C26.114 220.389 25.3642 221.012 25.2108 221.624C25.0117 222.417 25.2031 222.56 26.4644 222.56C27.7957 222.56 28.785 222.149 28.8731 221.56C28.93 221.18 29.1741 221.086 31.2133 220.658C32.5328 220.381 33.3926 220.028 33.2624 219.818C33.1424 219.624 32.8853 219.622 32.4105 219.812ZM49.8558 220.802C48.9568 221.023 48.579 222.374 49.2471 222.978C49.5137 223.22 49.7458 223.256 50.4251 223.162C51.4376 223.023 52.1284 222.402 52.275 221.5C52.367 220.932 52.3421 220.893 51.8196 220.789C51.2095 220.667 50.3831 220.672 49.8558 220.802ZM162.822 221.876C162.822 222.512 162.861 222.578 163.207 222.529C163.522 222.484 163.592 222.366 163.592 221.876C163.592 221.385 163.522 221.267 163.207 221.222C162.861 221.173 162.822 221.239 162.822 221.876ZM188.58 222.089C188.357 222.583 188.002 223.372 187.792 223.843C187.581 224.313 187.227 225.275 187.006 225.981C186.784 226.686 186.526 227.494 186.434 227.777C186.197 228.502 185.735 230.373 185.568 231.283C185.49 231.706 185.348 232.356 185.252 232.727C185.156 233.098 185.116 233.465 185.164 233.543C185.302 233.765 185.57 233.518 185.57 233.168C185.57 232.993 185.68 232.632 185.814 232.366C185.949 232.099 186.286 231.15 186.564 230.257C188.04 225.517 188.555 223.91 188.925 222.898C189.149 222.285 189.332 221.65 189.332 221.487C189.332 220.919 188.982 221.199 188.58 222.089ZM175.511 222.859C175.56 223.446 175.608 223.5 176.077 223.5C176.547 223.5 176.595 223.446 176.643 222.859C176.696 222.226 176.688 222.218 176.077 222.218C175.466 222.218 175.459 222.226 175.511 222.859ZM331.877 223.321C331.43 224.004 331.609 224.348 332.445 224.408L333.17 224.461V223.681C333.17 222.931 333.151 222.902 332.661 222.902C332.309 222.902 332.067 223.031 331.877 223.321ZM84.6608 225.883C84.6608 226.241 84.7423 226.323 85.1003 226.323C85.4581 226.323 85.5296 226.251 85.4851 225.938C85.4499 225.69 85.2929 225.533 85.0456 225.498C84.7322 225.454 84.6608 225.525 84.6608 225.883ZM93.7254 225.729C93.7254 226.113 94.1722 226.221 94.7583 225.978C95.5779 225.638 95.5218 225.467 94.5907 225.467C93.9278 225.467 93.7254 225.529 93.7254 225.729ZM275.019 225.849C275.019 226.3 275.307 226.665 275.663 226.665C275.823 226.665 275.879 226.49 275.842 226.109C275.801 225.683 275.699 225.54 275.404 225.498C275.098 225.455 275.019 225.526 275.019 225.849ZM281.412 226.401C281.359 226.538 281.406 226.923 281.516 227.256C281.682 227.759 281.798 227.862 282.198 227.862C282.736 227.862 282.887 227.615 282.887 226.736C282.887 226.168 282.868 226.152 282.197 226.152C281.751 226.152 281.474 226.24 281.412 226.401ZM89.0506 226.437C88.9879 226.499 88.9365 226.769 88.9365 227.035C88.9365 227.46 89.0003 227.52 89.4496 227.52C89.8546 227.52 89.9627 227.445 89.9627 227.166C89.9627 226.606 89.3614 226.126 89.0506 226.437ZM91.8783 227.554C91.7654 227.667 91.6731 228.018 91.6731 228.333V228.906L92.5694 228.854C93.6216 228.794 93.8291 228.433 93.198 227.761C92.7795 227.316 92.2067 227.226 91.8783 227.554ZM283.913 228.643C283.913 229.258 284.209 229.744 284.585 229.744C285.125 229.744 285.29 228.922 284.841 228.473C284.407 228.039 283.913 228.13 283.913 228.643ZM101.422 230.342C101.422 230.864 101.476 230.941 101.843 230.941C102.268 230.941 102.619 230.52 102.619 230.011C102.619 229.819 102.45 229.744 102.02 229.744C101.45 229.744 101.422 229.772 101.422 230.342ZM307.344 234.447C307.344 235.017 307.373 235.046 307.943 235.046C308.513 235.046 308.541 235.017 308.541 234.447C308.541 233.877 308.513 233.849 307.943 233.849C307.373 233.849 307.344 233.877 307.344 234.447ZM184.206 235.036C183.965 235.615 184.08 235.901 184.553 235.901C184.827 235.901 184.885 235.78 184.885 235.217C184.885 234.388 184.515 234.289 184.206 235.036ZM235.853 236.585C235.853 237.018 235.919 237.098 236.28 237.098C236.642 237.098 236.708 237.018 236.708 236.585C236.708 236.152 236.642 236.072 236.28 236.072C235.919 236.072 235.853 236.152 235.853 236.585ZM90.0804 237.201C89.6005 237.517 89.4425 237.729 89.4818 238.006C89.524 238.303 89.6667 238.392 90.1663 238.434C90.6823 238.477 90.8483 238.408 91.0774 238.059C91.4056 237.558 91.3563 236.861 90.9889 236.809C90.8478 236.788 90.4389 236.965 90.0804 237.201ZM192.069 239.988C192.069 240.441 192.317 240.69 192.767 240.69C192.996 240.69 192.959 239.939 192.719 239.698C192.359 239.338 192.069 239.467 192.069 239.988ZM203.419 241.118C203.244 241.574 203.496 241.888 204.036 241.888C204.421 241.888 204.554 241.808 204.554 241.58C204.554 240.946 203.629 240.57 203.419 241.118ZM87.5255 244.4C87.314 244.455 87.2262 244.65 87.2262 245.064C87.2262 245.605 87.2673 245.65 87.7515 245.65C88.352 245.65 88.7655 245.315 88.7655 244.827C88.7655 244.545 88.2569 244.233 87.9104 244.304C87.8633 244.314 87.6901 244.357 87.5255 244.4ZM178.613 247.575C177.869 248.977 177.189 250.449 177.189 250.657C177.189 250.782 177.117 250.957 177.028 251.047C176.94 251.136 176.45 252.029 175.939 253.031C175.429 254.033 174.923 254.957 174.815 255.083C174.282 255.711 173.426 256.937 173.426 257.074C173.426 257.159 173.272 257.368 173.084 257.538C172.896 257.708 172.742 257.951 172.742 258.078C172.742 258.204 172.665 258.308 172.571 258.308C172.477 258.308 172.4 258.383 172.4 258.475C172.4 258.568 172.143 259.049 171.829 259.544C171.232 260.486 169.612 263.757 169.414 264.422C169.335 264.685 169.37 264.807 169.524 264.806C169.648 264.805 170.056 264.228 170.432 263.523C170.807 262.818 171.173 262.242 171.244 262.242C171.316 262.242 171.374 262.171 171.374 262.084C171.374 261.998 171.836 261.132 172.4 260.161C173.452 258.351 173.708 258.089 173.061 259.486C172.86 259.92 172.639 260.429 172.57 260.617C172.5 260.805 172.286 261.305 172.094 261.729C171.747 262.492 171.11 263.918 170.527 265.235C170.361 265.611 169.972 266.535 169.663 267.287C169.354 268.04 168.835 269.233 168.509 269.939C168.183 270.644 167.856 271.375 167.782 271.563C167.707 271.752 167.523 272.194 167.372 272.547C167.221 272.9 166.992 273.439 166.862 273.744C166.732 274.05 166.416 274.762 166.159 275.326C165.902 275.891 165.384 277.084 165.009 277.978C164.057 280.245 163.878 280.659 163.344 281.826C162.174 284.383 161.796 285.294 161.796 285.56C161.796 285.717 161.719 285.846 161.625 285.846C161.531 285.846 161.454 285.937 161.454 286.048C161.454 286.252 161.224 286.785 160.157 289.053C159.835 289.735 159.573 290.33 159.573 290.374C159.573 290.419 159.342 290.959 159.06 291.575C158.777 292.192 158.55 292.905 158.553 293.162L158.56 293.628L158.835 293.12C158.987 292.84 159.319 292.109 159.574 291.495C159.829 290.881 160.211 289.993 160.424 289.523C160.636 289.053 160.908 288.437 161.029 288.155C161.149 287.872 161.493 287.103 161.793 286.444C162.093 285.786 162.493 284.901 162.682 284.477C163.133 283.467 163.794 282.041 164.768 279.978C165.203 279.055 165.559 278.189 165.559 278.053C165.559 277.918 165.636 277.807 165.73 277.807C165.824 277.807 165.901 277.718 165.901 277.609C165.901 277.424 166.096 276.985 167.523 273.958C167.834 273.3 168.278 272.337 168.51 271.82C168.742 271.303 169.243 270.187 169.624 269.34C170.004 268.493 170.43 267.531 170.57 267.202C170.71 266.873 171.025 266.158 171.27 265.615C171.515 265.071 171.716 264.589 171.716 264.544C171.716 264.499 171.875 264.097 172.07 263.651C172.648 262.329 172.846 261.864 173.251 260.873C173.463 260.356 173.705 259.799 173.788 259.636C173.871 259.472 173.939 259.257 173.939 259.157C173.939 259.057 174.093 258.657 174.281 258.267C174.47 257.878 174.623 257.424 174.623 257.259C174.623 257.094 174.7 256.912 174.795 256.854C174.889 256.796 174.966 256.619 174.966 256.46C174.966 256.302 175.244 255.595 175.585 254.888C175.925 254.182 176.435 253.104 176.716 252.492C176.998 251.881 177.309 251.228 177.407 251.041C178.168 249.587 179.241 247.336 179.241 247.193C179.241 246.831 178.897 247.04 178.613 247.575ZM86.8414 248.171C85.9573 248.241 85.8569 248.386 86.3517 248.881C86.5293 249.059 86.7533 249.345 86.8496 249.517C87.0088 249.801 87.0672 249.807 87.4898 249.581C87.7457 249.444 88.032 249.163 88.1262 248.956C88.3265 248.516 88.1873 248.032 87.8729 248.076C87.7525 248.093 87.2881 248.136 86.8414 248.171ZM185.77 248.195C185.64 248.277 185.566 248.552 185.599 248.833C185.65 249.282 185.722 249.333 186.382 249.38L187.109 249.433V248.739C187.109 248.07 187.089 248.045 186.553 248.048C186.247 248.049 185.895 248.115 185.77 248.195ZM142.812 254.117C142.812 254.628 142.869 254.716 143.205 254.716C144.015 254.716 144.267 254.033 143.573 253.717C142.911 253.415 142.812 253.467 142.812 254.117ZM194.406 258.251C194.189 258.468 194.294 259.482 194.561 259.749C194.882 260.07 195.488 260.106 195.492 259.804C195.493 259.687 195.539 259.424 195.593 259.221C195.751 258.632 194.802 257.855 194.406 258.251ZM154.442 262.852C154.442 263.555 154.479 263.628 154.809 263.579C155.302 263.506 155.543 263.078 155.404 262.525C155.319 262.186 155.183 262.071 154.866 262.071C154.476 262.071 154.442 262.134 154.442 262.852ZM187.793 262.68C187.793 263.265 187.816 263.287 188.349 263.236C188.838 263.189 188.911 263.115 188.958 262.626C189.01 262.093 188.987 262.071 188.402 262.071C187.818 262.071 187.793 262.096 187.793 262.68ZM0 267.811C0 268.396 0.0227472 268.419 0.555853 268.367C1.04466 268.32 1.1182 268.247 1.16524 267.758C1.21672 267.225 1.19397 267.202 0.609384 267.202C0.0249686 267.202 0 267.227 0 267.811ZM163.879 268.344C163.923 268.73 164.031 268.838 164.417 268.882C164.856 268.932 164.895 268.894 164.845 268.455C164.8 268.068 164.693 267.96 164.306 267.916C163.867 267.866 163.828 267.905 163.879 268.344ZM241.497 271.9C241.497 272.636 241.929 272.909 242.298 272.405C242.669 271.898 242.515 271.401 241.967 271.338C241.531 271.288 241.497 271.329 241.497 271.9ZM102.277 273.2C102.277 273.671 102.325 273.719 102.747 273.67C103.117 273.628 103.229 273.515 103.272 273.146C103.32 272.723 103.273 272.675 102.801 272.675C102.33 272.675 102.277 272.728 102.277 273.2ZM178.222 278.01C177.748 278.519 177.784 278.908 178.329 279.157C179.003 279.464 179.754 279.12 179.754 278.504C179.754 277.613 178.86 277.324 178.222 278.01ZM205.698 293.653C205.633 293.718 205.58 294.071 205.58 294.439C205.58 294.983 205.636 295.096 205.88 295.049C206.104 295.006 206.179 294.824 206.179 294.324C206.179 293.695 205.96 293.39 205.698 293.653ZM157.595 294.919C157.291 295.394 157.007 295.977 157.007 296.125C157.007 296.207 156.776 296.75 156.494 297.333C156.212 297.916 155.981 298.533 155.981 298.704C155.981 298.876 155.904 299.016 155.81 299.016C155.716 299.016 155.636 299.112 155.633 299.23C155.63 299.347 155.479 299.751 155.297 300.128C155.115 300.504 154.964 300.87 154.961 300.942C154.957 301.014 154.678 301.668 154.34 302.396C154.001 303.124 153.663 303.873 153.587 304.062C153.512 304.25 153.335 304.673 153.194 305.002C152.149 307.44 151.889 308.134 151.972 308.269C152.111 308.493 152.389 308.458 152.389 308.216C152.389 307.957 153.576 305.145 153.779 304.925C153.861 304.836 153.929 304.664 153.929 304.543C153.929 304.422 154.16 303.847 154.442 303.264C154.724 302.682 154.955 302.127 154.955 302.032C154.955 301.936 155.177 301.392 155.449 300.822C156.122 299.409 157.236 296.835 157.688 295.646C157.925 295.025 157.859 294.508 157.595 294.919ZM128.383 297.443C128.135 297.801 127.932 298.192 127.932 298.312C127.932 298.615 128.296 298.466 128.518 298.072C128.619 297.894 128.798 297.642 128.915 297.514C129.16 297.247 129.201 296.792 128.981 296.792C128.9 296.792 128.631 297.085 128.383 297.443ZM65.1785 306.609C64.8353 307.022 65.0123 307.815 65.4624 307.879C65.7212 307.916 65.8473 307.846 65.8473 307.665C65.8473 307.518 65.9293 307.397 66.0296 307.397C66.13 307.397 66.1876 307.185 66.1578 306.927C66.0954 306.384 65.5202 306.197 65.1785 306.609ZM151.064 309.953C150.805 310.374 150.785 310.818 151.026 310.818C151.259 310.818 151.404 310.418 151.334 309.968C151.278 309.608 151.277 309.608 151.064 309.953ZM167.227 313.893C166.584 314.399 166.523 315.055 167.074 315.541C167.659 316.056 168.008 316.049 168.544 315.514C169.041 315.017 169.098 314.484 168.713 313.935C168.384 313.464 167.794 313.447 167.227 313.893ZM202.101 315.051C201.784 316.205 201.803 317.317 202.139 317.317C202.209 317.317 202.443 317.153 202.659 316.952C202.99 316.643 203.034 316.478 202.94 315.891C202.778 314.881 202.283 314.385 202.101 315.051ZM68.789 315.983C68.6761 316.096 68.5838 316.366 68.5838 316.582C68.5838 317.161 69.391 317.14 69.5373 316.557C69.7114 315.863 69.2571 315.515 68.789 315.983ZM145.89 329.376C145.89 329.718 145.976 329.803 146.318 329.803C146.66 329.803 146.745 329.718 146.745 329.376C146.745 329.034 146.66 328.948 146.318 328.948C145.976 328.948 145.89 329.034 145.89 329.376Z" fill="black" fill-opacity="0.35"/>
</svg>
