<svg width="203" height="44" viewBox="0 0 203 44" fill="none" xmlns="http://www.w3.org/2000/svg">
<g clip-path="url(#clip0_3370_1400)">
<path d="M38.1943 0.40918H6.54532C3.20658 0.40918 0.5 3.05689 0.5 6.32301V37.2836C0.5 40.5498 3.20658 43.1975 6.54532 43.1975H38.1943C41.533 43.1975 44.2396 40.5498 44.2396 37.2836V6.32301C44.2396 3.05689 41.533 0.40918 38.1943 0.40918Z" fill="#F0F8FF"/>
<path d="M17.6623 33.2465L5.96973 22.028V9.33301L18.7716 21.6467V33.2465H17.6623Z" fill="#4E20FF"/>
<path d="M30.4652 33.2465L18.7725 22.028V9.33301L31.5743 21.6467V33.2465H30.4652Z" fill="#4E20FF"/>
<path d="M31.5752 9.33301V22.0278H39.4493V21.2824V17.0067C36.8134 14.4601 34.1996 11.891 31.5752 9.33301Z" fill="#4E20FF"/>
<path d="M194.647 38.5367H194.123C186.883 38.5367 186.106 35.5732 186.106 33.7684V33.5974H191.115C191.173 34.1863 191.425 35.4401 194.298 35.4401H194.414C197.23 35.4401 197.599 34.6613 197.599 33.9584C197.599 33.2175 197.151 32.7046 194.763 32.6475L192.784 32.5906C187.737 32.4386 186.281 30.5578 186.281 28.3732V28.2022C186.281 25.8655 187.678 23.9658 193.833 23.9658H194.57C201.248 23.9658 202.238 26.2835 202.238 28.2592V28.4111H197.307C197.211 27.8223 196.841 26.9673 194.259 26.9673H194.084C191.619 26.9673 191.115 27.4424 191.115 28.1262C191.115 28.7721 191.6 29.285 193.793 29.3421L195.832 29.399C201.21 29.551 202.491 31.2037 202.491 33.5974V33.8253C202.491 36.0101 201.48 38.5367 194.647 38.5367Z" fill="#F0F8FF"/>
<path d="M150.755 24.1553H164.596V27.4038H155.356V29.4554H164.305V32.818H155.356V35.0027H164.712V38.2891H150.755V24.1553Z" fill="#F0F8FF"/>
<path d="M142.847 38.2891L134.5 29.6645V38.2891H129.977V24.1553H134.713L142.829 32.628V24.1553H147.332V38.2891H142.847Z" fill="#F0F8FF"/>
<path d="M117.343 38.3126V27.7501H111.655V24.1787H127.652V27.7501H121.963V38.3126H117.343Z" fill="#F0F8FF"/>
<path d="M97.413 27.5602V30.2388H102.868C104.363 30.2388 104.732 29.6119 104.732 28.89V28.8521C104.732 28.1681 104.363 27.5602 102.868 27.5602H97.413ZM106.421 31.5116C108.342 31.8725 109.682 32.8984 109.682 35.0261C109.682 36.1216 109.682 37.2171 109.682 38.3126H105.003C105.003 37.6098 105.003 36.9068 105.003 36.2039C105.003 34.3802 104.324 33.7152 102.286 33.7152H97.413V38.3126H92.7734V24.1787H103.489C108.867 24.1787 109.565 26.3063 109.565 27.9971V28.1681C109.565 30.0488 108.129 31.1507 106.421 31.5116Z" fill="#F0F8FF"/>
<path d="M171.959 27.5367V30.2154H177.414C178.909 30.2154 179.278 29.5885 179.278 28.8666V28.8285C179.278 28.1447 178.909 27.5367 177.414 27.5367H171.959ZM180.967 31.4882C182.889 31.8491 184.228 32.8749 184.228 35.0027C184.228 36.0981 184.228 37.1936 184.228 38.2891H179.55C179.55 37.5863 179.55 36.8834 179.55 36.1805C179.55 34.3568 178.871 33.6918 176.832 33.6918H171.959V38.2891H167.32V24.1553H178.036C183.412 24.1553 184.112 26.2829 184.112 27.9737V28.1447C184.112 30.0254 182.675 31.1272 180.967 31.4882Z" fill="#F0F8FF"/>
<path d="M83.465 32.7465L81.0384 27.4652L78.6701 32.7465H83.465ZM86.0081 38.3126L84.8821 35.8619H77.253L76.1464 38.3126H71.5068L78.0683 24.1787H84.1834L90.9584 38.3126H86.0081Z" fill="#F0F8FF"/>
<path d="M65.6596 33.9433H60.127V38.3126H55.4873V24.1787H65.6596C70.6292 24.1787 72.0464 26.1353 72.0464 28.909V29.137C72.0464 31.8915 70.5904 33.9433 65.6596 33.9433ZM60.127 27.5791V30.5618H65.2713C66.7272 30.5618 67.232 29.9728 67.232 29.08V29.0229C67.232 28.1871 66.7272 27.5791 65.2713 27.5791H60.127Z" fill="#F0F8FF"/>
<path d="M110.731 19.4113H105.334L100.384 5.27734H105.353L108.343 15.0039L111.274 5.27734H116.399L119.311 15.0229L122.301 5.27734H126.863L122.048 19.4113H116.574L113.643 10.0646L110.731 19.4113Z" fill="#F0F8FF"/>
<path d="M90.0932 5.0498H90.9669C98.1884 5.0498 99.9549 9.02022 99.9549 12.0218V12.5917C99.9549 15.5553 98.2078 19.6396 90.9669 19.6396H90.0932C82.8718 19.6396 81.1052 15.5553 81.1052 12.5917V12.0218C81.1052 9.02022 82.8718 5.0498 90.0932 5.0498ZM95.1212 12.4207V12.1738C95.1212 10.635 94.3835 8.58328 90.5398 8.58328C86.6766 8.58328 85.9389 10.635 85.9389 12.1738V12.4207C85.9389 13.9595 86.7543 16.0682 90.5398 16.0682C94.3835 16.0682 95.1212 13.9595 95.1212 12.4207Z" fill="#F0F8FF"/>
<path d="M64.3187 19.4112H58.922L53.9717 5.27734H58.9413L61.931 15.004L64.8623 5.27734H69.9872L72.8991 15.0229L75.8887 5.27734H80.4507L75.6363 19.4112H70.1619L67.2306 10.0646L64.3187 19.4112Z" fill="#F0F8FF"/>
</g>
<defs>
<clipPath id="clip0_3370_1400">
<rect width="202.353" height="43" fill="white" transform="translate(0.5 0.40918)"/>
</clipPath>
</defs>
</svg>
